<svg width="1666" height="889" viewBox="0 0 1666 889" fill="none" xmlns="http://www.w3.org/2000/svg">
<rect width="1666" height="889" fill="#E1E1E1"/>
<path fill-rule="evenodd" clip-rule="evenodd" d="M789 668.231L742 695.231C734.167 683.898 716.4 658.931 708 649.731C697.5 638.231 629 528.231 615 490.231L616.5 673.231H615.5V715.731H466H459H309.5V673.231H308.5L310 490.231C296 528.231 227.5 638.231 217 649.731C208.6 658.931 190.833 683.898 183 695.231L136 668.231C141.5 648.398 153.1 608.731 155.5 608.731C168.7 568.331 262.333 376.898 307.5 286.231V284.231L310 280.731C315.6 270.331 348 253.731 363.5 246.731C363.333 244.898 363.1 240.631 363.5 238.231C363.743 236.771 365.29 233.059 366.814 229.403C368.42 225.549 370 221.758 370 220.731C370 219.131 368.333 216.065 367.5 214.731C368.5 212.565 370.9 207.331 372.5 203.731C374.1 200.131 375.5 193.565 376 190.731C399.058 171.831 441.197 168.411 462.5 169.076C483.803 168.411 525.942 171.831 549 190.731C549.5 193.565 550.9 200.131 552.5 203.731C554.1 207.331 556.5 212.565 557.5 214.731C556.667 216.065 555 219.131 555 220.731C555 221.758 556.58 225.549 558.186 229.403C559.71 233.059 561.257 236.771 561.5 238.231C561.9 240.631 561.667 244.898 561.5 246.731C577 253.731 609.4 270.331 615 280.731L617.5 284.231V286.231C662.667 376.898 756.3 568.331 769.5 608.731C771.9 608.731 783.5 648.398 789 668.231Z" fill="#7A97CC"/>
<path d="M742 695.231L741.589 695.516L741.85 695.894L742.249 695.665L742 695.231ZM789 668.231L789.249 668.665L789.586 668.472L789.482 668.098L789 668.231ZM708 649.731L707.631 650.069L707.631 650.069L708 649.731ZM615 490.231L615.469 490.059L614.5 490.236L615 490.231ZM616.5 673.231V673.731H617.004L617 673.227L616.5 673.231ZM615.5 673.231V672.731H615V673.231H615.5ZM615.5 715.731V716.231H616V715.731H615.5ZM309.5 715.731H309V716.231H309.5V715.731ZM309.5 673.231H310V672.731H309.5V673.231ZM308.5 673.231L308 673.227L307.996 673.731H308.5V673.231ZM310 490.231L310.5 490.236L309.531 490.059L310 490.231ZM217 649.731L216.631 649.394L216.631 649.394L217 649.731ZM183 695.231L182.751 695.665L183.15 695.894L183.411 695.516L183 695.231ZM136 668.231L135.518 668.098L135.414 668.472L135.751 668.665L136 668.231ZM155.5 608.731V609.231H155.863L155.975 608.887L155.5 608.731ZM307.5 286.231L307.948 286.454L308 286.349V286.231H307.5ZM307.5 284.231L307.093 283.941L307 284.071V284.231H307.5ZM310 280.731L310.407 281.022L310.425 280.996L310.44 280.968L310 280.731ZM363.5 246.731L363.706 247.187L364.03 247.041L363.998 246.686L363.5 246.731ZM363.5 238.231L363.007 238.149L363.007 238.149L363.5 238.231ZM366.814 229.403L367.276 229.595L367.276 229.595L366.814 229.403ZM367.5 214.731L367.046 214.522L366.933 214.767L367.076 214.996L367.5 214.731ZM372.5 203.731L372.957 203.935L372.957 203.935L372.5 203.731ZM376 190.731L375.683 190.345L375.54 190.462L375.508 190.645L376 190.731ZM462.5 169.076L462.484 169.576L462.5 169.576L462.516 169.576L462.5 169.076ZM549 190.731L549.492 190.645L549.46 190.462L549.317 190.345L549 190.731ZM552.5 203.731L552.043 203.935L552.043 203.935L552.5 203.731ZM557.5 214.731L557.924 214.996L558.067 214.767L557.954 214.522L557.5 214.731ZM558.186 229.403L558.647 229.21L558.647 229.21L558.186 229.403ZM561.5 238.231L561.993 238.149L561.993 238.149L561.5 238.231ZM561.5 246.731L561.002 246.686L560.97 247.041L561.294 247.187L561.5 246.731ZM615 280.731L614.56 280.968L614.575 280.996L614.593 281.022L615 280.731ZM617.5 284.231H618V284.071L617.907 283.941L617.5 284.231ZM617.5 286.231H617V286.349L617.052 286.454L617.5 286.231ZM769.5 608.731L769.025 608.887L769.137 609.231H769.5V608.731ZM742 695.231L742.249 695.665L789.249 668.665L789 668.231L788.751 667.798L741.751 694.798L742 695.231ZM708 649.731L707.631 650.069C716.003 659.238 733.749 684.174 741.589 695.516L742 695.231L742.411 694.947C734.584 683.623 716.797 658.625 708.369 649.394L708 649.731ZM615 490.231L614.531 490.404C621.55 509.456 642.201 546.497 662.384 580.176C672.48 597.024 682.467 613.045 690.588 625.574C698.696 638.083 704.971 647.156 707.631 650.069L708 649.731L708.369 649.394C705.779 646.557 699.554 637.567 691.427 625.03C683.314 612.512 673.333 596.501 663.241 579.662C643.049 545.966 622.45 509.007 615.469 490.059L615 490.231ZM616.5 673.231L617 673.227L615.5 490.227L615 490.231L614.5 490.236L616 673.236L616.5 673.231ZM615.5 673.231V673.731H616.5V673.231V672.731H615.5V673.231ZM615.5 715.731H616V673.231H615.5H615V715.731H615.5ZM466 715.731V716.231H615.5V715.731V715.231H466V715.731ZM466 715.731V715.231H459V715.731V716.231H466V715.731ZM459 715.731V715.231H309.5V715.731V716.231H459V715.731ZM309.5 715.731H310V673.231H309.5H309V715.731H309.5ZM309.5 673.231V672.731H308.5V673.231V673.731H309.5V673.231ZM308.5 673.231L309 673.236L310.5 490.236L310 490.231L309.5 490.227L308 673.227L308.5 673.231ZM310 490.231L309.531 490.059C302.55 509.007 281.951 545.966 261.759 579.662C251.667 596.501 241.686 612.512 233.573 625.03C225.446 637.567 219.221 646.557 216.631 649.394L217 649.731L217.369 650.069C220.029 647.156 226.304 638.083 234.412 625.574C242.533 613.045 252.52 597.024 262.616 580.176C282.799 546.497 303.45 509.456 310.469 490.404L310 490.231ZM217 649.731L216.631 649.394C208.203 658.625 190.416 683.623 182.589 694.947L183 695.231L183.411 695.516C191.251 684.174 208.997 659.238 217.369 650.069L217 649.731ZM183 695.231L183.249 694.798L136.249 667.798L136 668.231L135.751 668.665L182.751 695.665L183 695.231ZM136 668.231L136.482 668.365C139.231 658.451 143.504 643.582 147.39 631.194C149.333 624.998 151.176 619.43 152.682 615.415C153.436 613.405 154.1 611.797 154.646 610.697C154.921 610.144 155.156 609.739 155.348 609.479C155.445 609.348 155.518 609.272 155.565 609.233C155.621 609.187 155.594 609.231 155.5 609.231V608.731V608.231C155.256 608.231 155.061 608.353 154.932 608.459C154.794 608.571 154.665 608.72 154.544 608.885C154.3 609.215 154.034 609.682 153.751 610.252C153.182 611.399 152.503 613.045 151.746 615.064C150.23 619.105 148.38 624.694 146.435 630.894C142.546 643.297 138.269 658.178 135.518 668.098L136 668.231ZM155.5 608.731L155.975 608.887C162.562 588.726 189.252 530.805 219.964 466.547C250.666 402.309 285.365 331.786 307.948 286.454L307.5 286.231L307.052 286.008C284.468 331.343 249.767 401.871 219.061 466.116C188.365 530.341 161.638 588.337 155.025 608.576L155.5 608.731ZM307.5 286.231H308V284.231H307.5H307V286.231H307.5ZM307.5 284.231L307.907 284.522L310.407 281.022L310 280.731L309.593 280.441L307.093 283.941L307.5 284.231ZM310 280.731L310.44 280.968C311.786 278.468 314.787 275.535 318.847 272.412C322.892 269.301 327.932 266.044 333.291 262.887C344.009 256.574 355.968 250.682 363.706 247.187L363.5 246.731L363.294 246.276C355.532 249.781 343.541 255.689 332.784 262.026C327.406 265.194 322.327 268.474 318.237 271.619C314.163 274.753 311.014 277.794 309.56 280.494L310 280.731ZM363.5 246.731L363.998 246.686C363.831 244.85 363.605 240.643 363.993 238.314L363.5 238.231L363.007 238.149C362.595 240.62 362.836 244.946 363.002 246.777L363.5 246.731ZM363.5 238.231L363.993 238.314C364.105 237.643 364.531 236.399 365.143 234.821C365.748 233.26 366.513 231.425 367.276 229.595L366.814 229.403L366.353 229.21C365.591 231.037 364.821 232.885 364.211 234.46C363.607 236.017 363.138 237.359 363.007 238.149L363.5 238.231ZM366.814 229.403L367.276 229.595C368.078 227.67 368.877 225.752 369.476 224.185C369.776 223.403 370.028 222.7 370.206 222.125C370.377 221.571 370.5 221.074 370.5 220.731H370H369.5C369.5 220.903 369.425 221.264 369.25 221.83C369.082 222.374 368.839 223.053 368.542 223.828C367.95 225.378 367.156 227.281 366.353 229.21L366.814 229.403ZM370 220.731H370.5C370.5 220.256 370.378 219.708 370.203 219.155C370.026 218.596 369.783 218.001 369.517 217.423C368.986 216.267 368.35 215.148 367.924 214.466L367.5 214.731L367.076 214.996C367.483 215.648 368.098 216.73 368.608 217.84C368.863 218.395 369.089 218.95 369.25 219.458C369.413 219.972 369.5 220.407 369.5 220.731H370ZM367.5 214.731L367.954 214.941C368.954 212.774 371.355 207.538 372.957 203.935L372.5 203.731L372.043 203.528C370.445 207.125 368.046 212.356 367.046 214.522L367.5 214.731ZM372.5 203.731L372.957 203.935C374.584 200.273 375.993 193.651 376.492 190.818L376 190.731L375.508 190.645C375.007 193.479 373.616 199.99 372.043 203.528L372.5 203.731ZM376 190.731L376.317 191.118C387.752 181.745 403.957 176.186 420.004 173.057C436.041 169.931 451.864 169.244 462.484 169.576L462.5 169.076L462.516 168.576C451.833 168.243 435.935 168.933 419.812 172.076C403.7 175.217 387.306 180.818 375.683 190.345L376 190.731ZM549 190.731L549.317 190.345C537.694 180.818 521.3 175.217 505.188 172.076C489.065 168.933 473.167 168.243 462.484 168.576L462.5 169.076L462.516 169.576C473.136 169.244 488.959 169.931 504.996 173.057C521.043 176.186 537.248 181.745 548.683 191.118L549 190.731ZM552.5 203.731L552.957 203.528C551.384 199.99 549.993 193.479 549.492 190.645L549 190.731L548.508 190.818C549.007 193.651 550.416 200.273 552.043 203.935L552.5 203.731ZM557.5 214.731L557.954 214.522C556.954 212.356 554.555 207.125 552.957 203.528L552.5 203.731L552.043 203.935C553.645 207.538 556.046 212.774 557.046 214.941L557.5 214.731ZM555 220.731H555.5C555.5 220.407 555.587 219.972 555.75 219.458C555.911 218.95 556.137 218.395 556.392 217.84C556.902 216.73 557.517 215.648 557.924 214.996L557.5 214.731L557.076 214.466C556.65 215.148 556.014 216.267 555.483 217.423C555.217 218.001 554.974 218.596 554.797 219.155C554.622 219.708 554.5 220.256 554.5 220.731H555ZM558.186 229.403L558.647 229.21C557.844 227.281 557.05 225.378 556.458 223.828C556.161 223.053 555.918 222.374 555.75 221.83C555.575 221.264 555.5 220.903 555.5 220.731H555H554.5C554.5 221.074 554.623 221.571 554.794 222.125C554.972 222.7 555.224 223.403 555.524 224.185C556.123 225.752 556.922 227.67 557.724 229.595L558.186 229.403ZM561.5 238.231L561.993 238.149C561.862 237.359 561.393 236.017 560.789 234.46C560.179 232.885 559.409 231.037 558.647 229.21L558.186 229.403L557.724 229.595C558.487 231.425 559.252 233.26 559.857 234.821C560.469 236.399 560.895 237.643 561.007 238.314L561.5 238.231ZM561.5 246.731L561.998 246.777C562.164 244.946 562.405 240.62 561.993 238.149L561.5 238.231L561.007 238.314C561.395 240.643 561.169 244.85 561.002 246.686L561.5 246.731ZM615 280.731L615.44 280.494C613.986 277.794 610.837 274.753 606.763 271.619C602.673 268.474 597.594 265.194 592.216 262.026C581.459 255.689 569.468 249.781 561.706 246.276L561.5 246.731L561.294 247.187C569.032 250.682 580.991 256.574 591.709 262.887C597.068 266.044 602.108 269.301 606.153 272.412C610.213 275.535 613.214 278.468 614.56 280.968L615 280.731ZM617.5 284.231L617.907 283.941L615.407 280.441L615 280.731L614.593 281.022L617.093 284.522L617.5 284.231ZM617.5 286.231H618V284.231H617.5H617V286.231H617.5ZM769.5 608.731L769.975 608.576C763.362 588.337 736.635 530.341 705.939 466.116C675.233 401.871 640.532 331.343 617.948 286.008L617.5 286.231L617.052 286.454C639.635 331.786 674.334 402.309 705.036 466.547C735.748 530.805 762.438 588.726 769.025 608.887L769.5 608.731ZM789 668.231L789.482 668.098C786.731 658.178 782.454 643.297 778.565 630.894C776.62 624.694 774.77 619.105 773.254 615.064C772.497 613.045 771.818 611.399 771.249 610.252C770.966 609.682 770.7 609.215 770.456 608.885C770.335 608.72 770.206 608.571 770.068 608.459C769.939 608.353 769.744 608.231 769.5 608.231V608.731V609.231C769.406 609.231 769.379 609.187 769.435 609.233C769.482 609.272 769.555 609.348 769.652 609.479C769.844 609.739 770.079 610.144 770.354 610.697C770.9 611.797 771.564 613.405 772.318 615.415C773.824 619.43 775.667 624.998 777.61 631.194C781.496 643.582 785.769 658.451 788.518 668.365L789 668.231Z" fill="#345AA0"/>
<path d="M308.5 285C312.667 300.667 320.2 341.6 317 380C313.8 418.4 312 440.333 311.5 446.5V488" stroke="#345AA0"/>
<path d="M364 246C381.833 249.833 418.3 257.9 421.5 259.5C424.7 261.1 436.833 265.167 442.5 267" stroke="#345AA0"/>
<path d="M370.5 218C382.333 223.167 408.2 235 417 241C425.8 247 438.667 256.5 444 260.5" stroke="#345AA0"/>
<path d="M373 203.5C378.333 209 392.2 221.7 405 228.5C421 237 441 248 444 252.5" stroke="#345AA0"/>
<path d="M444 334V257.5V251C446 246.6 448.5 249.167 449.5 251V334H444Z" stroke="#345AA0"/>
<path d="M444 311.5H449" stroke="#345AA0"/>
<path d="M449.5 260C451.333 262.833 455.1 268.6 455.5 269" stroke="#345AA0"/>
<path d="M463.5 268C460.833 268.333 454.3 268.8 449.5 268" stroke="#345AA0"/>
<path d="M377.5 188.5C377.167 190.167 379.4 195.5 391 203.5C405.5 213.5 435.5 233.5 445 243.5C452.6 251.5 460.167 263.167 463 268V212.5" stroke="#345AA0"/>
<path d="M148.5 625.5L209.5 656.5" stroke="#345AA0"/>
<path d="M463.5 181.5C442 182.833 396.3 188.2 385.5 199" stroke="#345AA0"/>
<path d="M464.5 169V178.5" stroke="#345AA0"/>
<path d="M308.5 285C312.667 300.667 320.2 341.6 317 380C313.8 418.4 312 440.333 311.5 446.5V488" stroke="#345AA0"/>
<path d="M364 246C381.833 249.833 418.3 257.9 421.5 259.5C424.7 261.1 436.833 265.167 442.5 267" stroke="#345AA0"/>
<path d="M370.5 218C382.333 223.167 408.2 235 417 241C425.8 247 438.667 256.5 444 260.5" stroke="#345AA0"/>
<path d="M373 203.5C378.333 209 392.2 221.7 405 228.5C421 237 441 248 444 252.5" stroke="#345AA0"/>
<path d="M444 334V257.5V251C446 246.6 448.5 249.167 449.5 251V334H444Z" stroke="#345AA0"/>
<path d="M444 311.5H449" stroke="#345AA0"/>
<path d="M449.5 260C451.333 262.833 455.1 268.6 455.5 269" stroke="#345AA0"/>
<path d="M463.5 268C460.833 268.333 454.3 268.8 449.5 268" stroke="#345AA0"/>
<path d="M377.5 188.5C377.167 190.167 379.4 195.5 391 203.5C405.5 213.5 435.5 233.5 445 243.5C452.6 251.5 460.167 263.167 463 268V212.5" stroke="#345AA0"/>
<path d="M148.5 625.5L209.5 656.5" stroke="#345AA0"/>
<path d="M463.5 181.5C442 182.833 396.3 188.2 385.5 199" stroke="#345AA0"/>
<path d="M464.5 169V178.5" stroke="#345AA0"/>
<path d="M618 285C613.833 300.667 606.3 341.6 609.5 380C612.7 418.4 614.5 440.333 615 446.5V488" stroke="#345AA0"/>
<path d="M562.5 246C544.667 249.833 508.2 257.9 505 259.5C501.8 261.1 489.667 265.167 484 267" stroke="#345AA0"/>
<path d="M556 218C544.167 223.167 518.3 235 509.5 241C500.7 247 487.833 256.5 482.5 260.5" stroke="#345AA0"/>
<path d="M553.5 203.5C548.167 209 534.3 221.7 521.5 228.5C505.5 237 485.5 248 482.5 252.5" stroke="#345AA0"/>
<path d="M482.5 334V257.5V251C480.5 246.6 478 249.167 477 251V334H482.5Z" stroke="#345AA0"/>
<path d="M482.5 311.5H477.5" stroke="#345AA0"/>
<path d="M477 260C475.167 262.833 471.4 268.6 471 269" stroke="#345AA0"/>
<path d="M463 268C465.667 268.333 472.2 268.8 477 268" stroke="#345AA0"/>
<path d="M549 188.5C549.333 190.167 547.1 195.5 535.5 203.5C521 213.5 491 233.5 481.5 243.5C473.9 251.5 466.333 263.167 463.5 268V212.5" stroke="#345AA0"/>
<path d="M778 625.5L717 656.5" stroke="#345AA0"/>
<path d="M463 181.5C484.5 182.833 530.2 188.2 541 199" stroke="#345AA0"/>
<path d="M462 169V178.5" stroke="#345AA0"/>
<path d="M618 285C613.833 300.667 606.3 341.6 609.5 380C612.7 418.4 614.5 440.333 615 446.5V488" stroke="#345AA0"/>
<path d="M562.5 246C544.667 249.833 508.2 257.9 505 259.5C501.8 261.1 489.667 265.167 484 267" stroke="#345AA0"/>
<path d="M556 218C544.167 223.167 518.3 235 509.5 241C500.7 247 487.833 256.5 482.5 260.5" stroke="#345AA0"/>
<path d="M553.5 203.5C548.167 209 534.3 221.7 521.5 228.5C505.5 237 485.5 248 482.5 252.5" stroke="#345AA0"/>
<path d="M482.5 334V257.5V251C480.5 246.6 478 249.167 477 251V334H482.5Z" stroke="#345AA0"/>
<path d="M482.5 311.5H477.5" stroke="#345AA0"/>
<path d="M477 260C475.167 262.833 471.4 268.6 471 269" stroke="#345AA0"/>
<path d="M463 268C465.667 268.333 472.2 268.8 477 268" stroke="#345AA0"/>
<path d="M549 188.5C549.333 190.167 547.1 195.5 535.5 203.5C521 213.5 491 233.5 481.5 243.5C473.9 251.5 466.333 263.167 463.5 268V212.5" stroke="#345AA0"/>
<path d="M778 625.5L717 656.5" stroke="#345AA0"/>
<path d="M463 181.5C484.5 182.833 530.2 188.2 541 199" stroke="#345AA0"/>
<path d="M462 169V178.5" stroke="#345AA0"/>
<path fill-rule="evenodd" clip-rule="evenodd" d="M1531 673.579L1484 700.381C1476.17 689.131 1458.4 664.347 1450 655.214C1439.5 643.798 1371 534.603 1357 496.881L1358.5 678.542H1357.5V720.731H1208H1201H1051.5V678.542H1050.5L1052 496.881C1038 534.603 969.5 643.798 959 655.214C950.6 664.347 932.833 689.131 925 700.381L878 673.579C883.5 653.891 895.1 614.514 897.5 614.514C910.7 574.41 1004.33 384.377 1049.5 294.374V292.388L1052 288.914C1057.6 278.59 1090 262.112 1105.5 255.163C1105.33 253.343 1105.1 249.107 1105.5 246.725C1105.74 245.275 1107.29 241.59 1108.81 237.961C1110.42 234.135 1112 230.372 1112 229.353C1112 227.765 1110.33 224.72 1109.5 223.397C1110.5 221.246 1112.9 216.051 1114.5 212.477C1116.1 208.904 1117.5 202.385 1118 199.572C1141.06 180.811 1183.2 177.415 1204.5 178.075C1225.8 177.415 1267.94 180.811 1291 199.572C1291.5 202.385 1292.9 208.904 1294.5 212.477C1296.1 216.051 1298.5 221.246 1299.5 223.397C1298.67 224.72 1297 227.765 1297 229.353C1297 230.372 1298.58 234.135 1300.19 237.961C1301.71 241.59 1303.26 245.275 1303.5 246.725C1303.9 249.107 1303.67 253.343 1303.5 255.163C1319 262.112 1351.4 278.59 1357 288.914L1359.5 292.388V294.374C1404.67 384.377 1498.3 574.41 1511.5 614.514C1513.9 614.514 1525.5 653.891 1531 673.579Z" fill="#7A97CC"/>
<path d="M1484 700.381L1483.59 700.667L1483.85 701.042L1484.25 700.816L1484 700.381ZM1531 673.579L1531.25 674.013L1531.59 673.82L1531.48 673.444L1531 673.579ZM1450 655.214L1449.63 655.553L1449.63 655.553L1450 655.214ZM1357 496.881L1357.47 496.707L1356.5 496.885L1357 496.881ZM1358.5 678.542V679.042H1359L1359 678.538L1358.5 678.542ZM1357.5 678.542V678.042H1357V678.542H1357.5ZM1357.5 720.731V721.231H1358V720.731H1357.5ZM1051.5 720.731H1051V721.231H1051.5V720.731ZM1051.5 678.542H1052V678.042H1051.5V678.542ZM1050.5 678.542L1050 678.538L1050 679.042H1050.5V678.542ZM1052 496.881L1052.5 496.885L1051.53 496.707L1052 496.881ZM959 655.214L959.368 655.553L959.368 655.553L959 655.214ZM925 700.381L924.752 700.816L925.149 701.042L925.41 700.667L925 700.381ZM878 673.579L877.518 673.444L877.413 673.82L877.752 674.013L878 673.579ZM897.5 614.514V615.014H897.862L897.975 614.671L897.5 614.514ZM1049.5 294.374L1049.95 294.598L1050 294.492V294.374H1049.5ZM1049.5 292.388L1049.09 292.096L1049 292.227V292.388H1049.5ZM1052 288.914L1052.41 289.206L1052.42 289.18L1052.44 289.152L1052 288.914ZM1105.5 255.163L1105.7 255.619L1106.03 255.473L1106 255.117L1105.5 255.163ZM1105.5 246.725L1105.01 246.642L1105.01 246.642L1105.5 246.725ZM1108.81 237.961L1109.28 238.154L1109.28 238.154L1108.81 237.961ZM1109.5 223.397L1109.05 223.186L1108.93 223.433L1109.08 223.663L1109.5 223.397ZM1114.5 212.477L1114.04 212.273L1114.04 212.273L1114.5 212.477ZM1118 199.572L1117.68 199.185L1117.54 199.302L1117.51 199.485L1118 199.572ZM1204.5 178.075L1204.48 178.575L1204.5 178.576L1204.52 178.575L1204.5 178.075ZM1291 199.572L1291.49 199.485L1291.46 199.302L1291.32 199.185L1291 199.572ZM1299.5 223.397L1299.92 223.663L1300.07 223.433L1299.95 223.186L1299.5 223.397ZM1300.19 237.961L1300.65 237.767L1300.65 237.767L1300.19 237.961ZM1303.5 246.725L1303.99 246.642L1303.99 246.642L1303.5 246.725ZM1303.5 255.163L1303 255.117L1302.97 255.473L1303.3 255.619L1303.5 255.163ZM1357 288.914L1356.56 289.152L1356.58 289.18L1356.59 289.206L1357 288.914ZM1359.5 292.388H1360V292.227L1359.91 292.096L1359.5 292.388ZM1359.5 294.374H1359V294.492L1359.05 294.598L1359.5 294.374ZM1511.5 614.514L1511.03 614.671L1511.14 615.014H1511.5V614.514ZM1484 700.381L1484.25 700.816L1531.25 674.013L1531 673.579L1530.75 673.145L1483.75 699.947L1484 700.381ZM1450 655.214L1449.63 655.553C1458 664.655 1475.75 689.408 1483.59 700.667L1484 700.381L1484.41 700.096C1476.58 688.854 1458.8 664.039 1450.37 654.876L1450 655.214ZM1357 496.881L1356.53 497.055C1363.55 515.968 1384.2 552.739 1404.38 586.171C1414.48 602.896 1424.47 618.799 1432.59 631.237C1440.7 643.655 1446.97 652.661 1449.63 655.553L1450 655.214L1450.37 654.876C1447.78 652.059 1441.55 643.136 1433.43 630.69C1425.31 618.264 1415.33 602.37 1405.24 585.654C1385.05 552.204 1364.45 515.516 1357.47 496.707L1357 496.881ZM1358.5 678.542L1359 678.538L1357.5 496.877L1357 496.881L1356.5 496.885L1358 678.546L1358.5 678.542ZM1357.5 678.542V679.042H1358.5V678.542V678.042H1357.5V678.542ZM1357.5 720.731H1358V678.542H1357.5H1357V720.731H1357.5ZM1208 720.731V721.231H1357.5V720.731V720.231H1208V720.731ZM1208 720.731V720.231H1201V720.731V721.231H1208V720.731ZM1201 720.731V720.231H1051.5V720.731V721.231H1201V720.731ZM1051.5 720.731H1052V678.542H1051.5H1051V720.731H1051.5ZM1051.5 678.542V678.042H1050.5V678.542V679.042H1051.5V678.542ZM1050.5 678.542L1051 678.546L1052.5 496.885L1052 496.881L1051.5 496.877L1050 678.538L1050.5 678.542ZM1052 496.881L1051.53 496.707C1044.55 515.516 1023.95 552.204 1003.76 585.654C993.668 602.37 983.687 618.264 975.574 630.69C967.447 643.136 961.222 652.059 958.632 654.876L959 655.214L959.368 655.553C962.028 652.661 968.303 643.655 976.411 631.237C984.532 618.799 994.519 602.896 1004.62 586.171C1024.8 552.739 1045.45 515.968 1052.47 497.055L1052 496.881ZM959 655.214L958.632 654.876C950.204 664.039 932.417 688.854 924.59 700.096L925 700.381L925.41 700.667C933.25 689.408 950.996 664.655 959.368 655.553L959 655.214ZM925 700.381L925.248 699.947L878.248 673.145L878 673.579L877.752 674.013L924.752 700.816L925 700.381ZM878 673.579L878.482 673.713C881.231 663.872 885.504 649.112 889.389 636.814C891.332 630.664 893.176 625.137 894.682 621.151C895.436 619.156 896.1 617.56 896.646 616.468C896.92 615.92 897.155 615.518 897.347 615.26C897.444 615.13 897.516 615.054 897.564 615.016C897.619 614.971 897.592 615.014 897.5 615.014V614.514V614.014C897.258 614.014 897.063 614.134 896.933 614.24C896.796 614.351 896.666 614.5 896.545 614.663C896.301 614.991 896.035 615.454 895.751 616.021C895.182 617.16 894.503 618.794 893.746 620.798C892.23 624.81 890.38 630.358 888.436 636.513C884.546 648.825 880.269 663.597 877.518 673.444L878 673.579ZM897.5 614.514L897.975 614.671C904.562 594.658 931.251 537.161 961.963 473.373C992.666 409.604 1027.36 339.598 1049.95 294.598L1049.5 294.374L1049.05 294.149C1026.47 339.153 991.768 409.164 961.062 472.939C930.366 536.695 903.638 594.266 897.025 614.358L897.5 614.514ZM1049.5 294.374H1050V292.388H1049.5H1049V294.374H1049.5ZM1049.5 292.388L1049.91 292.68L1052.41 289.206L1052 288.914L1051.59 288.622L1049.09 292.096L1049.5 292.388ZM1052 288.914L1052.44 289.152C1053.79 286.671 1056.78 283.76 1060.85 280.66C1064.89 277.572 1069.93 274.338 1075.29 271.204C1086.01 264.937 1097.97 259.088 1105.7 255.619L1105.5 255.163L1105.3 254.706C1097.53 258.186 1085.54 264.051 1074.79 270.341C1069.41 273.486 1064.33 276.742 1060.24 279.865C1056.17 282.975 1053.01 285.995 1051.56 288.676L1052 288.914ZM1105.5 255.163L1106 255.117C1105.83 253.295 1105.61 249.119 1105.99 246.808L1105.5 246.725L1105.01 246.642C1104.59 249.096 1104.84 253.391 1105 255.208L1105.5 255.163ZM1105.5 246.725L1105.99 246.808C1106.1 246.143 1106.53 244.909 1107.14 243.342C1107.75 241.793 1108.51 239.971 1109.28 238.154L1108.81 237.961L1108.35 237.767C1107.59 239.58 1106.82 241.415 1106.21 242.978C1105.61 244.524 1105.14 245.857 1105.01 246.642L1105.5 246.725ZM1108.81 237.961L1109.28 238.154C1110.08 236.244 1110.88 234.339 1111.48 232.784C1111.78 232.007 1112.03 231.31 1112.21 230.739C1112.38 230.188 1112.5 229.694 1112.5 229.353H1112H1111.5C1111.5 229.522 1111.43 229.88 1111.25 230.441C1111.08 230.982 1110.84 231.655 1110.54 232.425C1109.95 233.963 1109.16 235.852 1108.35 237.767L1108.81 237.961ZM1112 229.353H1112.5C1112.5 228.88 1112.38 228.335 1112.2 227.786C1112.03 227.231 1111.78 226.64 1111.52 226.066C1110.98 224.918 1110.35 223.807 1109.92 223.13L1109.5 223.397L1109.08 223.663C1109.48 224.31 1110.1 225.383 1110.61 226.486C1110.86 227.037 1111.09 227.587 1111.25 228.091C1111.41 228.601 1111.5 229.032 1111.5 229.353H1112ZM1109.5 223.397L1109.95 223.608C1110.95 221.456 1113.35 216.259 1114.96 212.682L1114.5 212.477L1114.04 212.273C1112.45 215.843 1110.05 221.036 1109.05 223.186L1109.5 223.397ZM1114.5 212.477L1114.96 212.682C1116.58 209.046 1117.99 202.472 1118.49 199.66L1118 199.572L1117.51 199.485C1117.01 202.298 1115.62 208.762 1114.04 212.273L1114.5 212.477ZM1118 199.572L1118.32 199.96C1129.75 190.656 1145.96 185.137 1162 182.031C1178.04 178.928 1193.86 178.246 1204.48 178.575L1204.5 178.075L1204.52 177.576C1193.83 177.244 1177.94 177.93 1161.81 181.05C1145.7 184.168 1129.31 189.728 1117.68 199.185L1118 199.572ZM1291 199.572L1291.32 199.185C1279.69 189.728 1263.3 184.168 1247.19 181.05C1231.06 177.93 1215.17 177.244 1204.48 177.576L1204.5 178.075L1204.52 178.575C1215.14 178.246 1230.96 178.928 1247 182.031C1263.04 185.137 1279.25 190.656 1290.68 199.96L1291 199.572ZM1294.5 212.477L1294.96 212.273C1293.38 208.762 1291.99 202.298 1291.49 199.485L1291 199.572L1290.51 199.66C1291.01 202.472 1292.42 209.046 1294.04 212.682L1294.5 212.477ZM1299.5 223.397L1299.95 223.186C1298.95 221.036 1296.55 215.843 1294.96 212.273L1294.5 212.477L1294.04 212.682C1295.65 216.259 1298.05 221.456 1299.05 223.608L1299.5 223.397ZM1297 229.353H1297.5C1297.5 229.032 1297.59 228.601 1297.75 228.091C1297.91 227.587 1298.14 227.037 1298.39 226.486C1298.9 225.383 1299.52 224.31 1299.92 223.663L1299.5 223.397L1299.08 223.13C1298.65 223.807 1298.02 224.918 1297.48 226.066C1297.22 226.64 1296.97 227.231 1296.8 227.786C1296.62 228.335 1296.5 228.88 1296.5 229.353H1297ZM1300.19 237.961L1300.65 237.767C1299.84 235.852 1299.05 233.963 1298.46 232.425C1298.16 231.655 1297.92 230.982 1297.75 230.441C1297.57 229.88 1297.5 229.522 1297.5 229.353H1297H1296.5C1296.5 229.694 1296.62 230.188 1296.79 230.739C1296.97 231.31 1297.22 232.007 1297.52 232.784C1298.12 234.339 1298.92 236.244 1299.72 238.154L1300.19 237.961ZM1303.5 246.725L1303.99 246.642C1303.86 245.857 1303.39 244.524 1302.79 242.978C1302.18 241.415 1301.41 239.58 1300.65 237.767L1300.19 237.961L1299.72 238.154C1300.49 239.971 1301.25 241.793 1301.86 243.342C1302.47 244.909 1302.9 246.143 1303.01 246.808L1303.5 246.725ZM1303.5 255.163L1304 255.208C1304.16 253.391 1304.41 249.096 1303.99 246.642L1303.5 246.725L1303.01 246.808C1303.39 249.119 1303.17 253.295 1303 255.117L1303.5 255.163ZM1357 288.914L1357.44 288.676C1355.99 285.995 1352.83 282.975 1348.76 279.865C1344.67 276.742 1339.59 273.486 1334.21 270.341C1323.46 264.051 1311.47 258.186 1303.7 254.706L1303.5 255.163L1303.3 255.619C1311.03 259.088 1322.99 264.937 1333.71 271.204C1339.07 274.338 1344.11 277.572 1348.15 280.66C1352.22 283.76 1355.21 286.671 1356.56 289.152L1357 288.914ZM1359.5 292.388L1359.91 292.096L1357.41 288.622L1357 288.914L1356.59 289.206L1359.09 292.68L1359.5 292.388ZM1359.5 294.374H1360V292.388H1359.5H1359V294.374H1359.5ZM1511.5 614.514L1511.97 614.358C1505.36 594.266 1478.63 536.695 1447.94 472.939C1417.23 409.164 1382.53 339.153 1359.95 294.149L1359.5 294.374L1359.05 294.598C1381.64 339.598 1416.33 409.604 1447.04 473.373C1477.75 537.161 1504.44 594.658 1511.03 614.671L1511.5 614.514ZM1531 673.579L1531.48 673.444C1528.73 663.597 1524.45 648.825 1520.56 636.513C1518.62 630.358 1516.77 624.81 1515.25 620.798C1514.5 618.794 1513.82 617.16 1513.25 616.021C1512.97 615.454 1512.7 614.991 1512.46 614.663C1512.33 614.5 1512.2 614.351 1512.07 614.24C1511.94 614.134 1511.74 614.014 1511.5 614.014V614.514V615.014C1511.41 615.014 1511.38 614.971 1511.44 615.016C1511.48 615.054 1511.56 615.13 1511.65 615.26C1511.84 615.518 1512.08 615.92 1512.35 616.468C1512.9 617.56 1513.56 619.156 1514.32 621.151C1515.82 625.137 1517.67 630.664 1519.61 636.814C1523.5 649.112 1527.77 663.872 1530.52 673.713L1531 673.579Z" fill="#345AA0"/>
<path d="M1052 680H1203" stroke="#345AA0"/>
<path d="M1203.5 287V251.5" stroke="#345AA0"/>
<path d="M1203.5 234V222.5" stroke="#345AA0"/>
<path d="M1275.5 219.5C1240.5 237.5 1147 236 1135 236C1125.4 236 1123.33 234 1123.5 233C1130.33 234.667 1146.1 238.9 1154.5 242.5C1165 247 1226.5 258.5 1261.5 237.5" stroke="#345AA0"/>
<path d="M1104.5 253C1113.83 256.5 1135.8 265.4 1149 273C1165.5 282.5 1188.5 287 1204 285.5" stroke="#345AA0"/>
<path d="M1052 288C1055.5 300.833 1062.2 334.2 1061 365C1059.5 403.5 1056 444 1055.5 452C1055.1 458.4 1055.33 481.667 1055.5 492.5" stroke="#345AA0"/>
<path d="M1355.5 680H1204.5" stroke="#345AA0"/>
<path d="M1204 287V251.5" stroke="#345AA0"/>
<path d="M1204 234V222.5" stroke="#345AA0"/>
<path d="M1303 253C1293.67 256.5 1271.7 265.4 1258.5 273C1242 282.5 1219 287 1203.5 285.5" stroke="#345AA0"/>
<path d="M1355.5 288C1352 300.833 1345.3 334.2 1346.5 365C1348 403.5 1351.5 444 1352 452C1352.4 458.4 1352.17 481.667 1352 492.5" stroke="#345AA0"/>
<path fill-rule="evenodd" clip-rule="evenodd" d="M539.025 364.876C539 365.042 539 365.24 539 365.636V377.224C539 385.384 545.492 392 553.5 392C561.508 392 568 385.384 568 377.224V365.636C568 365.24 568 365.042 567.975 364.876C567.832 363.921 567.096 363.171 566.159 363.025C565.997 363 565.802 363 565.413 363H563.552L557.692 372.525C557.483 372.865 557.483 373.297 557.694 373.636L563.588 383.162H557.029L554.045 378.335C553.928 378.145 553.723 378.03 553.502 378.03C553.279 378.03 553.072 378.147 552.956 378.341L550.042 383.162H543.412L549.274 373.634C549.482 373.296 549.483 372.866 549.276 372.527L543.448 363H541.587C541.198 363 541.003 363 540.841 363.025C539.904 363.171 539.168 363.921 539.025 364.876ZM550.042 363L552.955 367.748C553.072 367.94 553.278 368.056 553.5 368.056C553.722 368.056 553.928 367.94 554.045 367.748L556.958 363H550.042Z" fill="#DAE4F7"/>
<circle cx="1121.79" cy="420.836" r="37" transform="rotate(-16.0473 1121.79 420.836)" fill="#DAE4F7"/>
<path d="M1231.01 351.001L1231.01 351.002L1251.55 422.39L1251.54 422.393L1205.58 396.964L1231.01 351.001Z" fill="#DAE4F7"/>
<path d="M1159.55 371.556L1159.55 371.559L1180.08 442.946L1180.08 442.948L1205.51 396.984L1159.55 371.556Z" fill="#DAE4F7"/>
<rect width="76" height="76" transform="matrix(-0.961034 0.276431 0.276431 0.961034 1313.45 429)" fill="#DAE4F7"/>
<path d="M1204.09 500.095C1223.85 494.411 1235.27 473.782 1229.58 454.019L1229.58 454.018L1158.01 474.604L1158.01 474.605C1163.7 494.367 1184.33 505.78 1204.09 500.095Z" fill="#DAE4F7"/>
<path d="M1204.08 500.099C1184.31 505.784 1172.9 526.413 1178.59 546.175L1178.59 546.176L1250.15 525.591L1250.15 525.59C1244.47 505.827 1223.84 494.415 1204.08 500.099Z" fill="#DAE4F7"/>
<path d="M1071.04 638V628.76H1072.82V638H1071.04ZM1068.29 630.258V628.76H1075.57V630.258H1068.29ZM1076.84 638V633.45V628.06H1078.62V630.342C1078.62 630.538 1078.61 630.739 1078.59 630.944C1078.58 631.149 1078.56 631.359 1078.54 631.574C1078.51 631.789 1078.47 632.003 1078.44 632.218C1078.41 632.433 1078.38 632.647 1078.34 632.862H1078.63C1078.76 632.358 1078.93 631.933 1079.14 631.588C1079.34 631.233 1079.6 630.963 1079.92 630.776C1080.25 630.589 1080.64 630.496 1081.11 630.496C1081.96 630.496 1082.6 630.795 1083.02 631.392C1083.44 631.98 1083.65 632.876 1083.65 634.08V638H1081.87V634.332C1081.87 633.529 1081.75 632.937 1081.5 632.554C1081.27 632.171 1080.92 631.98 1080.44 631.98C1080.05 631.98 1079.72 632.101 1079.46 632.344C1079.2 632.577 1079 632.89 1078.86 633.282C1078.72 633.674 1078.63 634.117 1078.61 634.612V638H1076.84ZM1088.81 638.182C1088.23 638.182 1087.7 638.098 1087.23 637.93C1086.77 637.762 1086.39 637.519 1086.07 637.202C1085.75 636.875 1085.51 636.483 1085.34 636.026C1085.17 635.569 1085.09 635.051 1085.09 634.472C1085.09 633.893 1085.17 633.361 1085.33 632.876C1085.5 632.391 1085.73 631.971 1086.04 631.616C1086.35 631.261 1086.72 630.986 1087.16 630.79C1087.61 630.594 1088.12 630.496 1088.69 630.496C1089.22 630.496 1089.7 630.585 1090.12 630.762C1090.54 630.939 1090.89 631.205 1091.18 631.56C1091.47 631.905 1091.68 632.339 1091.82 632.862C1091.96 633.375 1092.01 633.973 1091.96 634.654L1086.24 634.696V633.674L1090.94 633.632L1090.33 634.206C1090.38 633.674 1090.34 633.24 1090.2 632.904C1090.06 632.559 1089.86 632.307 1089.6 632.148C1089.34 631.98 1089.04 631.896 1088.7 631.896C1088.32 631.896 1087.98 631.999 1087.69 632.204C1087.4 632.4 1087.18 632.689 1087.02 633.072C1086.87 633.445 1086.8 633.903 1086.8 634.444C1086.8 635.256 1086.97 635.863 1087.33 636.264C1087.69 636.665 1088.19 636.866 1088.81 636.866C1089.09 636.866 1089.33 636.833 1089.51 636.768C1089.71 636.693 1089.87 636.6 1090 636.488C1090.13 636.367 1090.24 636.231 1090.31 636.082C1090.4 635.933 1090.46 635.774 1090.51 635.606L1092.05 635.956C1091.97 636.301 1091.85 636.609 1091.68 636.88C1091.52 637.151 1091.3 637.384 1091.03 637.58C1090.76 637.776 1090.45 637.925 1090.09 638.028C1089.72 638.131 1089.3 638.182 1088.81 638.182ZM1100.99 638.182C1100.44 638.182 1099.95 638.126 1099.52 638.014C1099.09 637.902 1098.71 637.739 1098.38 637.524C1098.06 637.309 1097.8 637.048 1097.58 636.74C1097.37 636.432 1097.21 636.082 1097.09 635.69C1096.99 635.298 1096.94 634.873 1096.94 634.416V628.76H1098.72V634.346C1098.72 634.859 1098.8 635.284 1098.97 635.62C1099.14 635.947 1099.39 636.194 1099.73 636.362C1100.06 636.521 1100.48 636.6 1100.99 636.6C1101.5 636.6 1101.92 636.521 1102.25 636.362C1102.58 636.203 1102.83 635.956 1103 635.62C1103.17 635.284 1103.25 634.859 1103.25 634.346V628.76H1105.02V634.416C1105.02 635.611 1104.68 636.539 1104 637.202C1103.32 637.855 1102.32 638.182 1100.99 638.182ZM1109.86 638.182C1109.36 638.182 1108.91 638.131 1108.51 638.028C1108.12 637.935 1107.79 637.799 1107.51 637.622C1107.23 637.435 1107 637.216 1106.83 636.964C1106.67 636.703 1106.56 636.413 1106.53 636.096L1107.91 635.578C1107.93 635.821 1108.02 636.04 1108.19 636.236C1108.36 636.423 1108.59 636.572 1108.89 636.684C1109.19 636.796 1109.55 636.852 1109.97 636.852C1110.44 636.852 1110.8 636.782 1111.05 636.642C1111.31 636.493 1111.44 636.283 1111.44 636.012C1111.44 635.816 1111.37 635.662 1111.23 635.55C1111.09 635.429 1110.88 635.331 1110.61 635.256C1110.35 635.172 1110.03 635.093 1109.66 635.018C1109.32 634.943 1108.97 634.859 1108.61 634.766C1108.27 634.663 1107.94 634.533 1107.65 634.374C1107.36 634.206 1107.12 633.991 1106.93 633.73C1106.75 633.459 1106.67 633.119 1106.67 632.708C1106.67 632.26 1106.78 631.873 1107.02 631.546C1107.26 631.219 1107.6 630.963 1108.05 630.776C1108.51 630.589 1109.06 630.496 1109.7 630.496C1110.31 630.496 1110.83 630.58 1111.27 630.748C1111.72 630.916 1112.08 631.159 1112.36 631.476C1112.64 631.784 1112.82 632.153 1112.9 632.582L1111.44 633.044C1111.41 632.783 1111.32 632.563 1111.17 632.386C1111.02 632.199 1110.82 632.059 1110.57 631.966C1110.32 631.873 1110.03 631.826 1109.69 631.826C1109.26 631.826 1108.92 631.901 1108.68 632.05C1108.44 632.199 1108.32 632.4 1108.32 632.652C1108.32 632.857 1108.39 633.021 1108.54 633.142C1108.7 633.263 1108.91 633.361 1109.19 633.436C1109.47 633.511 1109.78 633.585 1110.14 633.66C1110.51 633.735 1110.87 633.823 1111.22 633.926C1111.57 634.019 1111.89 634.145 1112.17 634.304C1112.45 634.463 1112.67 634.673 1112.84 634.934C1113.01 635.186 1113.09 635.513 1113.09 635.914C1113.09 636.399 1112.96 636.815 1112.7 637.16C1112.44 637.496 1112.06 637.753 1111.58 637.93C1111.1 638.098 1110.53 638.182 1109.86 638.182ZM1117.92 638.182C1117.33 638.182 1116.81 638.098 1116.34 637.93C1115.88 637.762 1115.49 637.519 1115.18 637.202C1114.86 636.875 1114.62 636.483 1114.45 636.026C1114.28 635.569 1114.2 635.051 1114.2 634.472C1114.2 633.893 1114.28 633.361 1114.44 632.876C1114.6 632.391 1114.84 631.971 1115.15 631.616C1115.46 631.261 1115.83 630.986 1116.27 630.79C1116.72 630.594 1117.23 630.496 1117.8 630.496C1118.33 630.496 1118.8 630.585 1119.22 630.762C1119.64 630.939 1120 631.205 1120.29 631.56C1120.58 631.905 1120.79 632.339 1120.93 632.862C1121.07 633.375 1121.12 633.973 1121.07 634.654L1115.35 634.696V633.674L1120.05 633.632L1119.43 634.206C1119.49 633.674 1119.45 633.24 1119.31 632.904C1119.17 632.559 1118.97 632.307 1118.71 632.148C1118.44 631.98 1118.15 631.896 1117.81 631.896C1117.43 631.896 1117.09 631.999 1116.8 632.204C1116.51 632.4 1116.29 632.689 1116.13 633.072C1115.98 633.445 1115.91 633.903 1115.91 634.444C1115.91 635.256 1116.08 635.863 1116.44 636.264C1116.8 636.665 1117.3 636.866 1117.92 636.866C1118.2 636.866 1118.43 636.833 1118.62 636.768C1118.82 636.693 1118.98 636.6 1119.11 636.488C1119.24 636.367 1119.34 636.231 1119.42 636.082C1119.5 635.933 1119.57 635.774 1119.62 635.606L1121.16 635.956C1121.08 636.301 1120.96 636.609 1120.79 636.88C1120.62 637.151 1120.4 637.384 1120.13 637.58C1119.87 637.776 1119.56 637.925 1119.2 638.028C1118.83 638.131 1118.41 638.182 1117.92 638.182ZM1122.68 638V634.332V630.678H1124.17L1124.14 633.198H1124.39C1124.48 632.601 1124.61 632.106 1124.78 631.714C1124.96 631.313 1125.21 631.014 1125.53 630.818C1125.84 630.613 1126.23 630.51 1126.7 630.51C1126.79 630.51 1126.89 630.515 1127 630.524C1127.11 630.533 1127.23 630.557 1127.36 630.594L1127.29 632.456C1127.14 632.4 1126.99 632.363 1126.83 632.344C1126.68 632.316 1126.54 632.302 1126.41 632.302C1126.04 632.302 1125.73 632.395 1125.46 632.582C1125.19 632.769 1124.98 633.035 1124.81 633.38C1124.65 633.716 1124.53 634.117 1124.45 634.584V638H1122.68ZM1069.09 652V642.76H1070.87V652H1069.09ZM1070.24 652V650.544H1075.99V652H1070.24ZM1070.24 647.982V646.638H1075.31V647.982H1070.24ZM1070.24 644.216V642.76H1075.97V644.216H1070.24ZM1076.81 652L1079.26 648.346L1076.81 644.678H1078.85L1080.31 647.506H1080.53L1081.99 644.678H1084.03L1081.58 648.346L1084.06 652H1082.03L1080.53 649.158H1080.31L1078.87 652H1076.81ZM1085.28 654.324V648.388V644.678H1086.76L1086.75 646.666L1086.99 646.68C1087.08 646.213 1087.23 645.817 1087.43 645.49C1087.65 645.163 1087.92 644.916 1088.25 644.748C1088.57 644.58 1088.96 644.496 1089.41 644.496C1090.06 644.496 1090.62 644.659 1091.07 644.986C1091.53 645.303 1091.88 645.756 1092.11 646.344C1092.35 646.923 1092.47 647.599 1092.47 648.374C1092.47 649.102 1092.36 649.755 1092.14 650.334C1091.92 650.903 1091.59 651.356 1091.14 651.692C1090.7 652.019 1090.16 652.182 1089.51 652.182C1089.03 652.182 1088.63 652.089 1088.3 651.902C1087.97 651.715 1087.71 651.459 1087.5 651.132C1087.3 650.805 1087.13 650.427 1087 649.998H1086.75C1086.8 650.25 1086.85 650.511 1086.89 650.782C1086.93 651.043 1086.97 651.305 1087 651.566C1087.03 651.818 1087.04 652.061 1087.04 652.294V654.324H1085.28ZM1088.93 650.74C1089.3 650.74 1089.6 650.642 1089.86 650.446C1090.11 650.241 1090.3 649.961 1090.43 649.606C1090.56 649.242 1090.63 648.827 1090.63 648.36C1090.63 647.875 1090.56 647.455 1090.42 647.1C1090.28 646.745 1090.09 646.47 1089.83 646.274C1089.57 646.078 1089.26 645.98 1088.9 645.98C1088.6 645.98 1088.32 646.05 1088.09 646.19C1087.86 646.33 1087.66 646.517 1087.5 646.75C1087.34 646.974 1087.23 647.217 1087.15 647.478C1087.08 647.739 1087.04 647.996 1087.04 648.248V648.486C1087.04 648.673 1087.06 648.869 1087.11 649.074C1087.17 649.27 1087.25 649.471 1087.35 649.676C1087.45 649.872 1087.58 650.054 1087.73 650.222C1087.88 650.381 1088.05 650.507 1088.26 650.6C1088.46 650.693 1088.69 650.74 1088.93 650.74ZM1097.39 652.182C1096.8 652.182 1096.27 652.098 1095.8 651.93C1095.35 651.762 1094.96 651.519 1094.64 651.202C1094.32 650.875 1094.08 650.483 1093.91 650.026C1093.75 649.569 1093.66 649.051 1093.66 648.472C1093.66 647.893 1093.74 647.361 1093.9 646.876C1094.07 646.391 1094.31 645.971 1094.61 645.616C1094.92 645.261 1095.3 644.986 1095.73 644.79C1096.18 644.594 1096.69 644.496 1097.26 644.496C1097.79 644.496 1098.27 644.585 1098.69 644.762C1099.11 644.939 1099.46 645.205 1099.75 645.56C1100.04 645.905 1100.26 646.339 1100.4 646.862C1100.54 647.375 1100.58 647.973 1100.54 648.654L1094.81 648.696V647.674L1099.51 647.632L1098.9 648.206C1098.95 647.674 1098.91 647.24 1098.77 646.904C1098.63 646.559 1098.43 646.307 1098.17 646.148C1097.91 645.98 1097.61 645.896 1097.27 645.896C1096.89 645.896 1096.56 645.999 1096.27 646.204C1095.98 646.4 1095.75 646.689 1095.59 647.072C1095.44 647.445 1095.37 647.903 1095.37 648.444C1095.37 649.256 1095.55 649.863 1095.9 650.264C1096.27 650.665 1096.76 650.866 1097.39 650.866C1097.67 650.866 1097.9 650.833 1098.09 650.768C1098.28 650.693 1098.45 650.6 1098.58 650.488C1098.71 650.367 1098.81 650.231 1098.88 650.082C1098.97 649.933 1099.03 649.774 1099.08 649.606L1100.62 649.956C1100.55 650.301 1100.42 650.609 1100.26 650.88C1100.09 651.151 1099.87 651.384 1099.6 651.58C1099.34 651.776 1099.02 651.925 1098.66 652.028C1098.3 652.131 1097.87 652.182 1097.39 652.182ZM1102.15 652V648.332V644.678H1103.63L1103.6 647.198H1103.86C1103.94 646.601 1104.07 646.106 1104.25 645.714C1104.43 645.313 1104.67 645.014 1104.99 644.818C1105.31 644.613 1105.7 644.51 1106.17 644.51C1106.26 644.51 1106.36 644.515 1106.46 644.524C1106.57 644.533 1106.69 644.557 1106.82 644.594L1106.75 646.456C1106.6 646.4 1106.45 646.363 1106.29 646.344C1106.14 646.316 1106 646.302 1105.87 646.302C1105.51 646.302 1105.19 646.395 1104.92 646.582C1104.66 646.769 1104.44 647.035 1104.28 647.38C1104.12 647.716 1104 648.117 1103.91 648.584V652H1102.15ZM1108.05 652V644.678H1109.82V652H1108.05ZM1108.94 643.53C1108.58 643.53 1108.31 643.455 1108.11 643.306C1107.92 643.147 1107.83 642.923 1107.83 642.634C1107.83 642.345 1107.92 642.125 1108.11 641.976C1108.31 641.817 1108.58 641.738 1108.94 641.738C1109.31 641.738 1109.59 641.813 1109.78 641.962C1109.96 642.111 1110.06 642.335 1110.06 642.634C1110.06 642.923 1109.96 643.147 1109.76 643.306C1109.58 643.455 1109.3 643.53 1108.94 643.53ZM1115.1 652.182C1114.52 652.182 1113.99 652.098 1113.52 651.93C1113.07 651.762 1112.68 651.519 1112.36 651.202C1112.04 650.875 1111.8 650.483 1111.63 650.026C1111.46 649.569 1111.38 649.051 1111.38 648.472C1111.38 647.893 1111.46 647.361 1111.62 646.876C1111.79 646.391 1112.02 645.971 1112.33 645.616C1112.64 645.261 1113.01 644.986 1113.45 644.79C1113.9 644.594 1114.41 644.496 1114.98 644.496C1115.51 644.496 1115.99 644.585 1116.41 644.762C1116.83 644.939 1117.18 645.205 1117.47 645.56C1117.76 645.905 1117.97 646.339 1118.11 646.862C1118.25 647.375 1118.3 647.973 1118.25 648.654L1112.53 648.696V647.674L1117.23 647.632L1116.62 648.206C1116.67 647.674 1116.63 647.24 1116.49 646.904C1116.35 646.559 1116.15 646.307 1115.89 646.148C1115.63 645.98 1115.33 645.896 1114.99 645.896C1114.61 645.896 1114.27 645.999 1113.98 646.204C1113.7 646.4 1113.47 646.689 1113.31 647.072C1113.16 647.445 1113.09 647.903 1113.09 648.444C1113.09 649.256 1113.27 649.863 1113.62 650.264C1113.98 650.665 1114.48 650.866 1115.1 650.866C1115.38 650.866 1115.62 650.833 1115.8 650.768C1116 650.693 1116.16 650.6 1116.29 650.488C1116.43 650.367 1116.53 650.231 1116.6 650.082C1116.69 649.933 1116.75 649.774 1116.8 649.606L1118.34 649.956C1118.26 650.301 1118.14 650.609 1117.97 650.88C1117.81 651.151 1117.59 651.384 1117.32 651.58C1117.06 651.776 1116.74 651.925 1116.38 652.028C1116.01 652.131 1115.59 652.182 1115.1 652.182ZM1119.87 652V647.534V644.678H1121.34L1121.3 646.918H1121.55C1121.68 646.367 1121.85 645.915 1122.07 645.56C1122.29 645.205 1122.57 644.939 1122.92 644.762C1123.26 644.585 1123.67 644.496 1124.12 644.496C1124.95 644.496 1125.58 644.79 1126.01 645.378C1126.45 645.966 1126.67 646.876 1126.67 648.108V652H1124.89V648.29C1124.89 647.497 1124.77 646.918 1124.53 646.554C1124.3 646.181 1123.95 645.994 1123.48 645.994C1123.09 645.994 1122.76 646.12 1122.49 646.372C1122.21 646.615 1122 646.941 1121.86 647.352C1121.72 647.753 1121.64 648.197 1121.63 648.682V652H1119.87ZM1131.83 652.182C1131.19 652.182 1130.64 652.089 1130.17 651.902C1129.72 651.715 1129.33 651.454 1129.03 651.118C1128.73 650.773 1128.5 650.371 1128.35 649.914C1128.2 649.457 1128.13 648.962 1128.13 648.43C1128.13 647.861 1128.2 647.338 1128.35 646.862C1128.51 646.386 1128.75 645.971 1129.05 645.616C1129.36 645.261 1129.74 644.986 1130.19 644.79C1130.64 644.594 1131.17 644.496 1131.76 644.496C1132.34 644.496 1132.85 644.594 1133.28 644.79C1133.72 644.986 1134.07 645.261 1134.35 645.616C1134.62 645.961 1134.8 646.367 1134.89 646.834L1133.24 647.352C1133.22 647.072 1133.15 646.825 1133.02 646.61C1132.88 646.386 1132.71 646.213 1132.48 646.092C1132.26 645.971 1131.99 645.91 1131.69 645.91C1131.39 645.91 1131.13 645.971 1130.9 646.092C1130.69 646.204 1130.5 646.367 1130.36 646.582C1130.22 646.797 1130.1 647.058 1130.02 647.366C1129.94 647.665 1129.91 648.001 1129.91 648.374C1129.91 648.887 1129.98 649.326 1130.12 649.69C1130.26 650.054 1130.47 650.339 1130.76 650.544C1131.05 650.74 1131.41 650.838 1131.84 650.838C1132.22 650.838 1132.53 650.768 1132.76 650.628C1133.01 650.479 1133.19 650.287 1133.31 650.054C1133.44 649.821 1133.52 649.564 1133.55 649.284L1135.12 649.634C1135.06 650.017 1134.95 650.362 1134.79 650.67C1134.63 650.978 1134.42 651.249 1134.14 651.482C1133.86 651.706 1133.54 651.879 1133.16 652C1132.77 652.121 1132.33 652.182 1131.83 652.182ZM1139.67 652.182C1139.09 652.182 1138.56 652.098 1138.09 651.93C1137.63 651.762 1137.25 651.519 1136.93 651.202C1136.61 650.875 1136.37 650.483 1136.2 650.026C1136.03 649.569 1135.95 649.051 1135.95 648.472C1135.95 647.893 1136.03 647.361 1136.19 646.876C1136.36 646.391 1136.59 645.971 1136.9 645.616C1137.21 645.261 1137.58 644.986 1138.02 644.79C1138.47 644.594 1138.98 644.496 1139.55 644.496C1140.08 644.496 1140.56 644.585 1140.98 644.762C1141.4 644.939 1141.75 645.205 1142.04 645.56C1142.33 645.905 1142.54 646.339 1142.68 646.862C1142.82 647.375 1142.87 647.973 1142.82 648.654L1137.1 648.696V647.674L1141.8 647.632L1141.19 648.206C1141.24 647.674 1141.2 647.24 1141.06 646.904C1140.92 646.559 1140.72 646.307 1140.46 646.148C1140.2 645.98 1139.9 645.896 1139.56 645.896C1139.18 645.896 1138.84 645.999 1138.55 646.204C1138.26 646.4 1138.04 646.689 1137.88 647.072C1137.73 647.445 1137.66 647.903 1137.66 648.444C1137.66 649.256 1137.83 649.863 1138.19 650.264C1138.55 650.665 1139.05 650.866 1139.67 650.866C1139.95 650.866 1140.19 650.833 1140.37 650.768C1140.57 650.693 1140.73 650.6 1140.86 650.488C1140.99 650.367 1141.1 650.231 1141.17 650.082C1141.26 649.933 1141.32 649.774 1141.37 649.606L1142.91 649.956C1142.83 650.301 1142.71 650.609 1142.54 650.88C1142.38 651.151 1142.16 651.384 1141.89 651.58C1141.62 651.776 1141.31 651.925 1140.95 652.028C1140.58 652.131 1140.16 652.182 1139.67 652.182ZM1151.99 652.182C1151.29 652.182 1150.66 652.084 1150.11 651.888C1149.56 651.683 1149.09 651.384 1148.71 650.992C1148.33 650.591 1148.03 650.096 1147.83 649.508C1147.62 648.92 1147.52 648.248 1147.52 647.492C1147.52 646.708 1147.62 646.013 1147.83 645.406C1148.04 644.799 1148.34 644.286 1148.72 643.866C1149.11 643.437 1149.56 643.115 1150.1 642.9C1150.63 642.685 1151.22 642.578 1151.87 642.578C1152.38 642.578 1152.84 642.643 1153.27 642.774C1153.7 642.905 1154.07 643.101 1154.38 643.362C1154.7 643.614 1154.94 643.922 1155.12 644.286C1155.3 644.641 1155.39 645.047 1155.4 645.504L1153.75 645.938C1153.76 645.518 1153.67 645.168 1153.48 644.888C1153.3 644.608 1153.05 644.398 1152.76 644.258C1152.47 644.118 1152.15 644.048 1151.82 644.048C1151.52 644.048 1151.22 644.109 1150.92 644.23C1150.63 644.351 1150.37 644.543 1150.14 644.804C1149.9 645.065 1149.72 645.411 1149.58 645.84C1149.44 646.26 1149.37 646.778 1149.37 647.394C1149.37 648.178 1149.48 648.813 1149.7 649.298C1149.94 649.783 1150.25 650.143 1150.66 650.376C1151.07 650.6 1151.53 650.712 1152.04 650.712C1152.56 650.712 1152.98 650.609 1153.29 650.404C1153.6 650.189 1153.82 649.909 1153.96 649.564C1154.1 649.209 1154.18 648.827 1154.2 648.416L1155.75 648.682C1155.74 649.167 1155.67 649.625 1155.53 650.054C1155.39 650.483 1155.17 650.857 1154.87 651.174C1154.58 651.491 1154.2 651.739 1153.72 651.916C1153.25 652.093 1152.67 652.182 1151.99 652.182ZM1157.23 652V642.06H1158.97V652H1157.23ZM1163.37 652.182C1162.53 652.182 1161.9 651.897 1161.47 651.328C1161.05 650.749 1160.84 649.877 1160.84 648.71V644.678H1162.62V648.514C1162.62 649.251 1162.73 649.802 1162.95 650.166C1163.18 650.53 1163.52 650.712 1163.99 650.712C1164.26 650.712 1164.5 650.647 1164.7 650.516C1164.91 650.376 1165.09 650.185 1165.24 649.942C1165.38 649.69 1165.5 649.401 1165.59 649.074C1165.68 648.747 1165.73 648.388 1165.75 647.996V644.678H1167.52V648.99V652H1166.06L1166.09 649.69H1165.84C1165.72 650.278 1165.54 650.754 1165.32 651.118C1165.1 651.482 1164.84 651.753 1164.52 651.93C1164.2 652.098 1163.82 652.182 1163.37 652.182ZM1173.71 652.182C1173.24 652.182 1172.84 652.093 1172.51 651.916C1172.17 651.729 1171.89 651.468 1171.68 651.132C1171.47 650.796 1171.32 650.395 1171.23 649.928H1170.98L1170.99 652H1169.51V648.402V642.06H1171.27V644.426C1171.27 644.65 1171.26 644.893 1171.23 645.154C1171.2 645.415 1171.17 645.686 1171.12 645.966C1171.07 646.237 1171.02 646.512 1170.97 646.792H1171.26C1171.38 646.344 1171.54 645.952 1171.74 645.616C1171.94 645.271 1172.21 645 1172.53 644.804C1172.86 644.608 1173.26 644.51 1173.74 644.51C1174.34 644.51 1174.87 644.673 1175.31 645C1175.75 645.317 1176.1 645.765 1176.34 646.344C1176.58 646.913 1176.71 647.59 1176.71 648.374C1176.71 649.139 1176.58 649.807 1176.34 650.376C1176.11 650.945 1175.77 651.389 1175.32 651.706C1174.88 652.023 1174.34 652.182 1173.71 652.182ZM1173.15 650.726C1173.49 650.726 1173.8 650.628 1174.06 650.432C1174.32 650.236 1174.52 649.961 1174.65 649.606C1174.79 649.251 1174.86 648.831 1174.86 648.346C1174.86 647.879 1174.79 647.469 1174.66 647.114C1174.53 646.759 1174.34 646.479 1174.09 646.274C1173.84 646.069 1173.53 645.966 1173.16 645.966C1172.92 645.966 1172.7 646.017 1172.49 646.12C1172.29 646.213 1172.11 646.344 1171.96 646.512C1171.81 646.671 1171.68 646.848 1171.58 647.044C1171.48 647.24 1171.4 647.445 1171.34 647.66C1171.3 647.865 1171.27 648.057 1171.27 648.234V648.472C1171.27 648.705 1171.31 648.957 1171.39 649.228C1171.46 649.489 1171.58 649.732 1171.74 649.956C1171.89 650.18 1172.09 650.367 1172.32 650.516C1172.56 650.656 1172.83 650.726 1173.15 650.726Z" fill="#DAE4F7"/>
</svg>
