<svg width="1666" height="889" viewBox="0 0 1666 889" fill="none" xmlns="http://www.w3.org/2000/svg">
<rect width="1666" height="889" fill="#E1E1E1"/>
<path fill-rule="evenodd" clip-rule="evenodd" d="M789 668.231L742 695.231C734.167 683.898 716.4 658.931 708 649.731C697.5 638.231 629 528.231 615 490.231L616.5 673.231H615.5V715.731H466H459H309.5V673.231H308.5L310 490.231C296 528.231 227.5 638.231 217 649.731C208.6 658.931 190.833 683.898 183 695.231L136 668.231C141.5 648.398 153.1 608.731 155.5 608.731C168.7 568.331 262.333 376.898 307.5 286.231V284.231L310 280.731C315.6 270.331 348 253.731 363.5 246.731C363.333 244.898 363.1 240.631 363.5 238.231C363.743 236.771 365.29 233.059 366.814 229.403C368.42 225.549 370 221.758 370 220.731C370 219.131 368.333 216.065 367.5 214.731C368.5 212.565 370.9 207.331 372.5 203.731C374.1 200.131 375.5 193.565 376 190.731C399.058 171.831 441.197 168.411 462.5 169.076C483.803 168.411 525.942 171.831 549 190.731C549.5 193.565 550.9 200.131 552.5 203.731C554.1 207.331 556.5 212.565 557.5 214.731C556.667 216.065 555 219.131 555 220.731C555 221.758 556.58 225.549 558.186 229.403C559.71 233.059 561.257 236.771 561.5 238.231C561.9 240.631 561.667 244.898 561.5 246.731C577 253.731 609.4 270.331 615 280.731L617.5 284.231V286.231C662.667 376.898 756.3 568.331 769.5 608.731C771.9 608.731 783.5 648.398 789 668.231Z" fill="#7A97CC"/>
<path d="M742 695.231L741.589 695.516L741.85 695.894L742.249 695.665L742 695.231ZM789 668.231L789.249 668.665L789.586 668.472L789.482 668.098L789 668.231ZM708 649.731L707.631 650.069L707.631 650.069L708 649.731ZM615 490.231L615.469 490.059L614.5 490.236L615 490.231ZM616.5 673.231V673.731H617.004L617 673.227L616.5 673.231ZM615.5 673.231V672.731H615V673.231H615.5ZM615.5 715.731V716.231H616V715.731H615.5ZM309.5 715.731H309V716.231H309.5V715.731ZM309.5 673.231H310V672.731H309.5V673.231ZM308.5 673.231L308 673.227L307.996 673.731H308.5V673.231ZM310 490.231L310.5 490.236L309.531 490.059L310 490.231ZM217 649.731L216.631 649.394L216.631 649.394L217 649.731ZM183 695.231L182.751 695.665L183.15 695.894L183.411 695.516L183 695.231ZM136 668.231L135.518 668.098L135.414 668.472L135.751 668.665L136 668.231ZM155.5 608.731V609.231H155.863L155.975 608.887L155.5 608.731ZM307.5 286.231L307.948 286.454L308 286.349V286.231H307.5ZM307.5 284.231L307.093 283.941L307 284.071V284.231H307.5ZM310 280.731L310.407 281.022L310.425 280.996L310.44 280.968L310 280.731ZM363.5 246.731L363.706 247.187L364.03 247.041L363.998 246.686L363.5 246.731ZM363.5 238.231L363.007 238.149L363.007 238.149L363.5 238.231ZM366.814 229.403L367.276 229.595L367.276 229.595L366.814 229.403ZM367.5 214.731L367.046 214.522L366.933 214.767L367.076 214.996L367.5 214.731ZM372.5 203.731L372.957 203.935L372.957 203.935L372.5 203.731ZM376 190.731L375.683 190.345L375.54 190.462L375.508 190.645L376 190.731ZM462.5 169.076L462.484 169.576L462.5 169.576L462.516 169.576L462.5 169.076ZM549 190.731L549.492 190.645L549.46 190.462L549.317 190.345L549 190.731ZM552.5 203.731L552.043 203.935L552.043 203.935L552.5 203.731ZM557.5 214.731L557.924 214.996L558.067 214.767L557.954 214.522L557.5 214.731ZM558.186 229.403L558.647 229.21L558.647 229.21L558.186 229.403ZM561.5 238.231L561.993 238.149L561.993 238.149L561.5 238.231ZM561.5 246.731L561.002 246.686L560.97 247.041L561.294 247.187L561.5 246.731ZM615 280.731L614.56 280.968L614.575 280.996L614.593 281.022L615 280.731ZM617.5 284.231H618V284.071L617.907 283.941L617.5 284.231ZM617.5 286.231H617V286.349L617.052 286.454L617.5 286.231ZM769.5 608.731L769.025 608.887L769.137 609.231H769.5V608.731ZM742 695.231L742.249 695.665L789.249 668.665L789 668.231L788.751 667.798L741.751 694.798L742 695.231ZM708 649.731L707.631 650.069C716.003 659.238 733.749 684.174 741.589 695.516L742 695.231L742.411 694.947C734.584 683.623 716.797 658.625 708.369 649.394L708 649.731ZM615 490.231L614.531 490.404C621.55 509.456 642.201 546.497 662.384 580.176C672.48 597.024 682.467 613.045 690.588 625.574C698.696 638.083 704.971 647.156 707.631 650.069L708 649.731L708.369 649.394C705.779 646.557 699.554 637.567 691.427 625.03C683.314 612.512 673.333 596.501 663.241 579.662C643.049 545.966 622.45 509.007 615.469 490.059L615 490.231ZM616.5 673.231L617 673.227L615.5 490.227L615 490.231L614.5 490.236L616 673.236L616.5 673.231ZM615.5 673.231V673.731H616.5V673.231V672.731H615.5V673.231ZM615.5 715.731H616V673.231H615.5H615V715.731H615.5ZM466 715.731V716.231H615.5V715.731V715.231H466V715.731ZM466 715.731V715.231H459V715.731V716.231H466V715.731ZM459 715.731V715.231H309.5V715.731V716.231H459V715.731ZM309.5 715.731H310V673.231H309.5H309V715.731H309.5ZM309.5 673.231V672.731H308.5V673.231V673.731H309.5V673.231ZM308.5 673.231L309 673.236L310.5 490.236L310 490.231L309.5 490.227L308 673.227L308.5 673.231ZM310 490.231L309.531 490.059C302.55 509.007 281.951 545.966 261.759 579.662C251.667 596.501 241.686 612.512 233.573 625.03C225.446 637.567 219.221 646.557 216.631 649.394L217 649.731L217.369 650.069C220.029 647.156 226.304 638.083 234.412 625.574C242.533 613.045 252.52 597.024 262.616 580.176C282.799 546.497 303.45 509.456 310.469 490.404L310 490.231ZM217 649.731L216.631 649.394C208.203 658.625 190.416 683.623 182.589 694.947L183 695.231L183.411 695.516C191.251 684.174 208.997 659.238 217.369 650.069L217 649.731ZM183 695.231L183.249 694.798L136.249 667.798L136 668.231L135.751 668.665L182.751 695.665L183 695.231ZM136 668.231L136.482 668.365C139.231 658.451 143.504 643.582 147.39 631.194C149.333 624.998 151.176 619.43 152.682 615.415C153.436 613.405 154.1 611.797 154.646 610.697C154.921 610.144 155.156 609.739 155.348 609.479C155.445 609.348 155.518 609.272 155.565 609.233C155.621 609.187 155.594 609.231 155.5 609.231V608.731V608.231C155.256 608.231 155.061 608.353 154.932 608.459C154.794 608.571 154.665 608.72 154.544 608.885C154.3 609.215 154.034 609.682 153.751 610.252C153.182 611.399 152.503 613.045 151.746 615.064C150.23 619.105 148.38 624.694 146.435 630.894C142.546 643.297 138.269 658.178 135.518 668.098L136 668.231ZM155.5 608.731L155.975 608.887C162.562 588.726 189.252 530.805 219.964 466.547C250.666 402.309 285.365 331.786 307.948 286.454L307.5 286.231L307.052 286.008C284.468 331.343 249.767 401.871 219.061 466.116C188.365 530.341 161.638 588.337 155.025 608.576L155.5 608.731ZM307.5 286.231H308V284.231H307.5H307V286.231H307.5ZM307.5 284.231L307.907 284.522L310.407 281.022L310 280.731L309.593 280.441L307.093 283.941L307.5 284.231ZM310 280.731L310.44 280.968C311.786 278.468 314.787 275.535 318.847 272.412C322.892 269.301 327.932 266.044 333.291 262.887C344.009 256.574 355.968 250.682 363.706 247.187L363.5 246.731L363.294 246.276C355.532 249.781 343.541 255.689 332.784 262.026C327.406 265.194 322.327 268.474 318.237 271.619C314.163 274.753 311.014 277.794 309.56 280.494L310 280.731ZM363.5 246.731L363.998 246.686C363.831 244.85 363.605 240.643 363.993 238.314L363.5 238.231L363.007 238.149C362.595 240.62 362.836 244.946 363.002 246.777L363.5 246.731ZM363.5 238.231L363.993 238.314C364.105 237.643 364.531 236.399 365.143 234.821C365.748 233.26 366.513 231.425 367.276 229.595L366.814 229.403L366.353 229.21C365.591 231.037 364.821 232.885 364.211 234.46C363.607 236.017 363.138 237.359 363.007 238.149L363.5 238.231ZM366.814 229.403L367.276 229.595C368.078 227.67 368.877 225.752 369.476 224.185C369.776 223.403 370.028 222.7 370.206 222.125C370.377 221.571 370.5 221.074 370.5 220.731H370H369.5C369.5 220.903 369.425 221.264 369.25 221.83C369.082 222.374 368.839 223.053 368.542 223.828C367.95 225.378 367.156 227.281 366.353 229.21L366.814 229.403ZM370 220.731H370.5C370.5 220.256 370.378 219.708 370.203 219.155C370.026 218.596 369.783 218.001 369.517 217.423C368.986 216.267 368.35 215.148 367.924 214.466L367.5 214.731L367.076 214.996C367.483 215.648 368.098 216.73 368.608 217.84C368.863 218.395 369.089 218.95 369.25 219.458C369.413 219.972 369.5 220.407 369.5 220.731H370ZM367.5 214.731L367.954 214.941C368.954 212.774 371.355 207.538 372.957 203.935L372.5 203.731L372.043 203.528C370.445 207.125 368.046 212.356 367.046 214.522L367.5 214.731ZM372.5 203.731L372.957 203.935C374.584 200.273 375.993 193.651 376.492 190.818L376 190.731L375.508 190.645C375.007 193.479 373.616 199.99 372.043 203.528L372.5 203.731ZM376 190.731L376.317 191.118C387.752 181.745 403.957 176.186 420.004 173.057C436.041 169.931 451.864 169.244 462.484 169.576L462.5 169.076L462.516 168.576C451.833 168.243 435.935 168.933 419.812 172.076C403.7 175.217 387.306 180.818 375.683 190.345L376 190.731ZM549 190.731L549.317 190.345C537.694 180.818 521.3 175.217 505.188 172.076C489.065 168.933 473.167 168.243 462.484 168.576L462.5 169.076L462.516 169.576C473.136 169.244 488.959 169.931 504.996 173.057C521.043 176.186 537.248 181.745 548.683 191.118L549 190.731ZM552.5 203.731L552.957 203.528C551.384 199.99 549.993 193.479 549.492 190.645L549 190.731L548.508 190.818C549.007 193.651 550.416 200.273 552.043 203.935L552.5 203.731ZM557.5 214.731L557.954 214.522C556.954 212.356 554.555 207.125 552.957 203.528L552.5 203.731L552.043 203.935C553.645 207.538 556.046 212.774 557.046 214.941L557.5 214.731ZM555 220.731H555.5C555.5 220.407 555.587 219.972 555.75 219.458C555.911 218.95 556.137 218.395 556.392 217.84C556.902 216.73 557.517 215.648 557.924 214.996L557.5 214.731L557.076 214.466C556.65 215.148 556.014 216.267 555.483 217.423C555.217 218.001 554.974 218.596 554.797 219.155C554.622 219.708 554.5 220.256 554.5 220.731H555ZM558.186 229.403L558.647 229.21C557.844 227.281 557.05 225.378 556.458 223.828C556.161 223.053 555.918 222.374 555.75 221.83C555.575 221.264 555.5 220.903 555.5 220.731H555H554.5C554.5 221.074 554.623 221.571 554.794 222.125C554.972 222.7 555.224 223.403 555.524 224.185C556.123 225.752 556.922 227.67 557.724 229.595L558.186 229.403ZM561.5 238.231L561.993 238.149C561.862 237.359 561.393 236.017 560.789 234.46C560.179 232.885 559.409 231.037 558.647 229.21L558.186 229.403L557.724 229.595C558.487 231.425 559.252 233.26 559.857 234.821C560.469 236.399 560.895 237.643 561.007 238.314L561.5 238.231ZM561.5 246.731L561.998 246.777C562.164 244.946 562.405 240.62 561.993 238.149L561.5 238.231L561.007 238.314C561.395 240.643 561.169 244.85 561.002 246.686L561.5 246.731ZM615 280.731L615.44 280.494C613.986 277.794 610.837 274.753 606.763 271.619C602.673 268.474 597.594 265.194 592.216 262.026C581.459 255.689 569.468 249.781 561.706 246.276L561.5 246.731L561.294 247.187C569.032 250.682 580.991 256.574 591.709 262.887C597.068 266.044 602.108 269.301 606.153 272.412C610.213 275.535 613.214 278.468 614.56 280.968L615 280.731ZM617.5 284.231L617.907 283.941L615.407 280.441L615 280.731L614.593 281.022L617.093 284.522L617.5 284.231ZM617.5 286.231H618V284.231H617.5H617V286.231H617.5ZM769.5 608.731L769.975 608.576C763.362 588.337 736.635 530.341 705.939 466.116C675.233 401.871 640.532 331.343 617.948 286.008L617.5 286.231L617.052 286.454C639.635 331.786 674.334 402.309 705.036 466.547C735.748 530.805 762.438 588.726 769.025 608.887L769.5 608.731ZM789 668.231L789.482 668.098C786.731 658.178 782.454 643.297 778.565 630.894C776.62 624.694 774.77 619.105 773.254 615.064C772.497 613.045 771.818 611.399 771.249 610.252C770.966 609.682 770.7 609.215 770.456 608.885C770.335 608.72 770.206 608.571 770.068 608.459C769.939 608.353 769.744 608.231 769.5 608.231V608.731V609.231C769.406 609.231 769.379 609.187 769.435 609.233C769.482 609.272 769.555 609.348 769.652 609.479C769.844 609.739 770.079 610.144 770.354 610.697C770.9 611.797 771.564 613.405 772.318 615.415C773.824 619.43 775.667 624.998 777.61 631.194C781.496 643.582 785.769 658.451 788.518 668.365L789 668.231Z" fill="#345AA0"/>
<path d="M308.5 285C312.667 300.667 320.2 341.6 317 380C313.8 418.4 312 440.333 311.5 446.5V488" stroke="#345AA0"/>
<path d="M364 246C381.833 249.833 418.3 257.9 421.5 259.5C424.7 261.1 436.833 265.167 442.5 267" stroke="#345AA0"/>
<path d="M370.5 218C382.333 223.167 408.2 235 417 241C425.8 247 438.667 256.5 444 260.5" stroke="#345AA0"/>
<path d="M373 203.5C378.333 209 392.2 221.7 405 228.5C421 237 441 248 444 252.5" stroke="#345AA0"/>
<path d="M444 334V257.5V251C446 246.6 448.5 249.166 449.5 251V334H444Z" stroke="#345AA0"/>
<path d="M444 311.5H449" stroke="#345AA0"/>
<path d="M449.5 260C451.333 262.833 455.1 268.6 455.5 269" stroke="#345AA0"/>
<path d="M463.5 268C460.833 268.333 454.3 268.8 449.5 268" stroke="#345AA0"/>
<path d="M377.5 188.5C377.167 190.167 379.4 195.5 391 203.5C405.5 213.5 435.5 233.5 445 243.5C452.6 251.5 460.167 263.167 463 268V212.5" stroke="#345AA0"/>
<path d="M148.5 625.5L209.5 656.5" stroke="#345AA0"/>
<path d="M463.5 181.5C442 182.833 396.3 188.2 385.5 199" stroke="#345AA0"/>
<path d="M464.5 169V178.5" stroke="#345AA0"/>
<path d="M308.5 285C312.667 300.667 320.2 341.6 317 380C313.8 418.4 312 440.333 311.5 446.5V488" stroke="#345AA0"/>
<path d="M364 246C381.833 249.833 418.3 257.9 421.5 259.5C424.7 261.1 436.833 265.167 442.5 267" stroke="#345AA0"/>
<path d="M370.5 218C382.333 223.167 408.2 235 417 241C425.8 247 438.667 256.5 444 260.5" stroke="#345AA0"/>
<path d="M373 203.5C378.333 209 392.2 221.7 405 228.5C421 237 441 248 444 252.5" stroke="#345AA0"/>
<path d="M444 334V257.5V251C446 246.6 448.5 249.166 449.5 251V334H444Z" stroke="#345AA0"/>
<path d="M444 311.5H449" stroke="#345AA0"/>
<path d="M449.5 260C451.333 262.833 455.1 268.6 455.5 269" stroke="#345AA0"/>
<path d="M463.5 268C460.833 268.333 454.3 268.8 449.5 268" stroke="#345AA0"/>
<path d="M377.5 188.5C377.167 190.167 379.4 195.5 391 203.5C405.5 213.5 435.5 233.5 445 243.5C452.6 251.5 460.167 263.167 463 268V212.5" stroke="#345AA0"/>
<path d="M148.5 625.5L209.5 656.5" stroke="#345AA0"/>
<path d="M463.5 181.5C442 182.833 396.3 188.2 385.5 199" stroke="#345AA0"/>
<path d="M464.5 169V178.5" stroke="#345AA0"/>
<path d="M618 285C613.833 300.667 606.3 341.6 609.5 380C612.7 418.4 614.5 440.333 615 446.5V488" stroke="#345AA0"/>
<path d="M562.5 246C544.667 249.833 508.2 257.9 505 259.5C501.8 261.1 489.667 265.167 484 267" stroke="#345AA0"/>
<path d="M556 218C544.167 223.167 518.3 235 509.5 241C500.7 247 487.833 256.5 482.5 260.5" stroke="#345AA0"/>
<path d="M553.5 203.5C548.167 209 534.3 221.7 521.5 228.5C505.5 237 485.5 248 482.5 252.5" stroke="#345AA0"/>
<path d="M482.5 334V257.5V251C480.5 246.6 478 249.166 477 251V334H482.5Z" stroke="#345AA0"/>
<path d="M482.5 311.5H477.5" stroke="#345AA0"/>
<path d="M477 260C475.167 262.833 471.4 268.6 471 269" stroke="#345AA0"/>
<path d="M463 268C465.667 268.333 472.2 268.8 477 268" stroke="#345AA0"/>
<path d="M549 188.5C549.333 190.167 547.1 195.5 535.5 203.5C521 213.5 491 233.5 481.5 243.5C473.9 251.5 466.333 263.167 463.5 268V212.5" stroke="#345AA0"/>
<path d="M778 625.5L717 656.5" stroke="#345AA0"/>
<path d="M463 181.5C484.5 182.833 530.2 188.2 541 199" stroke="#345AA0"/>
<path d="M462 169V178.5" stroke="#345AA0"/>
<path d="M618 285C613.833 300.667 606.3 341.6 609.5 380C612.7 418.4 614.5 440.333 615 446.5V488" stroke="#345AA0"/>
<path d="M562.5 246C544.667 249.833 508.2 257.9 505 259.5C501.8 261.1 489.667 265.167 484 267" stroke="#345AA0"/>
<path d="M556 218C544.167 223.167 518.3 235 509.5 241C500.7 247 487.833 256.5 482.5 260.5" stroke="#345AA0"/>
<path d="M553.5 203.5C548.167 209 534.3 221.7 521.5 228.5C505.5 237 485.5 248 482.5 252.5" stroke="#345AA0"/>
<path d="M482.5 334V257.5V251C480.5 246.6 478 249.166 477 251V334H482.5Z" stroke="#345AA0"/>
<path d="M482.5 311.5H477.5" stroke="#345AA0"/>
<path d="M477 260C475.167 262.833 471.4 268.6 471 269" stroke="#345AA0"/>
<path d="M463 268C465.667 268.333 472.2 268.8 477 268" stroke="#345AA0"/>
<path d="M549 188.5C549.333 190.167 547.1 195.5 535.5 203.5C521 213.5 491 233.5 481.5 243.5C473.9 251.5 466.333 263.167 463.5 268V212.5" stroke="#345AA0"/>
<path d="M778 625.5L717 656.5" stroke="#345AA0"/>
<path d="M463 181.5C484.5 182.833 530.2 188.2 541 199" stroke="#345AA0"/>
<path d="M462 169V178.5" stroke="#345AA0"/>
<path fill-rule="evenodd" clip-rule="evenodd" d="M1531 673.579L1484 700.381C1476.17 689.131 1458.4 664.347 1450 655.214C1439.5 643.798 1371 534.603 1357 496.881L1358.5 678.542H1357.5V720.731H1208H1201H1051.5V678.542H1050.5L1052 496.881C1038 534.603 969.5 643.798 959 655.214C950.6 664.347 932.833 689.131 925 700.381L878 673.579C883.5 653.891 895.1 614.514 897.5 614.514C910.7 574.41 1004.33 384.377 1049.5 294.374V292.388L1052 288.914C1057.6 278.59 1090 262.112 1105.5 255.163C1105.33 253.343 1105.1 249.107 1105.5 246.725C1105.74 245.275 1107.29 241.59 1108.81 237.961C1110.42 234.135 1112 230.372 1112 229.353C1112 227.765 1110.33 224.72 1109.5 223.397C1110.5 221.246 1112.9 216.051 1114.5 212.477C1116.1 208.904 1117.5 202.385 1118 199.572C1141.06 180.811 1183.2 177.415 1204.5 178.075C1225.8 177.415 1267.94 180.811 1291 199.572C1291.5 202.385 1292.9 208.904 1294.5 212.477C1296.1 216.051 1298.5 221.246 1299.5 223.397C1298.67 224.72 1297 227.765 1297 229.353C1297 230.372 1298.58 234.135 1300.19 237.961C1301.71 241.59 1303.26 245.275 1303.5 246.725C1303.9 249.107 1303.67 253.343 1303.5 255.163C1319 262.112 1351.4 278.59 1357 288.914L1359.5 292.388V294.374C1404.67 384.377 1498.3 574.41 1511.5 614.514C1513.9 614.514 1525.5 653.891 1531 673.579Z" fill="#7A97CC"/>
<path d="M1484 700.381L1483.59 700.667L1483.85 701.042L1484.25 700.816L1484 700.381ZM1531 673.579L1531.25 674.013L1531.59 673.82L1531.48 673.444L1531 673.579ZM1450 655.214L1449.63 655.553L1449.63 655.553L1450 655.214ZM1357 496.881L1357.47 496.707L1356.5 496.885L1357 496.881ZM1358.5 678.542V679.042H1359L1359 678.538L1358.5 678.542ZM1357.5 678.542V678.042H1357V678.542H1357.5ZM1357.5 720.731V721.231H1358V720.731H1357.5ZM1051.5 720.731H1051V721.231H1051.5V720.731ZM1051.5 678.542H1052V678.042H1051.5V678.542ZM1050.5 678.542L1050 678.538L1050 679.042H1050.5V678.542ZM1052 496.881L1052.5 496.885L1051.53 496.707L1052 496.881ZM959 655.214L959.368 655.553L959.368 655.553L959 655.214ZM925 700.381L924.752 700.816L925.149 701.042L925.41 700.667L925 700.381ZM878 673.579L877.518 673.444L877.413 673.82L877.752 674.013L878 673.579ZM897.5 614.514V615.014H897.862L897.975 614.671L897.5 614.514ZM1049.5 294.374L1049.95 294.598L1050 294.492V294.374H1049.5ZM1049.5 292.388L1049.09 292.096L1049 292.227V292.388H1049.5ZM1052 288.914L1052.41 289.206L1052.42 289.18L1052.44 289.152L1052 288.914ZM1105.5 255.163L1105.7 255.619L1106.03 255.473L1106 255.117L1105.5 255.163ZM1105.5 246.725L1105.01 246.642L1105.01 246.642L1105.5 246.725ZM1108.81 237.961L1109.28 238.154L1109.28 238.154L1108.81 237.961ZM1109.5 223.397L1109.05 223.186L1108.93 223.433L1109.08 223.663L1109.5 223.397ZM1114.5 212.477L1114.04 212.273L1114.04 212.273L1114.5 212.477ZM1118 199.572L1117.68 199.185L1117.54 199.302L1117.51 199.485L1118 199.572ZM1204.5 178.075L1204.48 178.575L1204.5 178.576L1204.52 178.575L1204.5 178.075ZM1291 199.572L1291.49 199.485L1291.46 199.302L1291.32 199.185L1291 199.572ZM1299.5 223.397L1299.92 223.663L1300.07 223.433L1299.95 223.186L1299.5 223.397ZM1300.19 237.961L1300.65 237.767L1300.65 237.767L1300.19 237.961ZM1303.5 246.725L1303.99 246.642L1303.99 246.642L1303.5 246.725ZM1303.5 255.163L1303 255.117L1302.97 255.473L1303.3 255.619L1303.5 255.163ZM1357 288.914L1356.56 289.152L1356.58 289.18L1356.59 289.206L1357 288.914ZM1359.5 292.388H1360V292.227L1359.91 292.096L1359.5 292.388ZM1359.5 294.374H1359V294.492L1359.05 294.598L1359.5 294.374ZM1511.5 614.514L1511.03 614.671L1511.14 615.014H1511.5V614.514ZM1484 700.381L1484.25 700.816L1531.25 674.013L1531 673.579L1530.75 673.145L1483.75 699.947L1484 700.381ZM1450 655.214L1449.63 655.553C1458 664.655 1475.75 689.408 1483.59 700.667L1484 700.381L1484.41 700.096C1476.58 688.854 1458.8 664.039 1450.37 654.876L1450 655.214ZM1357 496.881L1356.53 497.055C1363.55 515.968 1384.2 552.739 1404.38 586.171C1414.48 602.896 1424.47 618.799 1432.59 631.237C1440.7 643.655 1446.97 652.661 1449.63 655.553L1450 655.214L1450.37 654.876C1447.78 652.059 1441.55 643.136 1433.43 630.69C1425.31 618.264 1415.33 602.37 1405.24 585.654C1385.05 552.204 1364.45 515.516 1357.47 496.707L1357 496.881ZM1358.5 678.542L1359 678.538L1357.5 496.877L1357 496.881L1356.5 496.885L1358 678.546L1358.5 678.542ZM1357.5 678.542V679.042H1358.5V678.542V678.042H1357.5V678.542ZM1357.5 720.731H1358V678.542H1357.5H1357V720.731H1357.5ZM1208 720.731V721.231H1357.5V720.731V720.231H1208V720.731ZM1208 720.731V720.231H1201V720.731V721.231H1208V720.731ZM1201 720.731V720.231H1051.5V720.731V721.231H1201V720.731ZM1051.5 720.731H1052V678.542H1051.5H1051V720.731H1051.5ZM1051.5 678.542V678.042H1050.5V678.542V679.042H1051.5V678.542ZM1050.5 678.542L1051 678.546L1052.5 496.885L1052 496.881L1051.5 496.877L1050 678.538L1050.5 678.542ZM1052 496.881L1051.53 496.707C1044.55 515.516 1023.95 552.204 1003.76 585.654C993.668 602.37 983.687 618.264 975.574 630.69C967.447 643.136 961.222 652.059 958.632 654.876L959 655.214L959.368 655.553C962.028 652.661 968.303 643.655 976.411 631.237C984.532 618.799 994.519 602.896 1004.62 586.171C1024.8 552.739 1045.45 515.968 1052.47 497.055L1052 496.881ZM959 655.214L958.632 654.876C950.204 664.039 932.417 688.854 924.59 700.096L925 700.381L925.41 700.667C933.25 689.408 950.996 664.655 959.368 655.553L959 655.214ZM925 700.381L925.248 699.947L878.248 673.145L878 673.579L877.752 674.013L924.752 700.816L925 700.381ZM878 673.579L878.482 673.713C881.231 663.872 885.504 649.112 889.389 636.814C891.332 630.664 893.176 625.137 894.682 621.151C895.436 619.156 896.1 617.56 896.646 616.468C896.92 615.92 897.155 615.518 897.347 615.26C897.444 615.13 897.516 615.054 897.564 615.016C897.619 614.971 897.592 615.014 897.5 615.014V614.514V614.014C897.258 614.014 897.063 614.134 896.933 614.24C896.796 614.351 896.666 614.5 896.545 614.663C896.301 614.991 896.035 615.454 895.751 616.021C895.182 617.16 894.503 618.794 893.746 620.798C892.23 624.81 890.38 630.358 888.436 636.513C884.546 648.825 880.269 663.597 877.518 673.444L878 673.579ZM897.5 614.514L897.975 614.671C904.562 594.658 931.251 537.161 961.963 473.373C992.666 409.604 1027.36 339.598 1049.95 294.598L1049.5 294.374L1049.05 294.149C1026.47 339.153 991.768 409.164 961.062 472.939C930.366 536.695 903.638 594.266 897.025 614.358L897.5 614.514ZM1049.5 294.374H1050V292.388H1049.5H1049V294.374H1049.5ZM1049.5 292.388L1049.91 292.68L1052.41 289.206L1052 288.914L1051.59 288.622L1049.09 292.096L1049.5 292.388ZM1052 288.914L1052.44 289.152C1053.79 286.671 1056.78 283.76 1060.85 280.66C1064.89 277.572 1069.93 274.338 1075.29 271.204C1086.01 264.937 1097.97 259.088 1105.7 255.619L1105.5 255.163L1105.3 254.706C1097.53 258.186 1085.54 264.051 1074.79 270.341C1069.41 273.486 1064.33 276.742 1060.24 279.865C1056.17 282.975 1053.01 285.995 1051.56 288.676L1052 288.914ZM1105.5 255.163L1106 255.117C1105.83 253.295 1105.61 249.119 1105.99 246.808L1105.5 246.725L1105.01 246.642C1104.59 249.096 1104.84 253.391 1105 255.208L1105.5 255.163ZM1105.5 246.725L1105.99 246.808C1106.1 246.143 1106.53 244.909 1107.14 243.342C1107.75 241.793 1108.51 239.971 1109.28 238.154L1108.81 237.961L1108.35 237.767C1107.59 239.58 1106.82 241.415 1106.21 242.978C1105.61 244.524 1105.14 245.857 1105.01 246.642L1105.5 246.725ZM1108.81 237.961L1109.28 238.154C1110.08 236.244 1110.88 234.339 1111.48 232.784C1111.78 232.007 1112.03 231.31 1112.21 230.739C1112.38 230.188 1112.5 229.694 1112.5 229.353H1112H1111.5C1111.5 229.522 1111.43 229.88 1111.25 230.441C1111.08 230.982 1110.84 231.655 1110.54 232.425C1109.95 233.963 1109.16 235.852 1108.35 237.767L1108.81 237.961ZM1112 229.353H1112.5C1112.5 228.88 1112.38 228.335 1112.2 227.786C1112.03 227.231 1111.78 226.64 1111.52 226.066C1110.98 224.918 1110.35 223.807 1109.92 223.13L1109.5 223.397L1109.08 223.663C1109.48 224.31 1110.1 225.383 1110.61 226.486C1110.86 227.037 1111.09 227.587 1111.25 228.091C1111.41 228.601 1111.5 229.032 1111.5 229.353H1112ZM1109.5 223.397L1109.95 223.608C1110.95 221.456 1113.35 216.259 1114.96 212.682L1114.5 212.477L1114.04 212.273C1112.45 215.843 1110.05 221.036 1109.05 223.186L1109.5 223.397ZM1114.5 212.477L1114.96 212.682C1116.58 209.046 1117.99 202.472 1118.49 199.66L1118 199.572L1117.51 199.485C1117.01 202.298 1115.62 208.762 1114.04 212.273L1114.5 212.477ZM1118 199.572L1118.32 199.96C1129.75 190.656 1145.96 185.137 1162 182.031C1178.04 178.928 1193.86 178.246 1204.48 178.575L1204.5 178.075L1204.52 177.576C1193.83 177.244 1177.94 177.93 1161.81 181.05C1145.7 184.168 1129.31 189.728 1117.68 199.185L1118 199.572ZM1291 199.572L1291.32 199.185C1279.69 189.728 1263.3 184.168 1247.19 181.05C1231.06 177.93 1215.17 177.244 1204.48 177.576L1204.5 178.075L1204.52 178.575C1215.14 178.246 1230.96 178.928 1247 182.031C1263.04 185.137 1279.25 190.656 1290.68 199.96L1291 199.572ZM1294.5 212.477L1294.96 212.273C1293.38 208.762 1291.99 202.298 1291.49 199.485L1291 199.572L1290.51 199.66C1291.01 202.472 1292.42 209.046 1294.04 212.682L1294.5 212.477ZM1299.5 223.397L1299.95 223.186C1298.95 221.036 1296.55 215.843 1294.96 212.273L1294.5 212.477L1294.04 212.682C1295.65 216.259 1298.05 221.456 1299.05 223.608L1299.5 223.397ZM1297 229.353H1297.5C1297.5 229.032 1297.59 228.601 1297.75 228.091C1297.91 227.587 1298.14 227.037 1298.39 226.486C1298.9 225.383 1299.52 224.31 1299.92 223.663L1299.5 223.397L1299.08 223.13C1298.65 223.807 1298.02 224.918 1297.48 226.066C1297.22 226.64 1296.97 227.231 1296.8 227.786C1296.62 228.335 1296.5 228.88 1296.5 229.353H1297ZM1300.19 237.961L1300.65 237.767C1299.84 235.852 1299.05 233.963 1298.46 232.425C1298.16 231.655 1297.92 230.982 1297.75 230.441C1297.57 229.88 1297.5 229.522 1297.5 229.353H1297H1296.5C1296.5 229.694 1296.62 230.188 1296.79 230.739C1296.97 231.31 1297.22 232.007 1297.52 232.784C1298.12 234.339 1298.92 236.244 1299.72 238.154L1300.19 237.961ZM1303.5 246.725L1303.99 246.642C1303.86 245.857 1303.39 244.524 1302.79 242.978C1302.18 241.415 1301.41 239.58 1300.65 237.767L1300.19 237.961L1299.72 238.154C1300.49 239.971 1301.25 241.793 1301.86 243.342C1302.47 244.909 1302.9 246.143 1303.01 246.808L1303.5 246.725ZM1303.5 255.163L1304 255.208C1304.16 253.391 1304.41 249.096 1303.99 246.642L1303.5 246.725L1303.01 246.808C1303.39 249.119 1303.17 253.295 1303 255.117L1303.5 255.163ZM1357 288.914L1357.44 288.676C1355.99 285.995 1352.83 282.975 1348.76 279.865C1344.67 276.742 1339.59 273.486 1334.21 270.341C1323.46 264.051 1311.47 258.186 1303.7 254.706L1303.5 255.163L1303.3 255.619C1311.03 259.088 1322.99 264.937 1333.71 271.204C1339.07 274.338 1344.11 277.572 1348.15 280.66C1352.22 283.76 1355.21 286.671 1356.56 289.152L1357 288.914ZM1359.5 292.388L1359.91 292.096L1357.41 288.622L1357 288.914L1356.59 289.206L1359.09 292.68L1359.5 292.388ZM1359.5 294.374H1360V292.388H1359.5H1359V294.374H1359.5ZM1511.5 614.514L1511.97 614.358C1505.36 594.266 1478.63 536.695 1447.94 472.939C1417.23 409.164 1382.53 339.153 1359.95 294.149L1359.5 294.374L1359.05 294.598C1381.64 339.598 1416.33 409.604 1447.04 473.373C1477.75 537.161 1504.44 594.658 1511.03 614.671L1511.5 614.514ZM1531 673.579L1531.48 673.444C1528.73 663.597 1524.45 648.825 1520.56 636.513C1518.62 630.358 1516.77 624.81 1515.25 620.798C1514.5 618.794 1513.82 617.16 1513.25 616.021C1512.97 615.454 1512.7 614.991 1512.46 614.663C1512.33 614.5 1512.2 614.351 1512.07 614.24C1511.94 614.134 1511.74 614.014 1511.5 614.014V614.514V615.014C1511.41 615.014 1511.38 614.971 1511.44 615.016C1511.48 615.054 1511.56 615.13 1511.65 615.26C1511.84 615.518 1512.08 615.92 1512.35 616.468C1512.9 617.56 1513.56 619.156 1514.32 621.151C1515.82 625.137 1517.67 630.664 1519.61 636.814C1523.5 649.112 1527.77 663.872 1530.52 673.713L1531 673.579Z" fill="#345AA0"/>
<path d="M1052 680H1203" stroke="#345AA0"/>
<path d="M1203.5 287V251.5" stroke="#345AA0"/>
<path d="M1203.5 234V222.5" stroke="#345AA0"/>
<path d="M1275.5 219.5C1240.5 237.5 1147 236 1135 236C1125.4 236 1123.33 234 1123.5 233C1130.33 234.667 1146.1 238.9 1154.5 242.5C1165 247 1226.5 258.5 1261.5 237.5" stroke="#345AA0"/>
<path d="M1104.5 253C1113.83 256.5 1135.8 265.4 1149 273C1165.5 282.5 1188.5 287 1204 285.5" stroke="#345AA0"/>
<path d="M1052 288C1055.5 300.833 1062.2 334.2 1061 365C1059.5 403.5 1056 444 1055.5 452C1055.1 458.4 1055.33 481.667 1055.5 492.5" stroke="#345AA0"/>
<path d="M1355.5 680H1204.5" stroke="#345AA0"/>
<path d="M1204 287V251.5" stroke="#345AA0"/>
<path d="M1204 234V222.5" stroke="#345AA0"/>
<path d="M1303 253C1293.67 256.5 1271.7 265.4 1258.5 273C1242 282.5 1219 287 1203.5 285.5" stroke="#345AA0"/>
<path d="M1355.5 288C1352 300.833 1345.3 334.2 1346.5 365C1348 403.5 1351.5 444 1352 452C1352.4 458.4 1352.17 481.667 1352 492.5" stroke="#345AA0"/>
<path d="M331.092 600V590.76H333.766L336.51 598.026H336.58L339.282 590.76H341.844V600H340.164L340.276 592.552H340.136L337.21 600H335.67L332.786 592.552H332.646L332.758 600H331.092ZM347.176 600.182C346.457 600.182 345.822 600.037 345.272 599.748C344.721 599.449 344.287 599.015 343.97 598.446C343.662 597.867 343.508 597.158 343.508 596.318C343.508 595.459 343.666 594.75 343.984 594.19C344.31 593.621 344.749 593.196 345.3 592.916C345.85 592.636 346.471 592.496 347.162 592.496C347.88 592.496 348.515 592.641 349.066 592.93C349.616 593.219 350.05 593.653 350.368 594.232C350.685 594.801 350.844 595.511 350.844 596.36C350.844 597.219 350.685 597.933 350.368 598.502C350.05 599.071 349.612 599.496 349.052 599.776C348.501 600.047 347.876 600.182 347.176 600.182ZM347.246 598.838C347.638 598.838 347.969 598.749 348.24 598.572C348.51 598.385 348.716 598.11 348.856 597.746C349.005 597.382 349.08 596.948 349.08 596.444C349.08 595.912 349 595.459 348.842 595.086C348.692 594.703 348.473 594.409 348.184 594.204C347.904 593.999 347.549 593.896 347.12 593.896C346.746 593.896 346.42 593.989 346.14 594.176C345.86 594.353 345.645 594.619 345.496 594.974C345.356 595.329 345.286 595.767 345.286 596.29C345.286 597.111 345.458 597.741 345.804 598.18C346.158 598.619 346.639 598.838 347.246 598.838ZM352.432 600V596.332V592.678H353.916L353.888 595.198H354.14C354.224 594.601 354.354 594.106 354.532 593.714C354.709 593.313 354.956 593.014 355.274 592.818C355.591 592.613 355.983 592.51 356.45 592.51C356.543 592.51 356.641 592.515 356.744 592.524C356.856 592.533 356.977 592.557 357.108 592.594L357.038 594.456C356.888 594.4 356.734 594.363 356.576 594.344C356.426 594.316 356.286 594.302 356.156 594.302C355.792 594.302 355.474 594.395 355.204 594.582C354.942 594.769 354.728 595.035 354.56 595.38C354.401 595.716 354.28 596.117 354.196 596.584V600H352.432ZM361.573 600.182C360.985 600.182 360.458 600.098 359.991 599.93C359.534 599.762 359.147 599.519 358.829 599.202C358.512 598.875 358.269 598.483 358.101 598.026C357.933 597.569 357.849 597.051 357.849 596.472C357.849 595.893 357.929 595.361 358.087 594.876C358.255 594.391 358.493 593.971 358.801 593.616C359.109 593.261 359.483 592.986 359.921 592.79C360.369 592.594 360.878 592.496 361.447 592.496C361.979 592.496 362.455 592.585 362.875 592.762C363.295 592.939 363.65 593.205 363.939 593.56C364.229 593.905 364.443 594.339 364.583 594.862C364.723 595.375 364.77 595.973 364.723 596.654L358.997 596.696V595.674L363.701 595.632L363.085 596.206C363.141 595.674 363.099 595.24 362.959 594.904C362.819 594.559 362.619 594.307 362.357 594.148C362.096 593.98 361.797 593.896 361.461 593.896C361.079 593.896 360.743 593.999 360.453 594.204C360.164 594.4 359.94 594.689 359.781 595.072C359.632 595.445 359.557 595.903 359.557 596.444C359.557 597.256 359.735 597.863 360.089 598.264C360.453 598.665 360.948 598.866 361.573 598.866C361.853 598.866 362.087 598.833 362.273 598.768C362.469 598.693 362.633 598.6 362.763 598.488C362.894 598.367 362.997 598.231 363.071 598.082C363.155 597.933 363.221 597.774 363.267 597.606L364.807 597.956C364.733 598.301 364.611 598.609 364.443 598.88C364.275 599.151 364.056 599.384 363.785 599.58C363.524 599.776 363.211 599.925 362.847 600.028C362.483 600.131 362.059 600.182 361.573 600.182ZM372.234 600.168C371.459 600.168 370.89 599.963 370.526 599.552C370.162 599.132 369.98 598.483 369.98 597.606V594.092H368.902L368.93 592.692H369.644C369.914 592.692 370.115 592.65 370.246 592.566C370.376 592.482 370.456 592.333 370.484 592.118L370.652 591.054H371.674V592.678H373.606V594.148H371.674V597.536C371.674 597.881 371.753 598.133 371.912 598.292C372.08 598.451 372.327 598.53 372.654 598.53C372.831 598.53 373.004 598.511 373.172 598.474C373.349 598.427 373.512 598.353 373.662 598.25V599.93C373.372 600.023 373.106 600.084 372.864 600.112C372.63 600.149 372.42 600.168 372.234 600.168ZM375.113 600V595.45V590.06H376.891V592.342C376.891 592.538 376.882 592.739 376.863 592.944C376.854 593.149 376.835 593.359 376.807 593.574C376.779 593.789 376.746 594.003 376.709 594.218C376.681 594.433 376.648 594.647 376.611 594.862H376.905C377.036 594.358 377.204 593.933 377.409 593.588C377.614 593.233 377.876 592.963 378.193 592.776C378.52 592.589 378.916 592.496 379.383 592.496C380.232 592.496 380.867 592.795 381.287 593.392C381.707 593.98 381.917 594.876 381.917 596.08V600H380.139V596.332C380.139 595.529 380.018 594.937 379.775 594.554C379.542 594.171 379.187 593.98 378.711 593.98C378.319 593.98 377.992 594.101 377.731 594.344C377.47 594.577 377.269 594.89 377.129 595.282C376.989 595.674 376.905 596.117 376.877 596.612V600H375.113ZM385.475 600.182C385.074 600.182 384.714 600.107 384.397 599.958C384.08 599.799 383.828 599.566 383.641 599.258C383.464 598.95 383.375 598.567 383.375 598.11C383.375 597.727 383.445 597.401 383.585 597.13C383.734 596.859 383.954 596.64 384.243 596.472C384.532 596.295 384.892 596.15 385.321 596.038C385.75 595.917 386.254 595.814 386.833 595.73C387.15 595.683 387.407 595.637 387.603 595.59C387.808 595.543 387.958 595.473 388.051 595.38C388.144 595.277 388.191 595.128 388.191 594.932C388.191 594.643 388.088 594.395 387.883 594.19C387.687 593.975 387.365 593.868 386.917 593.868C386.646 593.868 386.385 593.915 386.133 594.008C385.89 594.101 385.68 594.251 385.503 594.456C385.326 594.652 385.204 594.913 385.139 595.24L383.557 594.75C383.66 594.377 383.809 594.055 384.005 593.784C384.201 593.504 384.444 593.266 384.733 593.07C385.022 592.874 385.354 592.729 385.727 592.636C386.1 592.543 386.511 592.496 386.959 592.496C387.64 592.496 388.2 592.608 388.639 592.832C389.078 593.047 389.404 593.387 389.619 593.854C389.834 594.311 389.941 594.904 389.941 595.632V597.004C389.941 597.321 389.946 597.653 389.955 597.998C389.974 598.334 389.992 598.675 390.011 599.02C390.039 599.356 390.072 599.683 390.109 600H388.527C388.49 599.739 388.457 599.459 388.429 599.16C388.401 598.861 388.378 598.558 388.359 598.25H388.135C388.004 598.605 387.818 598.931 387.575 599.23C387.332 599.519 387.034 599.753 386.679 599.93C386.334 600.098 385.932 600.182 385.475 600.182ZM386.175 598.88C386.362 598.88 386.548 598.847 386.735 598.782C386.931 598.717 387.122 598.619 387.309 598.488C387.496 598.357 387.668 598.199 387.827 598.012C387.986 597.816 388.121 597.587 388.233 597.326L388.205 596.08L388.541 596.136C388.382 596.267 388.186 596.369 387.953 596.444C387.72 596.519 387.472 596.575 387.211 596.612C386.959 596.649 386.702 596.696 386.441 596.752C386.189 596.799 385.96 596.864 385.755 596.948C385.55 597.023 385.386 597.135 385.265 597.284C385.144 597.424 385.083 597.62 385.083 597.872C385.083 598.189 385.186 598.437 385.391 598.614C385.596 598.791 385.858 598.88 386.175 598.88ZM391.848 600V595.534V592.678H393.318L393.276 594.918H393.528C393.658 594.367 393.831 593.915 394.046 593.56C394.27 593.205 394.554 592.939 394.9 592.762C395.245 592.585 395.646 592.496 396.104 592.496C396.934 592.496 397.564 592.79 397.994 593.378C398.432 593.966 398.652 594.876 398.652 596.108V600H396.874V596.29C396.874 595.497 396.752 594.918 396.51 594.554C396.276 594.181 395.926 593.994 395.46 593.994C395.068 593.994 394.736 594.12 394.466 594.372C394.195 594.615 393.985 594.941 393.836 595.352C393.696 595.753 393.621 596.197 393.612 596.682V600H391.848ZM403.221 602.744C403.137 602.744 403.053 602.735 402.969 602.716C402.885 602.707 402.792 602.693 402.689 602.674L402.549 601.134C403.035 601.171 403.385 601.12 403.599 600.98C403.814 600.849 403.921 600.546 403.921 600.07V592.678H405.699V600.07C405.699 600.527 405.643 600.924 405.531 601.26C405.429 601.596 405.275 601.871 405.069 602.086C404.864 602.31 404.603 602.473 404.285 602.576C403.977 602.688 403.623 602.744 403.221 602.744ZM404.803 591.53C404.449 591.53 404.173 591.455 403.977 591.306C403.791 591.147 403.697 590.923 403.697 590.634C403.697 590.345 403.791 590.125 403.977 589.976C404.173 589.817 404.449 589.738 404.803 589.738C405.177 589.738 405.457 589.813 405.643 589.962C405.83 590.111 405.923 590.335 405.923 590.634C405.923 590.923 405.825 591.147 405.629 591.306C405.443 591.455 405.167 591.53 404.803 591.53ZM410.102 600.182C409.262 600.182 408.627 599.897 408.198 599.328C407.778 598.749 407.568 597.877 407.568 596.71V592.678H409.346V596.514C409.346 597.251 409.458 597.802 409.682 598.166C409.906 598.53 410.251 598.712 410.718 598.712C410.988 598.712 411.226 598.647 411.432 598.516C411.637 598.376 411.814 598.185 411.964 597.942C412.113 597.69 412.23 597.401 412.314 597.074C412.407 596.747 412.463 596.388 412.482 595.996V592.678H414.246V596.99V600H412.79L412.818 597.69H412.566C412.444 598.278 412.272 598.754 412.048 599.118C411.833 599.482 411.567 599.753 411.25 599.93C410.932 600.098 410.55 600.182 410.102 600.182ZM419.08 600.182C418.585 600.182 418.137 600.131 417.736 600.028C417.344 599.935 417.008 599.799 416.728 599.622C416.448 599.435 416.224 599.216 416.056 598.964C415.888 598.703 415.785 598.413 415.748 598.096L417.134 597.578C417.153 597.821 417.246 598.04 417.414 598.236C417.582 598.423 417.815 598.572 418.114 598.684C418.413 598.796 418.772 598.852 419.192 598.852C419.659 598.852 420.018 598.782 420.27 598.642C420.531 598.493 420.662 598.283 420.662 598.012C420.662 597.816 420.592 597.662 420.452 597.55C420.312 597.429 420.107 597.331 419.836 597.256C419.575 597.172 419.257 597.093 418.884 597.018C418.539 596.943 418.189 596.859 417.834 596.766C417.489 596.663 417.167 596.533 416.868 596.374C416.579 596.206 416.341 595.991 416.154 595.73C415.977 595.459 415.888 595.119 415.888 594.708C415.888 594.26 416.005 593.873 416.238 593.546C416.481 593.219 416.826 592.963 417.274 592.776C417.731 592.589 418.282 592.496 418.926 592.496C419.533 592.496 420.055 592.58 420.494 592.748C420.942 592.916 421.306 593.159 421.586 593.476C421.866 593.784 422.043 594.153 422.118 594.582L420.662 595.044C420.634 594.783 420.545 594.563 420.396 594.386C420.247 594.199 420.046 594.059 419.794 593.966C419.542 593.873 419.248 593.826 418.912 593.826C418.483 593.826 418.147 593.901 417.904 594.05C417.661 594.199 417.54 594.4 417.54 594.652C417.54 594.857 417.615 595.021 417.764 595.142C417.923 595.263 418.137 595.361 418.408 595.436C418.688 595.511 419.005 595.585 419.36 595.66C419.733 595.735 420.093 595.823 420.438 595.926C420.793 596.019 421.11 596.145 421.39 596.304C421.67 596.463 421.894 596.673 422.062 596.934C422.23 597.186 422.314 597.513 422.314 597.914C422.314 598.399 422.183 598.815 421.922 599.16C421.661 599.496 421.287 599.753 420.802 599.93C420.326 600.098 419.752 600.182 419.08 600.182ZM426.347 600.168C425.572 600.168 425.003 599.963 424.639 599.552C424.275 599.132 424.093 598.483 424.093 597.606V594.092H423.015L423.043 592.692H423.757C424.028 592.692 424.228 592.65 424.359 592.566C424.49 592.482 424.569 592.333 424.597 592.118L424.765 591.054H425.787V592.678H427.719V594.148H425.787V597.536C425.787 597.881 425.866 598.133 426.025 598.292C426.193 598.451 426.44 598.53 426.767 598.53C426.944 598.53 427.117 598.511 427.285 598.474C427.462 598.427 427.626 598.353 427.775 598.25V599.93C427.486 600.023 427.22 600.084 426.977 600.112C426.744 600.149 426.534 600.168 426.347 600.168ZM332.688 614.182C332.287 614.182 331.927 614.107 331.61 613.958C331.293 613.799 331.041 613.566 330.854 613.258C330.677 612.95 330.588 612.567 330.588 612.11C330.588 611.727 330.658 611.401 330.798 611.13C330.947 610.859 331.167 610.64 331.456 610.472C331.745 610.295 332.105 610.15 332.534 610.038C332.963 609.917 333.467 609.814 334.046 609.73C334.363 609.683 334.62 609.637 334.816 609.59C335.021 609.543 335.171 609.473 335.264 609.38C335.357 609.277 335.404 609.128 335.404 608.932C335.404 608.643 335.301 608.395 335.096 608.19C334.9 607.975 334.578 607.868 334.13 607.868C333.859 607.868 333.598 607.915 333.346 608.008C333.103 608.101 332.893 608.251 332.716 608.456C332.539 608.652 332.417 608.913 332.352 609.24L330.77 608.75C330.873 608.377 331.022 608.055 331.218 607.784C331.414 607.504 331.657 607.266 331.946 607.07C332.235 606.874 332.567 606.729 332.94 606.636C333.313 606.543 333.724 606.496 334.172 606.496C334.853 606.496 335.413 606.608 335.852 606.832C336.291 607.047 336.617 607.387 336.832 607.854C337.047 608.311 337.154 608.904 337.154 609.632V611.004C337.154 611.321 337.159 611.653 337.168 611.998C337.187 612.334 337.205 612.675 337.224 613.02C337.252 613.356 337.285 613.683 337.322 614H335.74C335.703 613.739 335.67 613.459 335.642 613.16C335.614 612.861 335.591 612.558 335.572 612.25H335.348C335.217 612.605 335.031 612.931 334.788 613.23C334.545 613.519 334.247 613.753 333.892 613.93C333.547 614.098 333.145 614.182 332.688 614.182ZM333.388 612.88C333.575 612.88 333.761 612.847 333.948 612.782C334.144 612.717 334.335 612.619 334.522 612.488C334.709 612.357 334.881 612.199 335.04 612.012C335.199 611.816 335.334 611.587 335.446 611.326L335.418 610.08L335.754 610.136C335.595 610.267 335.399 610.369 335.166 610.444C334.933 610.519 334.685 610.575 334.424 610.612C334.172 610.649 333.915 610.696 333.654 610.752C333.402 610.799 333.173 610.864 332.968 610.948C332.763 611.023 332.599 611.135 332.478 611.284C332.357 611.424 332.296 611.62 332.296 611.872C332.296 612.189 332.399 612.437 332.604 612.614C332.809 612.791 333.071 612.88 333.388 612.88ZM342.396 616.324V610.388V606.678H343.88L343.866 608.666L344.104 608.68C344.198 608.213 344.347 607.817 344.552 607.49C344.767 607.163 345.038 606.916 345.364 606.748C345.691 606.58 346.078 606.496 346.526 606.496C347.18 606.496 347.735 606.659 348.192 606.986C348.65 607.303 348.995 607.756 349.228 608.344C349.471 608.923 349.592 609.599 349.592 610.374C349.592 611.102 349.48 611.755 349.256 612.334C349.042 612.903 348.71 613.356 348.262 613.692C347.824 614.019 347.278 614.182 346.624 614.182C346.148 614.182 345.747 614.089 345.42 613.902C345.094 613.715 344.828 613.459 344.622 613.132C344.417 612.805 344.249 612.427 344.118 611.998H343.866C343.922 612.25 343.969 612.511 344.006 612.782C344.053 613.043 344.09 613.305 344.118 613.566C344.146 613.818 344.16 614.061 344.16 614.294V616.324H342.396ZM346.05 612.74C346.414 612.74 346.722 612.642 346.974 612.446C347.226 612.241 347.418 611.961 347.548 611.606C347.679 611.242 347.744 610.827 347.744 610.36C347.744 609.875 347.674 609.455 347.534 609.1C347.404 608.745 347.208 608.47 346.946 608.274C346.685 608.078 346.377 607.98 346.022 607.98C345.714 607.98 345.444 608.05 345.21 608.19C344.977 608.33 344.781 608.517 344.622 608.75C344.464 608.974 344.347 609.217 344.272 609.478C344.198 609.739 344.16 609.996 344.16 610.248V610.486C344.16 610.673 344.184 610.869 344.23 611.074C344.286 611.27 344.366 611.471 344.468 611.676C344.571 611.872 344.697 612.054 344.846 612.222C344.996 612.381 345.173 612.507 345.378 612.6C345.584 612.693 345.808 612.74 346.05 612.74ZM351.187 614V610.332V606.678H352.671L352.643 609.198H352.895C352.979 608.601 353.11 608.106 353.287 607.714C353.465 607.313 353.712 607.014 354.029 606.818C354.347 606.613 354.739 606.51 355.205 606.51C355.299 606.51 355.397 606.515 355.499 606.524C355.611 606.533 355.733 606.557 355.863 606.594L355.793 608.456C355.644 608.4 355.49 608.363 355.331 608.344C355.182 608.316 355.042 608.302 354.911 608.302C354.547 608.302 354.23 608.395 353.959 608.582C353.698 608.769 353.483 609.035 353.315 609.38C353.157 609.716 353.035 610.117 352.951 610.584V614H351.187ZM360.329 614.182C359.741 614.182 359.214 614.098 358.747 613.93C358.29 613.762 357.903 613.519 357.585 613.202C357.268 612.875 357.025 612.483 356.857 612.026C356.689 611.569 356.605 611.051 356.605 610.472C356.605 609.893 356.685 609.361 356.843 608.876C357.011 608.391 357.249 607.971 357.557 607.616C357.865 607.261 358.239 606.986 358.677 606.79C359.125 606.594 359.634 606.496 360.203 606.496C360.735 606.496 361.211 606.585 361.631 606.762C362.051 606.939 362.406 607.205 362.695 607.56C362.985 607.905 363.199 608.339 363.339 608.862C363.479 609.375 363.526 609.973 363.479 610.654L357.753 610.696V609.674L362.457 609.632L361.841 610.206C361.897 609.674 361.855 609.24 361.715 608.904C361.575 608.559 361.375 608.307 361.113 608.148C360.852 607.98 360.553 607.896 360.217 607.896C359.835 607.896 359.499 607.999 359.209 608.204C358.92 608.4 358.696 608.689 358.537 609.072C358.388 609.445 358.313 609.903 358.313 610.444C358.313 611.256 358.491 611.863 358.845 612.264C359.209 612.665 359.704 612.866 360.329 612.866C360.609 612.866 360.843 612.833 361.029 612.768C361.225 612.693 361.389 612.6 361.519 612.488C361.65 612.367 361.753 612.231 361.827 612.082C361.911 611.933 361.977 611.774 362.023 611.606L363.563 611.956C363.489 612.301 363.367 612.609 363.199 612.88C363.031 613.151 362.812 613.384 362.541 613.58C362.28 613.776 361.967 613.925 361.603 614.028C361.239 614.131 360.815 614.182 360.329 614.182ZM367.654 614.168C366.879 614.168 366.31 613.963 365.946 613.552C365.582 613.132 365.4 612.483 365.4 611.606V608.092H364.322L364.35 606.692H365.064C365.334 606.692 365.535 606.65 365.666 606.566C365.796 606.482 365.876 606.333 365.904 606.118L366.072 605.054H367.094V606.678H369.026V608.148H367.094V611.536C367.094 611.881 367.173 612.133 367.332 612.292C367.5 612.451 367.747 612.53 368.074 612.53C368.251 612.53 368.424 612.511 368.592 612.474C368.769 612.427 368.932 612.353 369.082 612.25V613.93C368.792 614.023 368.526 614.084 368.284 614.112C368.05 614.149 367.84 614.168 367.654 614.168ZM373.3 614.168C372.525 614.168 371.956 613.963 371.592 613.552C371.228 613.132 371.046 612.483 371.046 611.606V608.092H369.968L369.996 606.692H370.71C370.981 606.692 371.181 606.65 371.312 606.566C371.443 606.482 371.522 606.333 371.55 606.118L371.718 605.054H372.74V606.678H374.672V608.148H372.74V611.536C372.74 611.881 372.819 612.133 372.978 612.292C373.146 612.451 373.393 612.53 373.72 612.53C373.897 612.53 374.07 612.511 374.238 612.474C374.415 612.427 374.579 612.353 374.728 612.25V613.93C374.439 614.023 374.173 614.084 373.93 614.112C373.697 614.149 373.487 614.168 373.3 614.168ZM378.882 616.506C378.509 616.506 378.131 616.469 377.748 616.394C377.365 616.319 377.006 616.203 376.67 616.044C376.343 615.895 376.068 615.699 375.844 615.456L376.446 614C376.717 614.308 377.067 614.541 377.496 614.7C377.925 614.859 378.359 614.938 378.798 614.938C379.311 614.938 379.736 614.831 380.072 614.616C380.408 614.411 380.665 614.089 380.842 613.65C381.019 613.211 381.117 612.665 381.136 612.012L381.234 610.682H380.94C380.847 611.317 380.693 611.835 380.478 612.236C380.263 612.628 379.993 612.917 379.666 613.104C379.349 613.281 378.975 613.37 378.546 613.37C378.014 613.37 377.566 613.235 377.202 612.964C376.838 612.693 376.563 612.292 376.376 611.76C376.199 611.228 376.11 610.57 376.11 609.786V606.678H377.888V609.38C377.888 610.257 377.995 610.897 378.21 611.298C378.425 611.69 378.751 611.886 379.19 611.886C379.423 611.886 379.638 611.825 379.834 611.704C380.03 611.573 380.193 611.391 380.324 611.158C380.464 610.915 380.571 610.617 380.646 610.262C380.73 609.907 380.777 609.501 380.786 609.044V606.678H382.564V612.082C382.564 612.67 382.513 613.202 382.41 613.678C382.317 614.145 382.172 614.551 381.976 614.896C381.78 615.251 381.533 615.549 381.234 615.792C380.945 616.035 380.604 616.212 380.212 616.324C379.82 616.445 379.377 616.506 378.882 616.506ZM387.855 614V606.678H389.619V614H387.855ZM388.737 605.53C388.383 605.53 388.107 605.455 387.911 605.306C387.725 605.147 387.631 604.923 387.631 604.634C387.631 604.345 387.725 604.125 387.911 603.976C388.107 603.817 388.383 603.738 388.737 603.738C389.111 603.738 389.391 603.813 389.577 603.962C389.764 604.111 389.857 604.335 389.857 604.634C389.857 604.923 389.759 605.147 389.563 605.306C389.377 605.455 389.101 605.53 388.737 605.53ZM391.601 614V609.534V606.678H393.071L393.029 608.918H393.281C393.412 608.367 393.585 607.915 393.799 607.56C394.023 607.205 394.308 606.939 394.653 606.762C394.999 606.585 395.4 606.496 395.857 606.496C396.688 606.496 397.318 606.79 397.747 607.378C398.186 607.966 398.405 608.876 398.405 610.108V614H396.627V610.29C396.627 609.497 396.506 608.918 396.263 608.554C396.03 608.181 395.68 607.994 395.213 607.994C394.821 607.994 394.49 608.12 394.219 608.372C393.949 608.615 393.739 608.941 393.589 609.352C393.449 609.753 393.375 610.197 393.365 610.682V614H391.601ZM402.818 614.168C402.043 614.168 401.474 613.963 401.11 613.552C400.746 613.132 400.564 612.483 400.564 611.606V608.092H399.486L399.514 606.692H400.228C400.498 606.692 400.699 606.65 400.83 606.566C400.96 606.482 401.04 606.333 401.068 606.118L401.236 605.054H402.258V606.678H404.19V608.148H402.258V611.536C402.258 611.881 402.337 612.133 402.496 612.292C402.664 612.451 402.911 612.53 403.238 612.53C403.415 612.53 403.588 612.511 403.756 612.474C403.933 612.427 404.096 612.353 404.246 612.25V613.93C403.956 614.023 403.69 614.084 403.448 614.112C403.214 614.149 403.004 614.168 402.818 614.168ZM408.946 614.182C408.358 614.182 407.831 614.098 407.364 613.93C406.907 613.762 406.52 613.519 406.202 613.202C405.885 612.875 405.642 612.483 405.474 612.026C405.306 611.569 405.222 611.051 405.222 610.472C405.222 609.893 405.302 609.361 405.46 608.876C405.628 608.391 405.866 607.971 406.174 607.616C406.482 607.261 406.856 606.986 407.294 606.79C407.742 606.594 408.251 606.496 408.82 606.496C409.352 606.496 409.828 606.585 410.248 606.762C410.668 606.939 411.023 607.205 411.312 607.56C411.602 607.905 411.816 608.339 411.956 608.862C412.096 609.375 412.143 609.973 412.096 610.654L406.37 610.696V609.674L411.074 609.632L410.458 610.206C410.514 609.674 410.472 609.24 410.332 608.904C410.192 608.559 409.992 608.307 409.73 608.148C409.469 607.98 409.17 607.896 408.834 607.896C408.452 607.896 408.116 607.999 407.826 608.204C407.537 608.4 407.313 608.689 407.154 609.072C407.005 609.445 406.93 609.903 406.93 610.444C406.93 611.256 407.108 611.863 407.462 612.264C407.826 612.665 408.321 612.866 408.946 612.866C409.226 612.866 409.46 612.833 409.646 612.768C409.842 612.693 410.006 612.6 410.136 612.488C410.267 612.367 410.37 612.231 410.444 612.082C410.528 611.933 410.594 611.774 410.64 611.606L412.18 611.956C412.106 612.301 411.984 612.609 411.816 612.88C411.648 613.151 411.429 613.384 411.158 613.58C410.897 613.776 410.584 613.925 410.22 614.028C409.856 614.131 409.432 614.182 408.946 614.182ZM413.709 614V610.332V606.678H415.193L415.165 609.198H415.417C415.501 608.601 415.632 608.106 415.809 607.714C415.986 607.313 416.234 607.014 416.551 606.818C416.868 606.613 417.26 606.51 417.727 606.51C417.82 606.51 417.918 606.515 418.021 606.524C418.133 606.533 418.254 606.557 418.385 606.594L418.315 608.456C418.166 608.4 418.012 608.363 417.853 608.344C417.704 608.316 417.564 608.302 417.433 608.302C417.069 608.302 416.752 608.395 416.481 608.582C416.22 608.769 416.005 609.035 415.837 609.38C415.678 609.716 415.557 610.117 415.473 610.584V614H413.709ZM420.325 614V609.156H419.107V607.826L421.025 607.924V607.672C420.736 607.588 420.493 607.467 420.297 607.308C420.101 607.14 419.957 606.944 419.863 606.72C419.779 606.496 419.737 606.253 419.737 605.992C419.737 605.591 419.835 605.245 420.031 604.956C420.227 604.667 420.503 604.443 420.857 604.284C421.212 604.116 421.632 604.032 422.117 604.032C422.519 604.032 422.883 604.083 423.209 604.186C423.545 604.289 423.816 604.415 424.021 604.564L423.881 606.188C423.676 606.02 423.438 605.889 423.167 605.796C422.897 605.693 422.635 605.642 422.383 605.642C422.094 605.642 421.856 605.726 421.669 605.894C421.483 606.053 421.389 606.314 421.389 606.678C421.389 606.911 421.431 607.103 421.515 607.252C421.599 607.392 421.707 607.504 421.837 607.588C421.977 607.663 422.113 607.719 422.243 607.756H423.951V609.156H422.047V614H420.325ZM426.901 614.182C426.5 614.182 426.14 614.107 425.823 613.958C425.506 613.799 425.254 613.566 425.067 613.258C424.89 612.95 424.801 612.567 424.801 612.11C424.801 611.727 424.871 611.401 425.011 611.13C425.16 610.859 425.38 610.64 425.669 610.472C425.958 610.295 426.318 610.15 426.747 610.038C427.176 609.917 427.68 609.814 428.259 609.73C428.576 609.683 428.833 609.637 429.029 609.59C429.234 609.543 429.384 609.473 429.477 609.38C429.57 609.277 429.617 609.128 429.617 608.932C429.617 608.643 429.514 608.395 429.309 608.19C429.113 607.975 428.791 607.868 428.343 607.868C428.072 607.868 427.811 607.915 427.559 608.008C427.316 608.101 427.106 608.251 426.929 608.456C426.752 608.652 426.63 608.913 426.565 609.24L424.983 608.75C425.086 608.377 425.235 608.055 425.431 607.784C425.627 607.504 425.87 607.266 426.159 607.07C426.448 606.874 426.78 606.729 427.153 606.636C427.526 606.543 427.937 606.496 428.385 606.496C429.066 606.496 429.626 606.608 430.065 606.832C430.504 607.047 430.83 607.387 431.045 607.854C431.26 608.311 431.367 608.904 431.367 609.632V611.004C431.367 611.321 431.372 611.653 431.381 611.998C431.4 612.334 431.418 612.675 431.437 613.02C431.465 613.356 431.498 613.683 431.535 614H429.953C429.916 613.739 429.883 613.459 429.855 613.16C429.827 612.861 429.804 612.558 429.785 612.25H429.561C429.43 612.605 429.244 612.931 429.001 613.23C428.758 613.519 428.46 613.753 428.105 613.93C427.76 614.098 427.358 614.182 426.901 614.182ZM427.601 612.88C427.788 612.88 427.974 612.847 428.161 612.782C428.357 612.717 428.548 612.619 428.735 612.488C428.922 612.357 429.094 612.199 429.253 612.012C429.412 611.816 429.547 611.587 429.659 611.326L429.631 610.08L429.967 610.136C429.808 610.267 429.612 610.369 429.379 610.444C429.146 610.519 428.898 610.575 428.637 610.612C428.385 610.649 428.128 610.696 427.867 610.752C427.615 610.799 427.386 610.864 427.181 610.948C426.976 611.023 426.812 611.135 426.691 611.284C426.57 611.424 426.509 611.62 426.509 611.872C426.509 612.189 426.612 612.437 426.817 612.614C427.022 612.791 427.284 612.88 427.601 612.88ZM436.563 614.182C435.929 614.182 435.378 614.089 434.911 613.902C434.454 613.715 434.071 613.454 433.763 613.118C433.465 612.773 433.241 612.371 433.091 611.914C432.942 611.457 432.867 610.962 432.867 610.43C432.867 609.861 432.942 609.338 433.091 608.862C433.25 608.386 433.483 607.971 433.791 607.616C434.099 607.261 434.477 606.986 434.925 606.79C435.383 606.594 435.905 606.496 436.493 606.496C437.081 606.496 437.59 606.594 438.019 606.79C438.458 606.986 438.813 607.261 439.083 607.616C439.354 607.961 439.536 608.367 439.629 608.834L437.977 609.352C437.959 609.072 437.884 608.825 437.753 608.61C437.623 608.386 437.445 608.213 437.221 608.092C436.997 607.971 436.731 607.91 436.423 607.91C436.125 607.91 435.863 607.971 435.639 608.092C435.425 608.204 435.243 608.367 435.093 608.582C434.953 608.797 434.841 609.058 434.757 609.366C434.683 609.665 434.645 610.001 434.645 610.374C434.645 610.887 434.715 611.326 434.855 611.69C434.995 612.054 435.21 612.339 435.499 612.544C435.789 612.74 436.148 612.838 436.577 612.838C436.96 612.838 437.268 612.768 437.501 612.628C437.744 612.479 437.926 612.287 438.047 612.054C438.178 611.821 438.257 611.564 438.285 611.284L439.853 611.634C439.797 612.017 439.69 612.362 439.531 612.67C439.373 612.978 439.153 613.249 438.873 613.482C438.603 613.706 438.276 613.879 437.893 614C437.511 614.121 437.067 614.182 436.563 614.182ZM444.411 614.182C443.823 614.182 443.296 614.098 442.829 613.93C442.372 613.762 441.985 613.519 441.667 613.202C441.35 612.875 441.107 612.483 440.939 612.026C440.771 611.569 440.687 611.051 440.687 610.472C440.687 609.893 440.767 609.361 440.925 608.876C441.093 608.391 441.331 607.971 441.639 607.616C441.947 607.261 442.321 606.986 442.759 606.79C443.207 606.594 443.716 606.496 444.285 606.496C444.817 606.496 445.293 606.585 445.713 606.762C446.133 606.939 446.488 607.205 446.777 607.56C447.067 607.905 447.281 608.339 447.421 608.862C447.561 609.375 447.608 609.973 447.561 610.654L441.835 610.696V609.674L446.539 609.632L445.923 610.206C445.979 609.674 445.937 609.24 445.797 608.904C445.657 608.559 445.457 608.307 445.195 608.148C444.934 607.98 444.635 607.896 444.299 607.896C443.917 607.896 443.581 607.999 443.291 608.204C443.002 608.4 442.778 608.689 442.619 609.072C442.47 609.445 442.395 609.903 442.395 610.444C442.395 611.256 442.573 611.863 442.927 612.264C443.291 612.665 443.786 612.866 444.411 612.866C444.691 612.866 444.925 612.833 445.111 612.768C445.307 612.693 445.471 612.6 445.601 612.488C445.732 612.367 445.835 612.231 445.909 612.082C445.993 611.933 446.059 611.774 446.105 611.606L447.645 611.956C447.571 612.301 447.449 612.609 447.281 612.88C447.113 613.151 446.894 613.384 446.623 613.58C446.362 613.776 446.049 613.925 445.685 614.028C445.321 614.131 444.897 614.182 444.411 614.182Z" fill="#DAE4F7"/>
<circle cx="1121.79" cy="420.836" r="37" transform="rotate(-16.0473 1121.79 420.836)" fill="#DAE4F7"/>
<path d="M1231.01 351.001L1231.01 351.002L1251.55 422.39L1251.54 422.393L1205.58 396.964L1231.01 351.001Z" fill="#DAE4F7"/>
<path d="M1159.55 371.557L1159.55 371.559L1180.08 442.947L1180.08 442.948L1205.51 396.984L1159.55 371.557Z" fill="#DAE4F7"/>
<path d="M1204.09 500.095C1223.85 494.411 1235.27 473.782 1229.58 454.019L1229.58 454.018L1158.01 474.604L1158.01 474.605C1163.7 494.367 1184.33 505.78 1204.09 500.095Z" fill="#DAE4F7"/>
<path d="M1204.08 500.099C1184.31 505.783 1172.9 526.412 1178.59 546.175L1178.59 546.176L1250.15 525.591L1250.15 525.59C1244.47 505.827 1223.84 494.415 1204.08 500.099Z" fill="#DAE4F7"/>
<path fill-rule="evenodd" clip-rule="evenodd" d="M1241.42 454.702C1241.48 455.138 1241.62 455.638 1241.91 456.636L1250.3 485.822C1256.21 506.376 1277.35 518.338 1297.52 512.54C1317.69 506.743 1329.25 485.38 1323.34 464.826L1314.95 435.64C1314.66 434.642 1314.52 434.142 1314.34 433.742C1313.29 431.441 1310.89 430.086 1308.42 430.397C1308 430.451 1307.51 430.591 1306.53 430.873L1301.84 432.22L1293.98 460.452C1293.69 461.461 1294.01 462.549 1294.78 463.252L1316.53 482.976L1300.01 487.725L1289 477.728C1288.56 477.334 1287.96 477.192 1287.41 477.352C1286.85 477.513 1286.41 477.959 1286.26 478.531L1282.41 492.783L1265.71 497.584L1273.58 469.342C1273.86 468.339 1273.55 467.256 1272.78 466.552L1251.2 446.776L1246.52 448.123C1245.54 448.405 1245.05 448.546 1244.65 448.727C1242.4 449.774 1241.09 452.193 1241.42 454.702ZM1267.81 442.001L1278.58 451.852C1279.02 452.249 1279.62 452.393 1280.18 452.232C1280.74 452.072 1281.18 451.63 1281.33 451.062L1285.23 436.995L1267.81 442.001Z" fill="#DAE4F7"/>
<path d="M533.442 394V384.76H535.22V394H533.442ZM530.698 386.258V384.76H537.978V386.258H530.698ZM539.246 394V389.45V384.06H541.024V386.342C541.024 386.538 541.015 386.739 540.996 386.944C540.987 387.149 540.968 387.359 540.94 387.574C540.912 387.789 540.879 388.003 540.842 388.218C540.814 388.433 540.781 388.647 540.744 388.862H541.038C541.169 388.358 541.337 387.933 541.542 387.588C541.747 387.233 542.009 386.963 542.326 386.776C542.653 386.589 543.049 386.496 543.516 386.496C544.365 386.496 545 386.795 545.42 387.392C545.84 387.98 546.05 388.876 546.05 390.08V394H544.272V390.332C544.272 389.529 544.151 388.937 543.908 388.554C543.675 388.171 543.32 387.98 542.844 387.98C542.452 387.98 542.125 388.101 541.864 388.344C541.603 388.577 541.402 388.89 541.262 389.282C541.122 389.674 541.038 390.117 541.01 390.612V394H539.246ZM551.218 394.182C550.63 394.182 550.103 394.098 549.636 393.93C549.179 393.762 548.791 393.519 548.474 393.202C548.157 392.875 547.914 392.483 547.746 392.026C547.578 391.569 547.494 391.051 547.494 390.472C547.494 389.893 547.573 389.361 547.732 388.876C547.9 388.391 548.138 387.971 548.446 387.616C548.754 387.261 549.127 386.986 549.566 386.79C550.014 386.594 550.523 386.496 551.092 386.496C551.624 386.496 552.1 386.585 552.52 386.762C552.94 386.939 553.295 387.205 553.584 387.56C553.873 387.905 554.088 388.339 554.228 388.862C554.368 389.375 554.415 389.973 554.368 390.654L548.642 390.696V389.674L553.346 389.632L552.73 390.206C552.786 389.674 552.744 389.24 552.604 388.904C552.464 388.559 552.263 388.307 552.002 388.148C551.741 387.98 551.442 387.896 551.106 387.896C550.723 387.896 550.387 387.999 550.098 388.204C549.809 388.4 549.585 388.689 549.426 389.072C549.277 389.445 549.202 389.903 549.202 390.444C549.202 391.256 549.379 391.863 549.734 392.264C550.098 392.665 550.593 392.866 551.218 392.866C551.498 392.866 551.731 392.833 551.918 392.768C552.114 392.693 552.277 392.6 552.408 392.488C552.539 392.367 552.641 392.231 552.716 392.082C552.8 391.933 552.865 391.774 552.912 391.606L554.452 391.956C554.377 392.301 554.256 392.609 554.088 392.88C553.92 393.151 553.701 393.384 553.43 393.58C553.169 393.776 552.856 393.925 552.492 394.028C552.128 394.131 551.703 394.182 551.218 394.182ZM563.39 394.182C562.849 394.182 562.359 394.126 561.92 394.014C561.491 393.902 561.113 393.739 560.786 393.524C560.469 393.309 560.203 393.048 559.988 392.74C559.774 392.432 559.61 392.082 559.498 391.69C559.396 391.298 559.344 390.873 559.344 390.416V384.76H561.122V390.346C561.122 390.859 561.206 391.284 561.374 391.62C561.542 391.947 561.794 392.194 562.13 392.362C562.466 392.521 562.886 392.6 563.39 392.6C563.904 392.6 564.324 392.521 564.65 392.362C564.986 392.203 565.238 391.956 565.406 391.62C565.574 391.284 565.658 390.859 565.658 390.346V384.76H567.422V390.416C567.422 391.611 567.082 392.539 566.4 393.202C565.728 393.855 564.725 394.182 563.39 394.182ZM572.262 394.182C571.767 394.182 571.319 394.131 570.918 394.028C570.526 393.935 570.19 393.799 569.91 393.622C569.63 393.435 569.406 393.216 569.238 392.964C569.07 392.703 568.967 392.413 568.93 392.096L570.316 391.578C570.334 391.821 570.428 392.04 570.596 392.236C570.764 392.423 570.997 392.572 571.296 392.684C571.594 392.796 571.954 392.852 572.374 392.852C572.84 392.852 573.2 392.782 573.452 392.642C573.713 392.493 573.844 392.283 573.844 392.012C573.844 391.816 573.774 391.662 573.634 391.55C573.494 391.429 573.288 391.331 573.018 391.256C572.756 391.172 572.439 391.093 572.066 391.018C571.72 390.943 571.37 390.859 571.016 390.766C570.67 390.663 570.348 390.533 570.05 390.374C569.76 390.206 569.522 389.991 569.336 389.73C569.158 389.459 569.07 389.119 569.07 388.708C569.07 388.26 569.186 387.873 569.42 387.546C569.662 387.219 570.008 386.963 570.456 386.776C570.913 386.589 571.464 386.496 572.108 386.496C572.714 386.496 573.237 386.58 573.676 386.748C574.124 386.916 574.488 387.159 574.768 387.476C575.048 387.784 575.225 388.153 575.3 388.582L573.844 389.044C573.816 388.783 573.727 388.563 573.578 388.386C573.428 388.199 573.228 388.059 572.976 387.966C572.724 387.873 572.43 387.826 572.094 387.826C571.664 387.826 571.328 387.901 571.086 388.05C570.843 388.199 570.722 388.4 570.722 388.652C570.722 388.857 570.796 389.021 570.946 389.142C571.104 389.263 571.319 389.361 571.59 389.436C571.87 389.511 572.187 389.585 572.542 389.66C572.915 389.735 573.274 389.823 573.62 389.926C573.974 390.019 574.292 390.145 574.572 390.304C574.852 390.463 575.076 390.673 575.244 390.934C575.412 391.186 575.496 391.513 575.496 391.914C575.496 392.399 575.365 392.815 575.104 393.16C574.842 393.496 574.469 393.753 573.984 393.93C573.508 394.098 572.934 394.182 572.262 394.182ZM580.325 394.182C579.737 394.182 579.21 394.098 578.743 393.93C578.286 393.762 577.899 393.519 577.581 393.202C577.264 392.875 577.021 392.483 576.853 392.026C576.685 391.569 576.601 391.051 576.601 390.472C576.601 389.893 576.681 389.361 576.839 388.876C577.007 388.391 577.245 387.971 577.553 387.616C577.861 387.261 578.235 386.986 578.673 386.79C579.121 386.594 579.63 386.496 580.199 386.496C580.731 386.496 581.207 386.585 581.627 386.762C582.047 386.939 582.402 387.205 582.691 387.56C582.981 387.905 583.195 388.339 583.335 388.862C583.475 389.375 583.522 389.973 583.475 390.654L577.749 390.696V389.674L582.453 389.632L581.837 390.206C581.893 389.674 581.851 389.24 581.711 388.904C581.571 388.559 581.371 388.307 581.109 388.148C580.848 387.98 580.549 387.896 580.213 387.896C579.831 387.896 579.495 387.999 579.205 388.204C578.916 388.4 578.692 388.689 578.533 389.072C578.384 389.445 578.309 389.903 578.309 390.444C578.309 391.256 578.487 391.863 578.841 392.264C579.205 392.665 579.7 392.866 580.325 392.866C580.605 392.866 580.839 392.833 581.025 392.768C581.221 392.693 581.385 392.6 581.515 392.488C581.646 392.367 581.749 392.231 581.823 392.082C581.907 391.933 581.973 391.774 582.019 391.606L583.559 391.956C583.485 392.301 583.363 392.609 583.195 392.88C583.027 393.151 582.808 393.384 582.537 393.58C582.276 393.776 581.963 393.925 581.599 394.028C581.235 394.131 580.811 394.182 580.325 394.182ZM585.088 394V390.332V386.678H586.572L586.544 389.198H586.796C586.88 388.601 587.01 388.106 587.188 387.714C587.365 387.313 587.612 387.014 587.93 386.818C588.247 386.613 588.639 386.51 589.106 386.51C589.199 386.51 589.297 386.515 589.4 386.524C589.512 386.533 589.633 386.557 589.764 386.594L589.694 388.456C589.544 388.4 589.39 388.363 589.232 388.344C589.082 388.316 588.942 388.302 588.812 388.302C588.448 388.302 588.13 388.395 587.86 388.582C587.598 388.769 587.384 389.035 587.216 389.38C587.057 389.716 586.936 390.117 586.852 390.584V394H585.088ZM481.785 412V402.76H483.563V412H481.785ZM482.933 412V410.544H488.687V412H482.933ZM482.933 407.982V406.638H488.001V407.982H482.933ZM482.933 404.216V402.76H488.659V404.216H482.933ZM489.504 412L491.954 408.346L489.504 404.678H491.548L493.004 407.506H493.228L494.684 404.678H496.728L494.278 408.346L496.756 412H494.726L493.228 409.158H493.004L491.562 412H489.504ZM497.971 414.324V408.388V404.678H499.455L499.441 406.666L499.679 406.68C499.772 406.213 499.921 405.817 500.127 405.49C500.341 405.163 500.612 404.916 500.939 404.748C501.265 404.58 501.653 404.496 502.101 404.496C502.754 404.496 503.309 404.659 503.767 404.986C504.224 405.303 504.569 405.756 504.803 406.344C505.045 406.923 505.167 407.599 505.167 408.374C505.167 409.102 505.055 409.755 504.831 410.334C504.616 410.903 504.285 411.356 503.837 411.692C503.398 412.019 502.852 412.182 502.199 412.182C501.723 412.182 501.321 412.089 500.995 411.902C500.668 411.715 500.402 411.459 500.197 411.132C499.991 410.805 499.823 410.427 499.693 409.998H499.441C499.497 410.25 499.543 410.511 499.581 410.782C499.627 411.043 499.665 411.305 499.693 411.566C499.721 411.818 499.735 412.061 499.735 412.294V414.324H497.971ZM501.625 410.74C501.989 410.74 502.297 410.642 502.549 410.446C502.801 410.241 502.992 409.961 503.123 409.606C503.253 409.242 503.319 408.827 503.319 408.36C503.319 407.875 503.249 407.455 503.109 407.1C502.978 406.745 502.782 406.47 502.521 406.274C502.259 406.078 501.951 405.98 501.597 405.98C501.289 405.98 501.018 406.05 500.785 406.19C500.551 406.33 500.355 406.517 500.197 406.75C500.038 406.974 499.921 407.217 499.847 407.478C499.772 407.739 499.735 407.996 499.735 408.248V408.486C499.735 408.673 499.758 408.869 499.805 409.074C499.861 409.27 499.94 409.471 500.043 409.676C500.145 409.872 500.271 410.054 500.421 410.222C500.57 410.381 500.747 410.507 500.953 410.6C501.158 410.693 501.382 410.74 501.625 410.74ZM510.079 412.182C509.491 412.182 508.964 412.098 508.497 411.93C508.04 411.762 507.653 411.519 507.335 411.202C507.018 410.875 506.775 410.483 506.607 410.026C506.439 409.569 506.355 409.051 506.355 408.472C506.355 407.893 506.435 407.361 506.593 406.876C506.761 406.391 506.999 405.971 507.307 405.616C507.615 405.261 507.989 404.986 508.427 404.79C508.875 404.594 509.384 404.496 509.953 404.496C510.485 404.496 510.961 404.585 511.381 404.762C511.801 404.939 512.156 405.205 512.445 405.56C512.735 405.905 512.949 406.339 513.089 406.862C513.229 407.375 513.276 407.973 513.229 408.654L507.503 408.696V407.674L512.207 407.632L511.591 408.206C511.647 407.674 511.605 407.24 511.465 406.904C511.325 406.559 511.125 406.307 510.863 406.148C510.602 405.98 510.303 405.896 509.967 405.896C509.585 405.896 509.249 405.999 508.959 406.204C508.67 406.4 508.446 406.689 508.287 407.072C508.138 407.445 508.063 407.903 508.063 408.444C508.063 409.256 508.241 409.863 508.595 410.264C508.959 410.665 509.454 410.866 510.079 410.866C510.359 410.866 510.593 410.833 510.779 410.768C510.975 410.693 511.139 410.6 511.269 410.488C511.4 410.367 511.503 410.231 511.577 410.082C511.661 409.933 511.727 409.774 511.773 409.606L513.313 409.956C513.239 410.301 513.117 410.609 512.949 410.88C512.781 411.151 512.562 411.384 512.291 411.58C512.03 411.776 511.717 411.925 511.353 412.028C510.989 412.131 510.565 412.182 510.079 412.182ZM514.842 412V408.332V404.678H516.326L516.298 407.198H516.55C516.634 406.601 516.764 406.106 516.942 405.714C517.119 405.313 517.366 405.014 517.684 404.818C518.001 404.613 518.393 404.51 518.86 404.51C518.953 404.51 519.051 404.515 519.154 404.524C519.266 404.533 519.387 404.557 519.518 404.594L519.448 406.456C519.298 406.4 519.144 406.363 518.986 406.344C518.836 406.316 518.696 406.302 518.566 406.302C518.202 406.302 517.884 406.395 517.614 406.582C517.352 406.769 517.138 407.035 516.97 407.38C516.811 407.716 516.69 408.117 516.606 408.584V412H514.842ZM520.748 412V404.678H522.512V412H520.748ZM521.63 403.53C521.275 403.53 521 403.455 520.804 403.306C520.617 403.147 520.524 402.923 520.524 402.634C520.524 402.345 520.617 402.125 520.804 401.976C521 401.817 521.275 401.738 521.63 401.738C522.003 401.738 522.283 401.813 522.47 401.962C522.657 402.111 522.75 402.335 522.75 402.634C522.75 402.923 522.652 403.147 522.456 403.306C522.269 403.455 521.994 403.53 521.63 403.53ZM527.798 412.182C527.21 412.182 526.683 412.098 526.216 411.93C525.759 411.762 525.371 411.519 525.054 411.202C524.737 410.875 524.494 410.483 524.326 410.026C524.158 409.569 524.074 409.051 524.074 408.472C524.074 407.893 524.153 407.361 524.312 406.876C524.48 406.391 524.718 405.971 525.026 405.616C525.334 405.261 525.707 404.986 526.146 404.79C526.594 404.594 527.103 404.496 527.672 404.496C528.204 404.496 528.68 404.585 529.1 404.762C529.52 404.939 529.875 405.205 530.164 405.56C530.453 405.905 530.668 406.339 530.808 406.862C530.948 407.375 530.995 407.973 530.948 408.654L525.222 408.696V407.674L529.926 407.632L529.31 408.206C529.366 407.674 529.324 407.24 529.184 406.904C529.044 406.559 528.843 406.307 528.582 406.148C528.321 405.98 528.022 405.896 527.686 405.896C527.303 405.896 526.967 405.999 526.678 406.204C526.389 406.4 526.165 406.689 526.006 407.072C525.857 407.445 525.782 407.903 525.782 408.444C525.782 409.256 525.959 409.863 526.314 410.264C526.678 410.665 527.173 410.866 527.798 410.866C528.078 410.866 528.311 410.833 528.498 410.768C528.694 410.693 528.857 410.6 528.988 410.488C529.119 410.367 529.221 410.231 529.296 410.082C529.38 409.933 529.445 409.774 529.492 409.606L531.032 409.956C530.957 410.301 530.836 410.609 530.668 410.88C530.5 411.151 530.281 411.384 530.01 411.58C529.749 411.776 529.436 411.925 529.072 412.028C528.708 412.131 528.283 412.182 527.798 412.182ZM532.56 412V407.534V404.678H534.03L533.988 406.918H534.24C534.371 406.367 534.544 405.915 534.758 405.56C534.982 405.205 535.267 404.939 535.612 404.762C535.958 404.585 536.359 404.496 536.816 404.496C537.647 404.496 538.277 404.79 538.706 405.378C539.145 405.966 539.364 406.876 539.364 408.108V412H537.586V408.29C537.586 407.497 537.465 406.918 537.222 406.554C536.989 406.181 536.639 405.994 536.172 405.994C535.78 405.994 535.449 406.12 535.178 406.372C534.908 406.615 534.698 406.941 534.548 407.352C534.408 407.753 534.334 408.197 534.324 408.682V412H532.56ZM544.518 412.182C543.884 412.182 543.333 412.089 542.866 411.902C542.409 411.715 542.026 411.454 541.718 411.118C541.42 410.773 541.196 410.371 541.046 409.914C540.897 409.457 540.822 408.962 540.822 408.43C540.822 407.861 540.897 407.338 541.046 406.862C541.205 406.386 541.438 405.971 541.746 405.616C542.054 405.261 542.432 404.986 542.88 404.79C543.338 404.594 543.86 404.496 544.448 404.496C545.036 404.496 545.545 404.594 545.974 404.79C546.413 404.986 546.768 405.261 547.038 405.616C547.309 405.961 547.491 406.367 547.584 406.834L545.932 407.352C545.914 407.072 545.839 406.825 545.708 406.61C545.578 406.386 545.4 406.213 545.176 406.092C544.952 405.971 544.686 405.91 544.378 405.91C544.08 405.91 543.818 405.971 543.594 406.092C543.38 406.204 543.198 406.367 543.048 406.582C542.908 406.797 542.796 407.058 542.712 407.366C542.638 407.665 542.6 408.001 542.6 408.374C542.6 408.887 542.67 409.326 542.81 409.69C542.95 410.054 543.165 410.339 543.454 410.544C543.744 410.74 544.103 410.838 544.532 410.838C544.915 410.838 545.223 410.768 545.456 410.628C545.699 410.479 545.881 410.287 546.002 410.054C546.133 409.821 546.212 409.564 546.24 409.284L547.808 409.634C547.752 410.017 547.645 410.362 547.486 410.67C547.328 410.978 547.108 411.249 546.828 411.482C546.558 411.706 546.231 411.879 545.848 412C545.466 412.121 545.022 412.182 544.518 412.182ZM552.366 412.182C551.778 412.182 551.251 412.098 550.784 411.93C550.327 411.762 549.94 411.519 549.622 411.202C549.305 410.875 549.062 410.483 548.894 410.026C548.726 409.569 548.642 409.051 548.642 408.472C548.642 407.893 548.722 407.361 548.88 406.876C549.048 406.391 549.286 405.971 549.594 405.616C549.902 405.261 550.276 404.986 550.714 404.79C551.162 404.594 551.671 404.496 552.24 404.496C552.772 404.496 553.248 404.585 553.668 404.762C554.088 404.939 554.443 405.205 554.732 405.56C555.022 405.905 555.236 406.339 555.376 406.862C555.516 407.375 555.563 407.973 555.516 408.654L549.79 408.696V407.674L554.494 407.632L553.878 408.206C553.934 407.674 553.892 407.24 553.752 406.904C553.612 406.559 553.412 406.307 553.15 406.148C552.889 405.98 552.59 405.896 552.254 405.896C551.872 405.896 551.536 405.999 551.246 406.204C550.957 406.4 550.733 406.689 550.574 407.072C550.425 407.445 550.35 407.903 550.35 408.444C550.35 409.256 550.528 409.863 550.882 410.264C551.246 410.665 551.741 410.866 552.366 410.866C552.646 410.866 552.88 410.833 553.066 410.768C553.262 410.693 553.426 410.6 553.556 410.488C553.687 410.367 553.79 410.231 553.864 410.082C553.948 409.933 554.014 409.774 554.06 409.606L555.6 409.956C555.526 410.301 555.404 410.609 555.236 410.88C555.068 411.151 554.849 411.384 554.578 411.58C554.317 411.776 554.004 411.925 553.64 412.028C553.276 412.131 552.852 412.182 552.366 412.182ZM564.679 412.182C563.979 412.182 563.353 412.084 562.803 411.888C562.252 411.683 561.785 411.384 561.403 410.992C561.02 410.591 560.726 410.096 560.521 409.508C560.315 408.92 560.213 408.248 560.213 407.492C560.213 406.708 560.315 406.013 560.521 405.406C560.735 404.799 561.034 404.286 561.417 403.866C561.799 403.437 562.257 403.115 562.789 402.9C563.321 402.685 563.913 402.578 564.567 402.578C565.071 402.578 565.537 402.643 565.967 402.774C566.396 402.905 566.765 403.101 567.073 403.362C567.39 403.614 567.637 403.922 567.815 404.286C567.992 404.641 568.085 405.047 568.095 405.504L566.443 405.938C566.452 405.518 566.363 405.168 566.177 404.888C565.99 404.608 565.747 404.398 565.449 404.258C565.159 404.118 564.847 404.048 564.511 404.048C564.212 404.048 563.913 404.109 563.615 404.23C563.325 404.351 563.064 404.543 562.831 404.804C562.597 405.065 562.411 405.411 562.271 405.84C562.131 406.26 562.061 406.778 562.061 407.394C562.061 408.178 562.173 408.813 562.397 409.298C562.63 409.783 562.947 410.143 563.349 410.376C563.759 410.6 564.221 410.712 564.735 410.712C565.257 410.712 565.673 410.609 565.981 410.404C566.289 410.189 566.513 409.909 566.653 409.564C566.793 409.209 566.872 408.827 566.891 408.416L568.445 408.682C568.435 409.167 568.361 409.625 568.221 410.054C568.081 410.483 567.861 410.857 567.563 411.174C567.273 411.491 566.891 411.739 566.415 411.916C565.939 412.093 565.36 412.182 564.679 412.182ZM569.926 412V402.06H571.662V412H569.926ZM576.066 412.182C575.226 412.182 574.592 411.897 574.162 411.328C573.742 410.749 573.532 409.877 573.532 408.71V404.678H575.31V408.514C575.31 409.251 575.422 409.802 575.646 410.166C575.87 410.53 576.216 410.712 576.682 410.712C576.953 410.712 577.191 410.647 577.396 410.516C577.602 410.376 577.779 410.185 577.928 409.942C578.078 409.69 578.194 409.401 578.278 409.074C578.372 408.747 578.428 408.388 578.446 407.996V404.678H580.21V408.99V412H578.754L578.782 409.69H578.53C578.409 410.278 578.236 410.754 578.012 411.118C577.798 411.482 577.532 411.753 577.214 411.93C576.897 412.098 576.514 412.182 576.066 412.182ZM586.403 412.182C585.936 412.182 585.535 412.093 585.199 411.916C584.863 411.729 584.588 411.468 584.373 411.132C584.168 410.796 584.018 410.395 583.925 409.928H583.673L583.687 412H582.203V408.402V402.06H583.967V404.426C583.967 404.65 583.953 404.893 583.925 405.154C583.897 405.415 583.86 405.686 583.813 405.966C583.766 406.237 583.715 406.512 583.659 406.792H583.953C584.074 406.344 584.233 405.952 584.429 405.616C584.634 405.271 584.9 405 585.227 404.804C585.554 404.608 585.955 404.51 586.431 404.51C587.038 404.51 587.56 404.673 587.999 405C588.447 405.317 588.792 405.765 589.035 406.344C589.278 406.913 589.399 407.59 589.399 408.374C589.399 409.139 589.278 409.807 589.035 410.376C588.802 410.945 588.461 411.389 588.013 411.706C587.574 412.023 587.038 412.182 586.403 412.182ZM585.843 410.726C586.188 410.726 586.492 410.628 586.753 410.432C587.014 410.236 587.21 409.961 587.341 409.606C587.481 409.251 587.551 408.831 587.551 408.346C587.551 407.879 587.486 407.469 587.355 407.114C587.224 406.759 587.033 406.479 586.781 406.274C586.529 406.069 586.221 405.966 585.857 405.966C585.614 405.966 585.39 406.017 585.185 406.12C584.98 406.213 584.802 406.344 584.653 406.512C584.504 406.671 584.378 406.848 584.275 407.044C584.172 407.24 584.093 407.445 584.037 407.66C583.99 407.865 583.967 408.057 583.967 408.234V408.472C583.967 408.705 584.004 408.957 584.079 409.228C584.154 409.489 584.27 409.732 584.429 409.956C584.588 410.18 584.784 410.367 585.017 410.516C585.25 410.656 585.526 410.726 585.843 410.726Z" fill="#DAE4F7"/>
</svg>
