<svg width="1666" height="889" viewBox="0 0 1666 889" fill="none" xmlns="http://www.w3.org/2000/svg">
<rect width="1666" height="889" fill="#E1E1E1"/>
<path d="M1139.13 371.561L1102.77 421.86C1078.54 453.488 1053.17 580.369 1043.51 639.857L984.807 613.244C984.807 534.971 1008.44 421.199 1026.3 376.659C1051.59 331.656 1104.27 240.541 1112.69 236.1C1123.2 230.55 1149.64 223.393 1165.42 218.865C1181.19 214.338 1216.68 192.867 1225.45 191.669H1325.44C1336.7 193.191 1360.44 208.409 1375.66 215.409C1390.88 222.409 1428.01 229.104 1442.61 240.061C1454.3 248.826 1502.67 335.219 1525.4 377.321C1543.26 421.86 1563.61 534.971 1563.61 613.244L1504.91 639.857C1495.25 580.37 1469.89 453.488 1445.66 421.86L1411.36 362.725C1410.82 364.084 1407.28 376.659 1405.58 382.776V700.545L1410 709.382C1399.92 714.253 1358.21 723.995 1272.02 723.995C1185.83 723.995 1147.52 714.253 1139.13 709.382L1142.19 700.545V388.554C1142.19 385.291 1140.15 375.866 1139.13 371.561Z" fill="#7A97CC"/>
<path d="M1139.13 371.561L1102.77 421.86C1078.54 453.488 1053.17 580.369 1043.51 639.857L984.807 613.244C984.807 534.971 1008.44 421.199 1026.3 376.659C1051.59 331.656 1104.27 240.541 1112.69 236.1C1123.2 230.55 1149.64 223.393 1165.42 218.865C1181.19 214.338 1216.68 192.867 1225.45 191.669H1325.44C1336.7 193.191 1360.44 208.409 1375.66 215.409C1390.88 222.409 1428.01 229.104 1442.61 240.061C1454.3 248.826 1502.67 335.219 1525.4 377.321C1543.26 421.86 1563.61 534.971 1563.61 613.244L1504.91 639.857C1495.25 580.37 1469.89 453.488 1445.66 421.86L1411.36 362.725M1139.13 371.561L1117.04 305.288M1139.13 371.561C1140.15 375.866 1142.19 385.291 1142.19 388.554V700.545L1139.13 709.382C1147.52 714.253 1185.83 723.996 1272.02 723.996C1358.21 723.996 1399.92 714.253 1410 709.382L1405.58 700.545V382.776C1407.28 376.659 1410.82 364.084 1411.36 362.725M1411.36 362.725C1411.9 361.365 1426.09 320.922 1433.11 300.87L1411.36 362.725Z" stroke="#E1E1E1" stroke-width="4.20013"/>
<mask id="mask0_5_358" style="mask-type:alpha" maskUnits="userSpaceOnUse" x="981" y="188" width="586" height="540">
<path d="M1411.36 362.725C1411.9 361.365 1426.09 320.922 1433.11 300.87L1411.36 362.725Z" fill="black"/>
<path d="M1139.13 371.561L1102.77 421.86C1078.54 453.488 1053.17 580.369 1043.51 639.857L984.807 613.244C984.807 534.971 1008.44 421.199 1026.3 376.659C1051.59 331.656 1104.27 240.541 1112.69 236.1C1123.2 230.55 1149.64 223.393 1165.42 218.865C1181.19 214.338 1216.68 192.867 1225.45 191.669M1139.13 371.561L1117.04 305.288M1139.13 371.561C1140.15 375.866 1142.19 385.291 1142.19 388.554V700.545L1139.13 709.382C1147.52 714.253 1185.83 723.996 1272.02 723.996C1358.21 723.996 1399.92 714.253 1410 709.382L1405.58 700.545V382.776C1407.28 376.659 1410.82 364.084 1411.36 362.725M1411.36 362.725C1411.9 361.365 1426.09 320.922 1433.11 300.87L1411.36 362.725ZM1411.36 362.725L1445.66 421.86C1469.89 453.488 1495.25 580.37 1504.91 639.857L1563.61 613.244C1563.61 534.971 1543.26 421.86 1525.4 377.321C1502.67 335.219 1454.3 248.826 1442.61 240.061C1428.01 229.104 1390.88 222.409 1375.66 215.409C1360.44 208.409 1336.7 193.191 1325.44 191.669" stroke="white" stroke-width="6.3002"/>
</mask>
<g mask="url(#mask0_5_358)">
</g>
<path d="M1205.31 177.6V204.901C1252.56 226.952 1321.86 216.452 1341.81 204.901V177.6C1341.81 170.641 1336.17 165 1329.21 165H1217.91C1210.95 165 1205.31 170.641 1205.31 177.6Z" fill="#7A97CC" stroke="#E1E1E1" stroke-width="4.20013"/>
<path d="M257.094 374.864L220.729 425.164C196.499 456.791 171.125 583.673 161.472 643.16L102.767 616.547C102.767 538.274 126.397 424.502 144.26 379.962C169.551 334.959 222.235 243.844 230.648 239.404C241.164 233.853 267.601 226.696 283.375 222.169C299.149 217.641 334.642 196.17 343.405 194.973H443.402C454.662 196.494 478.401 211.712 493.619 218.712C508.836 225.712 545.966 232.407 560.575 243.364C572.262 252.129 620.632 338.523 643.356 380.624C661.219 425.164 704.771 528.295 713.257 607.493L655.272 635.778C639.715 576.851 587.848 456.791 563.618 425.164L529.321 366.028C528.777 367.387 525.243 379.962 523.544 386.08V703.848L527.962 712.685C517.879 717.556 476.167 727.299 389.979 727.299C303.79 727.299 265.477 717.556 257.094 712.685L260.152 703.848V391.857C260.152 388.595 258.113 379.169 257.094 374.864Z" fill="#7A97CC"/>
<path d="M257.094 374.864L220.729 425.164C196.499 456.791 171.125 583.673 161.472 643.16L102.767 616.547C102.767 538.274 126.397 424.502 144.26 379.962C169.551 334.959 222.235 243.844 230.648 239.404C241.164 233.853 267.601 226.696 283.375 222.169C299.149 217.641 334.642 196.17 343.405 194.973H443.402C454.662 196.494 478.401 211.712 493.619 218.712C508.836 225.712 545.966 232.407 560.575 243.364C572.262 252.129 620.632 338.523 643.356 380.624C661.219 425.164 704.771 528.295 713.257 607.493L655.272 635.778C639.715 576.851 587.848 456.791 563.618 425.164L529.321 366.028M257.094 374.864L235.003 308.591M257.094 374.864C258.113 379.169 260.152 388.595 260.152 391.857V703.848L257.094 712.685C265.477 717.556 303.79 727.299 389.979 727.299C476.167 727.299 517.879 717.556 527.962 712.685L523.544 703.848V386.08C525.243 379.962 528.777 367.387 529.321 366.028M529.321 366.028C529.865 364.669 544.048 324.225 551.072 304.173L529.321 366.028Z" stroke="#E1E1E1" stroke-width="7.53636"/>
<mask id="mask1_5_358" style="mask-type:alpha" maskUnits="userSpaceOnUse" x="100" y="192" width="584" height="538">
<path d="M529.321 366.028C529.865 364.669 544.048 324.225 551.072 304.174L529.321 366.028Z" fill="black"/>
<path d="M257.094 374.864L220.729 425.164C196.499 456.791 171.125 583.673 161.472 643.16L102.767 616.547C102.767 538.274 126.397 424.502 144.26 379.962C169.551 334.959 222.235 243.844 230.648 239.404C241.164 233.853 267.601 226.696 283.375 222.169C299.149 217.641 334.642 196.17 343.405 194.973M257.094 374.864L235.003 308.591M257.094 374.864C258.113 379.169 260.152 388.595 260.152 391.857V703.848L257.094 712.685C265.477 717.556 303.79 727.299 389.979 727.299C476.167 727.299 517.879 717.556 527.962 712.685L523.544 703.848V386.08C525.243 379.962 528.777 367.387 529.321 366.028M529.321 366.028C529.865 364.669 544.048 324.225 551.072 304.174L529.321 366.028ZM529.321 366.028L563.618 425.164C587.848 456.791 613.212 583.673 622.866 643.16L681.57 616.547C681.57 538.274 661.219 425.164 643.356 380.624C620.632 338.523 572.262 252.129 560.575 243.364C545.966 232.407 508.836 225.712 493.619 218.712C478.401 211.712 454.662 196.494 443.402 194.973" stroke="white" stroke-width="4.20013"/>
</mask>
<g mask="url(#mask1_5_358)">
</g>
<path d="M337.977 197.703C353.378 189.303 401.399 177.542 470.281 197.703" stroke="#E1E1E1" stroke-width="4.20013"/>
<path d="M262.373 671.27C296.324 681.42 402.657 695.63 522.781 671.27" stroke="#E1E1E1" stroke-width="4.20013"/>
<path d="M324.323 179.853V208.204C363.175 229.204 440.877 219.754 460.828 208.204V179.853C460.828 172.894 455.186 167.252 448.227 167.252H336.924C329.965 167.252 324.323 172.894 324.323 179.853Z" fill="#7A97CC" stroke="#E1E1E1" stroke-width="4.20013"/>
<path d="M392.579 170.404L392.221 334.541" stroke="#E1E1E1" stroke-width="4.20013"/>
<path d="M392.578 164.1C410.455 164.1 426.579 165.621 438.18 168.054C443.998 169.274 448.567 170.7 451.631 172.219C453.166 172.98 454.216 173.712 454.854 174.366C455.485 175.013 455.58 175.435 455.58 175.65C455.58 175.865 455.485 176.288 454.854 176.935C454.216 177.589 453.166 178.321 451.631 179.082C448.567 180.601 443.998 182.027 438.18 183.247C426.579 185.68 410.455 187.201 392.578 187.201C374.7 187.201 358.576 185.68 346.974 183.247C341.156 182.027 336.588 180.601 333.524 179.082C331.989 178.321 330.939 177.589 330.301 176.935C329.67 176.288 329.575 175.865 329.575 175.65C329.575 175.435 329.67 175.013 330.301 174.366C330.939 173.712 331.989 172.98 333.524 172.219C336.588 170.7 341.156 169.274 346.974 168.054C358.576 165.621 374.7 164.1 392.578 164.1Z" fill="#E1E1E1" stroke="#7A97CC" stroke-width="4.20013"/>
<rect x="453.506" y="276.083" width="41.7133" height="41.7133" fill="#DAE4F7"/>
<circle cx="466.456" cy="289.066" r="7.04746" fill="#7A97CC"/>
<path d="M489.19 281.991L489.191 281.992L489.191 296.14L489.19 296.141L482.116 289.065L489.19 281.991Z" fill="#7A97CC"/>
<path d="M475.027 281.991L475.027 296.141L482.102 289.065L475.027 281.991Z" fill="#7A97CC"/>
<path fill-rule="evenodd" clip-rule="evenodd" d="M475.133 298.586C475.12 298.668 475.12 298.765 475.12 298.961V304.669C475.12 308.689 478.318 311.948 482.263 311.948C486.208 311.948 489.406 308.689 489.406 304.669V298.961C489.406 298.765 489.406 298.668 489.393 298.586C489.323 298.116 488.961 297.747 488.499 297.675C488.419 297.662 488.323 297.662 488.131 297.662H487.215L484.328 302.354C484.225 302.521 484.225 302.734 484.329 302.902L487.232 307.594H484.001L482.532 305.216C482.474 305.123 482.373 305.066 482.264 305.066C482.154 305.066 482.052 305.124 481.995 305.219L480.56 307.594H477.294L480.181 302.901C480.284 302.734 480.284 302.522 480.182 302.355L477.311 297.662H476.395C476.203 297.662 476.107 297.662 476.027 297.675C475.565 297.747 475.203 298.116 475.133 298.586ZM480.56 297.662L481.994 300.001C482.052 300.095 482.154 300.153 482.263 300.153C482.372 300.153 482.474 300.095 482.532 300.001L483.966 297.662H480.56Z" fill="#7A97CC"/>
<path d="M466.503 304.788C462.586 304.788 459.411 307.964 459.411 311.881V311.882H473.595V311.881C473.595 307.964 470.42 304.788 466.503 304.788Z" fill="#7A97CC"/>
<path d="M466.506 304.788C470.423 304.788 473.598 301.613 473.598 297.696V297.695H459.414V297.696C459.414 301.613 462.589 304.788 466.506 304.788Z" fill="#7A97CC"/>
<path d="M446.987 329.168V326.057H447.585V329.168H446.987ZM446.063 326.562V326.057H448.514V326.562H446.063ZM448.941 329.168V327.636V325.821H449.54V326.59C449.54 326.656 449.536 326.723 449.53 326.792C449.527 326.862 449.521 326.932 449.511 327.005C449.502 327.077 449.491 327.149 449.478 327.221C449.469 327.294 449.458 327.366 449.445 327.438H449.544C449.588 327.269 449.645 327.126 449.714 327.009C449.783 326.89 449.871 326.799 449.978 326.736C450.088 326.673 450.222 326.642 450.379 326.642C450.665 326.642 450.878 326.742 451.02 326.943C451.161 327.141 451.232 327.443 451.232 327.848V329.168H450.633V327.933C450.633 327.663 450.592 327.463 450.511 327.335C450.432 327.206 450.313 327.141 450.152 327.141C450.02 327.141 449.91 327.182 449.822 327.264C449.734 327.342 449.667 327.448 449.62 327.58C449.573 327.712 449.544 327.861 449.535 328.028V329.168H448.941ZM452.972 329.23C452.774 329.23 452.597 329.201 452.439 329.145C452.285 329.088 452.155 329.007 452.048 328.9C451.941 328.79 451.86 328.658 451.803 328.504C451.746 328.35 451.718 328.175 451.718 327.98C451.718 327.786 451.745 327.606 451.798 327.443C451.855 327.28 451.935 327.138 452.039 327.019C452.142 326.899 452.268 326.807 452.416 326.741C452.567 326.675 452.738 326.642 452.93 326.642C453.109 326.642 453.269 326.671 453.411 326.731C453.552 326.791 453.671 326.88 453.769 327C453.866 327.116 453.939 327.262 453.986 327.438C454.033 327.611 454.049 327.812 454.033 328.042L452.105 328.056V327.712L453.689 327.698L453.481 327.891C453.5 327.712 453.486 327.566 453.439 327.452C453.392 327.336 453.324 327.251 453.236 327.198C453.148 327.141 453.048 327.113 452.934 327.113C452.806 327.113 452.692 327.148 452.595 327.217C452.498 327.283 452.422 327.38 452.369 327.509C452.318 327.635 452.293 327.789 452.293 327.971C452.293 328.244 452.353 328.449 452.472 328.584C452.595 328.719 452.762 328.787 452.972 328.787C453.066 328.787 453.145 328.776 453.208 328.754C453.274 328.728 453.329 328.697 453.373 328.659C453.417 328.618 453.451 328.573 453.477 328.523C453.505 328.472 453.527 328.419 453.543 328.362L454.061 328.48C454.036 328.596 453.995 328.7 453.939 328.791C453.882 328.882 453.808 328.961 453.717 329.027C453.629 329.093 453.524 329.143 453.401 329.178C453.279 329.212 453.136 329.23 452.972 329.23ZM457.071 329.23C456.889 329.23 456.724 329.211 456.576 329.173C456.431 329.135 456.304 329.08 456.194 329.008C456.087 328.936 455.998 328.848 455.925 328.744C455.853 328.64 455.798 328.523 455.76 328.391C455.726 328.259 455.709 328.116 455.709 327.962V326.057H456.307V327.938C456.307 328.111 456.336 328.254 456.392 328.367C456.449 328.477 456.534 328.56 456.647 328.617C456.76 328.67 456.901 328.697 457.071 328.697C457.244 328.697 457.385 328.67 457.495 328.617C457.608 328.563 457.693 328.48 457.75 328.367C457.806 328.254 457.835 328.111 457.835 327.938V326.057H458.429V327.962C458.429 328.364 458.314 328.677 458.085 328.9C457.858 329.12 457.52 329.23 457.071 329.23ZM460.058 329.23C459.892 329.23 459.741 329.212 459.606 329.178C459.474 329.146 459.361 329.101 459.266 329.041C459.172 328.978 459.097 328.904 459.04 328.82C458.983 328.732 458.949 328.634 458.936 328.527L459.403 328.353C459.409 328.435 459.441 328.508 459.497 328.574C459.554 328.637 459.632 328.688 459.733 328.725C459.834 328.763 459.955 328.782 460.096 328.782C460.253 328.782 460.374 328.758 460.459 328.711C460.547 328.661 460.591 328.59 460.591 328.499C460.591 328.433 460.567 328.381 460.52 328.343C460.473 328.303 460.404 328.27 460.313 328.244C460.225 328.216 460.118 328.189 459.992 328.164C459.876 328.139 459.758 328.111 459.639 328.079C459.522 328.045 459.414 328.001 459.313 327.947C459.216 327.891 459.136 327.819 459.073 327.731C459.013 327.639 458.983 327.525 458.983 327.386C458.983 327.236 459.023 327.105 459.101 326.995C459.183 326.885 459.299 326.799 459.45 326.736C459.604 326.673 459.79 326.642 460.006 326.642C460.211 326.642 460.387 326.67 460.534 326.726C460.685 326.783 460.808 326.865 460.902 326.972C460.996 327.075 461.056 327.199 461.081 327.344L460.591 327.5C460.582 327.412 460.552 327.338 460.501 327.278C460.451 327.215 460.384 327.168 460.299 327.137C460.214 327.105 460.115 327.089 460.002 327.089C459.857 327.089 459.744 327.115 459.662 327.165C459.581 327.215 459.54 327.283 459.54 327.368C459.54 327.437 459.565 327.492 459.615 327.533C459.669 327.573 459.741 327.606 459.832 327.632C459.926 327.657 460.033 327.682 460.153 327.707C460.278 327.732 460.399 327.762 460.516 327.797C460.635 327.828 460.742 327.87 460.836 327.924C460.93 327.977 461.006 328.048 461.062 328.136C461.119 328.221 461.147 328.331 461.147 328.466C461.147 328.629 461.103 328.769 461.015 328.886C460.927 328.999 460.802 329.085 460.638 329.145C460.478 329.201 460.285 329.23 460.058 329.23ZM462.773 329.23C462.575 329.23 462.398 329.201 462.241 329.145C462.087 329.088 461.956 329.007 461.849 328.9C461.743 328.79 461.661 328.658 461.604 328.504C461.548 328.35 461.52 328.175 461.52 327.98C461.52 327.786 461.546 327.606 461.6 327.443C461.656 327.28 461.736 327.138 461.84 327.019C461.944 326.899 462.069 326.807 462.217 326.741C462.368 326.675 462.539 326.642 462.731 326.642C462.91 326.642 463.07 326.671 463.212 326.731C463.353 326.791 463.473 326.88 463.57 327C463.668 327.116 463.74 327.262 463.787 327.438C463.834 327.611 463.85 327.812 463.834 328.042L461.906 328.056V327.712L463.49 327.698L463.283 327.891C463.301 327.712 463.287 327.566 463.24 327.452C463.193 327.336 463.125 327.251 463.037 327.198C462.949 327.141 462.849 327.113 462.736 327.113C462.607 327.113 462.494 327.148 462.396 327.217C462.299 327.283 462.223 327.38 462.17 327.509C462.12 327.635 462.095 327.789 462.095 327.971C462.095 328.244 462.154 328.449 462.274 328.584C462.396 328.719 462.563 328.787 462.773 328.787C462.868 328.787 462.946 328.776 463.009 328.754C463.075 328.728 463.13 328.697 463.174 328.659C463.218 328.618 463.253 328.573 463.278 328.523C463.306 328.472 463.328 328.419 463.344 328.362L463.862 328.48C463.837 328.596 463.796 328.7 463.74 328.791C463.683 328.882 463.609 328.961 463.518 329.027C463.43 329.093 463.325 329.143 463.202 329.178C463.08 329.212 462.937 329.23 462.773 329.23ZM464.377 329.168V327.933V326.703H464.877L464.867 327.551H464.952C464.981 327.35 465.025 327.184 465.084 327.052C465.144 326.917 465.227 326.816 465.334 326.75C465.441 326.681 465.573 326.646 465.73 326.646C465.762 326.646 465.795 326.648 465.829 326.651C465.867 326.654 465.908 326.662 465.952 326.675L465.928 327.302C465.878 327.283 465.826 327.27 465.773 327.264C465.722 327.254 465.675 327.25 465.631 327.25C465.509 327.25 465.402 327.281 465.311 327.344C465.223 327.407 465.15 327.496 465.094 327.613C465.04 327.726 464.999 327.861 464.971 328.018V329.168H464.377ZM467.522 329.168V326.057H468.121V329.168H467.522ZM467.909 329.168V328.678H469.846V329.168H467.909ZM467.909 327.815V327.363H469.615V327.815H467.909ZM467.909 326.547V326.057H469.837V326.547H467.909ZM470.121 329.168L470.946 327.938L470.121 326.703H470.809L471.3 327.655H471.375L471.865 326.703H472.554L471.729 327.938L472.563 329.168H471.88L471.375 328.211H471.3L470.814 329.168H470.121ZM472.972 329.951V327.952V326.703H473.472L473.467 327.372L473.547 327.377C473.579 327.22 473.629 327.086 473.698 326.976C473.771 326.866 473.862 326.783 473.972 326.726C474.082 326.67 474.212 326.642 474.363 326.642C474.583 326.642 474.77 326.697 474.924 326.807C475.078 326.913 475.194 327.066 475.273 327.264C475.355 327.459 475.395 327.687 475.395 327.947C475.395 328.193 475.358 328.413 475.282 328.607C475.21 328.799 475.098 328.952 474.948 329.065C474.8 329.175 474.616 329.23 474.396 329.23C474.236 329.23 474.101 329.198 473.991 329.135C473.881 329.073 473.791 328.986 473.722 328.876C473.653 328.766 473.596 328.639 473.552 328.494H473.467C473.486 328.579 473.502 328.667 473.514 328.758C473.53 328.846 473.543 328.934 473.552 329.022C473.562 329.107 473.566 329.189 473.566 329.267V329.951H472.972ZM474.203 328.744C474.325 328.744 474.429 328.711 474.514 328.645C474.599 328.576 474.663 328.482 474.707 328.362C474.751 328.24 474.773 328.1 474.773 327.943C474.773 327.779 474.75 327.638 474.702 327.518C474.658 327.399 474.592 327.306 474.504 327.24C474.416 327.174 474.313 327.141 474.193 327.141C474.09 327.141 473.998 327.165 473.92 327.212C473.841 327.259 473.775 327.322 473.722 327.401C473.668 327.476 473.629 327.558 473.604 327.646C473.579 327.734 473.566 327.82 473.566 327.905V327.985C473.566 328.048 473.574 328.114 473.59 328.183C473.609 328.249 473.635 328.317 473.67 328.386C473.705 328.452 473.747 328.513 473.797 328.57C473.848 328.623 473.907 328.666 473.976 328.697C474.046 328.728 474.121 328.744 474.203 328.744ZM477.05 329.23C476.852 329.23 476.674 329.201 476.517 329.145C476.363 329.088 476.232 329.007 476.126 328.9C476.019 328.79 475.937 328.658 475.88 328.504C475.824 328.35 475.796 328.175 475.796 327.98C475.796 327.786 475.822 327.606 475.876 327.443C475.932 327.28 476.012 327.138 476.116 327.019C476.22 326.899 476.346 326.807 476.493 326.741C476.644 326.675 476.815 326.642 477.007 326.642C477.186 326.642 477.347 326.671 477.488 326.731C477.629 326.791 477.749 326.88 477.846 327C477.944 327.116 478.016 327.262 478.063 327.438C478.11 327.611 478.126 327.812 478.11 328.042L476.182 328.056V327.712L477.766 327.698L477.559 327.891C477.578 327.712 477.563 327.566 477.516 327.452C477.469 327.336 477.402 327.251 477.314 327.198C477.226 327.141 477.125 327.113 477.012 327.113C476.883 327.113 476.77 327.148 476.672 327.217C476.575 327.283 476.5 327.38 476.446 327.509C476.396 327.635 476.371 327.789 476.371 327.971C476.371 328.244 476.43 328.449 476.55 328.584C476.672 328.719 476.839 328.787 477.05 328.787C477.144 328.787 477.222 328.776 477.285 328.754C477.351 328.728 477.406 328.697 477.45 328.659C477.494 328.618 477.529 328.573 477.554 328.523C477.582 328.472 477.604 328.419 477.62 328.362L478.139 328.48C478.113 328.596 478.073 328.7 478.016 328.791C477.959 328.882 477.886 328.961 477.794 329.027C477.706 329.093 477.601 329.143 477.479 329.178C477.356 329.212 477.213 329.23 477.05 329.23ZM478.653 329.168V327.933V326.703H479.153L479.144 327.551H479.228C479.257 327.35 479.301 327.184 479.36 327.052C479.42 326.917 479.503 326.816 479.61 326.75C479.717 326.681 479.849 326.646 480.006 326.646C480.038 326.646 480.071 326.648 480.105 326.651C480.143 326.654 480.184 326.662 480.228 326.675L480.204 327.302C480.154 327.283 480.102 327.27 480.049 327.264C479.998 327.254 479.951 327.25 479.907 327.25C479.785 327.25 479.678 327.281 479.587 327.344C479.499 327.407 479.426 327.496 479.37 327.613C479.316 327.726 479.276 327.861 479.247 328.018V329.168H478.653ZM480.642 329.168V326.703H481.236V329.168H480.642ZM480.939 326.316C480.82 326.316 480.727 326.291 480.661 326.241C480.598 326.188 480.567 326.112 480.567 326.015C480.567 325.917 480.598 325.843 480.661 325.793C480.727 325.74 480.82 325.713 480.939 325.713C481.065 325.713 481.159 325.738 481.222 325.788C481.285 325.839 481.316 325.914 481.316 326.015C481.316 326.112 481.283 326.188 481.217 326.241C481.154 326.291 481.062 326.316 480.939 326.316ZM483.016 329.23C482.818 329.23 482.64 329.201 482.483 329.145C482.329 329.088 482.199 329.007 482.092 328.9C481.985 328.79 481.903 328.658 481.847 328.504C481.79 328.35 481.762 328.175 481.762 327.98C481.762 327.786 481.789 327.606 481.842 327.443C481.899 327.28 481.979 327.138 482.083 327.019C482.186 326.899 482.312 326.807 482.46 326.741C482.611 326.675 482.782 326.642 482.974 326.642C483.153 326.642 483.313 326.671 483.454 326.731C483.596 326.791 483.715 326.88 483.813 327C483.91 327.116 483.982 327.262 484.03 327.438C484.077 327.611 484.092 327.812 484.077 328.042L482.149 328.056V327.712L483.733 327.698L483.525 327.891C483.544 327.712 483.53 327.566 483.483 327.452C483.436 327.336 483.368 327.251 483.28 327.198C483.192 327.141 483.091 327.113 482.978 327.113C482.849 327.113 482.736 327.148 482.639 327.217C482.541 327.283 482.466 327.38 482.413 327.509C482.362 327.635 482.337 327.789 482.337 327.971C482.337 328.244 482.397 328.449 482.516 328.584C482.639 328.719 482.805 328.787 483.016 328.787C483.11 328.787 483.189 328.776 483.252 328.754C483.318 328.728 483.373 328.697 483.417 328.659C483.461 328.618 483.495 328.573 483.52 328.523C483.549 328.472 483.571 328.419 483.586 328.362L484.105 328.48C484.08 328.596 484.039 328.7 483.982 328.791C483.926 328.882 483.852 328.961 483.761 329.027C483.673 329.093 483.568 329.143 483.445 329.178C483.322 329.212 483.179 329.23 483.016 329.23ZM484.62 329.168V327.665V326.703H485.115L485.101 327.457H485.185C485.229 327.272 485.288 327.119 485.36 327C485.435 326.88 485.531 326.791 485.647 326.731C485.764 326.671 485.899 326.642 486.053 326.642C486.332 326.642 486.545 326.741 486.689 326.939C486.837 327.137 486.911 327.443 486.911 327.858V329.168H486.312V327.919C486.312 327.652 486.271 327.457 486.189 327.335C486.111 327.209 485.993 327.146 485.836 327.146C485.704 327.146 485.592 327.188 485.501 327.273C485.41 327.355 485.339 327.465 485.289 327.603C485.242 327.738 485.217 327.888 485.214 328.051V329.168H484.62ZM488.646 329.23C488.433 329.23 488.247 329.198 488.09 329.135C487.936 329.073 487.807 328.985 487.703 328.871C487.603 328.755 487.527 328.62 487.477 328.466C487.427 328.312 487.402 328.145 487.402 327.966C487.402 327.775 487.427 327.599 487.477 327.438C487.531 327.278 487.609 327.138 487.713 327.019C487.817 326.899 487.944 326.807 488.095 326.741C488.249 326.675 488.425 326.642 488.623 326.642C488.821 326.642 488.992 326.675 489.137 326.741C489.284 326.807 489.404 326.899 489.495 327.019C489.586 327.135 489.647 327.272 489.679 327.429L489.122 327.603C489.116 327.509 489.091 327.426 489.047 327.353C489.003 327.278 488.943 327.22 488.868 327.179C488.792 327.138 488.703 327.118 488.599 327.118C488.499 327.118 488.411 327.138 488.335 327.179C488.263 327.217 488.202 327.272 488.151 327.344C488.104 327.416 488.066 327.504 488.038 327.608C488.013 327.709 488 327.822 488 327.947C488 328.12 488.024 328.268 488.071 328.391C488.118 328.513 488.191 328.609 488.288 328.678C488.385 328.744 488.506 328.777 488.651 328.777C488.78 328.777 488.884 328.754 488.962 328.706C489.044 328.656 489.105 328.592 489.146 328.513C489.19 328.435 489.217 328.348 489.226 328.254L489.754 328.372C489.735 328.501 489.699 328.617 489.646 328.721C489.592 328.824 489.518 328.915 489.424 328.994C489.333 329.069 489.223 329.128 489.094 329.168C488.965 329.209 488.816 329.23 488.646 329.23ZM491.289 329.23C491.091 329.23 490.913 329.201 490.756 329.145C490.602 329.088 490.472 329.007 490.365 328.9C490.258 328.79 490.176 328.658 490.12 328.504C490.063 328.35 490.035 328.175 490.035 327.98C490.035 327.786 490.062 327.606 490.115 327.443C490.172 327.28 490.252 327.138 490.355 327.019C490.459 326.899 490.585 326.807 490.733 326.741C490.883 326.675 491.055 326.642 491.246 326.642C491.426 326.642 491.586 326.671 491.727 326.731C491.869 326.791 491.988 326.88 492.086 327C492.183 327.116 492.255 327.262 492.302 327.438C492.35 327.611 492.365 327.812 492.35 328.042L490.421 328.056V327.712L492.005 327.698L491.798 327.891C491.817 327.712 491.803 327.566 491.756 327.452C491.708 327.336 491.641 327.251 491.553 327.198C491.465 327.141 491.364 327.113 491.251 327.113C491.122 327.113 491.009 327.148 490.912 327.217C490.814 327.283 490.739 327.38 490.685 327.509C490.635 327.635 490.61 327.789 490.61 327.971C490.61 328.244 490.67 328.449 490.789 328.584C490.912 328.719 491.078 328.787 491.289 328.787C491.383 328.787 491.462 328.776 491.525 328.754C491.591 328.728 491.646 328.697 491.69 328.659C491.734 328.618 491.768 328.573 491.793 328.523C491.822 328.472 491.844 328.419 491.859 328.362L492.378 328.48C492.353 328.596 492.312 328.7 492.255 328.791C492.199 328.882 492.125 328.961 492.034 329.027C491.946 329.093 491.84 329.143 491.718 329.178C491.595 329.212 491.452 329.23 491.289 329.23ZM495.435 329.23C495.199 329.23 494.989 329.197 494.803 329.131C494.618 329.062 494.461 328.961 494.332 328.829C494.203 328.694 494.104 328.527 494.035 328.329C493.966 328.131 493.931 327.905 493.931 327.65C493.931 327.386 493.966 327.152 494.035 326.948C494.107 326.744 494.208 326.571 494.336 326.43C494.465 326.285 494.619 326.177 494.798 326.104C494.978 326.032 495.177 325.996 495.397 325.996C495.567 325.996 495.724 326.018 495.869 326.062C496.013 326.106 496.137 326.172 496.241 326.26C496.348 326.345 496.431 326.448 496.491 326.571C496.551 326.69 496.582 326.827 496.585 326.981L496.029 327.127C496.032 326.986 496.002 326.868 495.939 326.774C495.876 326.679 495.795 326.609 495.694 326.562C495.597 326.514 495.491 326.491 495.378 326.491C495.278 326.491 495.177 326.511 495.077 326.552C494.979 326.593 494.891 326.657 494.813 326.745C494.734 326.833 494.671 326.95 494.624 327.094C494.577 327.236 494.553 327.41 494.553 327.617C494.553 327.881 494.591 328.095 494.666 328.259C494.745 328.422 494.852 328.543 494.987 328.622C495.125 328.697 495.281 328.735 495.454 328.735C495.63 328.735 495.77 328.7 495.873 328.631C495.977 328.559 496.052 328.464 496.1 328.348C496.147 328.229 496.173 328.1 496.18 327.962L496.703 328.051C496.7 328.215 496.675 328.369 496.628 328.513C496.58 328.658 496.507 328.783 496.406 328.89C496.309 328.997 496.18 329.08 496.019 329.14C495.859 329.2 495.664 329.23 495.435 329.23ZM497.202 329.168V325.821H497.786V329.168H497.202ZM499.269 329.23C498.987 329.23 498.773 329.134 498.628 328.942C498.487 328.747 498.416 328.453 498.416 328.061V326.703H499.015V327.995C499.015 328.243 499.053 328.428 499.128 328.551C499.203 328.673 499.32 328.735 499.477 328.735C499.568 328.735 499.648 328.713 499.717 328.669C499.786 328.622 499.846 328.557 499.896 328.475C499.947 328.391 499.986 328.293 500.014 328.183C500.046 328.073 500.065 327.952 500.071 327.82V326.703H500.665V328.155V329.168H500.175L500.184 328.391H500.099C500.058 328.589 500 328.749 499.925 328.871C499.852 328.994 499.763 329.085 499.656 329.145C499.549 329.201 499.42 329.23 499.269 329.23ZM502.75 329.23C502.593 329.23 502.458 329.2 502.345 329.14C502.231 329.077 502.139 328.989 502.066 328.876C501.997 328.763 501.947 328.628 501.916 328.471H501.831L501.835 329.168H501.336V327.957V325.821H501.93V326.618C501.93 326.693 501.925 326.775 501.916 326.863C501.906 326.951 501.894 327.042 501.878 327.137C501.862 327.228 501.845 327.32 501.826 327.415H501.925C501.966 327.264 502.019 327.132 502.085 327.019C502.154 326.902 502.244 326.811 502.354 326.745C502.464 326.679 502.599 326.646 502.759 326.646C502.964 326.646 503.14 326.701 503.287 326.811C503.438 326.918 503.555 327.069 503.636 327.264C503.718 327.456 503.759 327.683 503.759 327.947C503.759 328.205 503.718 328.43 503.636 328.622C503.558 328.813 503.443 328.963 503.292 329.069C503.144 329.176 502.964 329.23 502.75 329.23ZM502.561 328.739C502.678 328.739 502.78 328.706 502.868 328.64C502.956 328.574 503.022 328.482 503.066 328.362C503.113 328.243 503.137 328.101 503.137 327.938C503.137 327.781 503.115 327.643 503.071 327.523C503.027 327.404 502.962 327.309 502.877 327.24C502.792 327.171 502.689 327.137 502.566 327.137C502.484 327.137 502.409 327.154 502.34 327.188C502.271 327.22 502.211 327.264 502.161 327.32C502.11 327.374 502.068 327.434 502.033 327.5C501.999 327.566 501.972 327.635 501.953 327.707C501.938 327.776 501.93 327.841 501.93 327.9V327.98C501.93 328.059 501.942 328.144 501.967 328.235C501.993 328.323 502.032 328.405 502.085 328.48C502.139 328.556 502.205 328.618 502.283 328.669C502.362 328.716 502.455 328.739 502.561 328.739Z" fill="#DAE4F7"/>
</svg>
