<svg width="1666" height="955" viewBox="0 0 1666 955" fill="none" xmlns="http://www.w3.org/2000/svg">
<rect width="1666" height="954.155" fill="#E1E1E1"/>
<path d="M1139.13 403.613L1102.77 453.913C1078.54 485.54 1053.17 612.422 1043.51 671.909L984.807 645.296C984.807 567.023 1008.44 453.251 1026.3 408.711C1051.59 363.708 1104.27 272.593 1112.69 268.153C1123.2 262.602 1149.64 255.445 1165.42 250.918C1181.19 246.39 1216.68 224.919 1225.45 223.722H1325.44C1336.7 225.243 1360.44 240.461 1375.66 247.461C1390.88 254.461 1428.01 261.156 1442.61 272.113C1454.3 280.878 1502.67 367.272 1525.4 409.373C1543.26 453.913 1563.61 567.023 1563.61 645.296L1504.91 671.909C1495.25 612.422 1469.89 485.54 1445.66 453.913L1411.36 394.777C1410.82 396.136 1407.28 408.711 1405.58 414.829V732.597L1410 741.434C1399.92 746.305 1358.21 756.048 1272.02 756.048C1185.83 756.048 1147.52 746.305 1139.13 741.434L1142.19 732.597V420.606C1142.19 417.344 1140.15 407.918 1139.13 403.613Z" fill="#7A97CC"/>
<path d="M1139.13 403.613L1102.77 453.913C1078.54 485.54 1053.17 612.422 1043.51 671.909L984.807 645.296C984.807 567.023 1008.44 453.251 1026.3 408.711C1051.59 363.708 1104.27 272.593 1112.69 268.153C1123.2 262.602 1149.64 255.445 1165.42 250.918C1181.19 246.39 1216.68 224.919 1225.45 223.722H1325.44C1336.7 225.243 1360.44 240.461 1375.66 247.461C1390.88 254.461 1428.01 261.156 1442.61 272.113C1454.3 280.878 1502.67 367.272 1525.4 409.373C1543.26 453.913 1563.61 567.023 1563.61 645.296L1504.91 671.909C1495.25 612.422 1469.89 485.54 1445.66 453.913L1411.36 394.777M1139.13 403.613L1117.04 337.34M1139.13 403.613C1140.15 407.918 1142.19 417.344 1142.19 420.606V732.597L1139.13 741.434C1147.52 746.305 1185.83 756.048 1272.02 756.048C1358.21 756.048 1399.92 746.305 1410 741.434L1405.58 732.597V414.829C1407.28 408.711 1410.82 396.136 1411.36 394.777M1411.36 394.777C1411.9 393.418 1426.09 352.974 1433.11 332.923L1411.36 394.777Z" stroke="#E1E1E1" stroke-width="4.20013"/>
<mask id="mask0_5_358" style="mask-type:alpha" maskUnits="userSpaceOnUse" x="981" y="220" width="586" height="540">
<path d="M1411.36 394.777C1411.9 393.418 1426.09 352.974 1433.11 332.923L1411.36 394.777Z" fill="black"/>
<path d="M1139.13 403.613L1102.77 453.913C1078.54 485.54 1053.17 612.422 1043.51 671.909L984.807 645.296C984.807 567.023 1008.44 453.251 1026.3 408.711C1051.59 363.708 1104.27 272.593 1112.69 268.153C1123.2 262.602 1149.64 255.445 1165.42 250.918C1181.19 246.39 1216.68 224.919 1225.45 223.722M1139.13 403.613L1117.04 337.34M1139.13 403.613C1140.15 407.918 1142.19 417.344 1142.19 420.606V732.597L1139.13 741.434C1147.52 746.305 1185.83 756.048 1272.02 756.048C1358.21 756.048 1399.92 746.305 1410 741.434L1405.58 732.597V414.829C1407.28 408.711 1410.82 396.136 1411.36 394.777M1411.36 394.777C1411.9 393.418 1426.09 352.974 1433.11 332.923L1411.36 394.777ZM1411.36 394.777L1445.66 453.913C1469.89 485.54 1495.25 612.422 1504.91 671.909L1563.61 645.296C1563.61 567.023 1543.26 453.913 1525.4 409.373C1502.67 367.272 1454.3 280.878 1442.61 272.113C1428.01 261.156 1390.88 254.461 1375.66 247.461C1360.44 240.461 1336.7 225.243 1325.44 223.722" stroke="white" stroke-width="6.3002"/>
</mask>
<g mask="url(#mask0_5_358)">
</g>
<path d="M1205.31 209.653V236.954C1252.56 259.004 1321.86 248.504 1341.81 236.954V209.653C1341.81 202.694 1336.17 197.052 1329.21 197.052H1217.91C1210.95 197.052 1205.31 202.694 1205.31 209.653Z" fill="#7A97CC" stroke="#E1E1E1" stroke-width="4.20013"/>
<path d="M257.094 407.088L220.729 457.388C196.499 489.015 171.125 615.897 161.472 675.384L102.767 648.771C102.767 570.498 126.397 456.726 144.26 412.186C169.551 367.184 222.235 276.068 230.648 271.628C241.164 266.077 267.601 258.921 283.375 254.393C299.149 249.865 334.642 228.394 343.405 227.197H443.402C454.662 228.719 478.401 243.936 493.619 250.936C508.836 257.936 545.966 264.631 560.575 275.588C572.262 284.353 620.632 370.747 643.356 412.848C661.219 457.388 704.771 560.519 713.257 639.717L655.272 668.003C639.715 609.075 587.848 489.015 563.618 457.388L529.321 398.252C528.777 399.612 525.243 412.186 523.544 418.304V736.073L527.962 744.909C517.879 749.78 476.167 759.523 389.979 759.523C303.79 759.523 265.477 749.78 257.094 744.909L260.152 736.073V424.081C260.152 420.819 258.113 411.393 257.094 407.088Z" fill="#7A97CC"/>
<path d="M257.094 407.088L220.729 457.388C196.499 489.015 171.125 615.897 161.472 675.384L102.767 648.771C102.767 570.498 126.397 456.726 144.26 412.186C169.551 367.184 222.235 276.068 230.648 271.628C241.164 266.077 267.601 258.921 283.375 254.393C299.149 249.865 334.642 228.394 343.405 227.197H443.402C454.662 228.719 478.401 243.936 493.619 250.936C508.836 257.936 545.966 264.631 560.575 275.588C572.262 284.353 620.632 370.747 643.356 412.848C661.219 457.388 704.771 560.519 713.257 639.717L655.272 668.003C639.715 609.075 587.848 489.015 563.618 457.388L529.321 398.252M257.094 407.088L235.003 340.815M257.094 407.088C258.113 411.393 260.152 420.819 260.152 424.081V736.073L257.094 744.909C265.477 749.78 303.79 759.523 389.979 759.523C476.167 759.523 517.879 749.78 527.962 744.909L523.544 736.073V418.304C525.243 412.186 528.777 399.612 529.321 398.252M529.321 398.252C529.865 396.893 544.048 356.449 551.072 336.398L529.321 398.252Z" stroke="#E1E1E1" stroke-width="7.53636"/>
<mask id="mask1_5_358" style="mask-type:alpha" maskUnits="userSpaceOnUse" x="100" y="225" width="584" height="537">
<path d="M529.321 398.252C529.865 396.893 544.048 356.449 551.072 336.398L529.321 398.252Z" fill="black"/>
<path d="M257.094 407.088L220.729 457.388C196.499 489.015 171.125 615.897 161.472 675.384L102.767 648.771C102.767 570.498 126.397 456.726 144.26 412.186C169.551 367.184 222.235 276.068 230.648 271.628C241.164 266.077 267.601 258.921 283.375 254.393C299.149 249.865 334.642 228.394 343.405 227.197M257.094 407.088L235.003 340.815M257.094 407.088C258.113 411.393 260.152 420.819 260.152 424.081V736.073L257.094 744.909C265.477 749.78 303.79 759.523 389.979 759.523C476.167 759.523 517.879 749.78 527.962 744.909L523.544 736.073V418.304C525.243 412.186 528.777 399.612 529.321 398.252M529.321 398.252C529.865 396.893 544.048 356.449 551.072 336.398L529.321 398.252ZM529.321 398.252L563.618 457.388C587.848 489.015 613.212 615.897 622.866 675.384L681.57 648.772C681.57 570.499 661.219 457.388 643.356 412.848C620.632 370.747 572.262 284.353 560.575 275.588C545.966 264.631 508.836 257.936 493.619 250.936C478.401 243.936 454.662 228.719 443.402 227.197" stroke="white" stroke-width="4.20013"/>
</mask>
<g mask="url(#mask1_5_358)">
</g>
<path d="M337.977 229.927C353.378 221.527 401.399 209.767 470.281 229.927" stroke="#E1E1E1" stroke-width="4.20013"/>
<path d="M262.373 703.493C296.324 713.643 402.657 727.854 522.781 703.493" stroke="#E1E1E1" stroke-width="4.20013"/>
<path d="M324.323 212.077V240.428C363.175 261.429 440.877 251.978 460.828 240.428V212.077C460.828 205.118 455.186 199.477 448.227 199.477H336.924C329.965 199.477 324.323 205.118 324.323 212.077Z" fill="#7A97CC" stroke="#E1E1E1" stroke-width="4.20013"/>
<path d="M392.579 202.628L392.221 366.765" stroke="#E1E1E1" stroke-width="4.20013"/>
<path d="M392.578 196.324C410.455 196.324 426.579 197.845 438.18 200.278C443.998 201.498 448.567 202.924 451.631 204.443C453.166 205.204 454.216 205.936 454.854 206.59C455.485 207.237 455.58 207.66 455.58 207.875C455.58 208.089 455.485 208.512 454.854 209.159C454.216 209.813 453.166 210.545 451.631 211.306C448.567 212.825 443.998 214.251 438.18 215.471C426.579 217.904 410.455 219.425 392.578 219.425C374.7 219.425 358.576 217.904 346.974 215.471C341.156 214.251 336.588 212.825 333.524 211.306C331.989 210.545 330.939 209.813 330.301 209.159C329.67 208.512 329.575 208.089 329.575 207.875C329.575 207.66 329.67 207.237 330.301 206.59C330.939 205.936 331.989 205.204 333.524 204.443C336.588 202.924 341.156 201.498 346.974 200.278C358.576 197.845 374.7 196.324 392.578 196.324Z" fill="#E1E1E1" stroke="#7A97CC" stroke-width="4.20013"/>
<rect x="453.506" y="308.308" width="41.7133" height="41.7133" fill="#DAE4F7"/>
<circle cx="466.456" cy="321.291" r="7.04746" fill="#7A97CC"/>
<path d="M489.19 314.216L489.191 314.217L489.191 328.364L489.19 328.365L482.116 321.29L489.19 314.216Z" fill="#7A97CC"/>
<path d="M475.027 314.216L475.027 328.365L482.102 321.29L475.027 314.216Z" fill="#7A97CC"/>
<path fill-rule="evenodd" clip-rule="evenodd" d="M475.133 330.811C475.12 330.892 475.12 330.99 475.12 331.185V336.893C475.12 340.913 478.318 344.172 482.263 344.172C486.208 344.172 489.406 340.913 489.406 336.893V331.185C489.406 330.99 489.406 330.892 489.393 330.811C489.323 330.34 488.961 329.971 488.499 329.899C488.419 329.887 488.323 329.887 488.131 329.887H487.215L484.328 334.578C484.225 334.746 484.225 334.959 484.329 335.126L487.232 339.818H484.001L482.532 337.441C482.474 337.347 482.373 337.29 482.264 337.29C482.154 337.29 482.052 337.348 481.995 337.444L480.56 339.818H477.294L480.181 335.125C480.284 334.958 480.284 334.747 480.182 334.58L477.311 329.887H476.395C476.203 329.887 476.107 329.887 476.027 329.899C475.565 329.971 475.203 330.34 475.133 330.811ZM480.56 329.887L481.994 332.226C482.052 332.32 482.154 332.377 482.263 332.377C482.372 332.377 482.474 332.32 482.532 332.226L483.966 329.887H480.56Z" fill="#7A97CC"/>
<path d="M466.503 337.013C462.586 337.013 459.411 340.189 459.411 344.105V344.106H473.595V344.105C473.595 340.189 470.42 337.013 466.503 337.013Z" fill="#7A97CC"/>
<path d="M466.506 337.013C470.423 337.013 473.598 333.838 473.598 329.921V329.92H459.414V329.921C459.414 333.838 462.589 337.013 466.506 337.013Z" fill="#7A97CC"/>
<path d="M446.987 361.393V358.282H447.585V361.393H446.987ZM446.063 358.786V358.282H448.514V358.786H446.063ZM448.941 361.393V359.861V358.046H449.54V358.814C449.54 358.88 449.536 358.948 449.53 359.017C449.527 359.086 449.521 359.157 449.511 359.229C449.502 359.302 449.491 359.374 449.478 359.446C449.469 359.518 449.458 359.591 449.445 359.663H449.544C449.588 359.493 449.645 359.35 449.714 359.234C449.783 359.115 449.871 359.023 449.978 358.961C450.088 358.898 450.222 358.866 450.379 358.866C450.665 358.866 450.878 358.967 451.02 359.168C451.161 359.366 451.232 359.668 451.232 360.073V361.393H450.633V360.158C450.633 359.888 450.592 359.688 450.511 359.559C450.432 359.43 450.313 359.366 450.152 359.366C450.02 359.366 449.91 359.407 449.822 359.489C449.734 359.567 449.667 359.672 449.62 359.804C449.573 359.936 449.544 360.086 449.535 360.252V361.393H448.941ZM452.972 361.454C452.774 361.454 452.597 361.426 452.439 361.369C452.285 361.313 452.155 361.231 452.048 361.124C451.941 361.014 451.86 360.882 451.803 360.728C451.746 360.574 451.718 360.4 451.718 360.205C451.718 360.01 451.745 359.831 451.798 359.668C451.855 359.504 451.935 359.363 452.039 359.243C452.142 359.124 452.268 359.031 452.416 358.965C452.567 358.899 452.738 358.866 452.93 358.866C453.109 358.866 453.269 358.896 453.411 358.956C453.552 359.016 453.671 359.105 453.769 359.225C453.866 359.341 453.939 359.487 453.986 359.663C454.033 359.836 454.049 360.037 454.033 360.266L452.105 360.281V359.936L453.689 359.922L453.481 360.116C453.5 359.936 453.486 359.79 453.439 359.677C453.392 359.561 453.324 359.476 453.236 359.423C453.148 359.366 453.048 359.338 452.934 359.338C452.806 359.338 452.692 359.372 452.595 359.441C452.498 359.507 452.422 359.605 452.369 359.734C452.318 359.859 452.293 360.013 452.293 360.196C452.293 360.469 452.353 360.673 452.472 360.809C452.595 360.944 452.762 361.011 452.972 361.011C453.066 361.011 453.145 361 453.208 360.978C453.274 360.953 453.329 360.922 453.373 360.884C453.417 360.843 453.451 360.798 453.477 360.747C453.505 360.697 453.527 360.644 453.543 360.587L454.061 360.705C454.036 360.821 453.995 360.925 453.939 361.016C453.882 361.107 453.808 361.186 453.717 361.252C453.629 361.318 453.524 361.368 453.401 361.402C453.279 361.437 453.136 361.454 452.972 361.454ZM457.071 361.454C456.889 361.454 456.724 361.435 456.576 361.398C456.431 361.36 456.304 361.305 456.194 361.233C456.087 361.16 455.998 361.073 455.925 360.969C455.853 360.865 455.798 360.747 455.76 360.615C455.726 360.483 455.709 360.34 455.709 360.186V358.282H456.307V360.163C456.307 360.336 456.336 360.479 456.392 360.592C456.449 360.702 456.534 360.785 456.647 360.842C456.76 360.895 456.901 360.922 457.071 360.922C457.244 360.922 457.385 360.895 457.495 360.842C457.608 360.788 457.693 360.705 457.75 360.592C457.806 360.479 457.835 360.336 457.835 360.163V358.282H458.429V360.186C458.429 360.589 458.314 360.901 458.085 361.124C457.858 361.344 457.52 361.454 457.071 361.454ZM460.058 361.454C459.892 361.454 459.741 361.437 459.606 361.402C459.474 361.371 459.361 361.325 459.266 361.266C459.172 361.203 459.097 361.129 459.04 361.044C458.983 360.956 458.949 360.859 458.936 360.752L459.403 360.578C459.409 360.659 459.441 360.733 459.497 360.799C459.554 360.862 459.632 360.912 459.733 360.95C459.834 360.988 459.955 361.007 460.096 361.007C460.253 361.007 460.374 360.983 460.459 360.936C460.547 360.886 460.591 360.815 460.591 360.724C460.591 360.658 460.567 360.606 460.52 360.568C460.473 360.527 460.404 360.494 460.313 360.469C460.225 360.441 460.118 360.414 459.992 360.389C459.876 360.364 459.758 360.336 459.639 360.304C459.522 360.27 459.414 360.226 459.313 360.172C459.216 360.116 459.136 360.043 459.073 359.955C459.013 359.864 458.983 359.749 458.983 359.611C458.983 359.46 459.023 359.33 459.101 359.22C459.183 359.11 459.299 359.023 459.45 358.961C459.604 358.898 459.79 358.866 460.006 358.866C460.211 358.866 460.387 358.895 460.534 358.951C460.685 359.008 460.808 359.089 460.902 359.196C460.996 359.3 461.056 359.424 461.081 359.569L460.591 359.724C460.582 359.636 460.552 359.562 460.501 359.503C460.451 359.44 460.384 359.393 460.299 359.361C460.214 359.33 460.115 359.314 460.002 359.314C459.857 359.314 459.744 359.339 459.662 359.39C459.581 359.44 459.54 359.507 459.54 359.592C459.54 359.661 459.565 359.716 459.615 359.757C459.669 359.798 459.741 359.831 459.832 359.856C459.926 359.881 460.033 359.907 460.153 359.932C460.278 359.957 460.399 359.987 460.516 360.021C460.635 360.053 460.742 360.095 460.836 360.149C460.93 360.202 461.006 360.273 461.062 360.361C461.119 360.446 461.147 360.556 461.147 360.691C461.147 360.854 461.103 360.994 461.015 361.11C460.927 361.223 460.802 361.31 460.638 361.369C460.478 361.426 460.285 361.454 460.058 361.454ZM462.773 361.454C462.575 361.454 462.398 361.426 462.241 361.369C462.087 361.313 461.956 361.231 461.849 361.124C461.743 361.014 461.661 360.882 461.604 360.728C461.548 360.574 461.52 360.4 461.52 360.205C461.52 360.01 461.546 359.831 461.6 359.668C461.656 359.504 461.736 359.363 461.84 359.243C461.944 359.124 462.069 359.031 462.217 358.965C462.368 358.899 462.539 358.866 462.731 358.866C462.91 358.866 463.07 358.896 463.212 358.956C463.353 359.016 463.473 359.105 463.57 359.225C463.668 359.341 463.74 359.487 463.787 359.663C463.834 359.836 463.85 360.037 463.834 360.266L461.906 360.281V359.936L463.49 359.922L463.283 360.116C463.301 359.936 463.287 359.79 463.24 359.677C463.193 359.561 463.125 359.476 463.037 359.423C462.949 359.366 462.849 359.338 462.736 359.338C462.607 359.338 462.494 359.372 462.396 359.441C462.299 359.507 462.223 359.605 462.17 359.734C462.12 359.859 462.095 360.013 462.095 360.196C462.095 360.469 462.154 360.673 462.274 360.809C462.396 360.944 462.563 361.011 462.773 361.011C462.868 361.011 462.946 361 463.009 360.978C463.075 360.953 463.13 360.922 463.174 360.884C463.218 360.843 463.253 360.798 463.278 360.747C463.306 360.697 463.328 360.644 463.344 360.587L463.862 360.705C463.837 360.821 463.796 360.925 463.74 361.016C463.683 361.107 463.609 361.186 463.518 361.252C463.43 361.318 463.325 361.368 463.202 361.402C463.08 361.437 462.937 361.454 462.773 361.454ZM464.377 361.393V360.158V358.928H464.877L464.867 359.776H464.952C464.981 359.575 465.025 359.408 465.084 359.276C465.144 359.141 465.227 359.041 465.334 358.975C465.441 358.906 465.573 358.871 465.73 358.871C465.762 358.871 465.795 358.873 465.829 358.876C465.867 358.879 465.908 358.887 465.952 358.899L465.928 359.526C465.878 359.507 465.826 359.495 465.773 359.489C465.722 359.479 465.675 359.474 465.631 359.474C465.509 359.474 465.402 359.506 465.311 359.569C465.223 359.632 465.15 359.721 465.094 359.837C465.04 359.951 464.999 360.086 464.971 360.243V361.393H464.377ZM467.522 361.393V358.282H468.121V361.393H467.522ZM467.909 361.393V360.903H469.846V361.393H467.909ZM467.909 360.04V359.588H469.615V360.04H467.909ZM467.909 358.772V358.282H469.837V358.772H467.909ZM470.121 361.393L470.946 360.163L470.121 358.928H470.809L471.3 359.88H471.375L471.865 358.928H472.554L471.729 360.163L472.563 361.393H471.88L471.375 360.436H471.3L470.814 361.393H470.121ZM472.972 362.176V360.177V358.928H473.472L473.467 359.597L473.547 359.602C473.579 359.445 473.629 359.311 473.698 359.201C473.771 359.091 473.862 359.008 473.972 358.951C474.082 358.895 474.212 358.866 474.363 358.866C474.583 358.866 474.77 358.921 474.924 359.031C475.078 359.138 475.194 359.291 475.273 359.489C475.355 359.683 475.395 359.911 475.395 360.172C475.395 360.417 475.358 360.637 475.282 360.832C475.21 361.024 475.098 361.176 474.948 361.289C474.8 361.399 474.616 361.454 474.396 361.454C474.236 361.454 474.101 361.423 473.991 361.36C473.881 361.297 473.791 361.211 473.722 361.101C473.653 360.991 473.596 360.864 473.552 360.719H473.467C473.486 360.804 473.502 360.892 473.514 360.983C473.53 361.071 473.543 361.159 473.552 361.247C473.562 361.332 473.566 361.413 473.566 361.492V362.176H472.972ZM474.203 360.969C474.325 360.969 474.429 360.936 474.514 360.87C474.599 360.801 474.663 360.706 474.707 360.587C474.751 360.464 474.773 360.325 474.773 360.167C474.773 360.004 474.75 359.863 474.702 359.743C474.658 359.624 474.592 359.531 474.504 359.465C474.416 359.399 474.313 359.366 474.193 359.366C474.09 359.366 473.998 359.39 473.92 359.437C473.841 359.484 473.775 359.547 473.722 359.625C473.668 359.701 473.629 359.782 473.604 359.87C473.579 359.958 473.566 360.045 473.566 360.13V360.21C473.566 360.273 473.574 360.339 473.59 360.408C473.609 360.474 473.635 360.541 473.67 360.611C473.705 360.677 473.747 360.738 473.797 360.794C473.848 360.848 473.907 360.89 473.976 360.922C474.046 360.953 474.121 360.969 474.203 360.969ZM477.05 361.454C476.852 361.454 476.674 361.426 476.517 361.369C476.363 361.313 476.232 361.231 476.126 361.124C476.019 361.014 475.937 360.882 475.88 360.728C475.824 360.574 475.796 360.4 475.796 360.205C475.796 360.01 475.822 359.831 475.876 359.668C475.932 359.504 476.012 359.363 476.116 359.243C476.22 359.124 476.346 359.031 476.493 358.965C476.644 358.899 476.815 358.866 477.007 358.866C477.186 358.866 477.347 358.896 477.488 358.956C477.629 359.016 477.749 359.105 477.846 359.225C477.944 359.341 478.016 359.487 478.063 359.663C478.11 359.836 478.126 360.037 478.11 360.266L476.182 360.281V359.936L477.766 359.922L477.559 360.116C477.578 359.936 477.563 359.79 477.516 359.677C477.469 359.561 477.402 359.476 477.314 359.423C477.226 359.366 477.125 359.338 477.012 359.338C476.883 359.338 476.77 359.372 476.672 359.441C476.575 359.507 476.5 359.605 476.446 359.734C476.396 359.859 476.371 360.013 476.371 360.196C476.371 360.469 476.43 360.673 476.55 360.809C476.672 360.944 476.839 361.011 477.05 361.011C477.144 361.011 477.222 361 477.285 360.978C477.351 360.953 477.406 360.922 477.45 360.884C477.494 360.843 477.529 360.798 477.554 360.747C477.582 360.697 477.604 360.644 477.62 360.587L478.139 360.705C478.113 360.821 478.073 360.925 478.016 361.016C477.959 361.107 477.886 361.186 477.794 361.252C477.706 361.318 477.601 361.368 477.479 361.402C477.356 361.437 477.213 361.454 477.05 361.454ZM478.653 361.393V360.158V358.928H479.153L479.144 359.776H479.228C479.257 359.575 479.301 359.408 479.36 359.276C479.42 359.141 479.503 359.041 479.61 358.975C479.717 358.906 479.849 358.871 480.006 358.871C480.038 358.871 480.071 358.873 480.105 358.876C480.143 358.879 480.184 358.887 480.228 358.899L480.204 359.526C480.154 359.507 480.102 359.495 480.049 359.489C479.998 359.479 479.951 359.474 479.907 359.474C479.785 359.474 479.678 359.506 479.587 359.569C479.499 359.632 479.426 359.721 479.37 359.837C479.316 359.951 479.276 360.086 479.247 360.243V361.393H478.653ZM480.642 361.393V358.928H481.236V361.393H480.642ZM480.939 358.541C480.82 358.541 480.727 358.516 480.661 358.466C480.598 358.412 480.567 358.337 480.567 358.239C480.567 358.142 480.598 358.068 480.661 358.018C480.727 357.964 480.82 357.938 480.939 357.938C481.065 357.938 481.159 357.963 481.222 358.013C481.285 358.063 481.316 358.139 481.316 358.239C481.316 358.337 481.283 358.412 481.217 358.466C481.154 358.516 481.062 358.541 480.939 358.541ZM483.016 361.454C482.818 361.454 482.64 361.426 482.483 361.369C482.329 361.313 482.199 361.231 482.092 361.124C481.985 361.014 481.903 360.882 481.847 360.728C481.79 360.574 481.762 360.4 481.762 360.205C481.762 360.01 481.789 359.831 481.842 359.668C481.899 359.504 481.979 359.363 482.083 359.243C482.186 359.124 482.312 359.031 482.46 358.965C482.611 358.899 482.782 358.866 482.974 358.866C483.153 358.866 483.313 358.896 483.454 358.956C483.596 359.016 483.715 359.105 483.813 359.225C483.91 359.341 483.982 359.487 484.03 359.663C484.077 359.836 484.092 360.037 484.077 360.266L482.149 360.281V359.936L483.733 359.922L483.525 360.116C483.544 359.936 483.53 359.79 483.483 359.677C483.436 359.561 483.368 359.476 483.28 359.423C483.192 359.366 483.091 359.338 482.978 359.338C482.849 359.338 482.736 359.372 482.639 359.441C482.541 359.507 482.466 359.605 482.413 359.734C482.362 359.859 482.337 360.013 482.337 360.196C482.337 360.469 482.397 360.673 482.516 360.809C482.639 360.944 482.805 361.011 483.016 361.011C483.11 361.011 483.189 361 483.252 360.978C483.318 360.953 483.373 360.922 483.417 360.884C483.461 360.843 483.495 360.798 483.52 360.747C483.549 360.697 483.571 360.644 483.586 360.587L484.105 360.705C484.08 360.821 484.039 360.925 483.982 361.016C483.926 361.107 483.852 361.186 483.761 361.252C483.673 361.318 483.568 361.368 483.445 361.402C483.322 361.437 483.179 361.454 483.016 361.454ZM484.62 361.393V359.889V358.928H485.115L485.101 359.682H485.185C485.229 359.496 485.288 359.344 485.36 359.225C485.435 359.105 485.531 359.016 485.647 358.956C485.764 358.896 485.899 358.866 486.053 358.866C486.332 358.866 486.545 358.965 486.689 359.163C486.837 359.361 486.911 359.668 486.911 360.083V361.393H486.312V360.144C486.312 359.877 486.271 359.682 486.189 359.559C486.111 359.434 485.993 359.371 485.836 359.371C485.704 359.371 485.592 359.413 485.501 359.498C485.41 359.58 485.339 359.69 485.289 359.828C485.242 359.963 485.217 360.112 485.214 360.276V361.393H484.62ZM488.646 361.454C488.433 361.454 488.247 361.423 488.09 361.36C487.936 361.297 487.807 361.209 487.703 361.096C487.603 360.98 487.527 360.845 487.477 360.691C487.427 360.537 487.402 360.37 487.402 360.191C487.402 359.999 487.427 359.823 487.477 359.663C487.531 359.503 487.609 359.363 487.713 359.243C487.817 359.124 487.944 359.031 488.095 358.965C488.249 358.899 488.425 358.866 488.623 358.866C488.821 358.866 488.992 358.899 489.137 358.965C489.284 359.031 489.404 359.124 489.495 359.243C489.586 359.36 489.647 359.496 489.679 359.654L489.122 359.828C489.116 359.734 489.091 359.65 489.047 359.578C489.003 359.503 488.943 359.445 488.868 359.404C488.792 359.363 488.703 359.342 488.599 359.342C488.499 359.342 488.411 359.363 488.335 359.404C488.263 359.441 488.202 359.496 488.151 359.569C488.104 359.641 488.066 359.729 488.038 359.833C488.013 359.933 488 360.046 488 360.172C488 360.345 488.024 360.493 488.071 360.615C488.118 360.738 488.191 360.834 488.288 360.903C488.385 360.969 488.506 361.002 488.651 361.002C488.78 361.002 488.884 360.978 488.962 360.931C489.044 360.881 489.105 360.816 489.146 360.738C489.19 360.659 489.217 360.573 489.226 360.479L489.754 360.596C489.735 360.725 489.699 360.842 489.646 360.945C489.592 361.049 489.518 361.14 489.424 361.219C489.333 361.294 489.223 361.352 489.094 361.393C488.965 361.434 488.816 361.454 488.646 361.454ZM491.289 361.454C491.091 361.454 490.913 361.426 490.756 361.369C490.602 361.313 490.472 361.231 490.365 361.124C490.258 361.014 490.176 360.882 490.12 360.728C490.063 360.574 490.035 360.4 490.035 360.205C490.035 360.01 490.062 359.831 490.115 359.668C490.172 359.504 490.252 359.363 490.355 359.243C490.459 359.124 490.585 359.031 490.733 358.965C490.883 358.899 491.055 358.866 491.246 358.866C491.426 358.866 491.586 358.896 491.727 358.956C491.869 359.016 491.988 359.105 492.086 359.225C492.183 359.341 492.255 359.487 492.302 359.663C492.35 359.836 492.365 360.037 492.35 360.266L490.421 360.281V359.936L492.005 359.922L491.798 360.116C491.817 359.936 491.803 359.79 491.756 359.677C491.708 359.561 491.641 359.476 491.553 359.423C491.465 359.366 491.364 359.338 491.251 359.338C491.122 359.338 491.009 359.372 490.912 359.441C490.814 359.507 490.739 359.605 490.685 359.734C490.635 359.859 490.61 360.013 490.61 360.196C490.61 360.469 490.67 360.673 490.789 360.809C490.912 360.944 491.078 361.011 491.289 361.011C491.383 361.011 491.462 361 491.525 360.978C491.591 360.953 491.646 360.922 491.69 360.884C491.734 360.843 491.768 360.798 491.793 360.747C491.822 360.697 491.844 360.644 491.859 360.587L492.378 360.705C492.353 360.821 492.312 360.925 492.255 361.016C492.199 361.107 492.125 361.186 492.034 361.252C491.946 361.318 491.84 361.368 491.718 361.402C491.595 361.437 491.452 361.454 491.289 361.454ZM495.435 361.454C495.199 361.454 494.989 361.421 494.803 361.355C494.618 361.286 494.461 361.186 494.332 361.054C494.203 360.919 494.104 360.752 494.035 360.554C493.966 360.356 493.931 360.13 493.931 359.875C493.931 359.611 493.966 359.377 494.035 359.173C494.107 358.968 494.208 358.796 494.336 358.654C494.465 358.51 494.619 358.401 494.798 358.329C494.978 358.257 495.177 358.22 495.397 358.22C495.567 358.22 495.724 358.242 495.869 358.286C496.013 358.33 496.137 358.396 496.241 358.484C496.348 358.569 496.431 358.673 496.491 358.796C496.551 358.915 496.582 359.052 496.585 359.206L496.029 359.352C496.032 359.21 496.002 359.093 495.939 358.998C495.876 358.904 495.795 358.833 495.694 358.786C495.597 358.739 495.491 358.715 495.378 358.715C495.278 358.715 495.177 358.736 495.077 358.777C494.979 358.818 494.891 358.882 494.813 358.97C494.734 359.058 494.671 359.174 494.624 359.319C494.577 359.46 494.553 359.635 494.553 359.842C494.553 360.106 494.591 360.32 494.666 360.483C494.745 360.647 494.852 360.768 494.987 360.846C495.125 360.922 495.281 360.959 495.454 360.959C495.63 360.959 495.77 360.925 495.873 360.856C495.977 360.783 496.052 360.689 496.1 360.573C496.147 360.453 496.173 360.325 496.18 360.186L496.703 360.276C496.7 360.439 496.675 360.593 496.628 360.738C496.58 360.882 496.507 361.008 496.406 361.115C496.309 361.222 496.18 361.305 496.019 361.365C495.859 361.424 495.664 361.454 495.435 361.454ZM497.202 361.393V358.046H497.786V361.393H497.202ZM499.269 361.454C498.987 361.454 498.773 361.358 498.628 361.167C498.487 360.972 498.416 360.678 498.416 360.285V358.928H499.015V360.219C499.015 360.468 499.053 360.653 499.128 360.776C499.203 360.898 499.32 360.959 499.477 360.959C499.568 360.959 499.648 360.937 499.717 360.893C499.786 360.846 499.846 360.782 499.896 360.7C499.947 360.615 499.986 360.518 500.014 360.408C500.046 360.298 500.065 360.177 500.071 360.045V358.928H500.665V360.38V361.393H500.175L500.184 360.615H500.099C500.058 360.813 500 360.974 499.925 361.096C499.852 361.219 499.763 361.31 499.656 361.369C499.549 361.426 499.42 361.454 499.269 361.454ZM502.75 361.454C502.593 361.454 502.458 361.424 502.345 361.365C502.231 361.302 502.139 361.214 502.066 361.101C501.997 360.988 501.947 360.853 501.916 360.695H501.831L501.835 361.393H501.336V360.182V358.046H501.93V358.843C501.93 358.918 501.925 359 501.916 359.088C501.906 359.176 501.894 359.267 501.878 359.361C501.862 359.452 501.845 359.545 501.826 359.639H501.925C501.966 359.489 502.019 359.357 502.085 359.243C502.154 359.127 502.244 359.036 502.354 358.97C502.464 358.904 502.599 358.871 502.759 358.871C502.964 358.871 503.14 358.926 503.287 359.036C503.438 359.143 503.555 359.294 503.636 359.489C503.718 359.68 503.759 359.908 503.759 360.172C503.759 360.43 503.718 360.655 503.636 360.846C503.558 361.038 503.443 361.187 503.292 361.294C503.144 361.401 502.964 361.454 502.75 361.454ZM502.561 360.964C502.678 360.964 502.78 360.931 502.868 360.865C502.956 360.799 503.022 360.706 503.066 360.587C503.113 360.468 503.137 360.326 503.137 360.163C503.137 360.006 503.115 359.867 503.071 359.748C503.027 359.628 502.962 359.534 502.877 359.465C502.792 359.396 502.689 359.361 502.566 359.361C502.484 359.361 502.409 359.379 502.34 359.413C502.271 359.445 502.211 359.489 502.161 359.545C502.11 359.599 502.068 359.658 502.033 359.724C501.999 359.79 501.972 359.859 501.953 359.932C501.938 360.001 501.93 360.065 501.93 360.125V360.205C501.93 360.284 501.942 360.369 501.967 360.46C501.993 360.548 502.032 360.629 502.085 360.705C502.139 360.78 502.205 360.843 502.283 360.893C502.362 360.941 502.455 360.964 502.561 360.964Z" fill="#DAE4F7"/>
</svg>
