<svg width="552" height="275" viewBox="0 0 552 275" fill="none" xmlns="http://www.w3.org/2000/svg">
<rect width="552" height="275" rx="10" fill="#BABABA"/>
<path d="M447.292 224.545L447.369 225.439L498.823 222.105L498.746 221.212L447.292 224.545Z" fill="black"/>
<path d="M447.14 222.757L447.216 223.651L498.671 220.317L498.594 219.424L447.14 222.757Z" fill="black"/>
<path d="M446.985 220.969L447.062 221.863L498.516 218.529L498.44 217.636L446.985 220.969Z" fill="black"/>
<path d="M446.833 219.182L446.909 220.075L498.364 216.742L498.287 215.848L446.833 219.182Z" fill="black"/>
<path d="M446.525 215.608L446.755 218.289L498.209 214.956L497.979 212.275L446.525 215.608Z" fill="black"/>
<path d="M446.066 210.246L446.296 212.927L497.75 209.593L497.52 206.912L446.066 210.246Z" fill="black"/>
<path d="M445.758 206.671L445.834 207.564L497.289 204.231L497.212 203.337L445.758 206.671Z" fill="black"/>
<path d="M445.603 204.884L445.68 205.778L497.134 202.445L497.057 201.551L445.603 204.884Z" fill="black"/>
<path d="M445.449 203.096L445.525 203.99L496.98 200.657L496.903 199.763L445.449 203.096Z" fill="black"/>
<path d="M445.142 199.522L445.373 202.203L496.827 198.869L496.597 196.188L445.142 199.522Z" fill="black"/>
<path d="M444.683 194.159L444.914 196.84L496.368 193.507L496.138 190.826L444.683 194.159Z" fill="black"/>
<path d="M444.376 190.585L444.452 191.479L495.907 188.145L495.83 187.251L444.376 190.585Z" fill="black"/>
<path d="M444.223 188.798L444.3 189.692L495.754 186.358L495.677 185.465L444.223 188.798Z" fill="black"/>
<path d="M444.068 187.011L444.145 187.905L495.6 184.571L495.523 183.677L444.068 187.011Z" fill="black"/>
<path d="M443.761 183.436L443.991 186.117L495.445 182.783L495.215 180.102L443.761 183.436Z" fill="black"/>
<path d="M443.299 178.075L443.529 180.756L494.984 177.422L494.753 174.741L443.299 178.075Z" fill="black"/>
<path d="M442.993 174.499L443.07 175.393L494.524 172.059L494.448 171.165L442.993 174.499Z" fill="black"/>
<path d="M442.841 172.712L442.918 173.606L494.372 170.273L494.295 169.379L442.841 172.712Z" fill="black"/>
<path d="M442.686 170.924L442.763 171.818L494.218 168.485L494.141 167.591L442.686 170.924Z" fill="black"/>
<path d="M442.381 167.35L442.611 170.031L494.065 166.698L493.835 164.017L442.381 167.35Z" fill="black"/>
<path d="M441.917 161.987L442.147 164.668L493.602 161.335L493.371 158.654L441.917 161.987Z" fill="black"/>
<path d="M441.611 158.413L441.688 159.307L493.143 155.973L493.066 155.08L441.611 158.413Z" fill="black"/>
<path d="M441.457 156.626L441.533 157.52L492.988 154.186L492.911 153.293L441.457 156.626Z" fill="black"/>
<path d="M441.304 154.839L441.381 155.732L492.835 152.399L492.759 151.505L441.304 154.839Z" fill="black"/>
<path d="M440.996 151.263L441.227 153.944L492.681 150.611L492.451 147.93L440.996 151.263Z" fill="black"/>
<path d="M440.537 145.902L440.768 148.583L492.222 145.249L491.992 142.568L440.537 145.902Z" fill="black"/>
<path d="M440.231 142.328L440.308 143.221L491.762 139.888L491.686 138.994L440.231 142.328Z" fill="black"/>
<path d="M440.077 140.54L440.154 141.434L491.608 138.1L491.531 137.207L440.077 140.54Z" fill="black"/>
<path d="M439.922 138.752L439.999 139.646L491.454 136.313L491.377 135.419L439.922 138.752Z" fill="black"/>
<path d="M439.616 135.178L439.846 137.859L491.301 134.526L491.07 131.845L439.616 135.178Z" fill="black"/>
<path d="M439.155 129.816L439.385 132.497L490.84 129.164L490.609 126.483L439.155 129.816Z" fill="black"/>
<path d="M438.849 126.241L438.926 127.135L490.38 123.802L490.304 122.908L438.849 126.241Z" fill="black"/>
<path d="M438.695 124.454L438.771 125.348L490.226 122.014L490.149 121.121L438.695 124.454Z" fill="black"/>
<path d="M438.54 122.666L438.617 123.56L490.072 120.226L489.995 119.333L438.54 122.666Z" fill="black"/>
<path d="M438.234 119.092L438.465 121.773L489.919 118.44L489.689 115.759L438.234 119.092Z" fill="black"/>
<path d="M437.773 113.73L438.003 116.411L489.457 113.077L489.227 110.396L437.773 113.73Z" fill="black"/>
<path d="M437.465 110.155L437.542 111.049L488.996 107.715L488.92 106.822L437.465 110.155Z" fill="black"/>
<path d="M437.159 106.58L437.389 109.261L488.844 105.928L488.613 103.247L437.159 106.58Z" fill="black"/>
<path d="M437.006 104.794L437.083 105.688L488.537 102.354L488.46 101.46L437.006 104.794Z" fill="black"/>
<g filter="url(#filter0_d_5_808)">
<path d="M39.0487 40.8388C40.2207 40.2884 41.5349 40.004 42.8683 40.0124L403.501 40.0124C405.132 40.01 406.723 40.4461 408.055 41.2604C409.387 42.0747 410.393 43.2269 410.935 44.5578C411.996 47.205 413.957 49.5124 416.562 51.177C419.166 52.8415 422.291 53.7852 425.526 53.884C425.712 53.884 425.908 53.884 426.104 53.884C429.441 53.8846 432.696 52.9856 435.416 51.3121C438.136 49.6386 440.186 47.2735 441.282 44.5454C441.823 43.2155 442.828 42.0638 444.158 41.2496C445.488 40.4353 447.077 39.9987 448.706 40H510.049C511.082 39.9995 512.104 40.175 513.058 40.5166C514.011 40.8582 514.878 41.3592 515.608 41.9909C516.338 42.6226 516.917 43.3726 517.311 44.198C517.706 45.0235 517.909 45.9082 517.908 46.8015V228.517C517.909 229.411 517.706 230.295 517.311 231.121C516.917 231.946 516.338 232.696 515.608 233.328C514.878 233.96 514.011 234.461 513.058 234.802C512.104 235.144 511.082 235.319 510.049 235.319H448.706C447.077 235.321 445.487 234.885 444.157 234.071C442.827 233.256 441.822 232.104 441.282 230.773C440.186 228.045 438.136 225.68 435.416 224.007C432.696 222.333 429.441 221.434 426.104 221.435C425.908 221.435 425.712 221.435 425.526 221.435C422.291 221.534 419.166 222.477 416.562 224.142C413.957 225.806 411.996 228.114 410.935 230.761C410.394 232.092 409.387 233.245 408.055 234.059C406.724 234.874 405.132 235.309 403.501 235.306L42.8588 235.306C41.8266 235.307 40.8043 235.131 39.8506 234.79C38.8968 234.448 38.0303 233.947 37.3004 233.316C36.5705 232.684 35.9916 231.934 35.5969 231.108C35.2022 230.283 34.9993 229.398 35 228.505V46.7932C35.0013 45.5787 35.3772 44.3864 36.089 43.3397C36.8008 42.2929 37.8225 41.4296 39.0487 40.8388ZM424.772 212.604C424.769 212.822 424.839 213.035 424.973 213.219C425.107 213.403 425.299 213.55 425.526 213.642C425.702 213.727 425.902 213.77 426.104 213.766C426.28 213.766 426.455 213.736 426.618 213.678C426.781 213.62 426.929 213.535 427.054 213.427C427.179 213.319 427.278 213.19 427.345 213.049C427.412 212.908 427.446 212.757 427.446 212.604V199.15C427.446 198.842 427.304 198.547 427.053 198.329C426.801 198.111 426.46 197.989 426.104 197.989C425.903 197.987 425.705 198.027 425.526 198.105C425.39 198.16 425.265 198.236 425.159 198.328C424.909 198.548 424.77 198.845 424.772 199.154V212.604ZM424.772 189.559C424.769 189.777 424.839 189.99 424.973 190.174C425.107 190.358 425.299 190.504 425.526 190.596C425.703 190.68 425.902 190.723 426.104 190.72C426.281 190.722 426.456 190.693 426.62 190.635C426.783 190.578 426.932 190.492 427.057 190.384C427.182 190.276 427.281 190.147 427.347 190.006C427.414 189.864 427.447 189.712 427.446 189.559V176.093C427.446 175.94 427.412 175.789 427.345 175.648C427.278 175.506 427.179 175.378 427.054 175.27C426.929 175.162 426.781 175.077 426.618 175.019C426.455 174.961 426.28 174.931 426.104 174.931C425.903 174.93 425.705 174.969 425.526 175.047C425.39 175.101 425.266 175.175 425.159 175.266C424.909 175.487 424.771 175.784 424.772 176.093V189.559ZM424.772 166.514C424.77 166.731 424.84 166.945 424.974 167.128C425.107 167.312 425.299 167.459 425.526 167.551C425.703 167.635 425.902 167.678 426.104 167.675C426.282 167.676 426.458 167.645 426.622 167.585C426.786 167.526 426.934 167.438 427.059 167.328C427.184 167.22 427.283 167.091 427.349 166.949C427.416 166.807 427.449 166.655 427.446 166.502V153.048C427.446 152.895 427.412 152.744 427.345 152.603C427.278 152.461 427.179 152.333 427.054 152.225C426.929 152.117 426.781 152.032 426.618 151.974C426.455 151.916 426.28 151.886 426.104 151.886C425.903 151.885 425.705 151.924 425.526 152.002C425.389 152.055 425.264 152.129 425.159 152.221C424.909 152.442 424.771 152.739 424.772 153.048V166.514ZM424.772 143.465C424.769 143.683 424.839 143.897 424.972 144.082C425.106 144.266 425.298 144.414 425.526 144.506C425.704 144.589 425.903 144.63 426.104 144.626C426.28 144.627 426.455 144.597 426.618 144.539C426.781 144.481 426.929 144.395 427.054 144.287C427.179 144.179 427.278 144.051 427.345 143.91C427.412 143.769 427.446 143.618 427.446 143.465V130.007C427.446 129.854 427.411 129.704 427.343 129.563C427.276 129.422 427.177 129.295 427.052 129.187C426.928 129.08 426.78 128.994 426.617 128.937C426.454 128.879 426.28 128.849 426.104 128.85C425.903 128.849 425.705 128.89 425.526 128.969C425.389 129.022 425.264 129.096 425.159 129.188C425.034 129.297 424.936 129.426 424.87 129.568C424.803 129.71 424.77 129.862 424.772 130.015V143.465ZM424.772 120.42C424.769 120.637 424.838 120.851 424.972 121.035C425.106 121.219 425.298 121.366 425.526 121.457C425.702 121.543 425.902 121.585 426.104 121.581C426.461 121.582 426.803 121.462 427.059 121.246C427.306 121.025 427.445 120.728 427.446 120.42V106.966C427.446 106.658 427.304 106.362 427.053 106.145C426.801 105.927 426.46 105.805 426.104 105.805C425.747 105.805 425.404 105.927 425.149 106.143C424.9 106.364 424.761 106.661 424.762 106.97L424.772 120.42ZM424.772 97.375C424.769 97.5923 424.839 97.8057 424.973 97.9896C425.107 98.1735 425.299 98.3202 425.526 98.4122C425.702 98.4976 425.902 98.5404 426.104 98.5362C426.28 98.5367 426.455 98.507 426.618 98.4489C426.781 98.3907 426.929 98.3052 427.054 98.1972C427.179 98.0893 427.278 97.9611 427.345 97.82C427.412 97.6789 427.446 97.5276 427.446 97.375V83.9207C427.446 83.6127 427.304 83.3174 427.053 83.0996C426.801 82.8819 426.46 82.7596 426.104 82.7596C425.903 82.7577 425.705 82.7973 425.526 82.8753C425.39 82.9308 425.265 83.0063 425.159 83.0984C424.909 83.3188 424.77 83.6159 424.772 83.9248V97.375ZM424.772 74.33C424.769 74.5473 424.839 74.7606 424.973 74.9445C425.107 75.1284 425.299 75.2751 425.526 75.3671C425.703 75.4505 425.902 75.4932 426.104 75.4911C426.281 75.4928 426.456 75.4638 426.62 75.4061C426.783 75.3483 426.932 75.2629 427.057 75.1547C427.182 75.0466 427.281 74.9179 427.347 74.7763C427.414 74.6346 427.447 74.4829 427.446 74.33V60.8757C427.446 60.723 427.412 60.5718 427.345 60.4307C427.278 60.2896 427.179 60.1613 427.054 60.0534C426.929 59.9454 426.781 59.8599 426.618 59.8018C426.455 59.7436 426.28 59.714 426.104 59.7145C425.903 59.7126 425.705 59.7523 425.526 59.8302C425.39 59.8842 425.266 59.9584 425.159 60.0492C424.909 60.2697 424.77 60.5668 424.772 60.8757V74.33Z" fill="white"/>
</g>
<path d="M279.518 136.984V153.614H276.506V136.984H279.518ZM291.912 153.865C291.121 153.865 290.409 153.724 289.776 153.443C289.148 153.156 288.65 152.734 288.282 152.176C287.919 151.619 287.738 150.931 287.738 150.114C287.738 149.41 287.868 148.828 288.128 148.368C288.388 147.908 288.742 147.54 289.191 147.264C289.641 146.988 290.147 146.779 290.71 146.638C291.278 146.492 291.866 146.387 292.472 146.322C293.203 146.246 293.795 146.178 294.25 146.119C294.705 146.054 295.035 145.956 295.241 145.826C295.452 145.691 295.557 145.483 295.557 145.201V145.152C295.557 144.541 295.376 144.067 295.013 143.732C294.651 143.396 294.128 143.228 293.446 143.228C292.726 143.228 292.155 143.385 291.733 143.699C291.316 144.013 291.035 144.384 290.888 144.811L288.144 144.422C288.36 143.664 288.718 143.03 289.216 142.522C289.714 142.007 290.323 141.623 291.043 141.369C291.763 141.109 292.558 140.979 293.43 140.979C294.031 140.979 294.629 141.049 295.225 141.19C295.82 141.331 296.364 141.563 296.857 141.888C297.349 142.208 297.744 142.643 298.042 143.196C298.345 143.748 298.497 144.438 298.497 145.266V153.614H295.671V151.9H295.574C295.395 152.247 295.143 152.571 294.819 152.875C294.499 153.172 294.096 153.413 293.609 153.597C293.127 153.776 292.561 153.865 291.912 153.865ZM292.675 151.705C293.265 151.705 293.776 151.589 294.21 151.356C294.643 151.118 294.976 150.804 295.208 150.414C295.447 150.024 295.566 149.6 295.566 149.139V147.67C295.474 147.745 295.317 147.816 295.095 147.881C294.878 147.946 294.635 148.003 294.364 148.051C294.093 148.1 293.825 148.143 293.56 148.181C293.295 148.219 293.065 148.252 292.87 148.279C292.431 148.338 292.039 148.436 291.692 148.571C291.346 148.706 291.073 148.896 290.872 149.139C290.672 149.378 290.572 149.686 290.572 150.065C290.572 150.606 290.769 151.015 291.165 151.291C291.56 151.567 292.063 151.705 292.675 151.705ZM307.681 141.141V143.415H300.511V141.141H307.681ZM302.281 138.153H305.22V149.862C305.22 150.257 305.28 150.56 305.399 150.772C305.523 150.977 305.686 151.118 305.886 151.194C306.086 151.27 306.308 151.307 306.552 151.307C306.736 151.307 306.904 151.294 307.055 151.267C307.212 151.24 307.331 151.215 307.413 151.194L307.908 153.492C307.751 153.546 307.526 153.605 307.234 153.67C306.947 153.735 306.595 153.773 306.178 153.784C305.442 153.806 304.779 153.695 304.189 153.451C303.599 153.202 303.131 152.818 302.784 152.298C302.443 151.778 302.275 151.129 302.281 150.349V138.153ZM316.367 141.141V143.415H309.197V141.141H316.367ZM310.967 138.153H313.907V149.862C313.907 150.257 313.966 150.56 314.085 150.772C314.21 150.977 314.372 151.118 314.572 151.194C314.773 151.27 314.995 151.307 315.238 151.307C315.422 151.307 315.59 151.294 315.742 151.267C315.899 151.24 316.018 151.215 316.099 151.194L316.594 153.492C316.437 153.546 316.213 153.605 315.92 153.67C315.633 153.735 315.282 153.773 314.865 153.784C314.129 153.806 313.465 153.695 312.875 153.451C312.285 153.202 311.817 152.818 311.471 152.298C311.13 151.778 310.962 151.129 310.967 150.349V138.153Z" fill="#3A559E"/>
<path d="M451.26 197.725V198.621H502.857V197.725H451.26Z" fill="black"/>
<path d="M451.261 195.932V196.828H502.858V195.932H451.261Z" fill="black"/>
<path d="M451.262 194.14V195.036H502.859V194.14H451.262Z" fill="black"/>
<path d="M451.261 192.348V193.244H502.858V192.348H451.261Z" fill="black"/>
<path d="M451.262 188.763V191.452H502.859V188.763H451.262Z" fill="black"/>
<path d="M451.261 183.386V186.074H502.858V183.386H451.261Z" fill="black"/>
<path d="M451.26 179.802V180.698H502.857V179.802H451.26Z" fill="black"/>
<path d="M451.261 178.009V178.906H502.858V178.009H451.261Z" fill="black"/>
<path d="M451.26 176.218V177.114H502.857V176.218H451.26Z" fill="black"/>
<path d="M451.261 172.632V175.321H502.858V172.632H451.261Z" fill="black"/>
<path d="M451.262 167.256V169.944H502.86V167.256H451.262Z" fill="black"/>
<path d="M451.261 163.671V164.567H502.859V163.671H451.261Z" fill="black"/>
<path d="M451.262 161.879V162.775H502.86V161.879H451.262Z" fill="black"/>
<path d="M451.259 160.086V160.982H502.857V160.086H451.259Z" fill="black"/>
<path d="M451.26 156.502V159.19H502.858V156.502H451.26Z" fill="black"/>
<path d="M451.26 151.125V153.813H502.857V151.125H451.26Z" fill="black"/>
<path d="M451.26 147.541V148.437H502.858V147.541H451.26Z" fill="black"/>
<path d="M451.261 145.748V146.645H502.859V145.748H451.261Z" fill="black"/>
<path d="M451.26 143.956V144.853H502.858V143.956H451.26Z" fill="black"/>
<path d="M451.262 140.371V143.06H502.859V140.371H451.262Z" fill="black"/>
<path d="M451.261 134.994V137.682H502.858V134.994H451.261Z" fill="black"/>
<path d="M451.26 131.409V132.305H502.857V131.409H451.26Z" fill="black"/>
<path d="M451.261 129.617V130.513H502.858V129.617H451.261Z" fill="black"/>
<path d="M451.26 127.826V128.722H502.857V127.826H451.26Z" fill="black"/>
<path d="M451.261 124.24V126.928H502.858V124.24H451.261Z" fill="black"/>
<path d="M451.26 118.864V121.552H502.857V118.864H451.26Z" fill="black"/>
<path d="M451.261 115.28V116.176H502.858V115.28H451.261Z" fill="black"/>
<path d="M451.26 113.487V114.383H502.858V113.487H451.26Z" fill="black"/>
<path d="M451.261 111.694V112.59H502.858V111.694H451.261Z" fill="black"/>
<path d="M451.26 108.11V110.799H502.857V108.11H451.26Z" fill="black"/>
<path d="M451.261 102.733V105.421H502.859V102.733H451.261Z" fill="black"/>
<path d="M451.262 99.149V100.045H502.86V99.149H451.262Z" fill="black"/>
<path d="M451.261 97.356V98.2522H502.859V97.356H451.261Z" fill="black"/>
<path d="M451.262 95.5643V96.4604H502.86V95.5643H451.262Z" fill="black"/>
<path d="M451.26 91.9793V94.6677H502.857V91.9793H451.26Z" fill="black"/>
<path d="M451.26 86.6021V89.2905H502.858V86.6021H451.26Z" fill="black"/>
<path d="M451.26 83.0169V83.9131H502.857V83.0169H451.26Z" fill="black"/>
<path d="M451.261 79.4326V82.1211H502.858V79.4326H451.261Z" fill="black"/>
<path d="M451.261 77.6405V78.5366H502.858V77.6405H451.261Z" fill="black"/>
<rect x="74.1165" y="58.4512" width="319.575" height="157.942" rx="2.95219" fill="#CDE8FF" stroke="#3A559E" stroke-width="1.4761"/>
<path d="M163.884 108.522H153.547V79.3632H163.969C166.902 79.3632 169.427 79.9469 171.543 81.1144C173.66 82.2724 175.288 83.9382 176.427 86.1118C177.576 88.2855 178.15 90.8862 178.15 93.9141C178.15 96.9515 177.576 99.5617 176.427 101.745C175.288 103.928 173.651 105.603 171.515 106.771C169.389 107.938 166.845 108.522 163.884 108.522ZM159.712 103.24H163.627C165.45 103.24 166.983 102.917 168.226 102.272C169.479 101.617 170.419 100.606 171.045 99.239C171.681 97.8627 171.999 96.0877 171.999 93.9141C171.999 91.7594 171.681 89.9987 171.045 88.6319C170.419 87.2651 169.484 86.2589 168.24 85.6135C166.997 84.9681 165.464 84.6453 163.642 84.6453H159.712V103.24ZM182.717 108.522V79.3632H202.365V84.446H188.881V91.394H201.354V96.4769H188.881V103.439H202.421V108.522H182.717ZM223.084 87.7492C222.97 86.6007 222.481 85.7084 221.617 85.0725C220.754 84.4365 219.581 84.1185 218.101 84.1185C217.095 84.1185 216.245 84.2609 215.552 84.5457C214.859 84.8209 214.328 85.2054 213.958 85.6989C213.597 86.1925 213.417 86.7525 213.417 87.379C213.398 87.901 213.507 88.3566 213.744 88.7458C213.991 89.135 214.328 89.4719 214.755 89.7567C215.182 90.0319 215.676 90.274 216.236 90.4828C216.796 90.6821 217.394 90.853 218.03 90.9954L220.649 91.6218C221.921 91.9066 223.089 92.2862 224.152 92.7608C225.215 93.2354 226.136 93.8192 226.914 94.5121C227.692 95.205 228.295 96.0213 228.722 96.961C229.159 97.9006 229.382 98.978 229.391 100.193C229.382 101.977 228.926 103.525 228.024 104.834C227.132 106.135 225.841 107.146 224.152 107.867C222.472 108.579 220.445 108.935 218.072 108.935C215.718 108.935 213.668 108.574 211.922 107.853C210.185 107.131 208.827 106.064 207.85 104.649C206.881 103.226 206.374 101.465 206.326 99.3671H212.292C212.358 100.345 212.638 101.161 213.132 101.816C213.635 102.461 214.304 102.95 215.139 103.282C215.984 103.605 216.938 103.767 218.001 103.767C219.045 103.767 219.952 103.615 220.72 103.311C221.499 103.007 222.102 102.585 222.529 102.044C222.956 101.503 223.169 100.881 223.169 100.179C223.169 99.5237 222.975 98.9732 222.586 98.5271C222.206 98.081 221.646 97.7013 220.906 97.3881C220.175 97.0749 219.278 96.7901 218.215 96.5338L215.04 95.7365C212.581 95.1385 210.64 94.2036 209.216 92.9317C207.793 91.6598 207.086 89.9465 207.095 87.7919C207.086 86.0264 207.555 84.484 208.505 83.1646C209.463 81.8453 210.778 80.8154 212.448 80.075C214.119 79.3347 216.017 78.9645 218.143 78.9645C220.308 78.9645 222.196 79.3347 223.81 80.075C225.433 80.8154 226.696 81.8453 227.597 83.1646C228.499 84.484 228.964 86.0122 228.993 87.7492H223.084ZM239.703 79.3632V108.522H233.538V79.3632H239.703ZM264.11 88.7885C263.911 88.0956 263.631 87.4834 263.27 86.9519C262.909 86.4108 262.468 85.9552 261.946 85.585C261.433 85.2054 260.845 84.9159 260.18 84.7165C259.525 84.5172 258.799 84.4175 258.002 84.4175C256.512 84.4175 255.202 84.7877 254.072 85.5281C252.952 86.2684 252.079 87.3458 251.453 88.76C250.826 90.1648 250.513 91.8828 250.513 93.9141C250.513 95.9453 250.821 97.6728 251.438 99.0966C252.055 100.52 252.929 101.607 254.058 102.357C255.188 103.097 256.521 103.468 258.059 103.468C259.454 103.468 260.645 103.221 261.633 102.727C262.629 102.224 263.389 101.517 263.911 100.606C264.442 99.6946 264.708 98.6173 264.708 97.3739L265.961 97.5589H258.443V92.9174H270.645V96.5908C270.645 99.1536 270.104 101.356 269.022 103.197C267.94 105.029 266.45 106.443 264.551 107.44C262.653 108.427 260.479 108.921 258.03 108.921C255.297 108.921 252.895 108.318 250.826 107.112C248.757 105.897 247.143 104.175 245.985 101.944C244.837 99.7041 244.263 97.0464 244.263 93.971C244.263 91.6076 244.604 89.5004 245.288 87.6495C245.981 85.7891 246.949 84.2135 248.192 82.9226C249.436 81.6317 250.883 80.6493 252.535 79.9754C254.186 79.3015 255.975 78.9645 257.902 78.9645C259.554 78.9645 261.091 79.2065 262.515 79.6906C263.939 80.1652 265.201 80.8391 266.302 81.7124C267.413 82.5856 268.32 83.625 269.022 84.8304C269.724 86.0264 270.175 87.3458 270.374 88.7885H264.11ZM299.665 79.3632V108.522H294.34L281.654 90.1696H281.441V108.522H275.276V79.3632H280.686L293.272 97.7013H293.529V79.3632H299.665Z" fill="#3A5E9E"/>
<path d="M332.802 129.968H349.422C360.304 129.968 365.646 134.999 365.646 144.237V173.433C365.646 182.671 360.304 187.702 349.422 187.702H332.802V129.968ZM349.226 179.455C352.688 179.455 354.767 177.969 354.767 173.845V143.825C354.767 139.701 352.688 138.216 349.226 138.216H343.685V179.455H349.226Z" fill="#3A559E"/>
<path d="M297.045 121.982H284.086V112.556H322.403V121.982H309.443V178.538H297.045V121.982Z" fill="#3A559E"/>
<path d="M331.946 160.085C336.048 160.085 342.646 160.16 346.747 160.16C347.907 160.16 347.999 160.106 348.176 159.151C348.254 158.727 348.324 158.309 348.469 157.895C348.664 157.348 348.95 157.393 349.283 157.763C349.848 158.393 350.386 159.041 350.92 159.694C351.772 160.733 352.61 161.781 353.448 162.828C353.681 163.118 353.653 163.398 353.352 163.64C352.002 164.732 350.739 165.899 349.346 166.962C348.632 167.505 347.889 168.045 347.235 168.651C347.069 168.803 346.896 169.015 346.595 168.863C346.323 168.726 346.362 168.484 346.429 168.281C346.574 167.857 346.5 167.427 346.539 167.001C346.595 166.41 346.256 166.204 345.584 166.207C342.681 166.219 337.278 166.117 334.375 166.144C333.279 166.153 332.194 166.007 331.101 166.028C328.124 166.084 325.15 166.138 322.173 166.144C318.789 166.15 315.408 165.944 312.021 166.022C311.243 166.04 310.465 166.231 309.677 166.028C309.351 165.944 309.238 165.875 309.27 165.553C309.443 163.849 309.899 162.186 310.242 160.506C310.472 159.39 310.639 158.268 310.851 157.148C311.123 155.719 311.416 154.295 311.692 152.866C311.929 151.648 312.056 150.406 312.414 149.212C312.863 147.72 312.87 146.174 313.365 144.685C313.736 143.56 313.739 142.351 314.082 141.217C314.422 140.094 314.277 138.93 314.737 137.811C315.09 136.946 315.083 135.976 315.256 135.056C315.483 133.86 315.73 132.666 315.971 131.469C315.974 131.448 315.985 131.427 315.992 131.406C316.377 129.562 316.377 129.55 318.63 129.523C320.511 129.502 322.088 129.532 323.969 129.61C326.635 129.72 329.612 129.386 332.282 129.562C333.244 129.624 334.202 129.681 335.167 129.532C335.432 129.493 335.719 129.583 335.995 129.583C336.748 129.583 336.797 129.968 336.659 130.442C336.313 131.645 336.062 132.863 335.942 134.092C335.832 135.197 335.394 135.567 334.099 135.567C330.761 135.567 327.424 135.579 324.086 135.555C323.467 135.549 323.209 135.752 323.12 136.226C322.908 137.364 322.639 138.498 322.463 139.638C322.261 140.933 321.985 142.211 321.618 143.479C321.458 144.028 321.84 144.094 322.342 144.091C324.814 144.085 327.286 144.085 329.757 144.088C330.839 144.088 330.857 144.154 330.772 145.031C330.659 146.18 330.327 147.299 330.263 148.454C330.238 148.905 329.998 149.356 329.817 149.794C329.655 150.188 329.22 150.138 328.845 150.138C326.324 150.144 323.799 150.168 321.278 150.129C320.55 150.117 320.231 150.35 320.189 150.911C320.044 152.943 319.188 154.88 319.086 156.925C319.05 157.641 318.753 158.345 318.57 159.056C318.347 159.924 318.481 160.073 319.553 160.073C323.679 160.076 327.805 160.073 331.935 160.073L331.946 160.085Z" fill="#66BFFF"/>
<path d="M302.11 173.633C302.027 173.506 301.891 173.506 301.72 173.503C300.463 173.494 299.209 173.467 297.949 173.453C297.598 173.447 297.329 173.331 297.251 173.046C296.871 171.626 296.484 170.206 296.137 168.78C295.912 167.843 295.847 166.865 295.553 165.964C295.113 164.615 294.898 163.236 294.465 161.891C294.064 160.628 293.906 159.314 293.598 158.031C293.108 156.003 292.624 153.972 292.062 151.956C291.751 150.844 291.668 149.697 291.231 148.603C291.02 148.075 291.031 147.494 291.897 147.245C292.18 147.162 292.413 146.964 292.667 146.821C294.952 145.579 296.323 143.759 297.312 141.719C297.96 140.379 298.332 138.971 298.654 137.548C299.059 135.787 299.066 134.023 298.733 132.28C298.314 130.086 296.889 128.399 294.4 127.447C292.37 126.671 290.193 126.348 287.969 126.318C285.495 126.288 283.017 126.309 280.539 126.309C279.197 126.309 277.857 126.3 276.515 126.309C276.067 126.309 275.587 126.365 275.544 126.849C275.43 128.123 275.054 129.363 274.817 130.617C274.423 132.71 273.94 134.788 273.578 136.884C273.464 137.545 273.066 138.162 273.088 138.811C273.145 140.596 272.318 142.262 272.164 144.023C272.074 145.048 271.659 146.05 271.441 147.07C271.34 147.551 271.487 148.078 271.315 148.532C270.796 149.934 270.57 151.387 270.32 152.819C269.919 155.099 269.203 157.334 268.97 159.631C268.845 160.906 268.254 162.104 268.214 163.388C268.189 164.197 268.279 164.342 269.235 164.345C270.119 164.345 271 164.345 271.885 164.342C272.962 164.342 274.04 164.339 275.118 164.348C276.55 164.36 276.826 164.072 276.88 162.973C276.984 160.897 277.875 158.944 277.976 156.88C278.022 155.917 278.416 154.962 278.577 154.011C278.81 152.62 279.154 151.25 279.444 149.872C279.515 149.54 279.752 149.356 280.196 149.365C280.919 149.377 281.646 149.395 282.362 149.347C283.289 149.288 283.544 149.433 283.572 150.204C283.59 150.678 283.73 151.12 283.895 151.571C284.106 152.155 284.317 152.765 284.331 153.364C284.349 154.36 284.732 155.291 284.954 156.243C285.295 157.701 285.692 159.157 285.996 160.616C286.358 162.371 286.77 164.111 287.2 165.851C287.346 166.432 287.554 167.013 287.59 167.6C287.686 169.204 288.363 170.716 288.646 172.296C288.807 173.212 288.725 173.444 287.59 173.455C286.53 173.464 285.474 173.455 284.414 173.461C284.152 173.461 283.862 173.497 283.78 173.737C283.701 173.957 283.941 174.084 284.134 174.185C284.822 174.561 285.441 175.012 286.093 175.427C288.242 176.8 290.419 178.137 292.621 179.453C293.222 179.809 293.67 180.431 294.572 180.366C295.049 179.954 295.489 179.506 296.005 179.136C296.424 178.836 296.585 178.315 297.193 178.19C297.204 177.971 297.398 177.852 297.559 177.719C298.432 176.989 299.31 176.266 300.183 175.543C300.767 175.059 301.347 174.573 301.927 174.09C302.074 173.965 302.232 173.838 302.099 173.645L302.11 173.633ZM289.659 139.724C289.298 140.643 288.961 141.574 288.055 142.28C286.877 143.199 285.488 143.539 283.912 143.474C283.705 143.465 283.501 143.474 283.293 143.474C282.752 143.474 282.208 143.48 281.671 143.474C280.862 143.462 280.625 143.285 280.833 142.674C281.255 141.461 281.166 140.186 281.578 138.983C282.025 137.687 281.932 136.318 282.383 135.037C282.645 134.29 282.681 133.531 282.827 132.781C282.928 132.271 283.207 131.998 283.916 132.049C285.291 132.146 286.702 131.868 288.052 132.292C289.72 132.819 290.286 133.371 290.404 134.77C290.548 136.457 290.293 138.12 289.659 139.73V139.724Z" fill="#66BFFF"/>
<path d="M266.849 154.675C266.68 150.787 266.806 146.893 266.806 142.999C266.565 141.144 266.612 139.283 266.526 137.426C266.357 133.728 266.382 130.027 266.339 126.326C266.321 124.894 266.314 123.461 266.339 122.025C266.35 121.532 266.076 121.279 265.526 121.288C262.476 121.329 259.416 121.148 256.37 121.392C256.161 121.41 255.927 121.398 255.827 121.582C255.539 122.126 255.147 122.658 255.021 123.229C254.686 124.795 253.787 126.198 253.194 127.688C252.518 129.391 251.687 131.067 251.014 132.768C250.151 134.964 249.148 137.113 248.249 139.292C247.537 141.016 246.832 142.746 246.095 144.464C245.199 146.548 244.196 148.605 243.433 150.73C243.045 151.818 242.502 152.868 242.027 153.935C241.783 154.482 242.038 154.678 242.707 154.672C244.933 154.663 247.163 154.663 249.393 154.672C249.853 154.672 250.094 154.547 250.234 154.175C250.658 153.064 251.133 151.967 251.558 150.855C251.716 150.445 251.971 150.276 252.511 150.282C254.273 150.305 256.035 150.311 257.794 150.276C258.524 150.264 258.725 150.487 258.722 151.063C258.693 154.446 258.714 157.829 258.678 161.208C258.671 161.761 258.668 162.308 258.689 162.858C258.7 163.23 258.869 163.408 259.337 163.408C261.606 163.408 263.882 163.399 266.152 163.417C266.914 163.423 267.123 163.129 267.116 162.543C267.08 159.918 266.965 157.294 266.849 154.669V154.675ZM258.912 142.832C258.955 143.68 258.653 143.879 257.643 143.879C256.841 143.879 256.039 143.861 255.237 143.879C254.579 143.894 254.374 143.632 254.568 143.159C255.165 141.703 255.877 140.27 256.38 138.79C256.808 137.527 257.359 136.296 257.783 135.033C257.941 134.566 258.179 134.117 258.304 133.639C258.351 133.472 258.455 133.225 258.754 133.279C259.042 133.332 258.998 133.573 258.998 133.763C258.998 134.64 258.998 135.517 258.998 136.76C259.124 138.54 258.793 140.68 258.901 142.829L258.912 142.832Z" fill="#3A559E"/>
<path d="M246.632 167.636V164.293H235.79V187.702H225.321V164.296H214.09V187.702H203.62V129.968H214.09V155.378H225.321V129.968H235.79V155.378H246.632V152.034L253.432 160.624L246.632 167.636Z" fill="#66BFFF"/>
<path d="M198.934 130.426C200.728 130.415 202.521 130.555 204.17 131.134C205.864 131.729 207.214 132.768 208.122 134.136C209.227 135.806 209.49 137.61 209.096 139.48C208.905 140.388 208.838 141.308 208.575 142.207C208.363 142.927 208.561 143.071 209.458 143.077C209.866 143.08 210.277 143.071 210.684 143.083C210.897 143.088 211.177 142.99 211.269 143.253C211.34 143.456 211.117 143.551 210.978 143.671C209.933 144.555 208.887 145.439 207.845 146.323C206.424 147.527 205.002 148.734 203.578 149.935C202.798 150.595 202.599 150.589 202.036 149.815C200.54 147.757 199.076 145.684 197.57 143.632C197.198 143.124 197.51 143.083 197.981 143.08C198.594 143.074 199.207 143.074 199.82 143.074C200.115 143.074 200.462 143.035 200.49 142.757C200.664 141.132 201.483 139.555 201.001 137.879C200.802 137.195 200.115 136.601 199.296 136.493C196.361 136.105 195.135 137.219 194.465 139.677C193.855 141.906 193.554 144.188 192.962 146.422C192.569 147.904 192.381 149.421 192.019 150.909C191.64 152.477 191.356 154.063 190.988 155.634C190.743 156.674 190.584 157.752 190.353 158.797C190.02 160.33 189.69 161.865 189.332 163.394C188.833 165.512 188.461 167.651 188 169.778C187.376 172.66 186.706 175.54 186.096 178.425C185.951 179.118 185.76 179.826 185.901 180.534C186.128 181.672 187.018 182.21 188.475 182.156C190.779 182.072 192.001 181.137 192.565 179.22C193.004 177.723 193.238 176.197 193.671 174.7C193.76 174.396 193.962 174.33 194.27 174.33C196.492 174.33 198.715 174.33 200.933 174.336C201.245 174.336 201.497 174.402 201.437 174.745C201.015 177.18 200.767 179.662 199.636 181.953C198.435 184.381 196.457 186.239 193.455 187.237C191.204 187.984 188.868 188.291 186.497 188.109C183.502 187.879 180.797 187.073 179.096 184.743C178.008 183.249 177.774 181.624 177.941 179.928C178.224 177.042 179.096 174.237 179.628 171.388C180.035 169.213 180.556 167.056 180.996 164.888C181.34 163.206 181.701 161.521 182.066 159.84C182.414 158.242 182.896 156.659 183.144 155.052C183.293 154.078 183.626 153.14 183.739 152.157C183.888 150.864 184.285 149.591 184.572 148.307C184.803 147.276 185.019 146.243 185.249 145.212C185.515 144.011 185.827 142.82 186.047 141.613C186.281 140.325 186.493 139.023 186.94 137.784C187.901 135.134 189.556 132.867 192.611 131.562C194.589 130.716 196.74 130.453 198.938 130.432L198.934 130.426Z" fill="#3A559E"/>
<path d="M181.723 137.757L174.984 187.753H165.688L154.614 150.636H154.45L154.4 193.926H160.61L151.029 202.365L140.122 193.926H146.336L146.386 137.757H157.742L169.524 172.509L173.66 137.757H181.723Z" fill="#66BFFF"/>
<path d="M141.217 129.845V173.36C141.217 182.488 135.712 187.702 125.09 187.702C114.468 187.702 108.959 182.485 108.959 173.36L109.15 115.96L102.9 116.008L109.167 111.049L110.186 110.242L115.371 106.141L119.874 110.242L119.987 110.346L126.003 115.829L119.966 115.877L119.775 174.01C119.775 178.087 121.842 179.553 125.284 179.553C128.726 179.553 130.789 178.087 130.789 174.01V129.845H141.21H141.217Z" fill="#3A559E"/>
<path d="M51.2335 210.333V208.874L56.4936 208.874C57.0702 208.874 57.5774 209.01 58.0151 209.283C58.4528 209.553 58.7948 209.933 59.0412 210.423C59.2849 210.913 59.4068 211.486 59.4068 212.141C59.4068 212.799 59.2849 213.373 59.0412 213.863C58.7948 214.353 58.4528 214.733 58.0151 215.003C57.5774 215.273 57.0702 215.408 56.4936 215.408L51.2335 215.408V213.95L56.3718 213.95C56.7072 213.95 57.006 213.876 57.2681 213.729C57.5302 213.58 57.736 213.37 57.8853 213.1C58.0321 212.83 58.1055 212.511 58.1055 212.141C58.1055 211.772 58.0321 211.452 57.8853 211.182C57.736 210.909 57.5302 210.7 57.2681 210.553C57.006 210.406 56.7072 210.333 56.3718 210.333L51.2335 210.333ZM53.2463 206.188L55.4754 204.969L53.2463 203.731V202.225L56.2656 204.045L59.2849 202.194V203.692L57.1109 204.969L59.2849 206.235V207.745L56.2656 205.905L53.2463 207.698V206.188ZM61.5494 201.124L53.2463 201.124V199.725L54.2449 199.725V199.642C54.0981 199.569 53.9422 199.465 53.7771 199.332C53.6093 199.198 53.4665 199.017 53.3486 198.789C53.228 198.561 53.1677 198.27 53.1677 197.916C53.1677 197.45 53.287 197.029 53.5255 196.654C53.7613 196.277 54.1112 195.978 54.5751 195.758C55.0364 195.535 55.6025 195.424 56.2735 195.424C56.9366 195.424 57.5001 195.533 57.964 195.75C58.4279 195.968 58.7817 196.264 59.0254 196.639C59.2692 197.014 59.3911 197.438 59.3911 197.913C59.3911 198.258 59.3334 198.545 59.2181 198.773C59.1028 199.001 58.9639 199.185 58.8014 199.324C58.6362 199.46 58.4803 199.566 58.3335 199.642V199.701L61.5494 199.701V201.124ZM56.2656 199.729C56.6561 199.729 56.9982 199.674 57.2917 199.564C57.5853 199.451 57.8146 199.29 57.9797 199.08C58.1422 198.868 58.2234 198.611 58.2234 198.31C58.2234 197.995 58.1396 197.732 57.9718 197.519C57.8015 197.307 57.5695 197.147 57.276 197.04C56.9798 196.93 56.643 196.875 56.2656 196.875C55.8908 196.875 55.558 196.928 55.2671 197.036C54.9761 197.143 54.7481 197.303 54.583 197.515C54.4179 197.728 54.3353 197.992 54.3353 198.31C54.3353 198.614 54.4153 198.872 54.5751 199.084C54.735 199.296 54.9591 199.458 55.2474 199.568C55.5357 199.675 55.8751 199.729 56.2656 199.729ZM59.4029 191.532C59.4029 192.137 59.2771 192.66 59.0254 193.101C58.7712 193.538 58.4122 193.875 57.9482 194.111C57.4817 194.347 56.9326 194.465 56.301 194.465C55.6799 194.465 55.1347 194.347 54.6656 194.111C54.1938 193.872 53.8269 193.54 53.5648 193.112C53.3001 192.685 53.1677 192.183 53.1677 191.607C53.1677 191.234 53.228 190.883 53.3486 190.553C53.4665 190.22 53.65 189.927 53.8989 189.672C54.1479 189.416 54.4651 189.214 54.8503 189.067C55.233 188.92 55.689 188.847 56.2184 188.847L56.6548 188.847V193.796L55.6956 193.796V190.211C55.423 190.214 55.1806 190.273 54.9683 190.388C54.7534 190.503 54.5843 190.664 54.4611 190.871C54.3379 191.076 54.2764 191.314 54.2764 191.587C54.2764 191.878 54.3471 192.133 54.4886 192.354C54.6276 192.574 54.811 192.745 55.039 192.869C55.2644 192.989 55.5121 193.051 55.7821 193.053L56.6194 193.053C56.9706 193.053 57.2721 192.989 57.5237 192.861C57.7726 192.732 57.964 192.553 58.0976 192.322C58.2287 192.091 58.2942 191.822 58.2942 191.512C58.2942 191.305 58.2654 191.118 58.2077 190.95C58.1474 190.782 58.0596 190.637 57.9443 190.514C57.829 190.39 57.6862 190.297 57.5158 190.235L57.6652 188.906C58.0164 188.99 58.323 189.149 58.5851 189.385C58.8446 189.619 59.0464 189.917 59.1906 190.282C59.3321 190.646 59.4029 191.063 59.4029 191.532ZM59.2849 187.643L53.2463 187.643V186.263L54.2528 186.263V186.2C53.9042 186.09 53.6355 185.901 53.4468 185.634C53.2555 185.364 53.1598 185.056 53.1598 184.71C53.1598 184.631 53.1638 184.544 53.1716 184.447C53.1769 184.347 53.1861 184.264 53.1992 184.199L54.5083 184.199C54.4873 184.259 54.469 184.355 54.4533 184.486C54.4349 184.614 54.4257 184.739 54.4257 184.859C54.4257 185.119 54.4821 185.352 54.5948 185.559C54.7049 185.764 54.8582 185.925 55.0548 186.043C55.2513 186.161 55.478 186.22 55.7349 186.22L59.2849 186.22V187.643ZM59.2849 183.253L53.2463 183.253V181.83L59.2849 181.83V183.253ZM52.3893 182.538C52.3893 182.763 52.3146 182.957 52.1652 183.12C52.0132 183.282 51.831 183.364 51.6187 183.364C51.4038 183.364 51.2217 183.282 51.0723 183.12C50.9203 182.957 50.8443 182.763 50.8443 182.538C50.8443 182.31 50.9203 182.116 51.0723 181.956C51.2217 181.794 51.4038 181.712 51.6187 181.712C51.831 181.712 52.0132 181.794 52.1652 181.956C52.3146 182.116 52.3893 182.31 52.3893 182.538ZM59.4029 177.693C59.4029 178.299 59.2771 178.822 59.0254 179.262C58.7712 179.7 58.4122 180.037 57.9482 180.272C57.4817 180.508 56.9326 180.626 56.301 180.626C55.6799 180.626 55.1347 180.508 54.6656 180.272C54.1938 180.034 53.8269 179.701 53.5648 179.274C53.3001 178.847 53.1677 178.345 53.1677 177.768C53.1677 177.396 53.228 177.045 53.3486 176.715C53.4665 176.382 53.65 176.088 53.8989 175.834C54.1479 175.577 54.4651 175.375 54.8503 175.229C55.233 175.082 55.689 175.008 56.2184 175.008L56.6548 175.008V179.958L55.6956 179.958V176.373C55.423 176.375 55.1806 176.434 54.9683 176.549C54.7534 176.665 54.5843 176.826 54.4611 177.033C54.3379 177.237 54.2764 177.476 54.2764 177.749C54.2764 178.039 54.3471 178.295 54.4886 178.515C54.6276 178.735 54.811 178.907 55.039 179.03C55.2644 179.151 55.5121 179.212 55.7821 179.215L56.6194 179.215C56.9706 179.215 57.2721 179.151 57.5237 179.022C57.7726 178.894 57.964 178.714 58.0976 178.484C58.2287 178.253 58.2942 177.983 58.2942 177.674C58.2942 177.467 58.2654 177.279 58.2077 177.112C58.1474 176.944 58.0596 176.798 57.9443 176.675C57.829 176.552 57.6862 176.459 57.5158 176.396L57.6652 175.067C58.0164 175.151 58.323 175.311 58.5851 175.547C58.8446 175.78 59.0464 176.079 59.1906 176.443C59.3321 176.808 59.4029 177.224 59.4029 177.693ZM55.7467 172.381L59.2849 172.381V173.804L53.2463 173.804V172.444L54.2724 172.444V172.373C53.9343 172.234 53.6657 172.013 53.4665 171.709C53.2673 171.402 53.1677 171.024 53.1677 170.573C53.1677 170.156 53.2568 169.793 53.435 169.484C53.6133 169.172 53.8714 168.931 54.2095 168.76C54.5476 168.587 54.9578 168.502 55.44 168.505L59.2849 168.505V169.928L55.6602 169.928C55.2566 169.928 54.9408 170.033 54.7127 170.243C54.4847 170.45 54.3707 170.737 54.3707 171.104C54.3707 171.353 54.4257 171.574 54.5358 171.768C54.6433 171.959 54.7992 172.11 55.0037 172.22C55.2081 172.328 55.4558 172.381 55.7467 172.381ZM59.4029 164.424C59.4029 165.027 59.2705 165.545 59.0058 165.977C58.7411 166.407 58.3755 166.738 57.9089 166.972C57.4398 167.202 56.8999 167.318 56.2892 167.318C55.6759 167.318 55.1347 167.2 54.6656 166.964C54.1938 166.728 53.8269 166.395 53.5648 165.965C53.3001 165.533 53.1677 165.022 53.1677 164.432C53.1677 163.942 53.2581 163.508 53.439 163.131C53.6172 162.751 53.8701 162.448 54.1977 162.223C54.5227 161.997 54.9028 161.869 55.3378 161.837V163.198C55.0469 163.253 54.8045 163.384 54.6105 163.591C54.414 163.795 54.3157 164.069 54.3157 164.412C54.3157 164.703 54.3943 164.959 54.5515 165.179C54.7062 165.399 54.929 165.571 55.2199 165.694C55.5108 165.815 55.8594 165.875 56.2656 165.875C56.6771 165.875 57.0309 165.815 57.3271 165.694C57.6206 165.573 57.8473 165.404 58.0072 165.187C58.1645 164.967 58.2431 164.709 58.2431 164.412C58.2431 164.203 58.2038 164.015 58.1252 163.85C58.0439 163.682 57.9273 163.542 57.7753 163.43C57.6233 163.317 57.4385 163.24 57.2209 163.198V161.837C57.6482 161.871 58.0269 161.997 58.3571 162.215C58.6847 162.432 58.9416 162.728 59.1277 163.103C59.3111 163.478 59.4029 163.918 59.4029 164.424ZM59.4029 157.995C59.4029 158.601 59.2771 159.124 59.0254 159.564C58.7712 160.002 58.4122 160.338 57.9482 160.574C57.4817 160.81 56.9326 160.928 56.301 160.928C55.6799 160.928 55.1347 160.81 54.6656 160.574C54.1938 160.336 53.8269 160.003 53.5648 159.576C53.3001 159.149 53.1677 158.647 53.1677 158.07C53.1677 157.698 53.228 157.347 53.3486 157.016C53.4665 156.684 53.65 156.39 53.8989 156.136C54.1479 155.879 54.4651 155.677 54.8503 155.53C55.233 155.384 55.689 155.31 56.2184 155.31L56.6548 155.31V160.26L55.6956 160.26V156.674C55.423 156.677 55.1806 156.736 54.9683 156.851C54.7534 156.967 54.5843 157.128 54.4611 157.335C54.3379 157.539 54.2764 157.778 54.2764 158.05C54.2764 158.341 54.3471 158.597 54.4886 158.817C54.6276 159.037 54.811 159.209 55.039 159.332C55.2644 159.453 55.5121 159.514 55.7821 159.517L56.6194 159.517C56.9706 159.517 57.2721 159.453 57.5237 159.324C57.7726 159.196 57.964 159.016 58.0976 158.786C58.2287 158.555 58.2942 158.285 58.2942 157.976C58.2942 157.769 58.2654 157.581 58.2077 157.414C58.1474 157.246 58.0596 157.1 57.9443 156.977C57.829 156.854 57.6862 156.761 57.5158 156.698L57.6652 155.369C58.0164 155.453 58.323 155.613 58.5851 155.849C58.8446 156.082 59.0464 156.381 59.1906 156.745C59.3321 157.11 59.4029 157.526 59.4029 157.995ZM53.95 144.406V145.876C53.7089 145.918 53.4953 145.995 53.3092 146.108C53.1205 146.221 52.9607 146.361 52.8296 146.529C52.6986 146.696 52.6003 146.888 52.5348 147.103C52.4666 147.315 52.4325 147.544 52.4325 147.791C52.4325 148.228 52.5426 148.616 52.7628 148.954C52.9803 149.292 53.3001 149.557 53.722 149.748C54.1414 149.94 54.6538 150.035 55.2592 150.035C55.8751 150.035 56.394 149.94 56.816 149.748C57.2354 149.554 57.5525 149.29 57.7674 148.954C57.9797 148.616 58.0858 148.23 58.0858 147.794C58.0858 147.553 58.0544 147.328 57.9915 147.118C57.926 146.906 57.8303 146.716 57.7045 146.548C57.5787 146.378 57.4241 146.235 57.2406 146.12C57.0571 146.002 56.8475 145.921 56.6116 145.876L56.6194 144.406C57.0021 144.461 57.3612 144.58 57.6966 144.763C58.0321 144.944 58.3283 145.181 58.5851 145.475C58.8394 145.769 59.0385 146.112 59.1827 146.505C59.3242 146.898 59.395 147.335 59.395 147.814C59.395 148.522 59.2312 149.153 58.9036 149.709C58.576 150.265 58.1029 150.702 57.4843 151.022C56.8658 151.342 56.1241 151.502 55.2592 151.502C54.3917 151.502 53.65 151.341 53.034 151.018C52.4155 150.696 51.9424 150.257 51.6148 149.701C51.2872 149.146 51.1234 148.517 51.1234 147.814C51.1234 147.366 51.1863 146.949 51.3121 146.564C51.4379 146.179 51.6227 145.835 51.8664 145.534C52.1075 145.233 52.4037 144.985 52.7549 144.791C53.1035 144.594 53.5019 144.466 53.95 144.406ZM59.4029 140.499C59.4029 141.089 59.2731 141.6 59.0136 142.032C58.7542 142.465 58.3912 142.8 57.9247 143.039C57.4581 143.274 56.913 143.392 56.2892 143.392C55.6654 143.392 55.119 143.274 54.6498 143.039C54.1807 142.8 53.8164 142.465 53.5569 142.032C53.2974 141.6 53.1677 141.089 53.1677 140.499C53.1677 139.909 53.2974 139.398 53.5569 138.966C53.8164 138.533 54.1807 138.199 54.6498 137.963C55.119 137.725 55.6654 137.605 56.2892 137.605C56.913 137.605 57.4581 137.725 57.9247 137.963C58.3912 138.199 58.7542 138.533 59.0136 138.966C59.2731 139.398 59.4029 139.909 59.4029 140.499ZM58.2628 140.491C58.2628 140.171 58.175 139.904 57.9994 139.689C57.8211 139.474 57.5826 139.314 57.2838 139.209C56.9851 139.102 56.6522 139.048 56.2853 139.048C55.9157 139.048 55.5816 139.102 55.2828 139.209C54.9814 139.314 54.7416 139.474 54.5633 139.689C54.3851 139.904 54.296 140.171 54.296 140.491C54.296 140.819 54.3851 141.091 54.5633 141.309C54.7416 141.524 54.9814 141.685 55.2828 141.792C55.5816 141.897 55.9157 141.95 56.2853 141.95C56.6522 141.95 56.9851 141.897 57.2838 141.792C57.5826 141.685 57.8211 141.524 57.9994 141.309C58.175 141.091 58.2628 140.819 58.2628 140.491ZM55.7467 134.974L59.2849 134.974V136.397L53.2463 136.397V135.037L54.2724 135.037V134.966C53.9343 134.828 53.6657 134.606 53.4665 134.302C53.2673 133.995 53.1677 133.617 53.1677 133.166C53.1677 132.749 53.2568 132.386 53.435 132.077C53.6133 131.765 53.8714 131.524 54.2095 131.354C54.5476 131.181 54.9578 131.095 55.44 131.098L59.2849 131.098V132.521L55.6602 132.521C55.2566 132.521 54.9408 132.626 54.7127 132.836C54.4847 133.043 54.3707 133.33 54.3707 133.697C54.3707 133.946 54.4257 134.167 54.5358 134.361C54.6433 134.552 54.7992 134.703 55.0037 134.813C55.2081 134.921 55.4558 134.974 55.7467 134.974ZM53.2463 126.593L54.3471 126.593V130.162L53.2463 130.162V126.593ZM59.2849 129.27L52.6763 129.27C52.27 129.27 51.9319 129.186 51.662 129.018C51.392 128.848 51.1902 128.62 51.0566 128.334C50.9229 128.049 50.8561 127.731 50.8561 127.383C50.8561 127.136 50.8757 126.918 50.915 126.726C50.9543 126.535 50.9897 126.393 51.0212 126.302L52.122 126.585C52.1036 126.645 52.0853 126.721 52.0669 126.813C52.046 126.905 52.0355 127.007 52.0355 127.119C52.0355 127.384 52.0997 127.572 52.2281 127.682C52.3539 127.789 52.5348 127.843 52.7706 127.843L59.2849 127.843L59.2849 129.27ZM59.4029 123.032C59.4029 123.637 59.2771 124.16 59.0254 124.6C58.7712 125.038 58.4122 125.375 57.9482 125.611C57.4817 125.847 56.9326 125.965 56.301 125.965C55.6799 125.965 55.1347 125.847 54.6656 125.611C54.1938 125.372 53.8269 125.039 53.5648 124.612C53.3001 124.185 53.1677 123.683 53.1677 123.106C53.1677 122.734 53.228 122.383 53.3486 122.053C53.4665 121.72 53.65 121.426 53.8989 121.172C54.1479 120.915 54.4651 120.714 54.8503 120.567C55.233 120.42 55.689 120.347 56.2184 120.347L56.6548 120.347V125.296L55.6956 125.296V121.711C55.423 121.713 55.1806 121.772 54.9683 121.888C54.7534 122.003 54.5843 122.164 54.4611 122.371C54.3379 122.576 54.2764 122.814 54.2764 123.087C54.2764 123.378 54.3471 123.633 54.4886 123.853C54.6276 124.074 54.811 124.245 55.039 124.368C55.2644 124.489 55.5121 124.551 55.7821 124.553L56.6194 124.553C56.9706 124.553 57.2721 124.489 57.5237 124.361C57.7726 124.232 57.964 124.053 58.0976 123.822C58.2287 123.591 58.2942 123.321 58.2942 123.012C58.2942 122.805 58.2654 122.618 58.2077 122.45C58.1474 122.282 58.0596 122.137 57.9443 122.014C57.829 121.89 57.6862 121.797 57.5158 121.734L57.6652 120.406C58.0164 120.49 58.323 120.649 58.5851 120.885C58.8446 121.119 59.0464 121.417 59.1906 121.782C59.3321 122.146 59.4029 122.563 59.4029 123.032ZM59.2849 119.143L53.2463 119.143V117.763L54.2528 117.763V117.7C53.9042 117.59 53.6355 117.401 53.4468 117.134C53.2555 116.864 53.1598 116.556 53.1598 116.21C53.1598 116.131 53.1638 116.043 53.1716 115.946C53.1769 115.847 53.1861 115.764 53.1992 115.699L54.5083 115.699C54.4873 115.759 54.469 115.855 54.4533 115.986C54.4349 116.114 54.4257 116.239 54.4257 116.359C54.4257 116.619 54.4821 116.852 54.5948 117.059C54.7049 117.263 54.8582 117.425 55.0548 117.543C55.2513 117.661 55.478 117.72 55.7349 117.72L59.2849 117.72V119.143ZM59.4029 112.329C59.4029 112.934 59.2771 113.457 59.0254 113.897C58.7712 114.335 58.4122 114.672 57.9482 114.908C57.4817 115.144 56.9326 115.261 56.301 115.261C55.6799 115.261 55.1347 115.144 54.6656 114.908C54.1938 114.669 53.8269 114.336 53.5648 113.909C53.3001 113.482 53.1677 112.98 53.1677 112.403C53.1677 112.031 53.228 111.68 53.3486 111.35C53.4665 111.017 53.65 110.723 53.8989 110.469C54.1479 110.212 54.4651 110.01 54.8503 109.864C55.233 109.717 55.689 109.644 56.2184 109.644L56.6548 109.644V114.593L55.6956 114.593V111.008C55.423 111.01 55.1806 111.069 54.9683 111.185C54.7534 111.3 54.5843 111.461 54.4611 111.668C54.3379 111.873 54.2764 112.111 54.2764 112.384C54.2764 112.675 54.3471 112.93 54.4886 113.15C54.6276 113.37 54.811 113.542 55.039 113.665C55.2644 113.786 55.5121 113.847 55.7821 113.85L56.6194 113.85C56.9706 113.85 57.2721 113.786 57.5237 113.657C57.7726 113.529 57.964 113.349 58.0976 113.119C58.2287 112.888 58.2942 112.618 58.2942 112.309C58.2942 112.102 58.2654 111.915 58.2077 111.747C58.1474 111.579 58.0596 111.434 57.9443 111.31C57.829 111.187 57.6862 111.094 57.5158 111.031L57.6652 109.702C58.0164 109.786 58.323 109.946 58.5851 110.182C58.8446 110.415 59.0464 110.714 59.1906 111.078C59.3321 111.443 59.4029 111.86 59.4029 112.329ZM55.7467 107.016L59.2849 107.016V108.44L53.2463 108.44L53.2463 107.079L54.2724 107.079V107.009C53.9343 106.87 53.6657 106.648 53.4665 106.344C53.2673 106.037 53.1677 105.659 53.1677 105.208C53.1677 104.791 53.2568 104.428 53.435 104.119C53.6133 103.807 53.8714 103.566 54.2095 103.396C54.5476 103.223 54.9578 103.137 55.44 103.14L59.2849 103.14V104.563L55.6602 104.563C55.2566 104.563 54.9408 104.668 54.7127 104.878C54.4847 105.085 54.3707 105.372 54.3707 105.739C54.3707 105.988 54.4257 106.209 54.5358 106.403C54.6433 106.594 54.7992 106.745 55.0037 106.855C55.2081 106.963 55.4558 107.016 55.7467 107.016ZM59.4029 99.0593C59.4029 99.6621 59.2705 100.18 59.0058 100.612C58.7411 101.042 58.3755 101.374 57.9089 101.607C57.4398 101.837 56.8999 101.953 56.2892 101.953C55.6759 101.953 55.1347 101.835 54.6656 101.599C54.1938 101.363 53.8269 101.03 53.5648 100.6C53.3001 100.168 53.1677 99.6569 53.1677 99.0672C53.1677 98.5771 53.2581 98.1433 53.439 97.7659C53.6172 97.3859 53.8701 97.0831 54.1977 96.8577C54.5227 96.6323 54.9028 96.5039 55.3378 96.4725V97.8327C55.0469 97.8878 54.8045 98.0188 54.6105 98.2259C54.414 98.4303 54.3157 98.7042 54.3157 99.0475C54.3157 99.3384 54.3943 99.594 54.5515 99.8141C54.7062 100.034 54.929 100.206 55.2199 100.329C55.5108 100.45 55.8594 100.51 56.2656 100.51C56.6771 100.51 57.0309 100.45 57.3271 100.329C57.6206 100.209 57.8473 100.04 58.0072 99.822C58.1645 99.6018 58.2431 99.3437 58.2431 99.0475C58.2431 98.8378 58.2038 98.6504 58.1252 98.4853C58.0439 98.3176 57.9273 98.1774 57.7753 98.0647C57.6233 97.952 57.4385 97.8747 57.2209 97.8327V96.4725C57.6482 96.5065 58.0269 96.6323 58.3571 96.8499C58.6847 97.0674 58.9416 97.3636 59.1277 97.7384C59.3111 98.1132 59.4029 98.5535 59.4029 99.0593ZM59.4029 92.6305C59.4029 93.236 59.2771 93.7588 59.0254 94.1992C58.7712 94.6368 58.4122 94.9736 57.9482 95.2095C57.4817 95.4454 56.9326 95.5633 56.301 95.5633C55.6799 95.5633 55.1347 95.4454 54.6656 95.2095C54.1938 94.971 53.8269 94.6382 53.5648 94.2109C53.3001 93.7837 53.1677 93.2818 53.1677 92.7052C53.1677 92.3331 53.228 91.9819 53.3486 91.6516C53.4665 91.3188 53.65 91.0252 53.8989 90.771C54.1479 90.5142 54.4651 90.3123 54.8503 90.1656C55.233 90.0188 55.689 89.9454 56.2184 89.9454L56.6548 89.9454V94.895L55.6956 94.895V91.3096C55.423 91.3122 55.1806 91.3712 54.9683 91.4865C54.7534 91.6018 54.5843 91.763 54.4611 91.9701C54.3379 92.1745 54.2764 92.413 54.2764 92.6856C54.2764 92.9765 54.3471 93.232 54.4886 93.4522C54.6276 93.6724 54.811 93.844 55.039 93.9672C55.2644 94.0878 55.5121 94.1494 55.7821 94.152L56.6194 94.152C56.9706 94.152 57.2721 94.0878 57.5237 93.9593C57.7726 93.8309 57.964 93.6514 58.0976 93.4207C58.2287 93.1901 58.2942 92.9202 58.2942 92.6109C58.2942 92.4038 58.2654 92.2164 58.2077 92.0487C58.1474 91.881 58.0596 91.7355 57.9443 91.6123C57.829 91.4891 57.6862 91.3961 57.5158 91.3332L57.6652 90.0044C58.0164 90.0883 58.323 90.2481 58.5851 90.484C58.8446 90.7173 59.0464 91.0161 59.1906 91.3804C59.3321 91.7447 59.4029 92.1614 59.4029 92.6305ZM59.2849 86.0111L58.2313 86.0111L55.4911 83.2159C55.2212 82.9486 54.9814 82.7258 54.7717 82.5476C54.562 82.3693 54.3589 82.2357 54.1623 82.1466C53.9658 82.0574 53.7561 82.0129 53.5333 82.0129C53.2791 82.0129 53.0616 82.0706 52.8807 82.1859C52.6973 82.3012 52.5557 82.4598 52.4561 82.6616C52.3565 82.8634 52.3067 83.0927 52.3067 83.3496C52.3067 83.6143 52.3618 83.8462 52.4719 84.0454C52.5793 84.2446 52.7326 84.3992 52.9318 84.5093C53.131 84.6168 53.3682 84.6705 53.6434 84.6705V86.0583C53.1323 86.0583 52.6881 85.9416 52.3107 85.7084C51.9333 85.4751 51.641 85.1541 51.434 84.7452C51.2269 84.3337 51.1234 83.8619 51.1234 83.3299C51.1234 82.79 51.2243 82.3156 51.4261 81.9067C51.6279 81.4979 51.9044 81.1808 52.2556 80.9554C52.6068 80.7273 53.0078 80.6133 53.4586 80.6133C53.76 80.6133 54.0562 80.671 54.3471 80.7863C54.638 80.9016 54.9604 81.1047 55.3142 81.3957C55.6681 81.684 56.0966 82.0889 56.5998 82.6105L58.0112 83.9982L58.0662 83.9982V80.4915L59.2849 80.4915V86.0111ZM59.4382 76.1591C59.4382 76.8065 59.2744 77.3621 58.9468 77.826C58.6166 78.2873 58.1409 78.6424 57.5197 78.8914C56.896 79.1378 56.1451 79.261 55.2671 79.261C54.3891 79.2583 53.6421 79.1338 53.0262 78.8875C52.4076 78.6385 51.9359 78.2834 51.6109 77.8221C51.2859 77.3582 51.1234 76.8038 51.1234 76.1591C51.1234 75.5144 51.2859 74.96 51.6109 74.4961C51.9359 74.0322 52.4076 73.6771 53.0262 73.4307C53.6447 73.1817 54.3917 73.0573 55.2671 73.0573C56.1477 73.0573 56.8999 73.1817 57.5237 73.4307C58.1448 73.6771 58.6192 74.0322 58.9468 74.4961C59.2744 74.9574 59.4382 75.5117 59.4382 76.1591ZM58.2077 76.1591C58.2077 75.6559 57.96 75.2588 57.4647 74.9679C56.9667 74.6744 56.2342 74.5276 55.2671 74.5276C54.6276 74.5276 54.0903 74.5944 53.6552 74.7281C53.2201 74.8618 52.8925 75.0505 52.6724 75.2942C52.4496 75.5379 52.3382 75.8262 52.3382 76.1591C52.3382 76.6597 52.5872 77.0555 53.0851 77.3464C53.5805 77.6373 54.3078 77.7841 55.2671 77.7867C55.9092 77.7893 56.4491 77.7251 56.8868 77.5941C57.3245 77.4604 57.6547 77.2717 57.8775 77.0279C58.0976 76.7842 58.2077 76.4946 58.2077 76.1591ZM59.2849 71.7511L58.2313 71.7511L55.4911 68.9559C55.2212 68.6885 54.9814 68.4657 54.7717 68.2875C54.562 68.1093 54.3589 67.9756 54.1623 67.8865C53.9658 67.7974 53.7561 67.7529 53.5333 67.7529C53.2791 67.7529 53.0616 67.8105 52.8807 67.9258C52.6973 68.0412 52.5557 68.1997 52.4561 68.4015C52.3565 68.6033 52.3067 68.8327 52.3067 69.0895C52.3067 69.3542 52.3618 69.5862 52.4719 69.7854C52.5793 69.9846 52.7326 70.1392 52.9318 70.2493C53.131 70.3567 53.3682 70.4105 53.6434 70.4105V71.7982C53.1323 71.7982 52.6881 71.6816 52.3107 71.4483C51.9333 71.2151 51.641 70.894 51.434 70.4852C51.2269 70.0737 51.1234 69.6019 51.1234 69.0699C51.1234 68.53 51.2243 68.0556 51.4261 67.6467C51.6279 67.2378 51.9044 66.9207 52.2556 66.6953C52.6068 66.4673 53.0078 66.3533 53.4586 66.3533C53.76 66.3533 54.0562 66.4109 54.3471 66.5263C54.638 66.6416 54.9604 66.8447 55.3142 67.1356C55.6681 67.4239 56.0966 67.8289 56.5998 68.3504L58.0112 69.7382L58.0662 69.7382V66.2314L59.2849 66.2314V71.7511ZM59.395 62.076C59.395 62.6002 59.2967 63.0693 59.1001 63.4834C58.9009 63.8975 58.6284 64.2264 58.2824 64.4702C57.9365 64.7113 57.5407 64.8397 57.0951 64.8555L57.0951 63.4402C57.4254 63.4139 57.6953 63.2711 57.905 63.0116C58.1121 62.7522 58.2156 62.4403 58.2156 62.076C58.2156 61.7903 58.1501 61.5361 58.019 61.3133C57.888 61.0905 57.7058 60.9149 57.4726 60.7865C57.2393 60.6581 56.9733 60.5952 56.6745 60.5978C56.3705 60.5952 56.1005 60.6594 55.8646 60.7904C55.6287 60.9215 55.444 61.101 55.3103 61.329C55.174 61.557 55.1059 61.8191 55.1059 62.1153C55.1033 62.3564 55.1478 62.5936 55.2395 62.8269C55.3313 63.0601 55.4518 63.2449 55.6012 63.3812L55.385 64.6982L51.2335 64.2775V59.6071L52.4522 59.6071L52.4522 63.0706L54.5869 63.3026V63.2554C54.4113 63.106 54.2659 62.895 54.1505 62.6224C54.0326 62.3499 53.9736 62.0511 53.9736 61.7261C53.9736 61.2386 54.089 60.8035 54.3196 60.4209C54.5476 60.0382 54.8621 59.7368 55.2631 59.5167C55.6641 59.2965 56.1228 59.1864 56.6391 59.1864C57.1711 59.1864 57.6455 59.3096 58.0623 59.556C58.4764 59.7997 58.8027 60.1391 59.0412 60.5742C59.2771 61.0066 59.395 61.5072 59.395 62.076Z" fill="#3A559E"/>
<defs>
<filter id="filter0_d_5_808" x="23.2812" y="32.0922" width="506.346" height="218.756" filterUnits="userSpaceOnUse" color-interpolation-filters="sRGB">
<feFlood flood-opacity="0" result="BackgroundImageFix"/>
<feColorMatrix in="SourceAlpha" type="matrix" values="0 0 0 0 0 0 0 0 0 0 0 0 0 0 0 0 0 0 127 0" result="hardAlpha"/>
<feOffset dy="3.81098"/>
<feGaussianBlur stdDeviation="5.85938"/>
<feComposite in2="hardAlpha" operator="out"/>
<feColorMatrix type="matrix" values="0 0 0 0 0 0 0 0 0 0 0 0 0 0 0 0 0 0 0.03 0"/>
<feBlend mode="normal" in2="BackgroundImageFix" result="effect1_dropShadow_5_808"/>
<feBlend mode="normal" in="SourceGraphic" in2="effect1_dropShadow_5_808" result="shape"/>
</filter>
</defs>
</svg>
