<svg width="431" height="309" viewBox="0 0 431 309" fill="none" xmlns="http://www.w3.org/2000/svg">
<g opacity="0.9">
<path d="M60.9865 298.914C55.1926 298.914 50.4949 303.015 50.4949 308.075H39.2855C39.2855 303.015 34.5899 298.914 28.7939 298.914C23 298.914 18.3044 303.015 18.3044 308.075H10.6511L10.6511 293.452C16.4451 293.452 21.1407 289.35 21.1407 284.29C21.1407 279.23 16.4451 275.13 10.6511 275.13L10.6511 265.339C16.4451 265.339 21.1407 261.238 21.1407 256.178C21.1407 251.119 16.4451 247.016 10.6511 247.016V237.227C16.4451 237.227 21.1407 233.126 21.1407 228.067C21.1407 223.007 16.4451 218.906 10.6511 218.906V209.117C16.4451 209.117 21.1407 205.015 21.1407 199.957C21.1407 194.897 16.4451 190.796 10.6511 190.796L10.6511 181.005C16.4451 181.005 21.1407 176.905 21.1407 171.845C21.1407 166.785 16.4451 162.685 10.6511 162.685L10.6511 152.896C16.4451 152.896 21.1407 148.795 21.1407 143.735C21.1407 138.675 16.4451 134.573 10.6511 134.573L10.6511 124.784C16.4451 124.784 21.1407 120.681 21.1407 115.623C21.1407 110.564 16.4451 106.463 10.6511 106.463V96.6721C16.4451 96.6721 21.1407 92.5697 21.1407 87.5117C21.1407 82.4519 16.4451 78.3495 10.6511 78.3495V68.5604C16.4451 68.5604 21.1407 64.458 21.1407 59.4C21.1407 54.3402 16.4451 50.2378 10.6511 50.2378L10.6511 40.4487C16.4451 40.4487 21.1407 36.3463 21.1407 31.2865C21.1407 26.2267 16.4451 22.1243 10.6511 22.1243L10.6511 10.1044H18.3208C18.4093 15.0977 23.0576 19.1247 28.7939 19.1247C34.5323 19.1247 39.1786 15.0977 39.2691 10.1044L50.5114 10.1044C50.5998 15.0977 55.2481 19.1247 60.9845 19.1247C66.7228 19.1247 71.3691 15.0977 71.4596 10.1044L82.704 10.1044C82.7924 15.0977 87.4407 19.1247 93.1771 19.1247C98.9155 19.1247 103.562 15.0977 103.652 10.1044H114.895C114.983 15.0977 119.631 19.1247 125.368 19.1247C131.106 19.1247 135.752 15.0977 135.843 10.1044H147.085C147.174 15.0977 151.822 19.1247 157.558 19.1247C163.297 19.1247 167.943 15.0977 168.033 10.1044L179.276 10.1044C179.364 15.0977 184.012 19.1247 189.751 19.1247C195.489 19.1247 200.135 15.0977 200.224 10.1044L211.466 10.1044C211.555 15.0977 216.203 19.1247 221.939 19.1247C227.678 19.1247 232.324 15.0977 232.414 10.1044H243.657C243.745 15.0977 248.393 19.1247 254.132 19.1247C259.87 19.1247 264.516 15.0977 264.605 10.1044H275.847C275.936 15.0977 280.584 19.1247 286.322 19.1247C292.061 19.1247 296.707 15.0977 296.798 10.1044L308.04 10.1044C308.128 15.0977 312.777 19.1247 318.513 19.1247C324.249 19.1247 328.898 15.0977 328.986 10.1044H340.228C340.317 15.0977 344.965 19.1247 350.703 19.1247C356.442 19.1247 361.088 15.0977 361.179 10.1044H372.421C372.509 15.0977 377.158 19.1247 382.896 19.1247C388.634 19.1247 393.281 15.0977 393.371 10.1044L404.614 10.1044C404.702 15.0977 409.35 19.1247 415.087 19.1247C420.823 19.1247 425.471 15.0977 425.56 10.1044L431 10.1044V22.0183C425.206 22.0183 420.51 26.1207 420.51 31.1805C420.51 36.2403 425.208 40.3409 431 40.3409V50.13C425.206 50.13 420.51 54.2324 420.51 59.2922C420.51 64.352 425.208 68.4526 431 68.4526V78.2417C425.206 78.2417 420.51 82.3441 420.51 87.4039C420.51 92.4637 425.208 96.5643 431 96.5643V106.353C425.206 106.353 420.51 110.456 420.51 115.516C420.51 120.575 425.208 124.678 431 124.678V134.467C425.206 134.467 420.51 138.569 420.51 143.629C420.51 148.689 425.208 152.79 431 152.79V162.579C425.206 162.579 420.51 166.681 420.51 171.741C420.51 176.801 425.208 180.901 431 180.901V190.69C425.206 190.69 420.51 194.793 420.51 199.851C420.51 204.911 425.208 209.013 431 209.013V218.804C425.206 218.804 420.51 222.904 420.51 227.964C420.51 233.024 425.208 237.125 431 237.125V246.914C425.206 246.914 420.51 251.016 420.51 256.074C420.51 261.134 425.208 265.235 431 265.235V275.025C425.206 275.025 420.51 279.128 420.51 284.186C420.51 289.246 425.208 293.346 431 293.346V308.075H425.578C425.578 303.015 420.881 298.914 415.087 298.914C409.293 298.914 404.597 303.015 404.597 308.075H393.386C393.386 303.015 388.688 298.914 382.896 298.914C377.102 298.914 372.407 303.015 372.407 308.075H361.197C361.197 303.015 356.499 298.914 350.708 298.914C344.914 298.914 340.216 303.015 340.216 308.075H329.007C329.007 303.015 324.311 298.914 318.517 298.914C312.723 298.914 308.025 303.015 308.025 308.075H296.816C296.816 303.015 292.118 298.914 286.327 298.914C280.533 298.914 275.835 303.015 275.835 308.075H264.625C264.625 303.015 259.928 298.914 254.136 298.914C248.344 298.914 243.646 303.015 243.646 308.075H232.435C232.435 303.015 227.739 298.914 221.943 298.914C216.149 298.914 211.452 303.015 211.452 308.075H200.242C200.242 303.015 195.545 298.914 189.751 298.914C183.957 298.914 179.259 303.015 179.259 308.075H168.05C168.05 303.015 163.352 298.914 157.558 298.914C151.764 298.914 147.067 303.015 147.067 308.075H135.857C135.857 303.015 131.159 298.914 125.366 298.914C119.572 298.914 114.874 303.015 114.874 308.075H103.665C103.665 303.015 98.9669 298.914 93.1729 298.914C87.379 298.914 82.6834 303.015 82.6834 308.075H71.474C71.4781 303.017 66.7804 298.914 60.9865 298.914Z" fill="#38434C"/>
<mask id="mask0_5_476" style="mask-type:luminance" maskUnits="userSpaceOnUse" x="38" y="33" width="369" height="252">
<path d="M406.213 33.6691V170.616L406.213 284.262V284.505H405.491H382.973H38.6057L38.6057 244.314L38.6057 178.968V175.603L38.6057 149.39L38.6057 33.6691L406.213 33.6691Z" fill="white"/>
</mask>
<g mask="url(#mask0_5_476)">
<path d="M406.212 33.6689L406.212 170.615V284.262V284.505H405.491H382.973H38.6055L38.6055 244.314L38.6055 178.968V175.603L38.6055 149.39L38.6055 33.6689L406.212 33.6689Z" fill="#38434C"/>
</g>
<mask id="mask1_5_476" style="mask-type:luminance" maskUnits="userSpaceOnUse" x="38" y="33" width="369" height="252">
<path d="M406.213 33.6691V170.616L406.213 284.262V284.505H405.491H382.973H38.6057L38.6057 244.314L38.6057 178.968V175.603L38.6057 149.39L38.6057 33.6691L406.213 33.6691Z" fill="white"/>
</mask>
<g mask="url(#mask1_5_476)">
<path d="M358.169 191.591L358.169 -24.9701C358.169 -33.351 350.39 -40.144 340.793 -40.144C331.198 -40.144 323.418 -33.351 323.418 -24.9701L323.418 173.824" stroke="#38434C" stroke-width="1.30585" stroke-miterlimit="10"/>
</g>
<mask id="mask2_5_476" style="mask-type:luminance" maskUnits="userSpaceOnUse" x="38" y="33" width="369" height="252">
<path d="M406.213 33.6691V170.616L406.213 284.262V284.505H405.491H382.973H38.6057L38.6057 244.314L38.6057 178.968V175.603L38.6057 149.39L38.6057 33.6691L406.213 33.6691Z" fill="white"/>
</mask>
<g mask="url(#mask2_5_476)">
<path d="M308.392 170.231L308.392 -24.97H323.419L323.419 170.231H308.392Z" stroke="#38434C" stroke-width="1.30585" stroke-miterlimit="10"/>
</g>
<mask id="mask3_5_476" style="mask-type:luminance" maskUnits="userSpaceOnUse" x="38" y="33" width="369" height="252">
<path d="M406.213 33.6691V170.616L406.213 284.262V284.505H405.491H382.973H38.6057L38.6057 244.314L38.6057 178.968V175.603L38.6057 149.39L38.6057 33.6691L406.213 33.6691Z" fill="white"/>
</mask>
<g mask="url(#mask3_5_476)">
<path d="M293.363 156.985L293.363 -31.7056H308.39L308.39 156.985H293.363Z" stroke="#38434C" stroke-width="1.30585" stroke-miterlimit="10"/>
</g>
<mask id="mask4_5_476" style="mask-type:luminance" maskUnits="userSpaceOnUse" x="38" y="33" width="369" height="252">
<path d="M406.213 33.6691V170.616L406.213 284.262V284.505H405.491H382.973H38.6057L38.6057 244.314L38.6057 178.968V175.603L38.6057 149.39L38.6057 33.6691L406.213 33.6691Z" fill="white"/>
</mask>
<g mask="url(#mask4_5_476)">
<path d="M278.338 143.513L278.338 -45.177H293.365L293.365 143.513H278.338Z" stroke="#38434C" stroke-width="1.30585" stroke-miterlimit="10"/>
</g>
<mask id="mask5_5_476" style="mask-type:luminance" maskUnits="userSpaceOnUse" x="38" y="33" width="369" height="252">
<path d="M406.213 33.6691V170.616L406.213 284.262V284.505H405.491H382.973H38.6057L38.6057 244.314L38.6057 178.968V175.603L38.6057 149.39L38.6057 33.6691L406.213 33.6691Z" fill="white"/>
</mask>
<g mask="url(#mask5_5_476)">
<path d="M233.16 52.9774L230.172 52.2517C222.794 50.461 214.882 51.8494 208.87 55.9878L182.934 73.8434C175.108 79.2301 169.816 86.9356 168.055 95.4997L164.873 110.979C164.028 115.094 164.242 119.322 165.503 123.356L169.25 135.355C170.883 140.587 174.976 144.971 180.515 147.425L188.742 151.069C192.518 152.742 197.006 152.815 200.776 151.132C201.953 150.608 202.891 150.342 203.01 150.755C203.17 151.317 204.464 152.67 205.793 153.949C207.467 155.56 209.68 156.695 212.13 157.097C214.927 157.557 218.711 158.599 220.151 160.934C222.551 164.826 227.864 161.981 227.864 161.981C227.864 161.981 230.435 164.585 232.835 162.983C235.235 161.381 237.681 165.176 242.63 163.504C247.576 161.832 247.92 141.325 247.92 141.325L253.892 139.227C260.772 136.811 268.409 136.598 275.451 138.622L278.086 139.378V44.4869L261.842 50.9872C252.848 54.5849 242.689 55.2908 233.16 52.9774Z" stroke="#38434C" stroke-width="1.30585" stroke-miterlimit="10"/>
</g>
<mask id="mask6_5_476" style="mask-type:luminance" maskUnits="userSpaceOnUse" x="38" y="33" width="369" height="252">
<path d="M406.213 33.6691V170.616L406.213 284.262V284.505H405.491H382.973H38.6057L38.6057 244.314L38.6057 178.968V175.603L38.6057 149.39L38.6057 33.6691L406.213 33.6691Z" fill="white"/>
</mask>
<g mask="url(#mask6_5_476)">
<path d="M164.07 117.231L278.081 117.231" stroke="#38434C" stroke-width="1.30585" stroke-miterlimit="10"/>
</g>
<mask id="mask7_5_476" style="mask-type:luminance" maskUnits="userSpaceOnUse" x="38" y="33" width="369" height="252">
<path d="M406.213 33.6691V170.616L406.213 284.262V284.505H405.491H382.973H38.6057L38.6057 244.314L38.6057 178.968V175.603L38.6057 149.39L38.6057 33.6691L406.213 33.6691Z" fill="white"/>
</mask>
<g mask="url(#mask7_5_476)">
<path d="M247.457 150.827L271.116 137.803" stroke="#38434C" stroke-width="1.30585" stroke-miterlimit="10" stroke-linecap="round"/>
</g>
<mask id="mask8_5_476" style="mask-type:luminance" maskUnits="userSpaceOnUse" x="38" y="33" width="369" height="252">
<path d="M406.213 33.6691V170.616L406.213 284.262V284.505H405.491H382.973H38.6057L38.6057 244.314L38.6057 178.968V175.603L38.6057 149.39L38.6057 33.6691L406.213 33.6691Z" fill="white"/>
</mask>
<g mask="url(#mask8_5_476)">
<path d="M342.262 243.446V336.128L126.556 217.382L225.388 162.977" stroke="#38434C" stroke-width="1.30585" stroke-miterlimit="10" stroke-linecap="round" stroke-linejoin="round"/>
</g>
<mask id="mask9_5_476" style="mask-type:luminance" maskUnits="userSpaceOnUse" x="38" y="33" width="369" height="252">
<path d="M406.213 33.6691V170.616L406.213 284.262V284.505H405.491H382.973H38.6057L38.6057 244.314L38.6057 178.968V175.603L38.6057 149.39L38.6057 33.6691L406.213 33.6691Z" fill="white"/>
</mask>
<g mask="url(#mask9_5_476)">
<path d="M342.263 258.972L126.557 217.382" stroke="#38434C" stroke-width="1.30585" stroke-miterlimit="10" stroke-linecap="round" stroke-linejoin="round"/>
</g>
<mask id="mask10_5_476" style="mask-type:luminance" maskUnits="userSpaceOnUse" x="38" y="33" width="369" height="252">
<path d="M406.213 33.6691V170.616L406.213 284.262V284.505H405.491H382.973H38.6057L38.6057 244.314L38.6057 178.968V175.603L38.6057 149.39L38.6057 33.6691L406.213 33.6691Z" fill="white"/>
</mask>
<g mask="url(#mask10_5_476)">
<path d="M240.856 54.1775V99.385" stroke="#38434C" stroke-width="1.30585" stroke-miterlimit="10" stroke-linecap="round"/>
</g>
<mask id="mask11_5_476" style="mask-type:luminance" maskUnits="userSpaceOnUse" x="38" y="33" width="369" height="252">
<path d="M406.213 33.6691V170.616L406.213 284.262V284.505H405.491H382.973H38.6057L38.6057 244.314L38.6057 178.968V175.603L38.6057 149.39L38.6057 33.6691L406.213 33.6691Z" fill="white"/>
</mask>
<g mask="url(#mask11_5_476)">
<path d="M249.811 54.0012V90.9015" stroke="#38434C" stroke-width="1.30585" stroke-miterlimit="10" stroke-linecap="round"/>
</g>
<mask id="mask12_5_476" style="mask-type:luminance" maskUnits="userSpaceOnUse" x="38" y="33" width="369" height="252">
<path d="M406.213 33.6691V170.616L406.213 284.262V284.505H405.491H382.973H38.6057L38.6057 244.314L38.6057 178.968V175.603L38.6057 149.39L38.6057 33.6691L406.213 33.6691Z" fill="white"/>
</mask>
<g mask="url(#mask12_5_476)">
<path d="M259.864 51.7196V74.4356" stroke="#38434C" stroke-width="1.30585" stroke-miterlimit="10" stroke-linecap="round"/>
</g>
<mask id="mask13_5_476" style="mask-type:luminance" maskUnits="userSpaceOnUse" x="38" y="33" width="369" height="252">
<path d="M406.213 33.6691V170.616L406.213 284.262V284.505H405.491H382.973H38.6057L38.6057 244.314L38.6057 178.968V175.603L38.6057 149.39L38.6057 33.6691L406.213 33.6691Z" fill="white"/>
</mask>
<g mask="url(#mask13_5_476)">
<path d="M196.324 147.071L202.899 140.146L208.041 147.78" stroke="#38434C" stroke-width="1.30585" stroke-miterlimit="10" stroke-linecap="round"/>
</g>
<mask id="mask14_5_476" style="mask-type:luminance" maskUnits="userSpaceOnUse" x="38" y="33" width="369" height="252">
<path d="M406.213 33.6691V170.616L406.213 284.262V284.505H405.491H382.973H38.6057L38.6057 244.314L38.6057 178.968V175.603L38.6057 149.39L38.6057 33.6691L406.213 33.6691Z" fill="white"/>
</mask>
<g mask="url(#mask14_5_476)">
<path d="M200.583 121.287V117.233H227.063C227.063 117.233 231.434 119.94 229.892 127.125L200.583 121.287Z" stroke="#38434C" stroke-width="1.30585" stroke-miterlimit="10" stroke-linecap="round" stroke-linejoin="round"/>
</g>
<mask id="mask15_5_476" style="mask-type:luminance" maskUnits="userSpaceOnUse" x="38" y="33" width="369" height="252">
<path d="M406.213 33.6691V170.616L406.213 284.262V284.505H405.491H382.973H38.6057L38.6057 244.314L38.6057 178.968V175.603L38.6057 149.39L38.6057 33.6691L406.213 33.6691Z" fill="white"/>
</mask>
<g mask="url(#mask15_5_476)">
<path d="M210.638 122.783C210.582 121.797 210.821 120.362 212.538 119.933C215.239 119.259 220.765 119.471 223.209 122.62" stroke="#38434C" stroke-width="1.30585" stroke-miterlimit="10" stroke-linecap="round" stroke-linejoin="round"/>
</g>
<mask id="mask16_5_476" style="mask-type:luminance" maskUnits="userSpaceOnUse" x="38" y="33" width="369" height="252">
<path d="M406.213 33.6691V170.616L406.213 284.262V284.505H405.491H382.973H38.6057L38.6057 244.314L38.6057 178.968V175.603L38.6057 149.39L38.6057 33.6691L406.213 33.6691Z" fill="white"/>
</mask>
<g mask="url(#mask16_5_476)">
<path d="M227.578 162.122V155.862" stroke="#38434C" stroke-width="1.30585" stroke-miterlimit="10" stroke-linecap="round"/>
</g>
<mask id="mask17_5_476" style="mask-type:luminance" maskUnits="userSpaceOnUse" x="38" y="33" width="369" height="252">
<path d="M406.213 33.6691V170.616L406.213 284.262V284.505H405.491H382.973H38.6057L38.6057 244.314L38.6057 178.968V175.603L38.6057 149.39L38.6057 33.6691L406.213 33.6691Z" fill="white"/>
</mask>
<g mask="url(#mask17_5_476)">
<path d="M288.05 180.625C288.05 181.009 288.05 181.392 288.05 181.776C288.624 182.306 289.107 182.964 289.792 183.342C291.209 184.127 292.713 184.801 294.219 185.453C296.059 186.249 298.015 186.495 299.965 185.836C301.393 185.352 302.834 185.187 304.336 185.237C305.677 185.281 307.026 185.266 308.357 185.388C310.562 185.589 312.76 185.859 314.955 186.143C316.127 186.294 316.843 186.92 316.946 187.977C317.02 188.738 317.041 189.507 317.049 190.272C317.061 191.429 316.596 192.426 315.726 193.306C314.433 194.613 312.882 195.635 311.203 196.521C309.805 197.259 308.369 197.943 306.977 198.689C304.988 199.752 303.149 200.986 301.765 202.653C300.615 204.036 299.099 204.913 297.242 205.428C292.306 206.802 289.836 210.08 290.28 214.588C290.545 217.295 291.884 218.605 294.936 219.147C295.915 219.321 296.899 219.481 297.878 219.666C299.741 220.018 301.497 220.554 302.793 221.876C303.593 222.693 303.532 223.189 302.462 223.69C301.259 224.254 300.017 224.751 298.813 225.315C297.655 225.858 296.504 226.418 295.391 227.029C294.373 227.587 293.871 228.432 293.859 229.502C293.826 232.207 295.346 234.19 297.674 235.794C297.952 235.984 298.324 236.087 298.669 236.182C300.969 236.82 303.27 237.454 305.578 238.071C306.973 238.445 308.223 238.997 309.291 239.904C310.245 240.715 311.249 241.524 312.374 242.133C315.142 243.629 318.131 244.742 321.267 245.509C322.477 245.806 323.76 245.987 325.013 246.003C327.304 246.034 329.601 245.962 331.888 245.82C334.175 245.678 335.87 246.372 337.001 248.128C337.974 249.639 339.307 250.812 341.238 251.381C341.533 251.381 341.825 251.381 342.117 251.381C342.102 251.106 342.193 250.779 342.055 250.564C340.975 248.874 339.856 247.203 338.739 245.531C338.501 245.172 338.225 244.832 337.917 244.419C338.382 244.283 338.717 244.157 339.069 244.087C342.705 243.363 346.333 242.601 349.988 241.944C352.808 241.436 355.683 241.371 358.507 241.854C360.603 242.213 362.668 242.239 364.766 242.077C366.759 241.924 368.754 241.782 370.749 241.651C374.832 241.384 378.896 241.743 382.962 241.98C385.319 242.116 387.699 242.163 389.916 243.027C390.023 243.068 390.155 243.068 390.276 243.083C391.662 243.261 392.699 242.671 392.81 241.455C392.915 240.317 392.798 239.162 392.75 238.014C392.726 237.419 392.518 236.94 391.582 237.188C391.551 236.949 391.51 236.766 391.504 236.581C391.489 236.195 391.541 235.71 390.998 235.638C390.568 235.58 390.042 235.675 389.659 235.86C389.274 236.045 389.011 236.424 388.698 236.721C388.121 237.269 387.565 237.836 386.967 238.364C386.23 239.016 385.311 239.32 384.262 239.332C383.53 239.341 382.796 239.393 382.065 239.365C377.481 239.192 372.898 239.009 368.316 238.813C367.911 238.795 367.505 238.671 367.108 238.574C366.008 238.303 364.93 237.912 363.809 237.772C362.798 237.646 361.701 237.648 360.716 237.856C359.834 238.043 359.007 238.102 358.129 238.016C355.445 237.748 352.946 236.978 350.623 235.805C347.869 234.414 344.951 234.104 341.862 234.555C341.436 234.617 340.918 234.542 340.529 234.377C339.681 234.016 339.677 233.168 340.504 232.784C341.039 232.536 341.621 232.362 342.199 232.196C344.747 231.465 347.31 230.776 349.85 230.025C353.55 228.931 357.252 227.824 361.166 227.501C364.585 227.219 367.732 226.283 370.716 224.848C371.592 224.428 372.452 223.964 373.373 223.638C375.537 222.871 377.721 222.145 379.922 221.464C381.023 221.125 382.207 220.995 383.297 220.636C384.023 220.395 384.634 219.898 385.321 219.555C385.554 219.438 385.889 219.352 386.136 219.402C387.479 219.67 388.215 219.345 388.536 218.174C388.698 217.581 388.682 216.95 388.727 216.336C388.775 215.686 388.797 215.034 388.836 214.253C389.365 214.531 389.766 214.721 390.142 214.944C390.656 215.248 391.119 215.214 391.625 214.905C392.543 214.344 393.042 213.575 393.248 212.636C393.353 212.16 393.445 211.681 393.544 211.203C393.544 210.306 393.544 209.412 393.544 208.516C393.18 208.456 392.814 208.399 392.376 208.327C392.359 208.174 392.343 207.901 392.298 207.63C392.121 206.597 391.383 206.267 390.469 206.935C389.682 207.51 388.844 208.191 388.46 208.984C387.96 210.015 387.08 210.355 386.047 210.561C385.173 210.734 384.26 210.802 383.361 210.817C379.653 210.879 375.942 210.919 372.232 210.93C371.699 210.932 371.107 210.818 370.642 210.597C369.108 209.87 367.475 209.572 365.755 209.396C364.293 209.247 362.795 209.006 361.428 208.543C356.633 206.921 351.886 205.191 347.127 203.49C346.635 203.314 346.154 203.086 345.72 202.818C344.98 202.36 344.976 201.902 345.708 201.451C346.183 201.159 346.691 200.871 347.232 200.702C349.751 199.912 352.263 199.088 354.828 198.423C357.187 197.812 359.579 197.331 361.829 196.41C362.843 195.995 363.995 195.797 365.107 195.614C366.843 195.326 368.569 195.075 369.93 193.96C370.13 193.796 370.436 193.714 370.712 193.647C375.132 192.589 379.56 191.555 383.972 190.473C384.947 190.234 385.868 190.073 386.905 190.195C388.688 190.405 389.838 189.665 390.033 188.124C390.218 186.671 390.227 185.193 390.192 183.727C390.163 182.428 389.99 182.322 388.612 181.974C388.544 181.232 388.289 181.022 387.431 181.007C386.547 180.991 386.162 181.223 386.035 182.006C385.899 182.847 385.93 183.713 385.768 184.548C385.595 185.433 385.323 186.43 384.171 186.658C382.37 187.016 380.848 187.849 379.231 188.537C378.118 189.011 376.971 189.442 375.798 189.785C374.389 190.197 372.923 190.457 371.51 190.852C369.9 191.303 368.279 191.414 366.6 191.316C365.517 191.253 364.357 191.199 363.338 191.461C361.302 191.984 359.295 191.892 357.248 191.7C353.733 191.37 350.216 191.064 346.697 190.771C346.306 190.739 346.16 190.615 346.043 190.313C345.49 188.903 344.852 187.517 344.35 186.094C342.911 182.013 339.766 179.298 335.467 177.478C335.204 177.367 334.943 177.25 334.673 177.153C327.682 174.647 320.449 173.083 312.863 172.986C310.695 172.959 308.737 172.54 306.913 171.506C306.063 171.024 305.119 170.59 304.149 170.378C303.318 170.196 302.939 169.825 302.612 169.214C302.016 168.098 301.384 166.994 300.677 165.931C300.43 165.557 300.309 165.302 300.543 164.9C301.177 163.816 301.228 162.69 300.697 161.562C300.302 160.723 299.714 160.456 298.719 160.662C298.445 160.72 298.196 160.867 297.888 160.993C297.694 160.804 297.491 160.605 297.287 160.406C296.75 160.406 296.214 160.406 295.675 160.406C294.576 161.137 293.538 161.95 292.365 162.572C291.37 163.098 290.827 163.685 290.815 164.74C290.79 166.825 290.669 168.909 290.549 170.992C290.498 171.876 290.276 172.761 289.539 173.403C288.69 174.141 288.488 174.992 288.606 175.967C288.659 176.411 288.608 176.882 288.756 177.298C289.186 178.532 288.715 179.589 288.05 180.625ZM347.162 214.147C347.976 214.147 348.63 214.177 349.278 214.141C352.123 213.989 354.969 213.848 357.81 213.642C359.661 213.507 361.51 213.27 363.343 213.663C365.702 214.168 368.044 214.087 370.371 213.593C374.159 212.787 377.956 212.773 381.765 213.407C382.874 213.592 383.966 213.852 385.105 214.087C385 214.33 384.97 214.457 384.893 214.562C384.723 214.795 384.548 215.027 384.346 215.239C382.841 216.832 381.037 218.105 378.781 218.747C375.979 219.542 373.141 220.243 370.294 220.904C366.545 221.775 362.734 222.12 358.842 221.858C356.93 221.728 354.996 221.827 353.071 221.847C351.389 221.865 349.708 221.956 348.026 221.944C346.142 221.929 346.094 221.841 346.899 220.361C347.974 218.387 348.33 216.39 347.162 214.147Z" fill="#38434C"/>
</g>
<mask id="mask18_5_476" style="mask-type:luminance" maskUnits="userSpaceOnUse" x="38" y="33" width="369" height="252">
<path d="M406.213 33.6691V170.616L406.213 284.262V284.505H405.491H382.973H38.6057L38.6057 244.314L38.6057 178.968V175.603L38.6057 149.39L38.6057 33.6691L406.213 33.6691Z" fill="white"/>
</mask>
<g mask="url(#mask18_5_476)">
<path d="M173.676 214.239V226.468" stroke="#38434C" stroke-width="1.30585" stroke-miterlimit="10" stroke-linecap="round" stroke-linejoin="round"/>
</g>
<mask id="mask19_5_476" style="mask-type:luminance" maskUnits="userSpaceOnUse" x="38" y="33" width="369" height="252">
<path d="M406.213 33.6691V170.616L406.213 284.262V284.505H405.491H382.973H38.6057L38.6057 244.314L38.6057 178.968V175.603L38.6057 149.39L38.6057 33.6691L406.213 33.6691Z" fill="white"/>
</mask>
<g mask="url(#mask19_5_476)">
<path d="M198.014 205.857V231.161" stroke="#38434C" stroke-width="1.30585" stroke-miterlimit="10" stroke-linecap="round" stroke-linejoin="round"/>
</g>
<mask id="mask20_5_476" style="mask-type:luminance" maskUnits="userSpaceOnUse" x="38" y="33" width="369" height="252">
<path d="M406.213 33.6691V170.616L406.213 284.262V284.505H405.491H382.973H38.6057L38.6057 244.314L38.6057 178.968V175.603L38.6057 149.39L38.6057 33.6691L406.213 33.6691Z" fill="white"/>
</mask>
<g mask="url(#mask20_5_476)">
<path d="M236.405 229.804V238.562" stroke="#38434C" stroke-width="1.30585" stroke-miterlimit="10" stroke-linecap="round" stroke-linejoin="round"/>
</g>
<mask id="mask21_5_476" style="mask-type:luminance" maskUnits="userSpaceOnUse" x="38" y="33" width="369" height="252">
<path d="M406.213 33.6691V170.616L406.213 284.262V284.505H405.491H382.973H38.6057L38.6057 244.314L38.6057 178.968V175.603L38.6057 149.39L38.6057 33.6691L406.213 33.6691Z" fill="white"/>
</mask>
<g mask="url(#mask21_5_476)">
<path d="M276.833 246.355V225.015" stroke="#38434C" stroke-width="1.30585" stroke-miterlimit="10" stroke-linecap="round" stroke-linejoin="round"/>
</g>
<mask id="mask22_5_476" style="mask-type:luminance" maskUnits="userSpaceOnUse" x="38" y="33" width="369" height="252">
<path d="M406.213 33.6691V170.616L406.213 284.262V284.505H405.491H382.973H38.6057L38.6057 244.314L38.6057 178.968V175.603L38.6057 149.39L38.6057 33.6691L406.213 33.6691Z" fill="white"/>
</mask>
<g mask="url(#mask22_5_476)">
<path d="M302.087 251.225V243.575" stroke="#38434C" stroke-width="1.30585" stroke-miterlimit="10" stroke-linecap="round" stroke-linejoin="round"/>
</g>
<mask id="mask23_5_476" style="mask-type:luminance" maskUnits="userSpaceOnUse" x="38" y="33" width="369" height="252">
<path d="M406.213 33.6691V170.616L406.213 284.262V284.505H405.491H382.973H38.6057L38.6057 244.314L38.6057 178.968V175.603L38.6057 149.39L38.6057 33.6691L406.213 33.6691Z" fill="white"/>
</mask>
<g mask="url(#mask23_5_476)">
<path d="M251.49 189.39V200.167" stroke="#38434C" stroke-width="1.30585" stroke-miterlimit="10" stroke-linecap="round" stroke-linejoin="round"/>
</g>
<mask id="mask24_5_476" style="mask-type:luminance" maskUnits="userSpaceOnUse" x="38" y="33" width="369" height="252">
<path d="M406.213 33.6691V170.616L406.213 284.262V284.505H405.491H382.973H38.6057L38.6057 244.314L38.6057 178.968V175.603L38.6057 149.39L38.6057 33.6691L406.213 33.6691Z" fill="white"/>
</mask>
<g mask="url(#mask24_5_476)">
<path d="M220.832 185.199V192.084" stroke="#38434C" stroke-width="1.30585" stroke-miterlimit="10" stroke-linecap="round" stroke-linejoin="round"/>
</g>
<mask id="mask25_5_476" style="mask-type:luminance" maskUnits="userSpaceOnUse" x="38" y="33" width="369" height="252">
<path d="M406.213 33.6691V170.616L406.213 284.262V284.505H405.491H382.973H38.6057L38.6057 244.314L38.6057 178.968V175.603L38.6057 149.39L38.6057 33.6691L406.213 33.6691Z" fill="white"/>
</mask>
<g mask="url(#mask25_5_476)">
<path d="M275.141 156.461V172.927" stroke="#38434C" stroke-width="1.30585" stroke-miterlimit="10" stroke-linecap="round" stroke-linejoin="round"/>
</g>
<mask id="mask26_5_476" style="mask-type:luminance" maskUnits="userSpaceOnUse" x="38" y="33" width="369" height="252">
<path d="M406.213 33.6691V170.616L406.213 284.262V284.505H405.491H382.973H38.6057L38.6057 244.314L38.6057 178.968V175.603L38.6057 149.39L38.6057 33.6691L406.213 33.6691Z" fill="white"/>
</mask>
<g mask="url(#mask26_5_476)">
<path d="M298.453 194.779V200.168" stroke="#38434C" stroke-width="1.30585" stroke-miterlimit="10" stroke-linecap="round" stroke-linejoin="round"/>
</g>
<mask id="mask27_5_476" style="mask-type:luminance" maskUnits="userSpaceOnUse" x="38" y="33" width="369" height="252">
<path d="M406.213 33.6691V170.616L406.213 284.262V284.505H405.491H382.973H38.6057L38.6057 244.314L38.6057 178.968V175.603L38.6057 149.39L38.6057 33.6691L406.213 33.6691Z" fill="white"/>
</mask>
<g mask="url(#mask27_5_476)">
<path d="M222.412 217.23V222.919" stroke="#38434C" stroke-width="1.30585" stroke-miterlimit="10" stroke-linecap="round" stroke-linejoin="round"/>
</g>
<mask id="mask28_5_476" style="mask-type:luminance" maskUnits="userSpaceOnUse" x="38" y="33" width="369" height="252">
<path d="M406.213 33.6691V170.616L406.213 284.262V284.505H405.491H382.973H38.6057L38.6057 244.314L38.6057 178.968V175.603L38.6057 149.39L38.6057 33.6691L406.213 33.6691Z" fill="white"/>
</mask>
<g mask="url(#mask28_5_476)">
<path d="M390.576 174.948V167.763" stroke="#38434C" stroke-width="1.30585" stroke-miterlimit="10" stroke-linecap="round"/>
</g>
<mask id="mask29_5_476" style="mask-type:luminance" maskUnits="userSpaceOnUse" x="38" y="33" width="369" height="252">
<path d="M406.213 33.6691V170.616L406.213 284.262V284.505H405.491H382.973H38.6057L38.6057 244.314L38.6057 178.968V175.603L38.6057 149.39L38.6057 33.6691L406.213 33.6691Z" fill="white"/>
</mask>
<g mask="url(#mask29_5_476)">
<path d="M386.976 132.738V141.045" stroke="#38434C" stroke-width="1.30585" stroke-miterlimit="10" stroke-linecap="round"/>
</g>
<mask id="mask30_5_476" style="mask-type:luminance" maskUnits="userSpaceOnUse" x="38" y="33" width="369" height="252">
<path d="M406.213 33.6691V170.616L406.213 284.262V284.505H405.491H382.973H38.6057L38.6057 244.314L38.6057 178.968V175.603L38.6057 149.39L38.6057 33.6691L406.213 33.6691Z" fill="white"/>
</mask>
<g mask="url(#mask30_5_476)">
<path d="M386.977 248.59V256.448" stroke="#38434C" stroke-width="1.30585" stroke-miterlimit="10" stroke-linecap="round"/>
</g>
<mask id="mask31_5_476" style="mask-type:luminance" maskUnits="userSpaceOnUse" x="38" y="33" width="369" height="252">
<path d="M406.213 33.6691V170.616L406.213 284.262V284.505H405.491H382.973H38.6057L38.6057 244.314L38.6057 178.968V175.603L38.6057 149.39L38.6057 33.6691L406.213 33.6691Z" fill="white"/>
</mask>
<g mask="url(#mask31_5_476)">
<path d="M386.977 79.302V87.6092" stroke="#38434C" stroke-width="1.30585" stroke-miterlimit="10" stroke-linecap="round"/>
</g>
<mask id="mask32_5_476" style="mask-type:luminance" maskUnits="userSpaceOnUse" x="38" y="33" width="369" height="252">
<path d="M406.213 33.6691V170.616L406.213 284.262V284.505H405.491H382.973H38.6057L38.6057 244.314L38.6057 178.968V175.603L38.6057 149.39L38.6057 33.6691L406.213 33.6691Z" fill="white"/>
</mask>
<g mask="url(#mask32_5_476)">
<path d="M376.178 159.087V165.968" stroke="#38434C" stroke-width="1.30585" stroke-miterlimit="10" stroke-linecap="round"/>
</g>
<mask id="mask33_5_476" style="mask-type:luminance" maskUnits="userSpaceOnUse" x="38" y="33" width="369" height="252">
<path d="M406.213 33.6691V170.616L406.213 284.262V284.505H405.491H382.973H38.6057L38.6057 244.314L38.6057 178.968V175.603L38.6057 149.39L38.6057 33.6691L406.213 33.6691Z" fill="white"/>
</mask>
<g mask="url(#mask33_5_476)">
<path d="M376.18 228.383V234.183" stroke="#38434C" stroke-width="1.30585" stroke-miterlimit="10" stroke-linecap="round"/>
</g>
<mask id="mask34_5_476" style="mask-type:luminance" maskUnits="userSpaceOnUse" x="38" y="33" width="369" height="252">
<path d="M406.213 33.6691V170.616L406.213 284.262V284.505H405.491H382.973H38.6057L38.6057 244.314L38.6057 178.968V175.603L38.6057 149.39L38.6057 33.6691L406.213 33.6691Z" fill="white"/>
</mask>
<g mask="url(#mask34_5_476)">
<path d="M376.181 264.531V270.817" stroke="#38434C" stroke-width="1.30585" stroke-miterlimit="10" stroke-linecap="round"/>
</g>
<mask id="mask35_5_476" style="mask-type:luminance" maskUnits="userSpaceOnUse" x="38" y="33" width="369" height="252">
<path d="M406.213 33.6691V170.616L406.213 284.262V284.505H405.491H382.973H38.6057L38.6057 244.314L38.6057 178.968V175.603L38.6057 149.39L38.6057 33.6691L406.213 33.6691Z" fill="white"/>
</mask>
<g mask="url(#mask35_5_476)">
<path d="M365.64 100.182V109.612" stroke="#38434C" stroke-width="1.30585" stroke-miterlimit="10" stroke-linecap="round"/>
</g>
<mask id="mask36_5_476" style="mask-type:luminance" maskUnits="userSpaceOnUse" x="38" y="33" width="369" height="252">
<path d="M406.213 33.6691V170.616L406.213 284.262V284.505H405.491H382.973H38.6057L38.6057 244.314L38.6057 178.968V175.603L38.6057 149.39L38.6057 33.6691L406.213 33.6691Z" fill="white"/>
</mask>
<g mask="url(#mask36_5_476)">
<path d="M374.379 51.6866V60.2184" stroke="#38434C" stroke-width="1.30585" stroke-miterlimit="10" stroke-linecap="round"/>
</g>
<mask id="mask37_5_476" style="mask-type:luminance" maskUnits="userSpaceOnUse" x="38" y="33" width="369" height="252">
<path d="M406.213 33.6691V170.616L406.213 284.262V284.505H405.491H382.973H38.6057L38.6057 244.314L38.6057 178.968V175.603L38.6057 149.39L38.6057 33.6691L406.213 33.6691Z" fill="white"/>
</mask>
<g mask="url(#mask37_5_476)">
<path d="M350.986 248.591V254.204" stroke="#38434C" stroke-width="1.30585" stroke-miterlimit="10" stroke-linecap="round"/>
</g>
<mask id="mask38_5_476" style="mask-type:luminance" maskUnits="userSpaceOnUse" x="38" y="33" width="369" height="252">
<path d="M406.213 33.6691V170.616L406.213 284.262V284.505H405.491H382.973H38.6057L38.6057 244.314L38.6057 178.968V175.603L38.6057 149.39L38.6057 33.6691L406.213 33.6691Z" fill="white"/>
</mask>
<g mask="url(#mask38_5_476)">
<path d="M86.2394 246.935C88.29 246.935 90.2522 246.622 92.0703 246.047C93.7446 245.518 94.8305 244.093 94.8305 242.538L94.8305 197.535C94.8305 192.858 86.7556 192.373 86.2744 197.03C86.2517 197.255 86.2394 197.483 86.2394 197.713C86.2394 199.304 86.8173 200.777 87.7902 201.993C82.2904 203.178 78.2036 207.498 78.2036 212.668C78.2036 214.625 78.7918 216.463 79.8223 218.054C73.5285 220.269 69.0818 225.656 69.0818 231.942C69.0797 240.224 76.7659 246.935 86.2394 246.935Z" stroke="#38434C" stroke-width="1.30585" stroke-miterlimit="10"/>
</g>
<mask id="mask39_5_476" style="mask-type:luminance" maskUnits="userSpaceOnUse" x="38" y="33" width="369" height="252">
<path d="M406.213 33.6691V170.616L406.213 284.262V284.505H405.491H382.973H38.6057L38.6057 244.314L38.6057 178.968V175.603L38.6057 149.39L38.6057 33.6691L406.213 33.6691Z" fill="white"/>
</mask>
<g mask="url(#mask39_5_476)">
<path d="M138.655 176.472C140.49 176.472 142.244 176.192 143.871 175.678C145.368 175.204 146.339 173.929 146.339 172.538V132.288C146.339 128.105 139.118 127.67 138.688 131.837C138.667 132.039 138.657 132.241 138.657 132.448C138.657 133.871 139.173 135.189 140.043 136.276C135.123 137.337 131.469 141.201 131.469 145.824C131.469 147.575 131.995 149.219 132.917 150.641C127.287 152.623 123.309 157.44 123.309 163.062C123.307 170.469 130.181 176.472 138.655 176.472Z" stroke="#38434C" stroke-width="1.30585" stroke-miterlimit="10"/>
</g>
<mask id="mask40_5_476" style="mask-type:luminance" maskUnits="userSpaceOnUse" x="38" y="33" width="369" height="252">
<path d="M406.213 33.6691V170.616L406.213 284.262V284.505H405.491H382.973H38.6057L38.6057 244.314L38.6057 178.968V175.603L38.6057 149.39L38.6057 33.6691L406.213 33.6691Z" fill="white"/>
</mask>
<g mask="url(#mask40_5_476)">
<path d="M341.642 76.8319V25.1923L383.121 25.1923V76.8319H341.642Z" fill="#38434C" stroke="#38434C" stroke-width="1.30585" stroke-miterlimit="10" stroke-linecap="round" stroke-linejoin="round"/>
</g>
<mask id="mask41_5_476" style="mask-type:luminance" maskUnits="userSpaceOnUse" x="38" y="33" width="369" height="252">
<path d="M406.213 33.6691V170.616L406.213 284.262V284.505H405.491H382.973H38.6057L38.6057 244.314L38.6057 178.968V175.603L38.6057 149.39L38.6057 33.6691L406.213 33.6691Z" fill="white"/>
</mask>
<g mask="url(#mask41_5_476)">
<path d="M348.33 172.587V143.139H371.983V172.587H348.33Z" fill="#38434C" stroke="#38434C" stroke-width="1.30585" stroke-miterlimit="10" stroke-linecap="round" stroke-linejoin="round"/>
</g>
<mask id="mask42_5_476" style="mask-type:luminance" maskUnits="userSpaceOnUse" x="38" y="33" width="369" height="252">
<path d="M406.213 33.6691V170.616L406.213 284.262V284.505H405.491H382.973H38.6057L38.6057 244.314L38.6057 178.968V175.603L38.6057 149.39L38.6057 33.6691L406.213 33.6691Z" fill="white"/>
</mask>
<g mask="url(#mask42_5_476)">
<path d="M331.361 292.072V253.287H351.071V292.072H331.361Z" fill="#38434C" stroke="#38434C" stroke-width="1.30585" stroke-miterlimit="10" stroke-linecap="round" stroke-linejoin="round"/>
</g>
<path d="M78.4849 82.5065C77.9325 82.326 77.4375 82.088 76.9999 81.7927C76.5569 81.5028 76.1795 81.1555 75.8677 80.7507C75.556 80.3515 75.318 79.8975 75.1539 79.3888C74.9899 78.8802 74.9078 78.3223 74.9078 77.7151C74.9078 76.7197 75.1649 75.8145 75.679 74.9995C76.1932 74.1845 76.9507 73.5364 77.9516 73.0551C78.9526 72.5737 80.1805 72.3331 81.6354 72.3331C83.0903 72.3331 84.3182 72.5765 85.3191 73.0633C86.3201 73.5501 87.0776 74.2091 87.5917 75.0405C88.1059 75.8719 88.3629 76.8072 88.3629 77.8464C88.3629 78.809 88.1578 79.6568 87.7476 80.3898C87.3319 81.1281 86.7467 81.7024 85.9919 82.1127C85.2316 82.5283 84.3373 82.7362 83.3091 82.7362L83.4403 83.3597V78.3058H81.6354V84.7052H83.4403C84.8241 84.7052 86.0274 84.4099 87.0502 83.8192C88.073 83.2339 88.8661 82.4244 89.4295 81.3907C89.9874 80.3624 90.2663 79.181 90.2663 77.8464C90.2663 76.3587 89.9163 75.0515 89.2162 73.9247C88.5161 72.8035 87.5206 71.9283 86.2298 71.2993C84.939 70.6758 83.4075 70.364 81.6354 70.364C80.3063 70.364 79.1112 70.5418 78.0501 70.8973C76.9835 71.2583 76.0756 71.767 75.3262 72.4233C74.5769 73.0797 74.0026 73.8564 73.6033 74.7534C73.204 75.6504 73.0044 76.6376 73.0044 77.7151C73.0044 78.6012 73.1384 79.4271 73.4064 80.1928C73.669 80.9641 74.0436 81.6505 74.5304 82.2521C75.0117 82.8593 75.5888 83.3652 76.2615 83.7699C76.9288 84.1747 77.6699 84.4536 78.4849 84.6068V82.5065ZM73.2341 90.2247H90.0366V88.19H73.2341V90.2247ZM90.0366 93.7464H88.5598L75.0391 102.804V93.648H73.2341V105.232H74.7109L88.2317 96.1749V105.331H90.0366V93.7464ZM90.0366 109.433V107.3L73.2341 113.47V115.57L90.0366 121.74V119.606L75.8923 114.585V114.454L90.0366 109.433ZM83.4731 110.221V118.819H85.2781V110.221H83.4731Z" fill="#38434C"/>
<path d="M383.12 76.8328V98.8357" stroke="#38434C" stroke-width="1.30585" stroke-miterlimit="10" stroke-linecap="round" stroke-linejoin="round"/>
<path d="M371.98 172.589V176.97" stroke="#38434C" stroke-width="1.30585" stroke-miterlimit="10" stroke-linecap="round" stroke-linejoin="round"/>
<path d="M371.978 183.705V188.195" stroke="#38434C" stroke-width="1.30585" stroke-miterlimit="10" stroke-linecap="round" stroke-linejoin="round"/>
<path d="M350.212 66.3542V76.833" stroke="#38434C" stroke-width="1.30585" stroke-miterlimit="10" stroke-linecap="round" stroke-linejoin="round"/>
<path d="M354.322 156.463V161.852" stroke="#38434C" stroke-width="1.30585" stroke-miterlimit="10" stroke-linecap="round" stroke-linejoin="round"/>
<path d="M338.556 259.143V276.804" stroke="#38434C" stroke-width="1.30585" stroke-miterlimit="10" stroke-linecap="round" stroke-linejoin="round"/>
<path d="M111.008 200.881C111.008 200.433 111.234 200.008 111.629 199.72L115.5 196.889V188.307L106.888 190.648C105.666 190.98 104.428 190.183 104.428 189.065C104.428 188.532 104.722 188.031 105.22 187.72L115.5 181.284L115.5 176.002C115.5 174.897 116.534 173.996 117.797 173.996C119.06 173.996 120.094 174.899 120.094 176.002V181.284L130.374 187.72C130.872 188.031 131.166 188.532 131.166 189.065C131.166 190.183 129.926 190.978 128.706 190.648L120.094 188.307V200.385C120.094 201.489 119.06 202.391 117.797 202.391H112.739C111.783 202.395 111.008 201.716 111.008 200.881Z" stroke="#38434C" stroke-width="1.30585" stroke-miterlimit="10"/>
<path d="M194.77 98.7427V102.394" stroke="#38434C" stroke-width="1.30585" stroke-miterlimit="10" stroke-linecap="round" stroke-linejoin="round"/>
<path d="M215.507 87.3209V96.6861" stroke="#38434C" stroke-width="1.30585" stroke-miterlimit="10" stroke-linecap="round" stroke-linejoin="round"/>
<path d="M50.3354 289.568C44.5415 289.568 39.8438 293.668 39.8438 298.728H28.6344C28.6344 293.668 23.9388 289.568 18.1428 289.568C12.3489 289.568 7.65325 293.668 7.65325 298.728H0L0 284.105C5.79393 284.105 10.4895 280.003 10.4895 274.943C10.4895 269.883 5.79393 265.783 0 265.783L0 255.992C5.79393 255.992 10.4895 251.891 10.4895 246.832C10.4895 241.772 5.79393 237.669 0 237.669L0 227.88C5.79393 227.88 10.4895 223.78 10.4895 218.72C10.4895 213.66 5.79393 209.559 0 209.559L0 199.77C5.79393 199.77 10.4895 195.668 10.4895 190.61C10.4895 185.55 5.79393 181.45 0 181.45L0 171.659C5.79393 171.659 10.4895 167.558 10.4895 162.498C10.4895 157.438 5.79393 153.338 0 153.338L0 143.549C5.79393 143.549 10.4895 139.448 10.4895 134.388C10.4895 129.329 5.79393 125.226 0 125.226L0 115.437C5.79393 115.437 10.4895 111.335 10.4895 106.277C10.4895 101.217 5.79393 97.1162 0 97.1162L0 87.3253C5.79393 87.3253 10.4895 83.2229 10.4895 78.1649C10.4895 73.1051 5.79393 69.0027 0 69.0027L0 59.2136C5.79393 59.2136 10.4895 55.1112 10.4895 50.0532C10.4895 44.9934 5.79393 40.891 0 40.891L0 31.1019C5.79393 31.1019 10.4895 26.9995 10.4895 21.9397C10.4895 16.8799 5.79393 12.7775 0 12.7775L0 0.757568L7.6697 0.757568C7.75815 5.75089 12.4065 9.77789 18.1428 9.77789C23.8812 9.77789 28.5274 5.75089 28.6179 0.757568L39.8602 0.757568C39.9487 5.75089 44.597 9.77789 50.3333 9.77789C56.0717 9.77789 60.718 5.75089 60.8085 0.757568L72.0528 0.757568C72.1413 5.75089 76.7896 9.77789 82.5259 9.77789C88.2643 9.77789 92.9106 5.75089 93.0011 0.757568L104.243 0.757568C104.332 5.75089 108.98 9.77789 114.716 9.77789C120.455 9.77789 125.101 5.75089 125.192 0.757568L136.434 0.757568C136.522 5.75089 141.171 9.77789 146.907 9.77789C152.645 9.77789 157.292 5.75089 157.382 0.757568L168.624 0.757568C168.713 5.75089 173.361 9.77789 179.1 9.77789C184.838 9.77789 189.484 5.75089 189.573 0.757568L200.815 0.757568C200.903 5.75089 205.552 9.77789 211.288 9.77789C217.026 9.77789 221.673 5.75089 221.763 0.757568L233.006 0.757568C233.094 5.75089 237.742 9.77789 243.481 9.77789C249.219 9.77789 253.865 5.75089 253.954 0.757568L265.196 0.757568C265.285 5.75089 269.933 9.77789 275.671 9.77789C281.41 9.77789 286.056 5.75089 286.146 0.757568L297.389 0.757568C297.477 5.75089 302.125 9.77789 307.862 9.77789C313.598 9.77789 318.246 5.75089 318.335 0.757568L329.577 0.757568C329.666 5.75089 334.314 9.77789 340.052 9.77789C345.791 9.77789 350.437 5.75089 350.527 0.757568L361.77 0.757568C361.858 5.75089 366.507 9.77789 372.245 9.77789C377.983 9.77789 382.63 5.75089 382.72 0.757568L393.962 0.757568C394.051 5.75089 398.699 9.77789 404.436 9.77789C410.172 9.77789 414.82 5.75089 414.909 0.757568L420.349 0.757568V12.6715C414.555 12.6715 409.859 16.7739 409.859 21.8337C409.859 26.8935 414.557 30.9941 420.349 30.9941V40.7832C414.555 40.7832 409.859 44.8856 409.859 49.9454C409.859 55.0052 414.557 59.1058 420.349 59.1058V68.8949C414.555 68.8949 409.859 72.9973 409.859 78.0571C409.859 83.1169 414.557 87.2175 420.349 87.2175V97.0066C414.555 97.0066 409.859 101.109 409.859 106.169C409.859 111.229 414.557 115.331 420.349 115.331V125.12C414.555 125.12 409.859 129.223 409.859 134.282C409.859 139.342 414.557 143.443 420.349 143.443L420.349 153.232C414.555 153.232 409.859 157.334 409.859 162.394C409.859 167.454 414.557 171.554 420.349 171.554V181.344C414.555 181.344 409.859 185.446 409.859 190.504C409.859 195.564 414.557 199.666 420.349 199.666V209.457C414.555 209.457 409.859 213.558 409.859 218.617C409.859 223.677 414.557 227.778 420.349 227.778V237.567C414.555 237.567 409.859 241.669 409.859 246.727C409.859 251.787 414.557 255.888 420.349 255.888V265.679C414.555 265.679 409.859 269.781 409.859 274.839C409.859 279.899 414.557 283.999 420.349 283.999V298.728H414.927C414.927 293.668 410.229 289.568 404.436 289.568C398.642 289.568 393.946 293.668 393.946 298.728H382.734C382.734 293.668 378.037 289.568 372.245 289.568C366.451 289.568 361.755 293.668 361.755 298.728H350.546C350.546 293.668 345.848 289.568 340.056 289.568C334.262 289.568 329.565 293.668 329.565 298.728H318.355C318.355 293.668 313.66 289.568 307.866 289.568C302.072 289.568 297.374 293.668 297.374 298.728H286.165C286.165 293.668 281.467 289.568 275.675 289.568C269.881 289.568 265.184 293.668 265.184 298.728H253.974C253.974 293.668 249.277 289.568 243.485 289.568C237.693 289.568 232.995 293.668 232.995 298.728H221.784C221.784 293.668 217.088 289.568 211.292 289.568C205.498 289.568 200.801 293.668 200.801 298.728H189.591C189.591 293.668 184.894 289.568 179.1 289.568C173.306 289.568 168.608 293.668 168.608 298.728H157.399C157.399 293.668 152.701 289.568 146.907 289.568C141.113 289.568 136.415 293.668 136.415 298.728H125.206C125.206 293.668 120.508 289.568 114.714 289.568C108.92 289.568 104.223 293.668 104.223 298.728H93.0134C93.0134 293.668 88.3157 289.568 82.5218 289.568C76.7279 289.568 72.0323 293.668 72.0323 298.728H60.8229C60.827 293.67 56.1293 289.568 50.3354 289.568Z" fill="#F5FAFC"/>
<rect width="202.658" height="362.418" transform="matrix(0 1 1 0 30.4404 72.274)" fill="#EDF2F4"/>
<path d="M109.578 275.572H30.4307V267.818L109.578 275.572ZM392.423 275.572H304.012L392.423 266.911V275.572ZM153.641 275.429L30.4307 263.36V252.964L153.641 275.429ZM392.423 262.453L259.948 275.429L392.423 251.275V262.453ZM149.066 270.084L30.4307 248.454V239.107L149.066 270.084ZM392.423 246.764L264.522 270.084L392.423 236.688V246.764ZM155.409 267.155L30.4307 234.521V223.222L155.409 267.155ZM392.423 232.102L258.179 267.155L392.423 219.965V232.102ZM161.215 264.491L30.4307 218.517V204.768L161.215 264.491ZM392.423 215.261L252.373 264.491L392.423 200.538V215.261ZM166.133 261.858L30.4307 199.889V183.185L166.133 261.858ZM392.423 195.659L247.457 261.857L392.423 177.815V195.659ZM167.253 257.376L30.4307 178.055V159.743L167.253 257.376ZM392.423 172.685L246.335 257.376L392.423 153.133V172.685ZM170.283 254.085L30.4307 154.292V132.59L170.283 254.085ZM392.423 147.681L243.306 254.085L392.423 124.542V147.681ZM171.469 249.238L30.4307 126.711V102.176L171.469 249.238ZM392.423 118.664L242.12 249.238L392.423 92.5171V118.664ZM185.86 246.601L72.7764 72.6919H97.4092L185.86 246.601ZM227.729 246.601L316.181 72.6919H340.813L227.729 246.601ZM174.872 246.374L30.4307 95.7651V72.6919H36.4434L174.872 246.374ZM392.423 86.106L238.717 246.374L377.146 72.6919H392.423V86.106ZM179.853 245.501L42.1182 72.6919H67.4834L179.853 245.501ZM233.736 245.501L346.106 72.6919H371.472L233.736 245.501ZM189.034 243.052L102.387 72.6919H123.215L189.034 243.052ZM224.555 243.052L290.375 72.6919H311.203L224.555 243.052ZM192.555 239.853L127.972 72.6919H146.165L192.555 239.853ZM221.034 239.853L267.425 72.6919H285.618L221.034 239.853ZM196.861 238.775L150.771 72.6919H167.926L196.861 238.775ZM216.728 238.775L245.664 72.6919H262.819L216.728 238.775ZM200.304 232.687L172.43 72.6919H186.711L200.304 232.687ZM213.285 232.687L226.879 72.6919H241.16L213.285 232.687ZM204.576 230.542L191.164 72.6919H204.576V230.542ZM209.014 230.542V72.6919H222.426L209.014 230.542Z" fill="#BBD2DB"/>
<path d="M30.7648 37.2694H45.4095V41.8491H44.6639L43.8119 38.8936C43.7586 38.6628 43.6965 38.5031 43.6255 38.4143C43.5723 38.3078 43.4569 38.2457 43.2794 38.2279C43.1019 38.2102 42.8001 38.2013 42.3741 38.2013H39.6848V53.1388C39.6848 53.7424 39.7114 54.1063 39.7646 54.2305C39.8179 54.337 39.9865 54.4081 40.2705 54.4436L41.735 54.6299V55.3755H34.4393V54.6299L35.9038 54.4436C36.1878 54.4081 36.3564 54.337 36.4097 54.2305C36.4629 54.1063 36.4896 53.7424 36.4896 53.1388V38.2013H33.8003C33.392 38.2013 33.0902 38.2102 32.895 38.2279C32.7175 38.2457 32.6021 38.3078 32.5488 38.4143C32.4956 38.5031 32.4334 38.6628 32.3624 38.8936L31.5104 41.8491H30.7648V37.2694ZM64.3735 54.6299V55.3755H57.0778V54.6299L58.5423 54.4436C58.8263 54.4081 58.9949 54.337 59.0482 54.2305C59.1014 54.1063 59.128 53.7424 59.128 53.1388V46.6952H52.1252V53.1388C52.1252 53.7424 52.1519 54.1063 52.2051 54.2305C52.2584 54.337 52.427 54.4081 52.711 54.4436L54.1755 54.6299V55.3755H46.8798V54.6299L48.3442 54.4436C48.6283 54.4081 48.7969 54.337 48.8502 54.2305C48.9034 54.1063 48.93 53.7424 48.93 53.1388V39.506C48.93 38.9025 48.9034 38.5474 48.8502 38.4409C48.7969 38.3167 48.6283 38.2368 48.3442 38.2013L46.8798 38.0149V37.2694H54.1755V38.0149L52.711 38.2013C52.427 38.2368 52.2584 38.3167 52.2051 38.4409C52.1519 38.5474 52.1252 38.9025 52.1252 39.506V45.7633H59.128V39.506C59.128 38.9025 59.1014 38.5474 59.0482 38.4409C58.9949 38.3167 58.8263 38.2368 58.5423 38.2013L57.0778 38.0149V37.2694H64.3735V38.0149L62.909 38.2013C62.625 38.2368 62.4564 38.3167 62.4031 38.4409C62.3499 38.5474 62.3232 38.9025 62.3232 39.506V53.1388C62.3232 53.7424 62.3499 54.1063 62.4031 54.2305C62.4564 54.337 62.625 54.4081 62.909 54.4436L64.3735 54.6299ZM79.1024 50.7957H79.848V55.3755H66.6678V54.6299L68.1322 54.4436C68.4162 54.4081 68.5849 54.337 68.6381 54.2305C68.6914 54.1063 68.718 53.7424 68.718 53.1388V39.506C68.718 38.9025 68.6914 38.5474 68.6381 38.4409C68.5849 38.3167 68.4162 38.2368 68.1322 38.2013L66.6678 38.0149V37.2694H79.5817V41.8491H78.8361L77.9841 38.8936C77.9308 38.6806 77.8687 38.5297 77.7977 38.4409C77.7444 38.3344 77.6291 38.2723 77.4516 38.2545C77.274 38.219 76.9723 38.2013 76.5462 38.2013H71.9132V45.7633H74.9486C75.3747 45.7633 75.6764 45.7544 75.854 45.7366C76.0315 45.7011 76.1468 45.639 76.2001 45.5503C76.2711 45.4437 76.3332 45.284 76.3865 45.071L76.9723 42.9142H77.7178V49.5443H76.9723L76.3865 47.3875C76.3332 47.1745 76.2711 47.0236 76.2001 46.9348C76.1468 46.8283 76.0315 46.7662 75.854 46.7485C75.6764 46.7129 75.3747 46.6952 74.9486 46.6952H71.9132V54.4436H76.8125C77.2385 54.4436 77.5403 54.4347 77.7178 54.4169C77.8953 54.3814 78.0107 54.3193 78.064 54.2305C78.135 54.124 78.1971 53.9643 78.2504 53.7513L79.1024 50.7957ZM99.7959 38.0149V37.2694H104.961V38.0149L103.497 38.2013C103.213 38.2368 103.044 38.3167 102.991 38.4409C102.938 38.5474 102.911 38.9025 102.911 39.506V49.2247C102.911 51.3549 102.459 52.9613 101.553 54.0442C100.666 55.1092 99.2989 55.6418 97.4527 55.6418C95.3049 55.6418 93.5741 55.056 92.2605 53.8844C90.947 52.7128 90.2902 51.0265 90.2902 48.8253V39.506C90.2902 38.9025 90.2635 38.5474 90.2103 38.4409C90.157 38.3167 89.9884 38.2368 89.7044 38.2013L88.2399 38.0149V37.2694H95.5356V38.0149L94.0712 38.2013C93.7871 38.2368 93.6185 38.3167 93.5653 38.4409C93.512 38.5474 93.4854 38.9025 93.4854 39.506V49.0117C93.4854 50.9998 93.8493 52.4377 94.5771 53.3252C95.3049 54.2128 96.3433 54.6566 97.6924 54.6566C99.006 54.6566 100.027 54.2394 100.754 53.4051C101.482 52.5531 101.846 51.1774 101.846 49.278V39.506C101.846 38.9025 101.82 38.5474 101.766 38.4409C101.713 38.3167 101.544 38.2368 101.26 38.2013L99.7959 38.0149ZM113.045 54.7098C114.11 54.7098 114.989 54.4613 115.681 53.9643C116.391 53.4495 116.746 52.6507 116.746 51.5679C116.746 50.7691 116.507 50.1034 116.027 49.5709C115.566 49.0383 114.732 48.5946 113.524 48.2395L111.048 47.494C109.806 47.1212 108.847 46.4822 108.172 45.5769C107.516 44.6538 107.187 43.5089 107.187 42.142C107.187 41.2367 107.391 40.3936 107.8 39.6125C108.226 38.8315 108.865 38.2013 109.717 37.722C110.587 37.2427 111.678 37.0031 112.992 37.0031C114.43 37.0031 115.592 37.2694 116.48 37.8019C117.368 38.3167 117.989 38.9912 118.344 39.8255C118.699 40.6598 118.788 41.5563 118.61 42.5148L115.548 43.074C115.832 41.4231 115.708 40.1539 115.175 39.2664C114.66 38.3788 113.817 37.935 112.646 37.935C111.74 37.935 111.013 38.2013 110.462 38.7338C109.93 39.2664 109.664 40.0297 109.664 41.0237C109.664 41.8403 109.894 42.5592 110.356 43.1805C110.835 43.8018 111.616 44.281 112.699 44.6183L115.175 45.3639C116.524 45.7544 117.536 46.3491 118.211 47.1479C118.885 47.9289 119.223 49.0206 119.223 50.4229C119.223 51.417 118.992 52.3134 118.53 53.1122C118.086 53.8933 117.403 54.5146 116.48 54.9761C115.575 55.4199 114.439 55.6418 113.072 55.6418C112.078 55.6418 111.137 55.4997 110.249 55.2157C109.362 54.914 108.616 54.4258 108.013 53.7513C107.427 53.0767 107.054 52.1625 106.894 51.0087L108.678 50.3697C108.767 51.5057 109.016 52.3933 109.424 53.0323C109.85 53.6536 110.374 54.0885 110.995 54.337C111.634 54.5856 112.317 54.7098 113.045 54.7098ZM134.254 50.7957H134.999V55.3755H121.819V54.6299L123.284 54.4436C123.568 54.4081 123.736 54.337 123.79 54.2305C123.843 54.1063 123.87 53.7424 123.87 53.1388V39.506C123.87 38.9025 123.843 38.5474 123.79 38.4409C123.736 38.3167 123.568 38.2368 123.284 38.2013L121.819 38.0149V37.2694H134.733V41.8491H133.988L133.136 38.8936C133.082 38.6806 133.02 38.5297 132.949 38.4409C132.896 38.3344 132.781 38.2723 132.603 38.2545C132.426 38.219 132.124 38.2013 131.698 38.2013H127.065V45.7633H130.1C130.526 45.7633 130.828 45.7544 131.005 45.7366C131.183 45.7011 131.298 45.639 131.352 45.5503C131.423 45.4437 131.485 45.284 131.538 45.071L132.124 42.9142H132.869V49.5443H132.124L131.538 47.3875C131.485 47.1745 131.423 47.0236 131.352 46.9348C131.298 46.8283 131.183 46.7662 131.005 46.7485C130.828 46.7129 130.526 46.6952 130.1 46.6952H127.065V54.4436H131.964C132.39 54.4436 132.692 54.4347 132.869 54.4169C133.047 54.3814 133.162 54.3193 133.215 54.2305C133.286 54.124 133.349 53.9643 133.402 53.7513L134.254 50.7957ZM137.863 38.0149V37.2694H145.904C147.768 37.2694 149.206 37.6865 150.218 38.5208C151.229 39.3551 151.735 40.4734 151.735 41.8758V42.4882C151.735 43.5533 151.442 44.4586 150.857 45.2041C150.271 45.9497 149.428 46.4822 148.327 46.8017L151.655 53.1388C151.868 53.5294 152.028 53.8134 152.135 53.9909C152.241 54.1684 152.339 54.2838 152.428 54.337C152.534 54.3726 152.676 54.4081 152.854 54.4436L154.052 54.6299V55.3755H149.073L145.052 47.1212H143.108V53.1388C143.108 53.7424 143.135 54.1063 143.188 54.2305C143.241 54.337 143.41 54.4081 143.694 54.4436L145.159 54.6299V55.3755H137.863V54.6299L139.327 54.4436C139.611 54.4081 139.78 54.337 139.833 54.2305C139.886 54.1063 139.913 53.7424 139.913 53.1388V39.506C139.913 38.9025 139.886 38.5474 139.833 38.4409C139.78 38.3167 139.611 38.2368 139.327 38.2013L137.863 38.0149ZM145.904 38.2013H143.108V46.1893H145.904C146.685 46.1893 147.28 45.9497 147.688 45.4704C148.114 44.9733 148.327 44.068 148.327 42.7545V41.6095C148.327 40.2959 148.114 39.3995 147.688 38.9202C147.28 38.4409 146.685 38.2013 145.904 38.2013ZM173.596 50.7957H174.341V55.3755H161.161V54.6299L162.626 54.4436C162.91 54.4081 163.078 54.337 163.132 54.2305C163.185 54.1063 163.211 53.7424 163.211 53.1388V39.506C163.211 38.9025 163.185 38.5474 163.132 38.4409C163.078 38.3167 162.91 38.2368 162.626 38.2013L161.161 38.0149V37.2694H174.075V41.8491H173.33L172.478 38.8936C172.424 38.6806 172.362 38.5297 172.291 38.4409C172.238 38.3344 172.122 38.2723 171.945 38.2545C171.767 38.219 171.466 38.2013 171.04 38.2013H166.407V45.7633H169.442C169.868 45.7633 170.17 45.7544 170.347 45.7366C170.525 45.7011 170.64 45.639 170.694 45.5503C170.765 45.4437 170.827 45.284 170.88 45.071L171.466 42.9142H172.211V49.5443H171.466L170.88 47.3875C170.827 47.1745 170.765 47.0236 170.694 46.9348C170.64 46.8283 170.525 46.7662 170.347 46.7485C170.17 46.7129 169.868 46.6952 169.442 46.6952H166.407V54.4436H171.306C171.732 54.4436 172.034 54.4347 172.211 54.4169C172.389 54.3814 172.504 54.3193 172.557 54.2305C172.628 54.124 172.691 53.9643 172.744 53.7513L173.596 50.7957ZM181.332 54.6299V55.3755H176.086V54.6299L177.551 54.4436C177.728 54.4081 177.862 54.3726 177.95 54.337C178.057 54.2838 178.172 54.1773 178.296 54.0175C178.438 53.84 178.634 53.5471 178.882 53.1388L182.903 46.7485L178.962 39.506C178.749 39.0977 178.589 38.8137 178.483 38.6539C178.376 38.4764 178.27 38.3611 178.163 38.3078C178.075 38.2545 177.933 38.219 177.737 38.2013L176.273 38.0149V37.2694H183.888V38.0149L182.424 38.2013C182.157 38.2368 182.024 38.3167 182.024 38.4409C182.024 38.5474 182.184 38.9025 182.503 39.506L185.166 44.4053L188.228 39.506C188.601 38.9025 188.787 38.5474 188.787 38.4409C188.805 38.3167 188.672 38.2368 188.388 38.2013L186.924 38.0149V37.2694H192.169V38.0149L190.704 38.2013C190.527 38.219 190.385 38.2545 190.278 38.3078C190.19 38.3611 190.083 38.4764 189.959 38.6539C189.835 38.8137 189.639 39.0977 189.373 39.506L185.699 45.3905L189.879 53.1388C190.092 53.5294 190.252 53.8134 190.358 53.9909C190.465 54.1684 190.571 54.2838 190.678 54.337C190.784 54.3726 190.926 54.4081 191.104 54.4436L192.568 54.6299V55.3755H184.98V54.6299L186.444 54.4436C186.728 54.4081 186.87 54.337 186.87 54.2305C186.87 54.1063 186.702 53.7424 186.364 53.1388L183.409 47.707L180.027 53.1388C179.654 53.7424 179.459 54.1063 179.441 54.2305C179.441 54.337 179.583 54.4081 179.867 54.4436L181.332 54.6299ZM193.742 38.0149V37.2694H201.757C203.71 37.2694 205.165 37.722 206.124 38.6273C207.1 39.5149 207.588 40.7042 207.588 42.1953V42.8077C207.588 44.2988 207.1 45.497 206.124 46.4023C205.165 47.3076 203.71 47.7603 201.757 47.7603H198.988V53.1388C198.988 53.7424 199.015 54.1063 199.068 54.2305C199.121 54.337 199.29 54.4081 199.574 54.4436L201.571 54.6299V55.3755H193.742V54.6299L195.207 54.4436C195.491 54.4081 195.66 54.337 195.713 54.2305C195.766 54.1063 195.793 53.7424 195.793 53.1388V39.506C195.793 38.9025 195.766 38.5474 195.713 38.4409C195.66 38.3167 195.491 38.2368 195.207 38.2013L193.742 38.0149ZM201.757 38.2013H198.988V46.8283H201.757C202.538 46.8283 203.133 46.5177 203.541 45.8964C203.967 45.2751 204.18 44.4231 204.18 43.3402V41.6628C204.18 40.5799 203.967 39.7368 203.541 39.1332C203.133 38.5119 202.538 38.2013 201.757 38.2013ZM222.091 50.7957H222.836V55.3755H209.656V54.6299L211.12 54.4436C211.405 54.4081 211.573 54.337 211.626 54.2305C211.68 54.1063 211.706 53.7424 211.706 53.1388V39.506C211.706 38.9025 211.68 38.5474 211.626 38.4409C211.573 38.3167 211.405 38.2368 211.12 38.2013L209.656 38.0149V37.2694H222.57V41.8491H221.824L220.972 38.8936C220.919 38.6806 220.857 38.5297 220.786 38.4409C220.733 38.3344 220.617 38.2723 220.44 38.2545C220.262 38.219 219.961 38.2013 219.535 38.2013H214.901V45.7633H217.937C218.363 45.7633 218.665 45.7544 218.842 45.7366C219.02 45.7011 219.135 45.639 219.188 45.5503C219.259 45.4437 219.322 45.284 219.375 45.071L219.961 42.9142H220.706V49.5443H219.961L219.375 47.3875C219.322 47.1745 219.259 47.0236 219.188 46.9348C219.135 46.8283 219.02 46.7662 218.842 46.7485C218.665 46.7129 218.363 46.6952 217.937 46.6952H214.901V54.4436H219.801C220.227 54.4436 220.529 54.4347 220.706 54.4169C220.884 54.3814 220.999 54.3193 221.052 54.2305C221.123 54.124 221.185 53.9643 221.239 53.7513L222.091 50.7957ZM225.7 38.0149V37.2694H233.741C235.605 37.2694 237.043 37.6865 238.054 38.5208C239.066 39.3551 239.572 40.4734 239.572 41.8758V42.4882C239.572 43.5533 239.279 44.4586 238.693 45.2041C238.108 45.9497 237.264 46.4822 236.164 46.8017L239.492 53.1388C239.705 53.5294 239.865 53.8134 239.972 53.9909C240.078 54.1684 240.176 54.2838 240.264 54.337C240.371 54.3726 240.513 54.4081 240.69 54.4436L241.889 54.6299V55.3755H236.909L232.889 47.1212H230.945V53.1388C230.945 53.7424 230.972 54.1063 231.025 54.2305C231.078 54.337 231.247 54.4081 231.531 54.4436L232.995 54.6299V55.3755H225.7V54.6299L227.164 54.4436C227.448 54.4081 227.617 54.337 227.67 54.2305C227.723 54.1063 227.75 53.7424 227.75 53.1388V39.506C227.75 38.9025 227.723 38.5474 227.67 38.4409C227.617 38.3167 227.448 38.2368 227.164 38.2013L225.7 38.0149ZM233.741 38.2013H230.945V46.1893H233.741C234.522 46.1893 235.117 45.9497 235.525 45.4704C235.951 44.9733 236.164 44.068 236.164 42.7545V41.6095C236.164 40.2959 235.951 39.3995 235.525 38.9202C235.117 38.4409 234.522 38.2013 233.741 38.2013ZM243.043 38.0149V37.2694H250.339V38.0149L248.875 38.2013C248.591 38.2368 248.422 38.3167 248.369 38.4409C248.315 38.5474 248.289 38.9025 248.289 39.506V53.1388C248.289 53.7424 248.315 54.1063 248.369 54.2305C248.422 54.337 248.591 54.4081 248.875 54.4436L250.339 54.6299V55.3755H243.043V54.6299L244.508 54.4436C244.792 54.4081 244.96 54.337 245.014 54.2305C245.067 54.1063 245.094 53.7424 245.094 53.1388V39.506C245.094 38.9025 245.067 38.5474 245.014 38.4409C244.96 38.3167 244.792 38.2368 244.508 38.2013L243.043 38.0149ZM265.073 50.7957H265.819V55.3755H252.638V54.6299L254.103 54.4436C254.387 54.4081 254.555 54.337 254.609 54.2305C254.662 54.1063 254.689 53.7424 254.689 53.1388V39.506C254.689 38.9025 254.662 38.5474 254.609 38.4409C254.555 38.3167 254.387 38.2368 254.103 38.2013L252.638 38.0149V37.2694H265.552V41.8491H264.807L263.955 38.8936C263.901 38.6806 263.839 38.5297 263.768 38.4409C263.715 38.3344 263.6 38.2723 263.422 38.2545C263.245 38.219 262.943 38.2013 262.517 38.2013H257.884V45.7633H260.919C261.345 45.7633 261.647 45.7544 261.825 45.7366C262.002 45.7011 262.117 45.639 262.171 45.5503C262.242 45.4437 262.304 45.284 262.357 45.071L262.943 42.9142H263.688V49.5443H262.943L262.357 47.3875C262.304 47.1745 262.242 47.0236 262.171 46.9348C262.117 46.8283 262.002 46.7662 261.825 46.7485C261.647 46.7129 261.345 46.6952 260.919 46.6952H257.884V54.4436H262.783C263.209 54.4436 263.511 54.4347 263.688 54.4169C263.866 54.3814 263.981 54.3193 264.035 54.2305C264.106 54.124 264.168 53.9643 264.221 53.7513L265.073 50.7957ZM279.918 38.0149V37.2694H285.084V38.0149L283.619 38.2013C283.335 38.2368 283.167 38.3167 283.114 38.4409C283.06 38.5474 283.034 38.9025 283.034 39.506V55.3755H281.569L271.797 39.5859V53.1388C271.797 53.7424 271.824 54.1063 271.877 54.2305C271.93 54.337 272.099 54.4081 272.383 54.4436L273.847 54.6299V55.3755H268.682V54.6299L270.146 54.4436C270.43 54.4081 270.599 54.337 270.652 54.2305C270.706 54.1063 270.732 53.7424 270.732 53.1388V39.506C270.732 38.9025 270.706 38.5474 270.652 38.4409C270.599 38.3167 270.43 38.2368 270.146 38.2013L268.682 38.0149V37.2694H274.034L281.969 50.0235V39.506C281.969 38.9025 281.942 38.5474 281.889 38.4409C281.835 38.3167 281.667 38.2368 281.383 38.2013L279.918 38.0149ZM295.189 55.6418C293.556 55.6418 292.172 55.2956 291.036 54.6033C289.9 53.8933 289.039 52.8992 288.453 51.6211C287.867 50.3431 287.574 48.852 287.574 47.1479V45.4704C287.574 43.7663 287.832 42.284 288.346 41.0237C288.879 39.7456 289.669 38.7605 290.716 38.0682C291.763 37.3581 293.077 37.0031 294.657 37.0031C296.006 37.0031 297.133 37.2694 298.038 37.8019C298.944 38.3167 299.609 39.009 300.035 39.8788C300.479 40.7308 300.666 41.6628 300.595 42.6746L297.479 43.4467C297.657 41.6716 297.47 40.3137 296.92 39.3729C296.388 38.4143 295.589 37.935 294.524 37.935C293.388 37.935 292.509 38.4143 291.888 39.3729C291.284 40.3314 290.982 41.9202 290.982 44.139V48.4792C290.982 50.6803 291.328 52.269 292.021 53.2454C292.713 54.2217 293.769 54.7098 295.189 54.7098C295.775 54.7098 296.317 54.6033 296.814 54.3903C297.328 54.1773 297.754 53.8134 298.092 53.2986C298.447 52.7661 298.669 52.0205 298.757 51.062L300.674 51.5679C300.426 52.5619 300.027 53.3607 299.476 53.9643C298.926 54.5678 298.278 55.0027 297.533 55.269C296.805 55.5175 296.024 55.6418 295.189 55.6418ZM315.284 50.7957H316.03V55.3755H302.849V54.6299L304.314 54.4436C304.598 54.4081 304.766 54.337 304.82 54.2305C304.873 54.1063 304.9 53.7424 304.9 53.1388V39.506C304.9 38.9025 304.873 38.5474 304.82 38.4409C304.766 38.3167 304.598 38.2368 304.314 38.2013L302.849 38.0149V37.2694H315.763V41.8491H315.018L314.166 38.8936C314.112 38.6806 314.05 38.5297 313.979 38.4409C313.926 38.3344 313.811 38.2723 313.633 38.2545C313.456 38.219 313.154 38.2013 312.728 38.2013H308.095V45.7633H311.13C311.556 45.7633 311.858 45.7544 312.036 45.7366C312.213 45.7011 312.328 45.639 312.382 45.5503C312.453 45.4437 312.515 45.284 312.568 45.071L313.154 42.9142H313.899V49.5443H313.154L312.568 47.3875C312.515 47.1745 312.453 47.0236 312.382 46.9348C312.328 46.8283 312.213 46.7662 312.036 46.7485C311.858 46.7129 311.556 46.6952 311.13 46.6952H308.095V54.4436H312.994C313.42 54.4436 313.722 54.4347 313.899 54.4169C314.077 54.3814 314.192 54.3193 314.246 54.2305C314.317 54.124 314.379 53.9643 314.432 53.7513L315.284 50.7957ZM333.075 55.6418C331.442 55.6418 330.057 55.2956 328.921 54.6033C327.785 53.8933 326.924 52.8992 326.339 51.6211C325.753 50.3431 325.46 48.852 325.46 47.1479V45.4704C325.46 43.7663 325.717 42.284 326.232 41.0237C326.765 39.7456 327.555 38.7605 328.602 38.0682C329.649 37.3581 330.963 37.0031 332.543 37.0031C333.892 37.0031 335.019 37.2694 335.924 37.8019C336.829 38.3167 337.495 39.009 337.921 39.8788C338.365 40.7308 338.551 41.6628 338.48 42.6746L335.365 43.4467C335.543 41.6716 335.356 40.3137 334.806 39.3729C334.273 38.4143 333.475 37.935 332.409 37.935C331.273 37.935 330.395 38.4143 329.773 39.3729C329.17 40.3314 328.868 41.9202 328.868 44.139V48.4792C328.868 50.6803 329.214 52.269 329.907 53.2454C330.599 54.2217 331.655 54.7098 333.075 54.7098C333.661 54.7098 334.202 54.6033 334.699 54.3903C335.214 54.1773 335.64 53.8134 335.977 53.2986C336.332 52.7661 336.554 52.0205 336.643 51.062L338.56 51.5679C338.312 52.5619 337.912 53.3607 337.362 53.9643C336.812 54.5678 336.164 55.0027 335.418 55.269C334.69 55.5175 333.909 55.6418 333.075 55.6418ZM352.637 50.7957H353.383V55.3755H340.735V54.6299L342.2 54.4436C342.484 54.4081 342.652 54.337 342.705 54.2305C342.759 54.1063 342.785 53.7424 342.785 53.1388V39.506C342.785 38.9025 342.759 38.5474 342.705 38.4409C342.652 38.3167 342.484 38.2368 342.2 38.2013L340.735 38.0149V37.2694H348.031V38.0149L346.566 38.2013C346.282 38.2368 346.114 38.3167 346.06 38.4409C346.007 38.5474 345.981 38.9025 345.981 39.506V54.4436H350.347C350.773 54.4436 351.075 54.4347 351.253 54.4169C351.43 54.3814 351.546 54.3193 351.599 54.2305C351.67 54.124 351.732 53.9643 351.785 53.7513L352.637 50.7957ZM365.23 38.0149V37.2694H370.396V38.0149L368.931 38.2013C368.647 38.2368 368.479 38.3167 368.426 38.4409C368.372 38.5474 368.346 38.9025 368.346 39.506V49.2247C368.346 51.3549 367.893 52.9613 366.988 54.0442C366.1 55.1092 364.733 55.6418 362.887 55.6418C360.739 55.6418 359.009 55.056 357.695 53.8844C356.381 52.7128 355.725 51.0265 355.725 48.8253V39.506C355.725 38.9025 355.698 38.5474 355.645 38.4409C355.592 38.3167 355.423 38.2368 355.139 38.2013L353.674 38.0149V37.2694H360.97V38.0149L359.506 38.2013C359.222 38.2368 359.053 38.3167 359 38.4409C358.946 38.5474 358.92 38.9025 358.92 39.506V49.0117C358.92 50.9998 359.284 52.4377 360.012 53.3252C360.739 54.2128 361.778 54.6566 363.127 54.6566C364.44 54.6566 365.461 54.2394 366.189 53.4051C366.917 52.5531 367.281 51.1774 367.281 49.278V39.506C367.281 38.9025 367.254 38.5474 367.201 38.4409C367.147 38.3167 366.979 38.2368 366.695 38.2013L365.23 38.0149ZM372.302 38.0149V37.2694H379.651C381.071 37.2694 382.198 37.4646 383.033 37.8551C383.867 38.2457 384.462 38.7605 384.817 39.3995C385.19 40.0385 385.376 40.7486 385.376 41.5296V42.2485C385.376 43.1716 385.083 43.9704 384.497 44.6449C383.929 45.3017 383.095 45.7721 381.994 46.0562C383.343 46.2869 384.373 46.7662 385.083 47.494C385.811 48.2218 386.175 49.136 386.175 50.2365V50.9821C386.175 51.7809 385.988 52.5176 385.616 53.1921C385.243 53.8489 384.622 54.3814 383.752 54.7897C382.9 55.1802 381.755 55.3755 380.317 55.3755H372.302V54.6299L373.767 54.4436C374.051 54.4081 374.219 54.337 374.273 54.2305C374.326 54.1063 374.352 53.7424 374.352 53.1388V39.506C374.352 38.9025 374.326 38.5474 374.273 38.4409C374.219 38.3167 374.051 38.2368 373.767 38.2013L372.302 38.0149ZM379.651 38.2013H377.548V45.6568H379.651C380.414 45.6568 380.991 45.3994 381.382 44.8846C381.772 44.3521 381.968 43.5178 381.968 42.3817V41.5296C381.968 40.3758 381.772 39.5326 381.382 39.0001C380.991 38.4676 380.414 38.2013 379.651 38.2013ZM380.317 46.5887H377.548V54.4436H380.317C381.116 54.4436 381.719 54.1773 382.127 53.6448C382.553 53.0945 382.767 52.2069 382.767 50.9821V50.1034C382.767 47.7603 381.95 46.5887 380.317 46.5887Z" fill="#1D6592"/>
<rect x="342.569" y="234.993" width="50.2948" height="41.4192" fill="#F5FAFC"/>
<path d="M360.327 259.546H361.073V265.43H349.916V263.567C349.916 262.466 350.085 261.543 350.422 260.797C350.777 260.034 351.247 259.377 351.833 258.827C352.419 258.277 353.049 257.789 353.724 257.363C354.38 256.919 355.028 256.466 355.667 256.005C356.324 255.525 356.866 254.948 357.292 254.274C357.718 253.582 357.931 252.703 357.931 251.638C357.931 249.206 357.123 247.99 355.508 247.99C354.514 247.99 353.812 248.425 353.404 249.295C353.014 250.164 352.907 251.398 353.085 252.996L349.889 252.57C349.73 251.611 349.818 250.715 350.156 249.88C350.511 249.046 351.132 248.372 352.02 247.857C352.925 247.324 354.096 247.058 355.534 247.058C356.937 247.058 358.064 247.289 358.916 247.75C359.768 248.194 360.389 248.789 360.78 249.534C361.188 250.262 361.392 251.052 361.392 251.904C361.392 252.951 361.179 253.812 360.753 254.487C360.327 255.161 359.768 255.721 359.076 256.164C358.383 256.59 357.638 256.963 356.839 257.283C356.04 257.584 355.268 257.913 354.522 258.268C353.617 258.676 352.845 259.226 352.206 259.919C351.567 260.593 351.176 261.507 351.034 262.661H358.303C358.729 262.661 359.031 262.652 359.209 262.635C359.386 262.599 359.502 262.537 359.555 262.448C359.626 262.342 359.688 262.182 359.741 261.969L360.327 259.546ZM373.672 245.008H374.418V250.093H365.924L365.631 255.232C366.11 254.895 366.661 254.638 367.282 254.46C367.921 254.265 368.596 254.167 369.306 254.167C370.513 254.167 371.56 254.398 372.448 254.86C373.353 255.321 374.054 255.969 374.551 256.803C375.048 257.638 375.297 258.632 375.297 259.786C375.297 260.833 375.092 261.809 374.684 262.715C374.276 263.602 373.61 264.321 372.687 264.871C371.782 265.422 370.584 265.697 369.093 265.697C367.744 265.697 366.607 265.377 365.684 264.738C364.761 264.081 364.167 262.999 363.9 261.49L365.791 260.984C365.968 262.333 366.315 263.3 366.829 263.886C367.362 264.472 368.036 264.765 368.853 264.765C369.883 264.765 370.637 264.383 371.116 263.62C371.596 262.839 371.835 261.561 371.835 259.786C371.835 258.863 371.746 258.055 371.569 257.363C371.409 256.652 371.107 256.102 370.664 255.712C370.22 255.303 369.599 255.099 368.8 255.099C368.267 255.099 367.699 255.206 367.096 255.419C366.492 255.632 365.88 256.022 365.258 256.59L364.619 256.191L365.125 247.324H371.915C372.536 247.324 372.909 247.289 373.033 247.218C373.175 247.147 373.282 246.952 373.353 246.632L373.672 245.008Z" fill="#2B6C94"/>
<path d="M383.722 253.469C382.964 253.469 382.396 253.832 382.018 254.558C381.655 255.268 381.473 256.467 381.473 258.155V259.575C381.473 261.248 381.686 262.455 382.112 263.197C382.538 263.922 383.233 264.285 384.195 264.285C384.905 264.285 385.481 264.088 385.923 263.694C386.381 263.283 386.641 262.597 386.704 261.634L388.219 262.06C387.935 263.165 387.414 263.954 386.657 264.427C385.915 264.885 385.039 265.114 384.03 265.114C382.215 265.114 380.85 264.569 379.935 263.481C379.02 262.376 378.562 260.916 378.562 259.102V258.629C378.562 256.814 379.004 255.362 379.888 254.274C380.771 253.185 382.049 252.641 383.722 252.641C384.826 252.641 385.726 252.861 386.42 253.303C387.13 253.729 387.627 254.297 387.911 255.007C388.211 255.702 388.29 256.451 388.148 257.256L385.544 257.635C385.718 256.309 385.647 255.283 385.331 254.558C385.016 253.832 384.479 253.469 383.722 253.469Z" fill="#2B6C94"/>
</g>
</svg>
