<svg width="205" height="355" viewBox="0 0 205 355" fill="none" xmlns="http://www.w3.org/2000/svg">
<rect width="204.498" height="274.533" transform="matrix(1 -3.74563e-08 0.00122382 0.999999 0.0981445 80.1213)" fill="#3A559E"/>
<rect width="174.96" height="252.831" transform="matrix(1 -3.74563e-08 0.00122382 0.999999 16.0164 90.6108)" fill="white"/>
<rect width="175.059" height="79.26" transform="matrix(1 -4.93238e-08 0.00122383 0.999999 15.9346 177.076)" fill="#56B5EF" fill-opacity="0.71"/>
<path d="M107.881 0.301025L204.657 80.724L104.193 84.1202L0.327917 80.8129L107.881 0.301025Z" fill="#3A559E"/>
<ellipse cx="15.5267" cy="14.2926" rx="15.5267" ry="14.2926" transform="matrix(1 -3.68562e-08 0.00122382 0.999999 92.1638 28.2837)" fill="#D9D9D9"/>
<ellipse cx="9.46751" cy="8.68089" rx="9.46751" ry="8.68089" transform="matrix(1 -3.74563e-08 0.00122382 0.999999 97.9849 33.9624)" fill="white"/>
<g clip-path="url(#clip0_5_809)">
<path d="M169.74 108.719C170.465 109.575 170.565 110.794 170.039 112.376C169.513 113.958 168.624 115.375 167.373 116.627L163.397 120.608L167.361 137.803C167.444 138.116 167.345 138.388 167.065 138.618L163.904 140.992C163.789 141.091 163.632 141.141 163.435 141.141C163.369 141.141 163.311 141.133 163.262 141.116C163.015 141.067 162.842 140.935 162.743 140.721L155.841 128.174L149.446 134.577L150.758 139.37C150.841 139.65 150.775 139.905 150.561 140.136L148.19 142.509C148.042 142.658 147.853 142.732 147.622 142.732L147.573 142.732C147.326 142.699 147.128 142.592 146.979 142.411L142.306 136.188L136.076 131.521C135.895 131.406 135.788 131.217 135.755 130.953C135.738 130.739 135.812 130.533 135.977 130.336L138.347 127.937C138.495 127.789 138.685 127.715 138.915 127.715C139.014 127.715 139.08 127.723 139.113 127.739L143.907 129.046L150.303 122.642L137.747 115.756C137.516 115.625 137.376 115.427 137.326 115.164C137.293 114.9 137.367 114.678 137.548 114.496L140.709 111.332C140.939 111.117 141.186 111.051 141.45 111.133L157.884 115.052L161.835 111.096C163.086 109.843 164.502 108.953 166.083 108.425C167.664 107.897 168.883 107.995 169.74 108.719Z" fill="#3A559E"/>
</g>
<path d="M28.5276 100.054H29.7811L29.7811 104.575C29.7811 105.071 29.664 105.507 29.4297 105.883C29.1977 106.259 28.8711 106.553 28.4498 106.765C28.0286 106.974 27.5364 107.079 26.9733 107.079C26.4079 107.079 25.9146 106.974 25.4933 106.765C25.0721 106.553 24.7455 106.259 24.5135 105.883C24.2814 105.507 24.1654 105.071 24.1654 104.575L24.1654 100.054H25.419L25.419 104.471C25.419 104.759 25.4821 105.016 25.6082 105.241C25.7366 105.466 25.9168 105.643 26.1488 105.771C26.3809 105.898 26.6557 105.961 26.9733 105.961C27.2909 105.961 27.5657 105.898 27.7977 105.771C28.032 105.643 28.2122 105.466 28.3383 105.241C28.4645 105.016 28.5276 104.759 28.5276 104.471L28.5276 100.054ZM32.0897 101.784L33.1372 103.7L34.2015 101.784H35.4956L33.9312 104.379L35.5227 106.974H34.2353L33.1372 105.106L32.0492 106.974H30.7517L32.333 104.379L30.7922 101.784H32.0897ZM36.4417 108.921L36.4417 101.784H37.6446L37.6446 102.643H37.7155C37.7786 102.517 37.8676 102.382 37.9825 102.241C38.0974 102.096 38.2528 101.974 38.4488 101.872C38.6447 101.769 38.8948 101.717 39.1989 101.717C39.5998 101.717 39.9614 101.819 40.2835 102.024C40.6079 102.227 40.8647 102.528 41.0539 102.926C41.2453 103.323 41.3411 103.809 41.3411 104.386C41.3411 104.956 41.2476 105.44 41.0606 105.839C40.8737 106.238 40.6191 106.542 40.297 106.751C39.9749 106.961 39.61 107.066 39.2023 107.066C38.9049 107.066 38.6583 107.016 38.4623 106.917C38.2663 106.818 38.1086 106.698 37.9892 106.559C37.8721 106.417 37.7809 106.283 37.7155 106.157H37.6649L37.6649 108.921H36.4417ZM37.6412 104.379C37.6412 104.715 37.6885 105.009 37.7831 105.261C37.88 105.514 38.0185 105.711 38.1987 105.853C38.3812 105.992 38.6019 106.062 38.861 106.062C39.1313 106.062 39.3577 105.99 39.5401 105.846C39.7226 105.699 39.86 105.5 39.9524 105.248C40.047 104.993 40.0943 104.704 40.0943 104.379C40.0943 104.057 40.0481 103.771 39.9557 103.521C39.8634 103.271 39.726 103.075 39.5435 102.933C39.3611 102.791 39.1335 102.72 38.861 102.72C38.5997 102.72 38.3778 102.789 38.1953 102.926C38.0129 103.064 37.8744 103.256 37.7797 103.504C37.6874 103.752 37.6412 104.044 37.6412 104.379ZM44.6862 107.076C44.1658 107.076 43.7164 106.968 43.338 106.751C42.9618 106.533 42.6723 106.224 42.4696 105.826C42.2669 105.425 42.1655 104.953 42.1655 104.41C42.1655 103.876 42.2669 103.407 42.4696 103.004C42.6746 102.599 42.9607 102.283 43.3278 102.058C43.695 101.831 44.1264 101.717 44.622 101.717C44.9418 101.717 45.2437 101.769 45.5275 101.872C45.8136 101.974 46.0659 102.131 46.2844 102.345C46.5051 102.559 46.6786 102.832 46.8047 103.163C46.9308 103.492 46.9939 103.884 46.9939 104.339L46.9939 104.714H42.7399L42.7399 103.889H45.8215C45.8192 103.655 45.7685 103.447 45.6694 103.264C45.5703 103.08 45.4318 102.934 45.2538 102.828C45.0781 102.723 44.8731 102.67 44.6389 102.67C44.3888 102.67 44.1692 102.731 43.98 102.852C43.7908 102.972 43.6432 103.129 43.5373 103.325C43.4337 103.519 43.3808 103.732 43.3785 103.964L43.3785 104.683C43.3785 104.985 43.4337 105.244 43.5441 105.461C43.6545 105.675 43.8088 105.839 44.007 105.954C44.2052 106.067 44.4372 106.123 44.703 106.123C44.881 106.123 45.0421 106.098 45.1862 106.049C45.3304 105.997 45.4554 105.921 45.5613 105.822C45.6672 105.723 45.7471 105.6 45.8012 105.454L46.9432 105.582C46.8712 105.884 46.7337 106.148 46.531 106.373C46.3305 106.596 46.0737 106.769 45.7606 106.893C45.4475 107.015 45.0894 107.076 44.6862 107.076ZM48.0287 106.974L48.0287 101.784H49.2147L49.2147 102.649H49.2687C49.3634 102.35 49.5255 102.119 49.7553 101.957C49.9873 101.792 50.252 101.71 50.5493 101.71C50.6169 101.71 50.6924 101.713 50.7757 101.72C50.8613 101.725 50.9323 101.733 50.9886 101.744L50.9886 102.869C50.9368 102.851 50.8546 102.835 50.7419 102.822C50.6316 102.806 50.5246 102.798 50.4209 102.798C50.1979 102.798 49.9975 102.847 49.8195 102.943C49.6438 103.038 49.5053 103.17 49.4039 103.339C49.3025 103.508 49.2519 103.702 49.2519 103.923L49.2519 106.974H48.0287ZM51.8012 106.974L51.8012 101.784H53.0244L53.0244 106.974H51.8012ZM52.4162 101.048C52.2224 101.048 52.0557 100.984 51.9161 100.855C51.7764 100.725 51.7066 100.568 51.7066 100.386C51.7066 100.201 51.7764 100.044 51.9161 99.9159C52.0557 99.7853 52.2224 99.7199 52.4162 99.7199C52.6121 99.7199 52.7788 99.7853 52.9162 99.9159C53.0559 100.044 53.1257 100.201 53.1257 100.386C53.1257 100.568 53.0559 100.725 52.9162 100.855C52.7788 100.984 52.6121 101.048 52.4162 101.048ZM56.5798 107.076C56.0594 107.076 55.61 106.968 55.2316 106.751C54.8554 106.533 54.566 106.224 54.3632 105.826C54.1605 105.425 54.0591 104.953 54.0591 104.41C54.0591 103.876 54.1605 103.407 54.3632 103.004C54.5682 102.599 54.8543 102.283 55.2215 102.058C55.5886 101.831 56.02 101.717 56.5156 101.717C56.8354 101.717 57.1373 101.769 57.4211 101.872C57.7072 101.974 57.9595 102.131 58.178 102.345C58.3987 102.559 58.5722 102.832 58.6983 103.163C58.8245 103.492 58.8875 103.884 58.8875 104.339L58.8875 104.714H54.6335L54.6335 103.889H57.7151C57.7128 103.655 57.6621 103.447 57.563 103.264C57.4639 103.08 57.3254 102.934 57.1474 102.828C56.9717 102.723 56.7667 102.67 56.5325 102.67C56.2824 102.67 56.0628 102.731 55.8736 102.852C55.6844 102.972 55.5368 103.129 55.431 103.325C55.3273 103.519 55.2744 103.732 55.2721 103.964L55.2721 104.683C55.2721 104.985 55.3273 105.244 55.4377 105.461C55.5481 105.675 55.7024 105.839 55.9006 105.954C56.0988 106.067 56.3309 106.123 56.5967 106.123C56.7746 106.123 56.9357 106.098 57.0798 106.049C57.224 105.997 57.349 105.921 57.4549 105.822C57.5608 105.723 57.6407 105.6 57.6948 105.454L58.8369 105.582C58.7648 105.884 58.6274 106.148 58.4246 106.373C58.2242 106.596 57.9674 106.769 57.6543 106.893C57.3411 107.015 56.983 107.076 56.5798 107.076ZM61.1455 103.933L61.1455 106.974H59.9223L59.9223 101.784H61.0914L61.0914 102.666H61.1522C61.2716 102.376 61.462 102.145 61.7233 101.974C61.9868 101.802 62.3123 101.717 62.6997 101.717C63.0579 101.717 63.3699 101.793 63.6357 101.947C63.9038 102.1 64.111 102.322 64.2574 102.612C64.4061 102.903 64.4793 103.255 64.477 103.67L64.477 106.974H63.2539L63.2539 103.859C63.2539 103.512 63.1638 103.241 62.9836 103.045C62.8056 102.849 62.559 102.751 62.2436 102.751C62.0296 102.751 61.8393 102.798 61.6726 102.893C61.5081 102.985 61.3786 103.119 61.284 103.295C61.1916 103.47 61.1455 103.683 61.1455 103.933ZM67.9843 107.076C67.4662 107.076 67.0213 106.962 66.6496 106.734C66.2802 106.507 65.9953 106.193 65.7948 105.792C65.5966 105.389 65.4974 104.925 65.4974 104.4C65.4974 103.873 65.5988 103.407 65.8015 103.004C66.0043 102.599 66.2904 102.283 66.6598 102.058C67.0315 101.831 67.4707 101.717 67.9775 101.717C68.3988 101.717 68.7716 101.795 69.0959 101.95C69.4226 102.103 69.6827 102.321 69.8765 102.602C70.0702 102.881 70.1806 103.208 70.2076 103.582H69.0385C68.9912 103.332 68.8786 103.124 68.7006 102.957C68.5249 102.788 68.2895 102.703 67.9944 102.703C67.7444 102.703 67.5248 102.771 67.3356 102.906C67.1463 103.039 66.9988 103.231 66.8929 103.481C66.7893 103.731 66.7375 104.03 66.7375 104.379C66.7375 104.733 66.7893 105.037 66.8929 105.292C66.9965 105.544 67.1418 105.739 67.3288 105.876C67.518 106.011 67.7399 106.079 67.9944 106.079C68.1746 106.079 68.3357 106.045 68.4776 105.978C68.6218 105.908 68.7423 105.808 68.8392 105.677C68.936 105.546 69.0025 105.387 69.0385 105.2H70.2076C70.1783 105.568 70.0702 105.893 69.8832 106.177C69.6963 106.459 69.4417 106.679 69.1196 106.839C68.7975 106.997 68.419 107.076 67.9843 107.076ZM73.5096 107.076C72.9892 107.076 72.5399 106.968 72.1614 106.751C71.7852 106.533 71.4958 106.224 71.2931 105.826C71.0903 105.425 70.989 104.953 70.989 104.41C70.989 103.876 71.0903 103.407 71.2931 103.004C71.498 102.599 71.7841 102.283 72.1513 102.058C72.5185 101.831 72.9498 101.717 73.4454 101.717C73.7653 101.717 74.0671 101.769 74.3509 101.872C74.637 101.974 74.8893 102.131 75.1078 102.345C75.3286 102.559 75.502 102.832 75.6281 103.163C75.7543 103.492 75.8174 103.884 75.8174 104.339L75.8174 104.714H71.5634L71.5634 103.889H74.6449C74.6426 103.655 74.592 103.447 74.4928 103.264C74.3937 103.08 74.2552 102.934 74.0772 102.828C73.9015 102.723 73.6966 102.67 73.4623 102.67C73.2123 102.67 72.9926 102.731 72.8034 102.852C72.6142 102.972 72.4666 103.129 72.3608 103.325C72.2572 103.519 72.2042 103.732 72.202 103.964L72.202 104.683C72.202 104.985 72.2572 105.244 72.3675 105.461C72.4779 105.675 72.6322 105.839 72.8304 105.954C73.0287 106.067 73.2607 106.123 73.5265 106.123C73.7044 106.123 73.8655 106.098 74.0097 106.049C74.1538 105.997 74.2788 105.921 74.3847 105.822C74.4906 105.723 74.5706 105.6 74.6246 105.454L75.7667 105.582C75.6946 105.884 75.5572 106.148 75.3545 106.373C75.154 106.596 74.8972 106.769 74.5841 106.893C74.271 107.015 73.9128 107.076 73.5096 107.076ZM30.0886 114.389H28.8249C28.7889 114.182 28.7224 113.998 28.6255 113.838C28.5287 113.676 28.4082 113.539 28.264 113.426C28.1198 113.314 27.9554 113.229 27.7707 113.173C27.5882 113.114 27.3911 113.085 27.1794 113.085C26.8032 113.085 26.4698 113.18 26.1792 113.369C25.8887 113.556 25.6612 113.831 25.4967 114.193C25.3323 114.554 25.2501 114.994 25.2501 115.514C25.2501 116.044 25.3323 116.49 25.4967 116.852C25.6634 117.213 25.8909 117.485 26.1792 117.67C26.4698 117.853 26.8021 117.944 27.176 117.944C27.3833 117.944 27.577 117.917 27.7572 117.863C27.9396 117.806 28.1029 117.724 28.2471 117.616C28.3935 117.508 28.5163 117.375 28.6154 117.217C28.7168 117.06 28.7866 116.879 28.8249 116.677L30.0886 116.683C30.0413 117.012 29.9388 117.321 29.7811 117.609C29.6257 117.898 29.4218 118.152 29.1695 118.373C28.9173 118.591 28.6222 118.763 28.2843 118.887C27.9464 119.008 27.5713 119.069 27.1591 119.069C26.5509 119.069 26.0081 118.928 25.5305 118.647C25.053 118.365 24.6768 117.958 24.402 117.427C24.1271 116.895 23.9897 116.258 23.9897 115.514C23.9897 114.769 24.1283 114.131 24.4053 113.602C24.6824 113.07 25.0597 112.664 25.5373 112.382C26.0148 112.101 26.5554 111.96 27.1591 111.96C27.5443 111.96 27.9025 112.014 28.2336 112.122C28.5647 112.23 28.8598 112.389 29.1189 112.598C29.3779 112.806 29.5908 113.06 29.7575 113.362C29.9264 113.662 30.0368 114.004 30.0886 114.389ZM33.4463 119.076C32.9395 119.076 32.5003 118.964 32.1286 118.741C31.7569 118.518 31.4686 118.206 31.2636 117.805C31.0609 117.404 30.9595 116.936 30.9595 116.4C30.9595 115.864 31.0609 115.394 31.2636 114.991C31.4686 114.587 31.7569 114.274 32.1286 114.051C32.5003 113.828 32.9395 113.717 33.4463 113.717C33.9532 113.717 34.3924 113.828 34.7641 114.051C35.1358 114.274 35.423 114.587 35.6257 114.991C35.8307 115.394 35.9332 115.864 35.9332 116.4C35.9332 116.936 35.8307 117.404 35.6257 117.805C35.423 118.206 35.1358 118.518 34.7641 118.741C34.3924 118.964 33.9532 119.076 33.4463 119.076ZM33.4531 118.096C33.7279 118.096 33.9577 118.02 34.1424 117.869C34.3271 117.716 34.4645 117.511 34.5546 117.255C34.647 116.998 34.6932 116.712 34.6932 116.396C34.6932 116.079 34.647 115.791 34.5546 115.535C34.4645 115.276 34.3271 115.07 34.1424 114.916C33.9577 114.763 33.7279 114.687 33.4531 114.687C33.1715 114.687 32.9373 114.763 32.7503 114.916C32.5656 115.07 32.4271 115.276 32.3347 115.535C32.2446 115.791 32.1995 116.079 32.1995 116.396C32.1995 116.712 32.2446 116.998 32.3347 117.255C32.4271 117.511 32.5656 117.716 32.7503 117.869C32.9373 118.02 33.1715 118.096 33.4531 118.096ZM38.1945 115.933L38.1945 118.974H36.9714L36.9714 113.784H38.1404L38.1404 114.666H38.2013C38.3206 114.376 38.511 114.145 38.7723 113.974C39.0358 113.802 39.3613 113.717 39.7488 113.717C40.1069 113.717 40.4189 113.793 40.6847 113.947C40.9528 114.1 41.16 114.322 41.3064 114.612C41.4551 114.903 41.5283 115.255 41.5261 115.67L41.5261 118.974H40.3029L40.3029 115.859C40.3029 115.512 40.2128 115.241 40.0326 115.045C39.8547 114.849 39.608 114.751 39.2926 114.751C39.0786 114.751 38.8883 114.798 38.7216 114.893C38.5572 114.985 38.4276 115.119 38.333 115.295C38.2407 115.47 38.1945 115.683 38.1945 115.933ZM45.3983 113.784L45.3983 114.731H42.3302L42.3302 113.784H45.3983ZM43.0972 118.974L43.0972 113.294C43.0972 112.945 43.1693 112.655 43.3135 112.423C43.4599 112.191 43.6559 112.017 43.9014 111.902C44.1469 111.788 44.4195 111.73 44.7191 111.73C44.9308 111.73 45.1189 111.747 45.2834 111.781C45.4478 111.815 45.5694 111.845 45.6483 111.872L45.405 112.818C45.3532 112.802 45.2879 112.787 45.209 112.771C45.1302 112.753 45.0423 112.744 44.9455 112.744C44.718 112.744 44.5569 112.799 44.4623 112.909C44.3699 113.017 44.3238 113.173 44.3238 113.376L44.3238 118.974H43.0972ZM48.4587 119.076C47.9383 119.076 47.4889 118.968 47.1105 118.751C46.7343 118.533 46.4449 118.224 46.2421 117.826C46.0394 117.425 45.938 116.953 45.938 116.41C45.938 115.876 46.0394 115.407 46.2421 115.004C46.4471 114.599 46.7332 114.283 47.1004 114.058C47.4675 113.831 47.8989 113.717 48.3945 113.717C48.7143 113.717 49.0162 113.769 49.3 113.872C49.5861 113.974 49.8384 114.131 50.0569 114.345C50.2776 114.559 50.4511 114.832 50.5772 115.163C50.7034 115.492 50.7664 115.884 50.7664 116.339L50.7664 116.714H46.5124L46.5124 115.889H49.594C49.5917 115.655 49.541 115.447 49.4419 115.264C49.3428 115.08 49.2043 114.934 49.0263 114.828C48.8506 114.723 48.6456 114.67 48.4114 114.67C48.1613 114.67 47.9417 114.731 47.7525 114.852C47.5633 114.972 47.4157 115.129 47.3098 115.325C47.2062 115.519 47.1533 115.732 47.151 115.964L47.151 116.683C47.151 116.985 47.2062 117.244 47.3166 117.461C47.427 117.675 47.5813 117.839 47.7795 117.954C47.9777 118.067 48.2098 118.123 48.4756 118.123C48.6535 118.123 48.8146 118.098 48.9587 118.049C49.1029 117.997 49.2279 117.921 49.3338 117.822C49.4397 117.723 49.5196 117.6 49.5737 117.454L50.7157 117.582C50.6437 117.884 50.5063 118.148 50.3035 118.373C50.103 118.596 49.8462 118.769 49.5331 118.893C49.22 119.015 48.8619 119.076 48.4587 119.076ZM51.8012 118.974L51.8012 113.784H52.9872L52.9872 114.649H53.0413C53.1359 114.35 53.298 114.119 53.5278 113.957C53.7598 113.792 54.0245 113.71 54.3218 113.71C54.3894 113.71 54.4649 113.713 54.5482 113.72C54.6338 113.725 54.7048 113.733 54.7611 113.744L54.7611 114.869C54.7093 114.851 54.6271 114.835 54.5144 114.822C54.4041 114.806 54.2971 114.798 54.1934 114.798C53.9704 114.798 53.77 114.847 53.592 114.943C53.4163 115.038 53.2778 115.17 53.1764 115.339C53.075 115.508 53.0244 115.702 53.0244 115.923L53.0244 118.974H51.8012ZM57.6576 119.076C57.1373 119.076 56.6879 118.968 56.3095 118.751C55.9333 118.533 55.6438 118.224 55.4411 117.826C55.2384 117.425 55.137 116.953 55.137 116.41C55.137 115.876 55.2384 115.407 55.4411 115.004C55.6461 114.599 55.9322 114.283 56.2993 114.058C56.6665 113.831 57.0979 113.717 57.5934 113.717C57.9133 113.717 58.2151 113.769 58.499 113.872C58.785 113.974 59.0373 114.131 59.2558 114.345C59.4766 114.559 59.65 114.832 59.7762 115.163C59.9023 115.492 59.9654 115.884 59.9654 116.339L59.9654 116.714H55.7114L55.7114 115.889H58.7929C58.7907 115.655 58.74 115.447 58.6409 115.264C58.5418 115.08 58.4032 114.934 58.2253 114.828C58.0496 114.723 57.8446 114.67 57.6103 114.67C57.3603 114.67 57.1407 114.731 56.9514 114.852C56.7622 114.972 56.6147 115.129 56.5088 115.325C56.4052 115.519 56.3523 115.732 56.35 115.964L56.35 116.683C56.35 116.985 56.4052 117.244 56.5156 117.461C56.6259 117.675 56.7803 117.839 56.9785 117.954C57.1767 118.067 57.4087 118.123 57.6745 118.123C57.8525 118.123 58.0135 118.098 58.1577 118.049C58.3019 117.997 58.4269 117.921 58.5328 117.822C58.6386 117.723 58.7186 117.6 58.7727 117.454L59.9147 117.582C59.8426 117.884 59.7052 118.148 59.5025 118.373C59.302 118.596 59.0452 118.769 58.7321 118.893C58.419 119.015 58.0608 119.076 57.6576 119.076ZM62.2233 115.933L62.2233 118.974H61.0002L61.0002 113.784H62.1693L62.1693 114.666H62.2301C62.3495 114.376 62.5398 114.145 62.8011 113.974C63.0647 113.802 63.3902 113.717 63.7776 113.717C64.1358 113.717 64.4478 113.793 64.7136 113.947C64.9816 114.1 65.1888 114.322 65.3353 114.612C65.4839 114.903 65.5571 115.255 65.5549 115.67L65.5549 118.974H64.3317L64.3317 115.859C64.3317 115.512 64.2416 115.241 64.0614 115.045C63.8835 114.849 63.6368 114.751 63.3215 114.751C63.1075 114.751 62.9171 114.798 62.7504 114.893C62.586 114.985 62.4565 115.119 62.3619 115.295C62.2695 115.47 62.2233 115.683 62.2233 115.933ZM69.0622 119.076C68.5441 119.076 68.0992 118.962 67.7275 118.734C67.3581 118.507 67.0731 118.193 66.8727 117.792C66.6744 117.389 66.5753 116.925 66.5753 116.4C66.5753 115.873 66.6767 115.407 66.8794 115.004C67.0821 114.599 67.3682 114.283 67.7376 114.058C68.1093 113.831 68.5486 113.717 69.0554 113.717C69.4766 113.717 69.8494 113.795 70.1738 113.95C70.5004 114.103 70.7606 114.321 70.9543 114.602C71.148 114.881 71.2584 115.208 71.2855 115.582H70.1164C70.0691 115.332 69.9564 115.124 69.7785 114.957C69.6028 114.788 69.3674 114.703 69.0723 114.703C68.8223 114.703 68.6026 114.771 68.4134 114.906C68.2242 115.039 68.0767 115.231 67.9708 115.481C67.8672 115.731 67.8154 116.03 67.8154 116.379C67.8154 116.733 67.8672 117.037 67.9708 117.292C68.0744 117.544 68.2197 117.739 68.4067 117.876C68.5959 118.011 68.8178 118.079 69.0723 118.079C69.2525 118.079 69.4136 118.045 69.5555 117.978C69.6996 117.908 69.8202 117.808 69.917 117.677C70.0139 117.546 70.0803 117.387 70.1164 117.2H71.2855C71.2562 117.568 71.148 117.893 70.9611 118.177C70.7741 118.459 70.5196 118.679 70.1975 118.839C69.8753 118.997 69.4969 119.076 69.0622 119.076ZM74.5875 119.076C74.0671 119.076 73.6177 118.968 73.2393 118.751C72.8631 118.533 72.5736 118.224 72.3709 117.826C72.1682 117.425 72.0668 116.953 72.0668 116.41C72.0668 115.876 72.1682 115.407 72.3709 115.004C72.5759 114.599 72.862 114.283 73.2291 114.058C73.5963 113.831 74.0277 113.717 74.5233 113.717C74.8431 113.717 75.145 113.769 75.4288 113.872C75.7149 113.974 75.9672 114.131 76.1857 114.345C76.4064 114.559 76.5799 114.832 76.706 115.163C76.8321 115.492 76.8952 115.884 76.8952 116.339L76.8952 116.714H72.6412L72.6412 115.889H75.7228C75.7205 115.655 75.6698 115.447 75.5707 115.264C75.4716 115.08 75.3331 114.934 75.1551 114.828C74.9794 114.723 74.7744 114.67 74.5401 114.67C74.2901 114.67 74.0705 114.731 73.8813 114.852C73.6921 114.972 73.5445 115.129 73.4386 115.325C73.335 115.519 73.2821 115.732 73.2798 115.964L73.2798 116.683C73.2798 116.985 73.335 117.244 73.4454 117.461C73.5558 117.675 73.7101 117.839 73.9083 117.954C74.1065 118.067 74.3385 118.123 74.6043 118.123C74.7823 118.123 74.9434 118.098 75.0875 118.049C75.2317 117.997 75.3567 117.921 75.4626 117.822C75.5684 117.723 75.6484 117.6 75.7025 117.454L76.8445 117.582C76.7725 117.884 76.635 118.148 76.4323 118.373C76.2318 118.596 75.975 118.769 75.6619 118.893C75.3488 119.015 74.9907 119.076 74.5875 119.076ZM24.0979 130.974L24.0979 130.069L26.5002 127.714C26.73 127.482 26.9215 127.276 27.0746 127.095C27.2278 126.915 27.3427 126.741 27.4193 126.572C27.4959 126.403 27.5342 126.223 27.5342 126.031C27.5342 125.813 27.4846 125.626 27.3855 125.47C27.2864 125.313 27.1501 125.191 26.9767 125.105C26.8032 125.02 26.6061 124.977 26.3854 124.977C26.1578 124.977 25.9585 125.024 25.7873 125.119C25.6161 125.211 25.4832 125.343 25.3886 125.514C25.2962 125.685 25.2501 125.889 25.2501 126.126H24.0573C24.0573 125.686 24.1576 125.305 24.358 124.98C24.5585 124.656 24.8345 124.405 25.1859 124.227C25.5395 124.049 25.945 123.96 26.4023 123.96C26.8663 123.96 27.274 124.047 27.6254 124.22C27.9768 124.393 28.2494 124.631 28.4431 124.933C28.6391 125.235 28.7371 125.579 28.7371 125.967C28.7371 126.226 28.6875 126.48 28.5884 126.731C28.4893 126.981 28.3147 127.258 28.0647 127.562C27.8169 127.866 27.4688 128.234 27.0206 128.667L25.8278 129.88L25.8278 129.927H28.8418L28.8418 130.974H24.0979ZM32.5653 131.106C32.0089 131.106 31.5314 130.965 31.1327 130.684C30.7362 130.4 30.431 129.991 30.217 129.457C30.0053 128.921 29.8994 128.276 29.8994 127.521C29.9016 126.767 30.0086 126.125 30.2204 125.595C30.4344 125.064 30.7396 124.658 31.136 124.379C31.5348 124.099 32.0112 123.96 32.5653 123.96C33.1194 123.96 33.5959 124.099 33.9946 124.379C34.3933 124.658 34.6985 125.064 34.9102 125.595C35.1242 126.127 35.2312 126.769 35.2312 127.521C35.2312 128.278 35.1242 128.925 34.9102 129.461C34.6985 129.994 34.3933 130.402 33.9946 130.684C33.5981 130.965 33.1217 131.106 32.5653 131.106ZM32.5653 130.049C32.9978 130.049 33.3391 129.836 33.5891 129.41C33.8414 128.982 33.9675 128.352 33.9675 127.521C33.9675 126.972 33.9101 126.51 33.7952 126.136C33.6803 125.762 33.5181 125.48 33.3087 125.291C33.0992 125.1 32.8514 125.004 32.5653 125.004C32.1351 125.004 31.7949 125.218 31.5449 125.646C31.2949 126.072 31.1687 126.697 31.1665 127.521C31.1642 128.073 31.2194 128.537 31.332 128.913C31.4469 129.289 31.6091 129.573 31.8186 129.765C32.0281 129.954 32.277 130.049 32.5653 130.049ZM36.3539 130.974L36.3539 130.069L38.7562 127.714C38.986 127.482 39.1775 127.276 39.3306 127.095C39.4838 126.915 39.5987 126.741 39.6753 126.572C39.7519 126.403 39.7902 126.223 39.7902 126.031C39.7902 125.813 39.7406 125.626 39.6415 125.47C39.5424 125.313 39.4061 125.191 39.2327 125.105C39.0592 125.02 38.8621 124.977 38.6414 124.977C38.4138 124.977 38.2145 125.024 38.0433 125.119C37.8721 125.211 37.7392 125.343 37.6446 125.514C37.5522 125.685 37.5061 125.889 37.5061 126.126H36.3133C36.3133 125.686 36.4136 125.305 36.614 124.98C36.8145 124.656 37.0905 124.405 37.4419 124.227C37.7955 124.049 38.201 123.96 38.6583 123.96C39.1223 123.96 39.53 124.047 39.8814 124.22C40.2328 124.393 40.5054 124.631 40.6991 124.933C40.8951 125.235 40.9931 125.579 40.9931 125.967C40.9931 126.226 40.9435 126.48 40.8444 126.731C40.7453 126.981 40.5707 127.258 40.3207 127.562C40.0729 127.866 39.7248 128.234 39.2766 128.667L38.0838 129.88L38.0838 129.927H41.0978L41.0978 130.974H36.3539ZM44.6693 131.069C44.2187 131.069 43.8155 130.985 43.4596 130.816C43.1037 130.644 42.821 130.41 42.6115 130.113C42.4043 129.815 42.2939 129.475 42.2804 129.092H43.4968C43.5193 129.376 43.6421 129.608 43.8651 129.788C44.0881 129.966 44.3562 130.055 44.6693 130.055C44.9148 130.055 45.1333 129.999 45.3248 129.886C45.5162 129.774 45.6672 129.617 45.7775 129.417C45.8879 129.216 45.942 128.988 45.9397 128.731C45.942 128.47 45.8868 128.237 45.7741 128.035C45.6615 127.832 45.5072 127.673 45.3112 127.558C45.1153 127.441 44.89 127.383 44.6355 127.383C44.4282 127.38 44.2244 127.419 44.0239 127.498C43.8234 127.576 43.6646 127.68 43.5475 127.808L42.4156 127.623L42.7771 124.054H46.7912L46.7912 125.102H43.8144L43.6151 126.937H43.6556C43.784 126.786 43.9653 126.661 44.1996 126.562C44.4339 126.46 44.6907 126.41 44.97 126.41C45.389 126.41 45.7629 126.509 46.0918 126.707C46.4206 126.903 46.6797 127.173 46.8689 127.518C47.0581 127.862 47.1527 128.257 47.1527 128.7C47.1527 129.158 47.0469 129.565 46.8351 129.924C46.6256 130.279 46.3339 130.56 45.96 130.765C45.5883 130.968 45.1581 131.069 44.6693 131.069Z" fill="#3A559E"/>
<path fill-rule="evenodd" clip-rule="evenodd" d="M80.1266 196.773C80.0837 197.048 80.0837 197.377 80.0837 198.036V217.27C80.0837 230.816 91.2661 241.797 105.06 241.797C118.855 241.797 130.037 230.816 130.037 217.27V198.036C130.037 197.377 130.037 197.048 129.994 196.773C129.747 195.188 128.481 193.944 126.867 193.702C126.586 193.659 126.251 193.659 125.581 193.659H122.376L112.281 209.469C111.921 210.034 111.922 210.752 112.284 211.315L122.437 227.127H111.139L106 219.115C105.797 218.799 105.444 218.607 105.064 218.607C104.68 218.607 104.324 218.803 104.122 219.124L99.1044 227.127H87.6836L97.7812 211.311C98.1399 210.75 98.1409 210.036 97.7836 209.473L87.745 193.659H84.5401C83.8698 193.659 83.5347 193.659 83.2541 193.702C81.64 193.944 80.3734 195.188 80.1266 196.773ZM99.1044 193.659L104.121 201.541C104.323 201.859 104.678 202.052 105.06 202.052C105.442 202.052 105.797 201.859 106 201.541L111.016 193.659H99.1044Z" fill="white"/>
<path d="M75.4518 286.944H70.9954V274.373H75.4886C76.7531 274.373 77.8416 274.624 78.7541 275.128C79.6667 275.627 80.3685 276.345 80.8595 277.282C81.3547 278.219 81.6022 279.34 81.6022 280.646C81.6022 281.955 81.3547 283.081 80.8595 284.022C80.3685 284.963 79.6626 285.685 78.7418 286.189C77.8252 286.692 76.7285 286.944 75.4518 286.944ZM73.6533 284.666H75.3413C76.127 284.666 76.7878 284.527 77.3239 284.249C77.8641 283.967 78.2692 283.531 78.5393 282.941C78.8134 282.348 78.9505 281.583 78.9505 280.646C78.9505 279.717 78.8134 278.958 78.5393 278.369C78.2692 277.779 77.8661 277.346 77.3301 277.067C76.794 276.789 76.1331 276.65 75.3474 276.65H73.6533V284.666ZM83.5711 286.944V274.373H92.0418V276.564H86.2289V279.559H91.606V281.751H86.2289V284.752H92.0663V286.944H83.5711ZM100.974 277.988C100.925 277.493 100.715 277.108 100.342 276.834C99.9698 276.56 99.4644 276.423 98.826 276.423C98.3922 276.423 98.026 276.484 97.7273 276.607C97.4286 276.726 97.1994 276.891 97.0398 277.104C96.8843 277.317 96.8065 277.558 96.8065 277.828C96.7984 278.053 96.8454 278.25 96.9477 278.418C97.0541 278.585 97.1994 278.731 97.3835 278.853C97.5677 278.972 97.7805 279.076 98.0219 279.167C98.2633 279.252 98.5212 279.326 98.7953 279.387L99.9248 279.658C100.473 279.78 100.976 279.944 101.435 280.149C101.893 280.353 102.29 280.605 102.626 280.904C102.961 281.202 103.221 281.554 103.405 281.959C103.593 282.365 103.69 282.829 103.694 283.353C103.69 284.122 103.493 284.789 103.104 285.354C102.72 285.914 102.163 286.35 101.435 286.661C100.71 286.968 99.8368 287.122 98.8137 287.122C97.7989 287.122 96.915 286.966 96.162 286.655C95.4132 286.344 94.828 285.884 94.4065 285.274C93.9891 284.66 93.7702 283.901 93.7497 282.997H96.3216C96.3503 283.418 96.471 283.77 96.6838 284.053C96.9007 284.331 97.1892 284.542 97.5493 284.685C97.9135 284.824 98.3247 284.893 98.783 284.893C99.2332 284.893 99.624 284.828 99.9554 284.697C100.291 284.566 100.551 284.384 100.735 284.151C100.919 283.917 101.011 283.649 101.011 283.347C101.011 283.064 100.927 282.827 100.76 282.635C100.596 282.442 100.354 282.279 100.035 282.144C99.7201 282.008 99.3334 281.886 98.8751 281.775L97.5063 281.432C96.4464 281.174 95.6096 280.771 94.9958 280.222C94.382 279.674 94.0771 278.935 94.0812 278.006C94.0771 277.245 94.2797 276.58 94.6889 276.011C95.1022 275.443 95.6689 274.999 96.3892 274.679C97.1094 274.36 97.9278 274.201 98.8444 274.201C99.7774 274.201 100.592 274.36 101.287 274.679C101.987 274.999 102.531 275.443 102.92 276.011C103.309 276.58 103.509 277.239 103.522 277.988H100.974ZM108.139 274.373V286.944H105.481V274.373H108.139ZM118.662 278.436C118.576 278.137 118.455 277.873 118.299 277.644C118.144 277.411 117.954 277.215 117.729 277.055C117.508 276.891 117.254 276.766 116.967 276.681C116.685 276.595 116.372 276.552 116.028 276.552C115.386 276.552 114.821 276.711 114.334 277.03C113.851 277.35 113.475 277.814 113.205 278.424C112.935 279.029 112.8 279.77 112.8 280.646C112.8 281.522 112.933 282.266 113.199 282.88C113.465 283.494 113.841 283.962 114.328 284.286C114.815 284.605 115.39 284.765 116.053 284.765C116.654 284.765 117.168 284.658 117.594 284.445C118.023 284.228 118.351 283.924 118.576 283.531C118.805 283.138 118.919 282.673 118.919 282.137L119.46 282.217H116.219V280.216H121.479V281.8C121.479 282.905 121.246 283.854 120.779 284.648C120.313 285.438 119.67 286.047 118.852 286.477C118.033 286.903 117.096 287.115 116.041 287.115C114.862 287.115 113.827 286.856 112.935 286.336C112.043 285.812 111.347 285.069 110.848 284.108C110.353 283.142 110.105 281.996 110.105 280.67C110.105 279.651 110.252 278.743 110.547 277.945C110.846 277.143 111.263 276.464 111.799 275.907C112.335 275.351 112.959 274.927 113.671 274.637C114.383 274.346 115.155 274.201 115.985 274.201C116.697 274.201 117.36 274.305 117.974 274.514C118.588 274.718 119.132 275.009 119.607 275.385C120.086 275.762 120.476 276.21 120.779 276.73C121.082 277.245 121.276 277.814 121.362 278.436H118.662ZM133.99 274.373V286.944H131.695L126.225 279.031H126.133V286.944H123.475V274.373H125.808L131.234 282.279H131.345V274.373H133.99Z" fill="#3A5E9E"/>
<path d="M148.277 296.903H155.442C160.133 296.903 162.436 299.146 162.436 303.267V316.288C162.436 320.408 160.133 322.652 155.442 322.652H148.277V296.903ZM155.357 318.973C156.85 318.973 157.746 318.311 157.746 316.472V303.083C157.746 301.243 156.85 300.581 155.357 300.581H152.968V318.973H155.357Z" fill="#3A559E"/>
<path d="M132.861 293.341H127.274V289.137H143.793V293.341H138.206V318.565H132.861V293.341Z" fill="#3A559E"/>
<path d="M147.907 310.335C149.675 310.335 152.52 310.368 154.288 310.368C154.788 310.368 154.828 310.344 154.904 309.918C154.937 309.729 154.968 309.543 155.03 309.358C155.114 309.114 155.238 309.134 155.381 309.299C155.625 309.58 155.857 309.869 156.087 310.16C156.454 310.623 156.815 311.091 157.177 311.558C157.277 311.687 157.265 311.812 157.136 311.92C156.553 312.407 156.009 312.928 155.408 313.402C155.1 313.644 154.78 313.885 154.498 314.155C154.427 314.223 154.352 314.317 154.222 314.249C154.105 314.188 154.122 314.08 154.151 313.99C154.213 313.801 154.181 313.609 154.198 313.419C154.222 313.155 154.076 313.063 153.786 313.065C152.535 313.07 150.206 313.025 148.954 313.037C148.481 313.041 148.013 312.976 147.542 312.985C146.259 313.01 144.977 313.034 143.693 313.037C142.234 313.039 140.777 312.948 139.317 312.982C138.981 312.99 138.646 313.075 138.306 312.985C138.166 312.948 138.117 312.917 138.131 312.773C138.205 312.013 138.402 311.272 138.55 310.522C138.649 310.024 138.721 309.524 138.812 309.025C138.929 308.387 139.056 307.752 139.175 307.115C139.277 306.572 139.332 306.018 139.486 305.485C139.679 304.82 139.683 304.13 139.896 303.466C140.056 302.964 140.058 302.425 140.205 301.919C140.352 301.419 140.289 300.9 140.487 300.401C140.64 300.015 140.637 299.582 140.712 299.172C140.809 298.638 140.916 298.106 141.019 297.572C141.021 297.563 141.026 297.553 141.029 297.544C141.195 296.721 141.195 296.716 142.166 296.704C142.977 296.695 143.657 296.708 144.468 296.743C145.617 296.792 146.901 296.643 148.052 296.721C148.466 296.749 148.879 296.775 149.296 296.708C149.41 296.691 149.533 296.731 149.652 296.731C149.977 296.731 149.998 296.902 149.939 297.114C149.789 297.65 149.681 298.194 149.629 298.742C149.582 299.234 149.393 299.4 148.835 299.4C147.396 299.4 145.957 299.405 144.518 299.394C144.251 299.392 144.14 299.482 144.102 299.694C144.01 300.201 143.894 300.707 143.818 301.215C143.731 301.793 143.612 302.363 143.454 302.928C143.385 303.173 143.55 303.203 143.766 303.201C144.832 303.199 145.898 303.199 146.963 303.2C147.43 303.2 147.437 303.229 147.401 303.62C147.352 304.133 147.209 304.632 147.181 305.147C147.17 305.348 147.067 305.549 146.989 305.745C146.919 305.921 146.731 305.898 146.57 305.898C145.483 305.901 144.395 305.911 143.308 305.894C142.994 305.889 142.856 305.993 142.838 306.243C142.776 307.149 142.407 308.013 142.362 308.925C142.347 309.244 142.219 309.559 142.14 309.875C142.044 310.263 142.102 310.329 142.564 310.329C144.343 310.331 146.122 310.329 147.902 310.329L147.907 310.335Z" fill="#66BFFF"/>
<path d="M135.044 316.377C135.009 316.32 134.95 316.32 134.876 316.319C134.334 316.315 133.794 316.303 133.25 316.296C133.099 316.294 132.983 316.242 132.949 316.115C132.786 315.482 132.619 314.849 132.469 314.213C132.372 313.795 132.344 313.359 132.218 312.957C132.028 312.355 131.935 311.74 131.748 311.14C131.575 310.577 131.508 309.991 131.375 309.418C131.163 308.514 130.955 307.608 130.712 306.709C130.578 306.213 130.543 305.702 130.354 305.214C130.263 304.978 130.268 304.719 130.641 304.608C130.763 304.571 130.864 304.483 130.973 304.419C131.958 303.865 132.55 303.053 132.976 302.144C133.255 301.546 133.416 300.918 133.555 300.283C133.729 299.498 133.732 298.711 133.589 297.934C133.408 296.955 132.793 296.203 131.721 295.778C130.845 295.432 129.907 295.288 128.948 295.275C127.881 295.261 126.813 295.271 125.745 295.271C125.166 295.271 124.588 295.267 124.01 295.271C123.817 295.271 123.61 295.296 123.591 295.511C123.542 296.08 123.38 296.633 123.278 297.192C123.108 298.125 122.9 299.052 122.744 299.987C122.694 300.282 122.523 300.557 122.532 300.846C122.557 301.642 122.2 302.386 122.134 303.171C122.095 303.628 121.916 304.075 121.822 304.53C121.779 304.744 121.842 304.98 121.768 305.182C121.544 305.807 121.447 306.455 121.339 307.094C121.166 308.111 120.857 309.108 120.757 310.132C120.703 310.701 120.448 311.235 120.431 311.808C120.42 312.169 120.459 312.233 120.871 312.235C121.252 312.235 121.632 312.235 122.014 312.233C122.478 312.233 122.943 312.232 123.408 312.236C124.025 312.241 124.144 312.113 124.167 311.622C124.212 310.697 124.596 309.826 124.639 308.905C124.659 308.476 124.829 308.05 124.899 307.625C124.999 307.005 125.147 306.394 125.272 305.78C125.303 305.632 125.405 305.55 125.597 305.554C125.908 305.559 126.222 305.567 126.531 305.546C126.93 305.519 127.04 305.584 127.052 305.928C127.06 306.139 127.12 306.336 127.191 306.537C127.282 306.798 127.373 307.07 127.38 307.337C127.387 307.781 127.552 308.197 127.648 308.621C127.795 309.272 127.966 309.921 128.097 310.571C128.253 311.354 128.431 312.13 128.616 312.906C128.679 313.165 128.769 313.425 128.784 313.686C128.826 314.402 129.118 315.076 129.24 315.781C129.309 316.189 129.274 316.292 128.784 316.298C128.327 316.302 127.872 316.298 127.415 316.3C127.302 316.3 127.177 316.316 127.142 316.423C127.108 316.521 127.211 316.578 127.295 316.623C127.591 316.791 127.858 316.992 128.139 317.177C129.065 317.789 130.004 318.386 130.953 318.973C131.213 319.131 131.406 319.409 131.795 319.38C132 319.196 132.19 318.996 132.412 318.831C132.593 318.698 132.662 318.465 132.925 318.409C132.929 318.311 133.013 318.259 133.082 318.199C133.459 317.874 133.837 317.551 134.214 317.229C134.465 317.013 134.715 316.796 134.966 316.581C135.029 316.525 135.097 316.468 135.04 316.382L135.044 316.377ZM129.677 301.254C129.521 301.664 129.376 302.079 128.985 302.393C128.477 302.803 127.878 302.955 127.199 302.926C127.109 302.922 127.021 302.926 126.932 302.926C126.699 302.926 126.464 302.929 126.233 302.926C125.884 302.921 125.782 302.842 125.871 302.569C126.053 302.029 126.015 301.46 126.192 300.923C126.385 300.345 126.345 299.734 126.54 299.163C126.652 298.83 126.668 298.492 126.731 298.157C126.774 297.93 126.895 297.808 127.2 297.831C127.793 297.874 128.402 297.75 128.984 297.939C129.703 298.174 129.947 298.42 129.998 299.044C130.06 299.797 129.95 300.538 129.677 301.256V301.254Z" fill="#66BFFF"/>
<path d="M119.843 307.921C119.77 306.187 119.825 304.451 119.825 302.714C119.721 301.887 119.741 301.057 119.704 300.228C119.631 298.579 119.642 296.929 119.623 295.278C119.615 294.639 119.612 294 119.623 293.36C119.628 293.14 119.51 293.027 119.273 293.031C117.958 293.05 116.638 292.969 115.325 293.077C115.235 293.085 115.134 293.08 115.091 293.162C114.967 293.405 114.798 293.642 114.744 293.897C114.6 294.595 114.212 295.221 113.956 295.885C113.665 296.645 113.306 297.393 113.016 298.151C112.644 299.131 112.212 300.089 111.824 301.061C111.517 301.83 111.213 302.601 110.895 303.368C110.509 304.297 110.077 305.214 109.748 306.162C109.581 306.647 109.346 307.115 109.142 307.591C109.036 307.835 109.146 307.923 109.435 307.92C110.395 307.916 111.356 307.916 112.317 307.92C112.516 307.92 112.62 307.864 112.68 307.699C112.863 307.203 113.068 306.714 113.251 306.218C113.319 306.035 113.429 305.959 113.661 305.962C114.421 305.973 115.181 305.975 115.939 305.959C116.254 305.954 116.341 306.053 116.339 306.311C116.327 307.819 116.336 309.328 116.321 310.835C116.317 311.082 116.316 311.326 116.325 311.571C116.33 311.737 116.403 311.816 116.604 311.816C117.583 311.816 118.564 311.812 119.543 311.82C119.871 311.823 119.961 311.692 119.958 311.431C119.943 310.26 119.893 309.089 119.843 307.919V307.921ZM116.421 302.64C116.44 303.018 116.31 303.106 115.874 303.106C115.528 303.106 115.183 303.098 114.837 303.106C114.553 303.113 114.465 302.996 114.548 302.786C114.806 302.136 115.113 301.497 115.33 300.837C115.514 300.273 115.752 299.724 115.935 299.161C116.003 298.953 116.105 298.753 116.159 298.539C116.179 298.465 116.224 298.355 116.353 298.379C116.477 298.403 116.459 298.51 116.459 298.595C116.459 298.986 116.459 299.377 116.459 299.931C116.513 300.725 116.37 301.68 116.417 302.638L116.421 302.64Z" fill="#3A559E"/>
<path d="M111.127 313.702V312.211H106.453V322.651H101.939V312.212H97.0968V322.651H92.5833V296.902H97.0968V308.235H101.939V296.902H106.453V308.235H111.127V306.743L114.058 310.574L111.127 313.702Z" fill="#66BFFF"/>
<path d="M90.5625 297.107C91.3357 297.102 92.1089 297.165 92.8195 297.423C93.5499 297.688 94.1322 298.152 94.5234 298.762C95.0001 299.507 95.1132 300.311 94.9436 301.145C94.8611 301.55 94.832 301.96 94.719 302.361C94.6273 302.682 94.7128 302.746 95.0995 302.749C95.2752 302.75 95.4524 302.746 95.6282 302.752C95.7199 302.754 95.8406 302.71 95.8803 302.828C95.9109 302.918 95.8146 302.961 95.755 303.014C95.3042 303.409 94.8534 303.803 94.4042 304.197C93.7914 304.734 93.1786 305.272 92.5643 305.808C92.2282 306.102 92.1426 306.1 91.8996 305.755C91.2547 304.837 90.6237 303.912 89.9742 302.997C89.8138 302.77 89.9482 302.752 90.1515 302.75C90.4158 302.748 90.6802 302.748 90.9445 302.748C91.0714 302.748 91.2211 302.73 91.2334 302.607C91.3082 301.882 91.6612 301.178 91.4534 300.431C91.3678 300.126 91.0714 299.861 90.7184 299.813C89.4531 299.64 88.9244 300.137 88.6356 301.233C88.3728 302.227 88.2429 303.245 87.9877 304.241C87.8181 304.902 87.7371 305.579 87.5812 306.242C87.4177 306.942 87.2955 307.649 87.1365 308.35C87.0311 308.813 86.9623 309.294 86.863 309.76C86.7194 310.444 86.5773 311.129 86.4229 311.811C86.2075 312.755 86.047 313.709 85.8484 314.658C85.5794 315.943 85.2906 317.227 85.0278 318.514C84.9651 318.823 84.8826 319.139 84.9437 319.455C85.0415 319.962 85.4251 320.202 86.0531 320.178C87.0464 320.141 87.5736 319.724 87.8165 318.869C88.006 318.201 88.1069 317.521 88.2933 316.853C88.3315 316.717 88.4186 316.688 88.5516 316.688C89.5097 316.688 90.4678 316.688 91.4244 316.691C91.5589 316.691 91.6673 316.72 91.6414 316.873C91.4595 317.959 91.3526 319.066 90.8651 320.088C90.3471 321.171 89.4944 321.999 88.2001 322.444C87.2297 322.777 86.2228 322.915 85.2005 322.833C83.9092 322.731 82.7433 322.371 82.0098 321.332C81.5407 320.666 81.4398 319.941 81.5116 319.184C81.6339 317.898 82.0098 316.647 82.239 315.376C82.4147 314.406 82.6394 313.444 82.8289 312.477C82.9771 311.727 83.1329 310.975 83.2903 310.225C83.4401 309.513 83.6479 308.807 83.7549 308.09C83.8191 307.656 83.9627 307.237 84.0116 306.799C84.0758 306.222 84.2469 305.655 84.3707 305.082C84.47 304.622 84.5632 304.161 84.6626 303.702C84.7772 303.166 84.9116 302.635 85.0064 302.096C85.1072 301.522 85.1989 300.941 85.3915 300.388C85.8056 299.207 86.5192 298.196 87.8364 297.613C88.6891 297.236 89.6166 297.119 90.564 297.11L90.5625 297.107Z" fill="#3A559E"/>
<path d="M83.143 300.377L80.2377 322.675H76.23L71.4556 306.12H71.3848L71.3632 325.428H74.0407L69.9098 329.191L65.2078 325.428H67.8867L67.9083 300.377H72.8043L77.8836 315.876L79.6665 300.377H83.143Z" fill="#66BFFF"/>
<path d="M65.6797 296.848V316.256C65.6797 320.327 63.3064 322.652 58.7269 322.652C54.1474 322.652 51.7725 320.325 51.7725 316.256L51.8546 290.656L49.1604 290.677L51.8621 288.465L52.3016 288.105L54.5366 286.276L56.4782 288.105L56.5268 288.151L59.1206 290.597L56.5177 290.618L56.4356 316.545C56.4356 318.364 57.3266 319.018 58.8105 319.018C60.2944 319.018 61.1838 318.364 61.1838 316.545V296.848H65.6767H65.6797Z" fill="#3A559E"/>
<defs>
<clipPath id="clip0_5_809">
<rect width="34.7898" height="34.7898" fill="white" transform="translate(135.741 107.949) rotate(-0.0354557)"/>
</clipPath>
</defs>
</svg>
