<svg width="231" height="359" viewBox="0 0 231 359" fill="none" xmlns="http://www.w3.org/2000/svg">
<rect width="230.473" height="358.598" rx="6.64187" fill="#DAEFFF"/>
<path d="M14.8086 340.27C24.224 340.27 33.5753 341.126 42.9874 341.126C54.1304 341.126 65.2253 340.567 76.3472 339.921C81.4445 339.625 86.5442 339.699 91.649 339.699C98.7985 339.699 105.827 339.412 112.96 338.986C118.42 338.659 123.844 339.128 129.271 339.128C132.114 339.128 134.985 339.699 137.871 339.699C153.503 339.699 169.028 338.558 184.65 338.558C194.665 338.558 204.58 339.128 214.606 339.128" stroke="#102057" stroke-width="3.98512" stroke-linecap="round"/>
<path d="M14.7021 16.1992C20.5882 16.1992 26.5267 15.7933 32.447 15.7933C36.3418 15.7933 40.3924 15.4349 44.2703 15.8835C49.1195 16.4444 53.9891 17.1921 58.857 17.4392C84.938 18.7632 111.059 17.7702 137.12 15.8835C145.808 15.2545 154.69 15.7933 163.411 15.7933C170.905 15.7933 178.313 17.0108 185.775 17.0108C195.495 17.0108 205.318 17.4167 215.087 17.4167" stroke="#102057" stroke-width="3.98512" stroke-linecap="round"/>
<path d="M213.959 18.9856C213.959 28.8284 214.487 38.7688 214.487 48.5215C214.487 52.4449 215.014 56.5162 215.014 60.5455C215.014 72.0655 214.509 83.7768 215.043 95.2919C215.686 109.171 216.068 122.935 216.068 136.883C216.068 148.246 213.959 159.232 213.959 170.488C213.959 175.968 214.261 182.035 215.277 187.384C215.89 190.608 215.541 194.131 215.541 197.404C215.541 202.586 215.914 207.936 215.424 213.096C214.52 222.608 214.487 232.744 214.487 242.293C214.487 249.826 214.487 257.359 214.487 264.892C214.487 287.811 215.014 356.563 215.014 333.645" stroke="#102057" stroke-width="3.98512" stroke-linecap="round"/>
<path d="M13.8591 338.696C14.2543 330.793 16.4127 323.381 16.4127 315.463C16.4127 307.242 16.9234 299.09 16.9234 290.826C16.9234 262.885 16.9234 234.943 16.9234 207.002C16.9234 164.305 17.4342 121.692 17.4342 79.0112C17.4342 63.7758 16.9234 48.5872 16.9234 33.3813C16.9234 28.1739 15.902 23.2833 15.902 18.3306" stroke="#102057" stroke-width="3.98512" stroke-linecap="round"/>
<path d="M18.2178 62.9866C25.1185 62.9866 31.9957 62.4089 38.8956 62.3391C43.8656 62.2888 48.7872 61.6916 53.7802 61.6916C60.9253 61.6916 67.8984 60.1292 75.022 60.0728C84.459 59.9981 93.9579 59.7325 103.356 60.6484C111.599 61.4517 119.528 61.0441 127.793 61.0441C147.491 61.0441 167.168 61.3678 186.853 61.3678C193.199 61.3678 199.526 61.5634 205.856 61.6916C208.569 61.7465 210.878 62.3391 213.546 62.3391" stroke="#102057" stroke-width="2.65675" stroke-linecap="round"/>
<path d="M41.8535 29.2879C35.8497 29.2879 33.5254 36.378 34.6115 41.7127C35.4715 45.9369 38.0601 48.7569 41.4433 50.8997C45.3183 53.354 51.2982 54.5696 55.389 52.1408C60.4482 49.1372 63.6158 43.9824 63.0412 37.733C62.6133 33.0793 58.9487 28.4784 54.9019 26.7517C53.3327 26.0821 51.6701 25.6087 49.9799 25.4566C48.6725 25.339 46.574 25.0381 45.3656 25.6994C44.6643 26.0832 42.4147 27.1354 42.0842 27.8309" stroke="#102057" stroke-width="2.65675" stroke-linecap="round"/>
<path d="M176.436 45.829H198.701" stroke="#102057" stroke-width="2.65675" stroke-linecap="round"/>
<path d="M175.257 39.1073H198.693" stroke="#102057" stroke-width="2.65675" stroke-linecap="round"/>
<path d="M175.772 32.5452H199.019" stroke="#102057" stroke-width="2.65675" stroke-linecap="round"/>
<path d="M42.0453 88.7655C42.0453 97.4338 39.0585 115.464 50.7082 116.643C51.5361 116.727 53.5467 117.152 54.1197 116.239C55.4978 114.045 56.0466 110.922 56.8796 108.453C58.7365 102.95 58.4736 97.0667 58.9494 91.3071" stroke="#102057" stroke-width="3.98512" stroke-linecap="round"/>
<path d="M67.2288 89.5665C67.7636 92.1934 69.806 94.8647 71.0236 97.1712C72.8232 100.581 74.9418 103.473 77.2332 106.511C79.5798 109.622 81.7584 113.29 84.8228 115.709" stroke="#102057" stroke-width="3.98512" stroke-linecap="round"/>
<path d="M79.9933 91.0189C79.9933 93.7604 78.7732 96.071 77.6551 98.4824C76.26 101.491 75.2961 104.688 73.7836 107.64C72.3959 110.349 70.8643 112.981 69.3755 115.628C68.9653 116.358 68.6089 117.032 68.6089 117.888" stroke="#102057" stroke-width="3.98512" stroke-linecap="round"/>
<path d="M113.457 89.9296C107.337 89.9296 106.329 102.702 107.132 107.237C107.917 111.67 109.81 116.951 114.338 118.392C115.847 118.872 121.391 119.658 121.391 116.798" stroke="#102057" stroke-width="3.98512" stroke-linecap="round"/>
<path d="M125.186 90.2927C125.186 95.2907 125.471 100.062 126.029 105.018C126.274 107.19 126.3 109.361 126.566 111.533C126.704 112.656 127.201 113.894 127.256 114.983C127.411 118.091 131.259 117.04 133.6 117.323C137.307 117.771 141.119 117.524 144.85 117.524" stroke="#102057" stroke-width="3.98512" stroke-linecap="round"/>
<path d="M146.575 91.382C146.575 96.2207 146.733 100.775 147.61 105.542C148.436 110.037 148.925 114.586 152.363 117.766C153.956 119.24 156.06 121.087 158.323 120.147C161.608 118.782 163.481 114.198 163.977 110.827C164.529 107.079 164.64 103.354 164.322 99.5717C164.202 98.1403 164.455 94.2246 163.479 93.1974" stroke="#102057" stroke-width="3.98512" stroke-linecap="round"/>
<path d="M170.724 91.0189C170.724 100.335 171.069 109.696 171.069 118.977" stroke="#102057" stroke-width="3.98512" stroke-linecap="round"/>
<path d="M170.724 91.6009C172.534 89.8963 176.653 90.1366 178.927 90.5924C181.653 91.139 181.488 95.2776 181.418 97.4104C181.334 99.9628 179.182 103.163 177.202 104.672C176.433 105.258 175.707 105.898 174.94 106.488C174.072 107.156 176.366 106.351 176.512 106.326C179.734 105.774 184.882 104.728 187.455 107.436C190.131 110.252 189.45 112.844 187.11 115.545C184.884 118.115 181.342 119.532 178.122 120.083C176.656 120.334 171.697 121.18 171.069 119.196" stroke="#102057" stroke-width="3.98512" stroke-linecap="round"/>
<path d="M128.669 157.414C138.912 157.414 149.068 158.2 159.287 158.689C165.248 158.974 171.212 158.961 177.189 158.961C182.749 158.961 193.853 158.187 193.853 158.187" stroke="#102057" stroke-width="2.65675" stroke-linecap="round"/>
<path d="M128.669 170.052C133.044 170.052 137.418 170.052 141.793 170.052C145.645 170.052 149.433 170.593 153.27 170.811C157.691 171.062 162.184 170.825 166.611 170.825C168.231 170.825 169.851 170.825 171.472 170.825C172.671 170.825 174.078 170.607 175.256 170.883C175.701 170.987 174.841 171.083 174.739 171.083" stroke="#102057" stroke-width="2.65675" stroke-linecap="round"/>
<path d="M127.934 182.174C133.851 182.174 139.769 182.174 145.687 182.174C153.135 182.174 160.554 182.69 168 182.69C172.745 182.69 177.664 182.947 182.336 182.947" stroke="#102057" stroke-width="2.65675" stroke-linecap="round"/>
<path d="M127.689 194.811C134.061 194.811 140.442 195.069 146.803 195.069" stroke="#102057" stroke-width="2.65675" stroke-linecap="round"/>
<path d="M127.199 205.644C136.272 205.644 145.276 204.87 154.345 204.87C159.322 204.87 164.274 204.985 169.239 205.128C170.75 205.172 172.234 205.386 173.759 205.386" stroke="#102057" stroke-width="2.65675" stroke-linecap="round"/>
<path d="M18.1687 243.445C22.0916 243.445 25.8229 244.269 29.7386 244.269C36.379 244.269 43.0194 244.269 49.6597 244.269C56.3862 244.269 63.0117 245.093 69.7331 245.093C79.8437 245.093 89.9276 244.681 100.028 244.681C109.783 244.681 119.535 243.961 129.301 243.857C138.801 243.756 148.321 242.209 157.834 242.209C162.894 242.209 167.954 242.209 173.014 242.209C179.306 242.209 185.485 241.348 191.761 240.973C197.508 240.63 203.157 240.278 208.855 239.416C210.665 239.143 212.462 238.913 214.292 238.913" stroke="#102057" stroke-width="2.65675" stroke-linecap="round"/>
<path d="M30.8466 307.341C30.8466 295.102 29.6377 282.993 29.6377 270.76C29.6377 268.274 29.6377 265.788 29.6377 263.302C29.6377 262.095 40.8562 262.83 42.0462 262.966C50.6352 263.949 60.2076 264.2 68.7607 262.648C69.4855 262.516 74.1938 262.213 73.9995 262.878C72.5985 267.67 73.4622 273.626 73.4622 278.641C73.4622 283.394 73.7644 288.123 73.7644 292.868C73.7644 295.657 74.1608 298.801 73.6973 301.545C73.5242 302.57 73.5519 309.25 72.6898 309.25C68.3564 309.25 64.1452 310.162 59.8279 310.452C53.1497 310.899 46.5044 311.159 39.813 311.159C37.9101 311.159 36.0071 311.159 34.1041 311.159C32.6013 311.159 31.7534 311.151 31.7534 309.568" stroke="#102057" stroke-width="2.65675" stroke-linecap="round"/>
<path d="M33.2646 324.201C45.993 324.201 58.6227 322.928 71.3466 322.928" stroke="#102057" stroke-width="2.65675" stroke-linecap="round"/>
<path d="M93.7118 310.204C93.7118 300.566 93.6653 291.03 92.654 281.451C92.0777 275.992 92.2535 270.409 91.613 265.016C91.5537 264.517 91.2939 264.065 91.2939 263.602C91.2939 262.695 97.6802 263.125 98.5477 263.125C104.026 263.125 109.407 263.301 114.869 263.761C121.379 264.309 127.816 263.761 134.329 263.761C136.427 263.761 136.63 263.56 136.63 265.952C136.63 272.703 136.991 279.445 136.932 286.205C136.872 292.971 135.118 299.606 135.118 306.387C135.118 307.478 135.24 308.66 135.118 309.744C135.002 310.785 126.344 310.302 125.212 310.363C119.223 310.688 113.24 310.84 107.245 310.84C102.835 310.84 98.4245 310.84 94.0141 310.84" stroke="#102057" stroke-width="2.65675" stroke-linecap="round"/>
<path d="M95.5254 322.928C108.303 322.928 121.183 322.928 133.91 322.928" stroke="#102057" stroke-width="2.65675" stroke-linecap="round"/>
<path d="M158.391 309.568C158.391 299.048 157.807 288.839 156.729 278.394C156.425 275.454 156.578 272.441 156.578 269.487C156.578 268.787 156.762 267.737 156.427 267.101C156.195 266.664 155.973 266.511 155.973 265.988C155.973 264.681 161.892 265.352 162.757 265.352C167.895 265.352 172.972 264.48 178.137 264.733C184.236 265.032 190.38 265.988 196.473 265.988C197.718 265.988 199.193 265.432 199.193 267.013C199.193 272.279 199.193 277.546 199.193 282.812C199.193 290.324 198.589 297.77 198.589 305.291C198.589 306.432 199.209 309.992 198.522 311.017C197.923 311.909 192.624 311.159 191.553 311.159C186.477 311.159 181.4 311.159 176.324 311.159C172.24 311.159 168.15 311.228 164.066 311.159C162.361 311.13 160.649 310.522 158.996 310.522" stroke="#102057" stroke-width="2.65675" stroke-linecap="round"/>
<path d="M161.413 322.61C170.946 322.61 180.468 322.292 189.992 322.292C191.815 322.292 193.598 322.61 195.432 322.61C197.01 322.61 198.584 322.472 200.1 322.928" stroke="#102057" stroke-width="2.65675" stroke-linecap="round"/>
<path d="M29.4948 264.19C32.5606 264.964 35.4935 268.632 37.5533 270.978C39.9628 273.722 42.8427 275.848 45.2955 278.518C47.2759 280.675 48.9795 282.822 51.3325 284.568C53.4415 286.134 55.6061 287.708 57.3832 289.692C60.355 293.009 63.4124 296.115 66.2668 299.534C66.6277 299.966 70.6555 306.06 71.0799 305.613" stroke="#102057" stroke-width="2.65675" stroke-linecap="round"/>
<path d="M30.9799 310.042C40.8448 298.506 50.3455 286.454 61.5637 276.304C64.1564 273.958 66.5778 271.533 68.9896 268.995C69.751 268.194 71.1001 267.273 71.5749 266.274" stroke="#102057" stroke-width="2.65675" stroke-linecap="round"/>
<path d="M92.1201 264.19C92.5754 265.747 94.6246 267.017 95.6956 268.083C97.5147 269.893 99.5806 271.392 101.361 273.25C103.658 275.647 105.638 278.359 107.921 280.762C110.632 283.616 113.448 286.22 116.021 289.229C119.864 293.723 123.886 298.165 127.902 302.487C129.807 304.537 131.779 306.452 133.705 308.479" stroke="#102057" stroke-width="2.65675" stroke-linecap="round"/>
<path d="M94.3479 310.824C101.309 305.416 107.764 299.091 114.233 293.05C118.979 288.618 123.641 283.505 127.655 278.316C130.256 274.952 132.521 271.167 135.438 268.098" stroke="#102057" stroke-width="2.65675" stroke-linecap="round"/>
<path d="M156.23 268.098C161.084 272.892 165.767 277.811 170.752 282.455C173.513 285.028 176.47 287.348 179.251 289.895C181.513 291.966 183.575 294.251 185.879 296.278C188.946 298.975 192.814 301.388 195.038 304.976C195.302 305.403 196.84 308.02 196.578 306.916" stroke="#102057" stroke-width="2.65675" stroke-linecap="round"/>
<path d="M197.073 268.619C194.885 268.855 192.921 270.594 191.16 271.861C189.067 273.366 187.046 274.99 185.095 276.695C182.639 278.841 180.42 281.391 178.261 283.859C175.884 286.577 173.303 289.107 170.959 291.849C166.774 296.742 162.005 301.274 159.201 307.176" stroke="#102057" stroke-width="2.65675" stroke-linecap="round"/>
<path d="M38.9033 151.838C41.4096 151.838 43.903 151.737 46.4042 151.737C47.035 151.737 47.6781 151.775 48.3074 151.731C48.8025 151.697 49.2638 151.535 49.7684 151.535C50.1729 151.535 50.5739 151.435 50.9942 151.435" stroke="#102057" stroke-width="2.65675" stroke-linecap="round"/>
<path d="M50.9944 151.535C51.0114 151.739 51.0595 151.962 51.1623 152.14C51.5801 152.864 51.9829 153.561 52.3434 154.323C53.3058 156.358 54.7683 158.161 55.9707 160.055C56.7433 161.272 57.4872 162.557 58.1034 163.861C59.1094 165.992 60.0557 168.657 61.7755 170.377" stroke="#102057" stroke-width="2.65675" stroke-linecap="round"/>
<path d="M62.3799 170.679C62.1275 171.5 61.1525 172.3 60.667 173.019C59.8551 174.222 59.0613 175.456 58.4392 176.77C57.8617 177.989 57.0858 179.056 56.4352 180.229C55.7381 181.486 55.027 182.738 54.3417 184.002C54.0056 184.622 53.6827 185.249 53.3117 185.849C53.1034 186.186 52.7941 186.453 52.6064 186.801C52.371 187.236 52.0412 187.619 51.8787 188.088C51.7146 188.562 51.3383 188.993 51.1958 189.42" stroke="#102057" stroke-width="2.65675" stroke-linecap="round"/>
<path d="M51.1958 189.42C54.6231 189.42 58.0403 189.521 61.4675 189.521C62.2328 189.521 63.0253 189.42 63.8129 189.42C64.0827 189.42 65.4673 189.593 65.6041 189.32" stroke="#102057" stroke-width="2.65675" stroke-linecap="round"/>
<path d="M65.6042 189.319C65.8032 188.457 66.4637 187.589 66.8581 186.801C67.2667 185.983 67.6087 185.154 68.1008 184.382C68.4462 183.841 68.8792 183.368 69.2259 182.826C69.3638 182.611 69.5098 182.278 69.7353 182.166" stroke="#102057" stroke-width="2.65675" stroke-linecap="round"/>
<path d="M69.7354 182.166C70.6391 184.256 72.1455 186.332 73.6705 188.01C74.2391 188.635 74.7179 189.236 75.1763 189.924" stroke="#102057" stroke-width="2.65675" stroke-linecap="round"/>
<path d="M75.1763 189.924C76.8928 189.924 78.6096 189.934 80.3261 189.924C81.9685 189.914 83.5978 189.622 85.2352 189.622C86.3156 189.622 87.3959 189.622 88.4763 189.622" stroke="#102057" stroke-width="2.65675" stroke-linecap="round"/>
<path d="M77.0906 170.881C77.1246 171.221 77.464 171.511 77.6391 171.788C77.8962 172.194 78.1165 172.624 78.4228 172.997C79.3659 174.145 80.1958 175.364 81.1209 176.523C81.9767 177.596 82.8991 178.547 83.595 179.748C84.2433 180.866 84.9561 181.942 85.6606 183.028C86.6188 184.505 87.521 186.043 88.4258 187.551C88.5818 187.811 88.9096 188.171 88.9744 188.463C89.0255 188.693 89.0695 189.113 89.2823 189.219" stroke="#102057" stroke-width="2.65675" stroke-linecap="round"/>
<path d="M77.0906 169.974C77.5415 168.884 78.4826 167.934 79.0889 166.918C79.6361 166 80.2865 165.188 80.8634 164.292C81.5117 163.286 82.2301 162.328 82.8897 161.331C83.5655 160.31 84.1205 159.231 84.8489 158.241C85.3719 157.531 85.748 156.75 86.1588 155.974C86.5195 155.293 87.0379 154.648 87.2671 153.903C87.4203 153.405 87.8706 152.949 88.0732 152.442" stroke="#102057" stroke-width="2.65675" stroke-linecap="round"/>
<path d="M88.1741 152.039C91.1448 152.039 94.1213 151.938 97.0855 151.938C98.1398 151.938 99.1234 152.039 100.164 152.039" stroke="#102057" stroke-width="2.65675" stroke-linecap="round"/>
<path d="M65.2012 151.737C68.2977 151.737 71.3767 151.838 74.4709 151.838" stroke="#102057" stroke-width="2.65675" stroke-linecap="round"/>
<path d="M74.4708 151.838C74.3313 152.675 73.2456 153.523 72.7579 154.2C72.2374 154.923 71.6838 155.573 71.2689 156.372C70.9164 157.051 70.4659 157.732 70.1382 158.387" stroke="#102057" stroke-width="2.65675" stroke-linecap="round"/>
<path d="M64.6975 151.938C64.7773 152.736 65.9188 153.709 66.3544 154.357C66.8403 155.079 67.5959 155.67 68.0225 156.417C68.368 157.021 69.0936 157.965 69.7354 158.286" stroke="#102057" stroke-width="2.65675" stroke-linecap="round"/>
<path d="M73.8103 212.921C75.3614 212.921 76.9279 212.103 78.5064 211.99C80.1412 211.874 81.6422 210.34 83.1612 209.797C86.2128 208.708 87.8867 205.837 90.4226 203.984C91.3953 203.273 92.1193 202.064 92.9051 201.191C93.0734 201.004 93.0248 200.637 93.1741 200.405C93.379 200.086 93.6855 199.835 93.8774 199.516C94.2859 198.835 94.8822 198.336 95.3256 197.695C95.9717 196.762 96.948 195.831 97.353 194.778C98.0105 193.068 98.9474 191.462 99.4011 189.648C100.298 186.058 100.432 182.428 100.818 178.755C101.197 175.16 101.366 171.6 101.366 167.956C101.366 164.76 101.366 161.564 101.366 158.368C101.366 157.417 101.923 153.06 100.994 152.596" stroke="#102057" stroke-width="2.65675" stroke-linecap="round"/>
<path d="M73.624 213.108C72.5217 212.997 71.6318 212.363 70.4588 212.363C69.4037 212.363 68.3486 212.363 67.2935 212.363C66.2031 212.363 65.3021 211.862 64.3145 211.804C64.0032 211.786 63.1983 211.513 62.9077 211.328C62.2796 210.929 61.4699 210.992 60.7769 210.646C58.3828 209.449 55.5166 208.843 53.4741 207.005C52.6524 206.265 51.5949 205.733 50.7226 205.06C49.2834 203.95 47.7766 202.759 46.4402 201.564C45.4185 200.65 44.5499 199.8 43.875 198.585C43.5276 197.959 43.0515 197.49 42.6234 196.919C42.0143 196.107 41.8595 195.221 41.4131 194.302C40.5918 192.611 39.9383 190.739 39.4064 188.944C39.1629 188.123 39.4051 187.22 39.0857 186.389C38.8461 185.766 38.8065 184.517 38.8065 183.834C38.8065 180.269 38.4341 176.681 38.4341 173.118C38.4341 171.332 38.4341 169.546 38.4341 167.76C38.4341 166.227 38.8065 164.759 38.8065 163.209" stroke="#102057" stroke-width="2.65675" stroke-linecap="round"/>
<path d="M38.8063 163.208C38.8063 161.36 38.8063 159.512 38.8063 157.664C38.8063 156.079 39.1787 154.503 39.1787 152.968" stroke="#102057" stroke-width="2.65675" stroke-linecap="round"/>
<path d="M50.9123 195.374C50.9123 196.007 50.6887 196.709 50.8727 197.339C51.0653 198 51.3441 198.872 52.0363 199.157C52.3512 199.286 53.1002 199.275 53.4079 199.137C54.0131 198.864 54.1638 197.55 54.2149 196.988C54.2695 196.388 54.2991 195.803 54.2991 195.195" stroke="#102057" stroke-width="1.32837" stroke-linecap="round"/>
<path d="M55.4578 195.374C56.2236 195.374 56.9894 195.374 57.7553 195.374C58.282 195.374 58.7811 195.195 59.2902 195.195" stroke="#102057" stroke-width="1.32837" stroke-linecap="round"/>
<path d="M57.2403 195.463C57.2403 196.247 57.2403 197.031 57.2403 197.815C57.2403 198.244 57.0878 199.022 57.3295 199.385" stroke="#102057" stroke-width="1.32837" stroke-linecap="round"/>
<path d="M62.1425 195.552C62.1425 196.272 62.1425 196.991 62.1425 197.711C62.1425 197.951 61.9917 199.175 62.2316 199.295" stroke="#102057" stroke-width="1.32837" stroke-linecap="round"/>
<path d="M62.7664 195.196C63.5373 195.196 64.3007 195.158 64.9054 195.73C65.3464 196.148 65.8858 196.395 65.8858 197.112C65.8858 198.04 65.6743 198.554 64.8163 198.983C64.1323 199.325 63.6084 199.385 62.8555 199.385" stroke="#102057" stroke-width="1.32837" stroke-linecap="round"/>
<path d="M66.688 199.741C66.688 198.789 67.0577 197.313 67.7575 196.572C67.9039 196.417 68.3076 195.366 68.4903 195.532C69.2863 196.256 69.8535 197.307 70.4313 198.206C70.7133 198.645 70.8315 199.115 71.0552 199.563" stroke="#102057" stroke-width="1.32837" stroke-linecap="round"/>
<path d="M67.2227 198.226H69.4508" stroke="#102057" stroke-width="1.32837" stroke-linecap="round"/>
<path d="M72.303 195.195C72.303 196.087 72.1833 197.084 72.3723 197.958C72.4419 198.28 72.4373 199.541 72.6595 199.652" stroke="#102057" stroke-width="1.32837" stroke-linecap="round"/>
<path d="M72.6594 199.652H75.5115" stroke="#102057" stroke-width="1.32837" stroke-linecap="round"/>
<path d="M76.9375 195.195C76.9375 196.14 77.1158 197.056 77.1158 197.998C77.1158 198.536 77.294 199.045 77.294 199.563" stroke="#102057" stroke-width="1.32837" stroke-linecap="round"/>
<path d="M77.2939 199.563H79.5221" stroke="#102057" stroke-width="1.32837" stroke-linecap="round"/>
<path d="M80.9482 199.563C80.9784 199.156 81.282 198.898 81.3741 198.513C81.4576 198.164 81.5429 197.807 81.6662 197.468C81.9361 196.726 82.325 196.043 82.5525 195.285" stroke="#102057" stroke-width="1.32837" stroke-linecap="round"/>
<path d="M82.6418 195.017C83.2724 195.727 83.7018 196.524 84.0134 197.458C84.2627 198.206 84.7088 198.884 85.0483 199.563" stroke="#102057" stroke-width="1.32837" stroke-linecap="round"/>
<path d="M82.0178 198.404C82.4639 198.404 82.8513 198.493 83.2656 198.493" stroke="#102057" stroke-width="1.32837" stroke-linecap="round"/>
<path d="M88.9697 195.819C88.129 195.726 87.4762 194.639 86.6078 195.508C86.2873 195.828 86.3136 196.438 86.5633 196.78C86.9167 197.264 87.6379 197.424 88.1725 197.602C88.8749 197.836 88.9784 199.372 88.1676 199.474C87.8631 199.512 86.2959 199.995 86.2959 199.385" stroke="#102057" stroke-width="1.32837" stroke-linecap="round"/>
</svg>
