<svg width="1151" height="713" viewBox="0 0 1151 713" fill="none" xmlns="http://www.w3.org/2000/svg">
<rect width="1151" height="713" rx="10" fill="#5A0A17"/>
<g clip-path="url(#clip0_548_5748)">
<path d="M779.203 137.646L807.822 109.468L835.527 137.646L807.822 165.824L779.203 137.646Z" fill="#5A0A17" stroke="white" stroke-width="4"/>
<path d="M779.266 137.692L753.327 163.646L735.058 144.714C733.451 143.048 732.404 140.873 732.37 138.558C732.085 119.659 745.745 116.333 754.958 117.241C756.814 117.424 758.495 118.343 759.86 119.614L779.266 137.692Z" fill="#5A0A17" stroke="white" stroke-width="4"/>
<path d="M802.065 70.704C780.638 80.1683 796.342 100.07 807.797 109.468C830.168 89.0744 822.839 76.6396 813.335 71.1148C809.915 69.1266 805.683 69.1057 802.065 70.704Z" fill="#5A0A17" stroke="white" stroke-width="4"/>
<path d="M747.594 202.439C726.167 192.975 741.872 173.073 753.327 163.675C775.697 184.069 768.369 196.504 758.864 202.029C755.444 204.016 751.213 204.038 747.594 202.439Z" fill="#5A0A17" stroke="white" stroke-width="4"/>
<path d="M874.267 131.871C864.809 110.431 844.919 126.145 835.525 137.607C855.907 159.991 868.335 152.658 873.856 143.148C875.844 139.726 875.864 135.492 874.267 131.871Z" fill="#5A0A17" stroke="white" stroke-width="4"/>
<path d="M836.712 362.036L808.094 390.214L780.389 362.036L808.094 333.857L836.712 362.036Z" fill="#5A0A17" stroke="white" stroke-width="4"/>
<path d="M836.65 361.992L862.589 336.038L880.857 354.97C882.465 356.636 883.512 358.811 883.546 361.126C883.831 380.025 870.171 383.351 860.958 382.444C859.102 382.26 857.421 381.342 856.056 380.07L836.65 361.992Z" fill="#5A0A17" stroke="white" stroke-width="4"/>
<path d="M813.85 428.98C835.278 419.516 819.573 399.614 808.118 390.215C785.748 410.609 793.076 423.044 802.58 428.569C806 430.557 810.232 430.578 813.85 428.98Z" fill="#5A0A17" stroke="white" stroke-width="4"/>
<path d="M868.321 297.244C889.748 306.708 874.044 326.61 862.588 336.008C840.218 315.614 847.547 303.179 857.051 297.655C860.471 295.667 864.703 295.646 868.321 297.244Z" fill="#5A0A17" stroke="white" stroke-width="4"/>
<path d="M741.648 367.813C751.106 389.253 770.996 373.539 780.389 362.077C760.008 339.693 747.58 347.026 742.059 356.536C740.071 359.958 740.05 364.192 741.648 367.813Z" fill="#5A0A17" stroke="white" stroke-width="4"/>
<path d="M919.566 221.44L947.727 250.076L919.566 277.797L891.404 250.076L919.566 221.44Z" fill="#5A0A17" stroke="white" stroke-width="4"/>
<path d="M919.52 221.505L893.582 195.55L912.503 177.271C914.168 175.663 916.341 174.615 918.655 174.581C937.543 174.295 940.866 187.963 939.96 197.182C939.777 199.039 938.859 200.721 937.588 202.087L919.52 221.505Z" fill="#5A0A17" stroke="white" stroke-width="4"/>
<path d="M986.468 244.317C977.009 222.878 957.12 238.591 947.727 250.053C968.109 272.437 980.536 265.104 986.058 255.595C988.045 252.172 988.065 247.938 986.468 244.317Z" fill="#5A0A17" stroke="white" stroke-width="4"/>
<path d="M854.811 189.815C864.27 168.374 884.16 184.089 893.553 195.551C873.171 217.935 860.744 210.601 855.222 201.091C853.235 197.669 853.215 193.436 854.811 189.815Z" fill="#5A0A17" stroke="white" stroke-width="4"/>
<path d="M925.341 316.562C946.768 307.098 931.063 287.196 919.608 277.798C897.238 298.192 904.566 310.627 914.071 316.152C917.491 318.14 921.722 318.161 925.341 316.562Z" fill="#5A0A17" stroke="white" stroke-width="4"/>
<path d="M695.605 278.54L667.443 249.905L695.605 222.183L723.766 249.905L695.605 278.54Z" fill="#5A0A17" stroke="white" stroke-width="4"/>
<path d="M695.652 278.477L721.59 304.43L702.669 322.71C701.004 324.318 698.831 325.366 696.517 325.401C677.63 325.686 674.305 312.018 675.212 302.799C675.395 300.942 676.313 299.26 677.584 297.894L695.652 278.477Z" fill="#5A0A17" stroke="white" stroke-width="4"/>
<path d="M628.702 255.663C638.161 277.103 658.05 261.389 667.444 249.928C647.062 227.544 634.634 234.876 629.113 244.386C627.126 247.809 627.105 252.043 628.702 255.663Z" fill="#5A0A17" stroke="white" stroke-width="4"/>
<path d="M760.359 310.166C750.901 331.606 731.011 315.892 721.617 304.43C741.999 282.047 754.427 289.379 759.948 298.889C761.935 302.312 761.956 306.546 760.359 310.166Z" fill="#5A0A17" stroke="white" stroke-width="4"/>
<path d="M689.831 183.419C668.403 192.883 684.108 212.784 695.563 222.183C717.933 201.789 710.605 189.354 701.101 183.829C697.681 181.842 693.449 181.82 689.831 183.419Z" fill="#5A0A17" stroke="white" stroke-width="4"/>
<path d="M779.348 249.917L807.967 221.738L835.671 249.917L807.967 278.095L779.348 249.917Z" fill="#5A0A17" stroke="white" stroke-width="4"/>
<path d="M807.953 165.975C791.65 179.322 780.088 199.64 807.953 221.59C819.811 213.68 839.079 191.929 807.953 165.975Z" fill="#5A0A17" stroke="white" stroke-width="4"/>
<path d="M808.043 278.095C791.739 291.443 780.178 311.76 808.043 333.71C819.9 325.801 839.17 304.049 808.043 278.095Z" fill="#5A0A17" stroke="white" stroke-width="4"/>
<path d="M835.82 249.976C849.16 266.29 869.466 277.858 891.402 249.976C883.498 238.111 861.759 218.832 835.82 249.976Z" fill="#5A0A17" stroke="white" stroke-width="4"/>
<path d="M779.348 249.829C766.008 266.142 745.702 277.71 723.766 249.829C731.671 237.964 753.409 218.684 779.348 249.829Z" fill="#5A0A17" stroke="white" stroke-width="4"/>
<path d="M685.077 478.677C685.077 479.361 684.858 479.894 684.421 480.278C683.983 480.661 683.436 480.852 682.78 480.852C682.151 480.852 681.659 480.756 681.303 480.565C681.331 480.373 681.344 480.195 681.344 480.031C681.344 479.101 680.921 478.266 680.073 477.528C679.225 476.789 677.899 476.42 676.094 476.42C673.578 476.42 671.377 477.5 669.49 479.662C667.631 481.796 666.701 484.806 666.701 488.691C666.701 492.576 667.549 495.559 669.244 497.638C670.94 499.69 673.305 500.716 676.34 500.716C677.954 500.716 679.458 500.388 680.852 499.731C682.247 499.074 683.395 498.295 684.298 497.392C684.489 497.419 684.667 497.556 684.831 497.802C685.022 498.021 685.118 498.322 685.118 498.705C685.118 499.717 684.147 500.839 682.206 502.071C680.292 503.274 678.022 503.876 675.397 503.876C671.76 503.876 668.766 502.563 666.414 499.936C664.09 497.31 662.928 493.725 662.928 489.184C662.928 484.642 664.254 480.934 666.906 478.061C669.559 475.188 672.854 473.752 676.791 473.752C679.143 473.752 681.112 474.231 682.698 475.188C684.284 476.146 685.077 477.309 685.077 478.677ZM714.599 476.584V500.962C714.599 501.756 714.941 502.289 715.625 502.563C715.078 503.439 714.367 503.876 713.492 503.876C711.961 503.876 711.195 502.919 711.195 501.003V490.045H695.403V500.962C695.403 501.728 695.732 502.262 696.388 502.563C695.841 503.439 695.116 503.876 694.214 503.876C692.71 503.876 691.958 502.919 691.958 501.003V476.625C691.958 475.859 691.616 475.325 690.932 475.024C691.425 474.176 692.136 473.752 693.065 473.752C694.624 473.752 695.403 474.696 695.403 476.584V487.542H711.195V476.625C711.195 475.859 710.853 475.325 710.17 475.024C710.662 474.176 711.373 473.752 712.302 473.752C713.834 473.752 714.599 474.696 714.599 476.584ZM729.531 500.757H737.816C739.375 500.757 740.537 500.183 741.303 499.033C741.658 499.17 741.945 499.417 742.164 499.772C742.383 500.101 742.492 500.443 742.492 500.798C742.492 502.604 740.988 503.507 737.98 503.507H729.367C727.261 503.507 725.703 503.083 724.691 502.235C723.679 501.386 723.173 500.005 723.173 498.089V477.199C723.173 476.379 722.831 475.831 722.148 475.558C722.804 474.573 723.898 474.08 725.429 474.08H738.391C741.125 474.08 742.492 474.792 742.492 476.214C742.492 477.063 742.096 477.624 741.303 477.897C740.537 477.213 739.375 476.871 737.816 476.871H726.619V486.885H735.273C736.777 486.885 737.844 487.008 738.473 487.255C739.102 487.501 739.416 487.98 739.416 488.691C739.416 489.402 739.088 489.922 738.432 490.251C737.693 489.868 736.531 489.676 734.945 489.676H726.619V497.966C726.619 498.951 726.837 499.663 727.275 500.101C727.74 500.538 728.492 500.757 729.531 500.757ZM749.369 501.003V476.625C749.369 475.831 749.027 475.298 748.343 475.024C748.945 474.176 749.683 473.752 750.558 473.752C751.461 473.752 752.199 473.971 752.773 474.409C753.375 474.846 753.976 475.544 754.578 476.502L768.647 498.746V476.625C768.647 475.859 768.305 475.325 767.621 475.024C768.168 474.176 768.893 473.752 769.795 473.752C771.327 473.752 772.092 474.696 772.092 476.584V500.962C772.092 501.728 772.407 502.289 773.036 502.645C772.516 503.466 771.819 503.876 770.944 503.876C770.069 503.876 769.289 503.603 768.606 503.056C767.949 502.508 767.225 501.633 766.432 500.429L752.773 479.251V500.962C752.773 501.728 753.115 502.262 753.799 502.563C753.252 503.439 752.541 503.876 751.666 503.876C750.134 503.876 749.369 502.919 749.369 501.003ZM780.853 501.003V476.625C780.853 475.831 780.511 475.298 779.827 475.024C780.429 474.176 781.167 473.752 782.042 473.752C782.945 473.752 783.683 473.971 784.257 474.409C784.859 474.846 785.46 475.544 786.062 476.502L800.131 498.746V476.625C800.131 475.859 799.789 475.325 799.105 475.024C799.652 474.176 800.377 473.752 801.279 473.752C802.81 473.752 803.576 474.696 803.576 476.584V500.962C803.576 501.728 803.891 502.289 804.519 502.645C804 503.466 803.303 503.876 802.428 503.876C801.553 503.876 800.773 503.603 800.09 503.056C799.433 502.508 798.709 501.633 797.916 500.429L784.257 479.251V500.962C784.257 501.728 784.599 502.262 785.283 502.563C784.736 503.439 784.025 503.876 783.15 503.876C781.618 503.876 780.853 502.919 780.853 501.003ZM816.11 494.067H825.995L821.401 479.662L816.11 494.067ZM833.378 502.809C832.941 503.521 832.298 503.876 831.451 503.876C830.63 503.876 830.015 503.698 829.605 503.343C829.195 502.987 828.839 502.344 828.538 501.414L826.857 496.571H815.167L813.444 501.044C812.733 502.932 811.831 503.876 810.737 503.876C809.807 503.876 809.165 503.411 808.809 502.481C809.438 502.235 809.93 501.592 810.286 500.552L819.925 476.214C819.624 475.476 819.282 474.928 818.899 474.573C819.528 474.026 820.171 473.752 820.827 473.752C821.511 473.752 822.03 473.957 822.386 474.368C822.769 474.778 823.124 475.435 823.452 476.338L831.82 500.716C832.203 501.838 832.722 502.536 833.378 502.809ZM841.486 476.584V500.962C841.486 501.728 841.814 502.262 842.47 502.563C841.924 503.439 841.199 503.876 840.297 503.876C838.793 503.876 838.041 502.919 838.041 501.003V476.625C838.041 475.859 837.699 475.325 837.015 475.024C837.507 474.176 838.218 473.752 839.148 473.752C840.707 473.752 841.486 474.696 841.486 476.584ZM877.735 499.157C878.31 499.622 878.597 500.224 878.597 500.962C878.597 501.674 878.214 502.276 877.448 502.768C876.71 503.261 875.63 503.507 874.208 503.507H861.534C860.659 503.507 860.002 503.288 859.565 502.85C859.155 502.413 858.95 501.879 858.95 501.25C858.95 501.168 858.95 501.086 858.95 501.003C863.762 497.036 867.331 493.575 869.655 490.62C872.007 487.665 873.183 484.888 873.183 482.289C873.183 480.319 872.663 478.8 871.624 477.733C870.585 476.639 869.327 476.091 867.85 476.091C866.374 476.091 865.116 476.488 864.077 477.281C863.038 478.075 862.518 479.046 862.518 480.195C862.518 481.317 862.915 482.206 863.708 482.863C863.133 483.383 862.463 483.643 861.698 483.643C860.932 483.643 860.276 483.356 859.729 482.781C859.182 482.179 858.909 481.413 858.909 480.483C858.909 478.567 859.77 476.967 861.493 475.681C863.243 474.395 865.417 473.752 868.014 473.752C870.612 473.752 872.731 474.559 874.372 476.173C876.013 477.788 876.833 479.949 876.833 482.658C876.833 485.367 875.698 488.116 873.429 490.907C871.186 493.698 867.686 496.981 862.928 500.757L873.593 500.347C875.479 500.319 876.86 499.923 877.735 499.157ZM893.779 503.876C890.579 503.876 887.94 502.454 885.862 499.608C883.811 496.735 882.786 493.082 882.786 488.65C882.786 484.217 883.811 480.633 885.862 477.897C887.913 475.134 890.566 473.752 893.82 473.752C897.074 473.752 899.712 475.134 901.736 477.897C903.759 480.633 904.771 484.217 904.771 488.65C904.771 493.082 903.746 496.735 901.695 499.608C899.644 502.454 897.005 503.876 893.779 503.876ZM901.121 488.157C901.011 484.409 900.191 481.495 898.66 479.416C897.156 477.309 895.406 476.255 893.409 476.255C891.413 476.255 889.745 477.432 888.405 479.785C887.093 482.138 886.436 484.97 886.436 488.281C886.436 492.576 887.216 495.819 888.774 498.007C890.36 500.196 892.151 501.291 894.148 501.291C896.144 501.291 897.812 500.128 899.152 497.802C900.492 495.449 901.162 492.631 901.162 489.348C901.162 488.965 901.148 488.568 901.121 488.157ZM928.205 499.157C928.78 499.622 929.067 500.224 929.067 500.962C929.067 501.674 928.684 502.276 927.918 502.768C927.18 503.261 926.1 503.507 924.678 503.507H912.004C911.129 503.507 910.472 503.288 910.035 502.85C909.625 502.413 909.42 501.879 909.42 501.25C909.42 501.168 909.42 501.086 909.42 501.003C914.232 497.036 917.801 493.575 920.125 490.62C922.477 487.665 923.653 484.888 923.653 482.289C923.653 480.319 923.133 478.8 922.094 477.733C921.055 476.639 919.797 476.091 918.32 476.091C916.844 476.091 915.586 476.488 914.547 477.281C913.508 478.075 912.988 479.046 912.988 480.195C912.988 481.317 913.385 482.206 914.178 482.863C913.603 483.383 912.933 483.643 912.168 483.643C911.402 483.643 910.746 483.356 910.199 482.781C909.652 482.179 909.379 481.413 909.379 480.483C909.379 478.567 910.24 476.967 911.963 475.681C913.713 474.395 915.887 473.752 918.484 473.752C921.082 473.752 923.201 474.559 924.842 476.173C926.483 477.788 927.303 479.949 927.303 482.658C927.303 485.367 926.168 488.116 923.899 490.907C921.656 493.698 918.156 496.981 913.398 500.757L924.063 500.347C925.949 500.319 927.33 499.923 928.205 499.157ZM936.948 494.067H945.685V478.759C945.685 478.321 945.521 478.102 945.193 478.102C944.673 478.102 943.648 479.06 942.116 480.975C940.585 482.891 939.136 485.079 937.769 487.542C936.429 490.004 935.759 491.865 935.759 493.124C935.759 493.753 936.155 494.067 936.948 494.067ZM949.089 494.067H950.853C952.22 494.067 953.177 493.821 953.724 493.329C954.025 493.684 954.175 494.15 954.175 494.724C954.175 495.299 953.833 495.764 953.15 496.119C952.466 496.475 951.55 496.653 950.402 496.653H949.089V500.962C949.089 501.728 949.431 502.262 950.115 502.563C949.622 503.439 948.911 503.876 947.982 503.876C946.45 503.876 945.685 502.919 945.685 501.003V496.653H936.415C934.2 496.653 933.093 495.736 933.093 493.903C933.093 492.535 933.612 490.702 934.651 488.404C935.718 486.078 936.976 483.848 938.425 481.714C939.874 479.552 941.419 477.692 943.06 476.132C944.728 474.545 946.095 473.752 947.161 473.752C948.447 473.752 949.089 474.614 949.089 476.338V494.067Z" fill="white"/>
<path d="M775.828 593.874C776.282 593.846 776.73 593.805 777.19 593.805C777.701 593.805 778.2 593.85 778.702 593.883C778.663 593.261 778.607 592.645 778.607 592.014C778.607 590.621 778.738 589.258 778.929 587.916C778.349 587.88 777.776 587.826 777.187 587.826C776.649 587.826 776.124 587.877 775.592 587.907C775.783 589.252 775.918 590.615 775.918 592.011C775.921 592.639 775.867 593.255 775.828 593.874Z" fill="white"/>
<path d="M769.717 595.077C769.852 594.072 769.944 593.053 769.944 592.013C769.944 590.933 769.842 589.881 769.699 588.844C757.923 592.004 749.107 602.394 748.303 614.961C750.43 614.835 752.476 614.426 754.412 613.759C755.581 605.043 761.627 597.869 769.717 595.077Z" fill="white"/>
<path d="M777.189 639.84C765.58 639.84 755.982 631.186 754.431 619.992C752.534 620.5 750.565 620.817 748.537 620.927C750.541 634.974 762.608 645.819 777.189 645.819C791.774 645.819 803.844 634.971 805.845 620.921C803.82 620.799 801.851 620.476 799.957 619.956C798.421 631.169 788.811 639.84 777.189 639.84Z" fill="white"/>
<path d="M784.823 588.878C784.682 589.907 784.584 590.946 784.584 592.011C784.584 593.072 784.682 594.109 784.82 595.131C792.811 597.956 798.78 605.065 799.957 613.7C801.893 614.385 803.943 614.813 806.076 614.953C805.272 602.44 796.525 592.083 784.823 588.878Z" fill="white"/>
<path d="M830.384 594.944C830.506 593.981 830.593 593.007 830.593 592.011C830.593 590.905 830.488 589.823 830.336 588.759C818.395 591.814 809.42 602.288 808.617 614.977C810.732 614.885 812.776 614.52 814.705 613.89C815.846 604.985 822.076 597.658 830.384 594.944Z" fill="white"/>
<path d="M845.486 595.264C853.26 598.158 859.046 605.126 860.247 613.571C862.186 614.291 864.241 614.763 866.383 614.937C865.58 602.546 856.991 592.266 845.454 588.963C845.319 589.964 845.227 590.975 845.227 592.012C845.229 593.118 845.334 594.197 845.486 595.264Z" fill="white"/>
<path d="M837.499 639.839C825.919 639.839 816.339 631.227 814.753 620.074C812.849 620.561 810.878 620.857 808.85 620.944C810.86 634.981 822.923 645.817 837.502 645.817C852.092 645.817 864.168 634.961 866.161 620.902C864.135 620.759 862.17 620.412 860.281 619.871C858.779 631.123 849.147 639.839 837.499 639.839Z" fill="white"/>
<path d="M836.472 593.856C836.816 593.841 837.153 593.805 837.5 593.805C838.124 593.805 838.737 593.85 839.349 593.898C839.308 593.27 839.254 592.648 839.254 592.011C839.254 590.621 839.385 589.267 839.576 587.931C838.889 587.883 838.202 587.826 837.503 587.826C837.076 587.826 836.663 587.871 836.242 587.889C836.436 589.24 836.571 590.609 836.571 592.011C836.565 592.633 836.511 593.243 836.472 593.856Z" fill="white"/>
<path d="M775.828 593.875C773.701 594 771.655 594.41 769.719 595.077C768.554 603.793 762.504 610.967 754.414 613.76C754.28 614.764 754.188 615.783 754.188 616.823C754.188 617.903 754.289 618.955 754.432 619.992C766.205 616.832 775.025 606.442 775.828 593.875Z" fill="white"/>
<path d="M748.307 614.96C747.853 614.987 747.401 615.029 746.941 615.029C734.257 615.029 723.938 604.704 723.938 592.012C723.938 579.32 734.257 568.995 746.941 568.995C758.551 568.995 768.149 577.649 769.7 588.843C771.597 588.335 773.565 588.018 775.594 587.908C773.589 573.861 761.523 563.017 746.941 563.017C730.962 563.017 717.963 576.025 717.963 592.012C717.963 607.998 730.965 621.007 746.941 621.007C747.479 621.007 748.005 620.957 748.537 620.927C748.346 619.581 748.211 618.219 748.211 616.823C748.211 616.195 748.265 615.579 748.307 614.96Z" fill="white"/>
<path d="M754.188 616.822C754.188 615.782 754.281 614.763 754.415 613.758C752.483 614.425 750.433 614.834 748.306 614.96C748.268 615.579 748.211 616.194 748.211 616.822C748.211 618.218 748.345 619.581 748.536 620.926C750.565 620.816 752.533 620.499 754.43 619.991C754.29 618.95 754.188 617.898 754.188 616.822Z" fill="white"/>
<path d="M769.947 592.011C769.947 593.052 769.854 594.071 769.72 595.076C771.653 594.409 773.702 593.999 775.83 593.874C775.868 593.255 775.925 592.639 775.925 592.011C775.925 590.616 775.791 589.253 775.599 587.907C773.571 588.018 771.602 588.335 769.705 588.843C769.849 589.883 769.947 590.935 769.947 592.011Z" fill="white"/>
<path d="M807.587 568.995C819.167 568.995 828.747 577.607 830.333 588.76C832.237 588.272 834.208 587.977 836.237 587.89C834.227 573.852 822.163 563.017 807.587 563.017C793.003 563.017 780.933 573.864 778.932 587.914C780.957 588.036 782.926 588.359 784.82 588.879C786.358 577.666 795.966 568.995 807.587 568.995Z" fill="white"/>
<path d="M836.474 593.856C834.359 593.949 832.315 594.313 830.385 594.944C829.247 603.849 823.019 611.176 814.707 613.89C814.585 614.853 814.498 615.827 814.498 616.823C814.498 617.929 814.603 619.011 814.755 620.074C826.696 617.017 835.67 606.545 836.474 593.856Z" fill="white"/>
<path d="M808.614 614.979C808.27 614.994 807.933 615.029 807.586 615.029C807.075 615.029 806.576 614.984 806.075 614.951C806.114 615.573 806.17 616.189 806.17 616.82C806.17 618.213 806.039 619.576 805.848 620.918C806.427 620.954 807.001 621.008 807.589 621.008C808.017 621.008 808.429 620.963 808.85 620.945C808.656 619.594 808.521 618.225 808.521 616.823C808.519 616.201 808.575 615.591 808.614 614.979Z" fill="white"/>
<path d="M784.82 595.132C782.884 594.448 780.834 594.02 778.701 593.88C779.505 606.393 788.252 616.747 799.954 619.951C800.094 618.923 800.193 617.883 800.193 616.819C800.193 615.758 800.094 614.721 799.957 613.698C791.965 610.876 785.997 603.768 784.82 595.132Z" fill="white"/>
<path d="M806.074 614.955C803.941 614.814 801.892 614.387 799.956 613.702C800.097 614.725 800.192 615.762 800.192 616.823C800.192 617.887 800.093 618.927 799.953 619.956C801.847 620.476 803.816 620.799 805.841 620.921C806.033 619.579 806.164 618.219 806.164 616.823C806.167 616.193 806.113 615.574 806.074 614.955Z" fill="white"/>
<path d="M778.701 593.88C780.835 594.02 782.884 594.448 784.819 595.132C784.679 594.11 784.583 593.073 784.583 592.011C784.583 590.947 784.682 589.907 784.823 588.879C782.928 588.358 780.96 588.036 778.934 587.913C778.743 589.255 778.611 590.616 778.611 592.011C778.609 592.642 778.663 593.261 778.701 593.88Z" fill="white"/>
<path d="M814.494 616.823C814.494 615.827 814.577 614.853 814.703 613.891C812.773 614.521 810.73 614.886 808.614 614.978C808.576 615.591 808.521 616.201 808.521 616.823C808.521 618.225 808.656 619.594 808.85 620.945C810.881 620.858 812.854 620.563 814.753 620.075C814.601 619.008 814.494 617.929 814.494 616.823Z" fill="white"/>
<path d="M830.591 592.012C830.591 593.007 830.506 593.982 830.381 594.944C832.311 594.313 834.355 593.949 836.47 593.856C836.509 593.243 836.562 592.633 836.562 592.012C836.562 590.61 836.428 589.241 836.234 587.89C834.202 587.977 832.231 588.272 830.33 588.76C830.486 589.827 830.591 590.906 830.591 592.012Z" fill="white"/>
<path d="M868.233 563.017C853.642 563.017 841.567 573.873 839.574 587.931C841.6 588.075 843.565 588.422 845.453 588.963C846.953 577.711 856.582 568.995 868.233 568.995C880.917 568.995 891.236 579.32 891.236 592.012C891.236 604.704 880.917 615.029 868.233 615.029C867.609 615.029 866.996 614.984 866.384 614.936C866.425 615.564 866.479 616.186 866.479 616.823C866.479 618.212 866.348 619.567 866.157 620.903C866.844 620.951 867.531 621.007 868.23 621.007C884.21 621.007 897.208 607.998 897.208 592.012C897.208 576.025 884.21 563.017 868.233 563.017Z" fill="white"/>
<path d="M845.488 595.264C843.549 594.544 841.493 594.072 839.352 593.898C840.155 606.289 848.744 616.569 860.281 619.872C860.416 618.871 860.509 617.86 860.509 616.823C860.509 615.717 860.404 614.638 860.252 613.57C852.475 610.677 846.689 603.709 845.488 595.264Z" fill="white"/>
<path d="M866.382 614.935C864.24 614.765 862.185 614.292 860.246 613.569C860.399 614.634 860.503 615.716 860.503 616.822C860.503 617.859 860.411 618.869 860.276 619.871C862.164 620.412 864.13 620.758 866.155 620.902C866.344 619.566 866.478 618.208 866.478 616.822C866.478 616.185 866.425 615.563 866.382 614.935Z" fill="white"/>
<path d="M839.35 593.898C841.491 594.069 843.547 594.541 845.486 595.264C845.333 594.197 845.229 593.118 845.229 592.013C845.229 590.975 845.322 589.965 845.456 588.963C843.568 588.422 841.602 588.075 839.577 587.932C839.389 589.268 839.254 590.625 839.254 592.013C839.254 592.649 839.308 593.27 839.35 593.898Z" fill="white"/>
</g>
<g clip-path="url(#clip1_548_5748)">
<path d="M316.203 137.646L344.822 109.468L372.527 137.646L344.822 165.824L316.203 137.646Z" fill="#90D072" stroke="white" stroke-width="4"/>
<path d="M316.266 137.692L290.327 163.646L272.058 144.714C270.451 143.048 269.404 140.873 269.37 138.558C269.085 119.659 282.745 116.333 291.958 117.241C293.814 117.424 295.495 118.343 296.86 119.614L316.266 137.692Z" fill="#F58951" stroke="white" stroke-width="4"/>
<path d="M339.065 70.704C317.638 80.1683 333.342 100.07 344.797 109.468C367.168 89.0744 359.839 76.6396 350.335 71.1148C346.915 69.1266 342.683 69.1057 339.065 70.704Z" fill="#C7424F" stroke="white" stroke-width="4"/>
<path d="M284.594 202.439C263.167 192.975 278.872 173.073 290.327 163.675C312.697 184.069 305.369 196.504 295.864 202.029C292.444 204.016 288.213 204.038 284.594 202.439Z" fill="#FFD09B" stroke="white" stroke-width="4"/>
<path d="M411.267 131.871C401.809 110.431 381.919 126.145 372.525 137.607C392.907 159.991 405.335 152.658 410.856 143.148C412.844 139.726 412.864 135.492 411.267 131.871Z" fill="#FACC56" stroke="white" stroke-width="4"/>
<path d="M373.712 362.036L345.094 390.214L317.389 362.036L345.094 333.857L373.712 362.036Z" fill="#90D072" stroke="white" stroke-width="4"/>
<path d="M373.65 361.992L399.589 336.038L417.857 354.97C419.465 356.636 420.512 358.811 420.546 361.126C420.831 380.025 407.171 383.351 397.958 382.444C396.102 382.26 394.421 381.342 393.056 380.07L373.65 361.992Z" fill="#FFD09B" stroke="white" stroke-width="4"/>
<path d="M350.85 428.98C372.278 419.516 356.573 399.614 345.118 390.215C322.748 410.609 330.076 423.044 339.58 428.569C343 430.557 347.232 430.578 350.85 428.98Z" fill="#C7424F" stroke="white" stroke-width="4"/>
<path d="M405.321 297.244C426.748 306.708 411.044 326.61 399.588 336.008C377.218 315.614 384.547 303.179 394.051 297.655C397.471 295.667 401.703 295.646 405.321 297.244Z" fill="#FACC56" stroke="white" stroke-width="4"/>
<path d="M278.648 367.813C288.106 389.253 307.996 373.539 317.389 362.077C297.008 339.693 284.58 347.026 279.059 356.536C277.071 359.958 277.05 364.192 278.648 367.813Z" fill="#F58951" stroke="white" stroke-width="4"/>
<path d="M456.566 221.44L484.727 250.076L456.566 277.797L428.404 250.076L456.566 221.44Z" fill="#90D072" stroke="white" stroke-width="4"/>
<path d="M456.52 221.505L430.582 195.55L449.503 177.271C451.168 175.663 453.341 174.615 455.655 174.581C474.543 174.295 477.866 187.963 476.96 197.182C476.777 199.039 475.859 200.721 474.588 202.087L456.52 221.505Z" fill="#F58951" stroke="white" stroke-width="4"/>
<path d="M523.468 244.317C514.009 222.878 494.12 238.591 484.727 250.053C505.109 272.437 517.536 265.104 523.058 255.595C525.045 252.172 525.065 247.938 523.468 244.317Z" fill="#C7424F" stroke="white" stroke-width="4"/>
<path d="M391.811 189.815C401.27 168.374 421.16 184.089 430.553 195.551C410.171 217.935 397.744 210.601 392.222 201.091C390.235 197.669 390.215 193.436 391.811 189.815Z" fill="#FACC56" stroke="white" stroke-width="4"/>
<path d="M462.341 316.562C483.768 307.098 468.063 287.196 456.608 277.798C434.238 298.192 441.566 310.627 451.071 316.152C454.491 318.14 458.722 318.161 462.341 316.562Z" fill="#F58951" stroke="white" stroke-width="4"/>
<path d="M232.605 278.54L204.443 249.905L232.605 222.183L260.766 249.905L232.605 278.54Z" fill="#90D072" stroke="white" stroke-width="4"/>
<path d="M232.652 278.477L258.59 304.43L239.669 322.71C238.004 324.318 235.831 325.366 233.517 325.401C214.63 325.686 211.305 312.018 212.212 302.799C212.395 300.942 213.313 299.26 214.584 297.894L232.652 278.477Z" fill="#FACC56" stroke="white" stroke-width="4"/>
<path d="M165.702 255.663C175.161 277.103 195.05 261.389 204.444 249.928C184.062 227.544 171.634 234.876 166.113 244.386C164.126 247.809 164.105 252.043 165.702 255.663Z" fill="#C7424F" stroke="white" stroke-width="4"/>
<path d="M297.359 310.166C287.901 331.606 268.011 315.892 258.617 304.43C278.999 282.047 291.427 289.379 296.948 298.889C298.935 302.312 298.956 306.546 297.359 310.166Z" fill="#FFD09B" stroke="white" stroke-width="4"/>
<path d="M226.831 183.419C205.403 192.883 221.108 212.784 232.563 222.183C254.933 201.789 247.605 189.354 238.101 183.829C234.681 181.842 230.449 181.82 226.831 183.419Z" fill="#F58951" stroke="white" stroke-width="4"/>
<path d="M316.348 249.917L344.967 221.738L372.671 249.917L344.967 278.095L316.348 249.917Z" fill="#C7424F" stroke="white" stroke-width="4"/>
<path d="M344.953 165.975C328.65 179.322 317.088 199.64 344.953 221.59C356.811 213.68 376.079 191.929 344.953 165.975Z" fill="#F58951" stroke="white" stroke-width="4"/>
<path d="M345.043 278.095C328.739 291.443 317.178 311.76 345.043 333.71C356.9 325.801 376.17 304.049 345.043 278.095Z" fill="#FACC56" stroke="white" stroke-width="4"/>
<path d="M372.82 249.976C386.16 266.29 406.466 277.858 428.402 249.976C420.498 238.111 398.759 218.832 372.82 249.976Z" fill="#FFD09B" stroke="white" stroke-width="4"/>
<path d="M316.348 249.829C303.008 266.142 282.702 277.71 260.766 249.829C268.671 237.964 290.409 218.684 316.348 249.829Z" fill="#FFD09B" stroke="white" stroke-width="4"/>
<path d="M222.077 478.677C222.077 479.361 221.858 479.894 221.421 480.278C220.983 480.661 220.436 480.852 219.78 480.852C219.151 480.852 218.659 480.756 218.303 480.565C218.331 480.373 218.344 480.195 218.344 480.031C218.344 479.101 217.921 478.266 217.073 477.528C216.225 476.789 214.899 476.42 213.094 476.42C210.578 476.42 208.377 477.5 206.49 479.662C204.631 481.796 203.701 484.806 203.701 488.691C203.701 492.576 204.549 495.559 206.244 497.638C207.94 499.69 210.305 500.716 213.34 500.716C214.954 500.716 216.458 500.388 217.852 499.731C219.247 499.074 220.395 498.295 221.298 497.392C221.489 497.419 221.667 497.556 221.831 497.802C222.022 498.021 222.118 498.322 222.118 498.705C222.118 499.717 221.147 500.839 219.206 502.071C217.292 503.274 215.022 503.876 212.397 503.876C208.76 503.876 205.766 502.563 203.414 499.936C201.09 497.31 199.928 493.725 199.928 489.184C199.928 484.642 201.254 480.934 203.906 478.061C206.559 475.188 209.854 473.752 213.791 473.752C216.143 473.752 218.112 474.231 219.698 475.188C221.284 476.146 222.077 477.309 222.077 478.677ZM251.599 476.584V500.962C251.599 501.756 251.941 502.289 252.625 502.563C252.078 503.439 251.367 503.876 250.492 503.876C248.961 503.876 248.195 502.919 248.195 501.003V490.045H232.403V500.962C232.403 501.728 232.732 502.262 233.388 502.563C232.841 503.439 232.116 503.876 231.214 503.876C229.71 503.876 228.958 502.919 228.958 501.003V476.625C228.958 475.859 228.616 475.325 227.932 475.024C228.425 474.176 229.136 473.752 230.065 473.752C231.624 473.752 232.403 474.696 232.403 476.584V487.542H248.195V476.625C248.195 475.859 247.853 475.325 247.17 475.024C247.662 474.176 248.373 473.752 249.302 473.752C250.834 473.752 251.599 474.696 251.599 476.584ZM266.531 500.757H274.816C276.375 500.757 277.537 500.183 278.303 499.033C278.658 499.17 278.945 499.417 279.164 499.772C279.383 500.101 279.492 500.443 279.492 500.798C279.492 502.604 277.988 503.507 274.98 503.507H266.367C264.261 503.507 262.703 503.083 261.691 502.235C260.679 501.386 260.173 500.005 260.173 498.089V477.199C260.173 476.379 259.831 475.831 259.148 475.558C259.804 474.573 260.898 474.08 262.429 474.08H275.391C278.125 474.08 279.492 474.792 279.492 476.214C279.492 477.063 279.096 477.624 278.303 477.897C277.537 477.213 276.375 476.871 274.816 476.871H263.619V486.885H272.273C273.777 486.885 274.844 487.008 275.473 487.255C276.102 487.501 276.416 487.98 276.416 488.691C276.416 489.402 276.088 489.922 275.432 490.251C274.693 489.868 273.531 489.676 271.945 489.676H263.619V497.966C263.619 498.951 263.837 499.663 264.275 500.101C264.74 500.538 265.492 500.757 266.531 500.757ZM286.369 501.003V476.625C286.369 475.831 286.027 475.298 285.343 475.024C285.945 474.176 286.683 473.752 287.558 473.752C288.461 473.752 289.199 473.971 289.773 474.409C290.375 474.846 290.976 475.544 291.578 476.502L305.647 498.746V476.625C305.647 475.859 305.305 475.325 304.621 475.024C305.168 474.176 305.893 473.752 306.795 473.752C308.327 473.752 309.092 474.696 309.092 476.584V500.962C309.092 501.728 309.407 502.289 310.036 502.645C309.516 503.466 308.819 503.876 307.944 503.876C307.069 503.876 306.289 503.603 305.606 503.056C304.949 502.508 304.225 501.633 303.432 500.429L289.773 479.251V500.962C289.773 501.728 290.115 502.262 290.799 502.563C290.252 503.439 289.541 503.876 288.666 503.876C287.134 503.876 286.369 502.919 286.369 501.003ZM317.853 501.003V476.625C317.853 475.831 317.511 475.298 316.827 475.024C317.429 474.176 318.167 473.752 319.042 473.752C319.945 473.752 320.683 473.971 321.257 474.409C321.859 474.846 322.46 475.544 323.062 476.502L337.131 498.746V476.625C337.131 475.859 336.789 475.325 336.105 475.024C336.652 474.176 337.377 473.752 338.279 473.752C339.81 473.752 340.576 474.696 340.576 476.584V500.962C340.576 501.728 340.891 502.289 341.519 502.645C341 503.466 340.303 503.876 339.428 503.876C338.553 503.876 337.773 503.603 337.09 503.056C336.433 502.508 335.709 501.633 334.916 500.429L321.257 479.251V500.962C321.257 501.728 321.599 502.262 322.283 502.563C321.736 503.439 321.025 503.876 320.15 503.876C318.618 503.876 317.853 502.919 317.853 501.003ZM353.11 494.067H362.995L358.401 479.662L353.11 494.067ZM370.378 502.809C369.941 503.521 369.298 503.876 368.451 503.876C367.63 503.876 367.015 503.698 366.605 503.343C366.195 502.987 365.839 502.344 365.538 501.414L363.857 496.571H352.167L350.444 501.044C349.733 502.932 348.831 503.876 347.737 503.876C346.807 503.876 346.165 503.411 345.809 502.481C346.438 502.235 346.93 501.592 347.286 500.552L356.925 476.214C356.624 475.476 356.282 474.928 355.899 474.573C356.528 474.026 357.171 473.752 357.827 473.752C358.511 473.752 359.03 473.957 359.386 474.368C359.769 474.778 360.124 475.435 360.452 476.338L368.82 500.716C369.203 501.838 369.722 502.536 370.378 502.809ZM378.486 476.584V500.962C378.486 501.728 378.814 502.262 379.47 502.563C378.924 503.439 378.199 503.876 377.297 503.876C375.793 503.876 375.041 502.919 375.041 501.003V476.625C375.041 475.859 374.699 475.325 374.015 475.024C374.507 474.176 375.218 473.752 376.148 473.752C377.707 473.752 378.486 474.696 378.486 476.584ZM414.735 499.157C415.31 499.622 415.597 500.224 415.597 500.962C415.597 501.674 415.214 502.276 414.448 502.768C413.71 503.261 412.63 503.507 411.208 503.507H398.534C397.659 503.507 397.002 503.288 396.565 502.85C396.155 502.413 395.95 501.879 395.95 501.25C395.95 501.168 395.95 501.086 395.95 501.003C400.762 497.036 404.331 493.575 406.655 490.62C409.007 487.665 410.183 484.888 410.183 482.289C410.183 480.319 409.663 478.8 408.624 477.733C407.585 476.639 406.327 476.091 404.85 476.091C403.374 476.091 402.116 476.488 401.077 477.281C400.038 478.075 399.518 479.046 399.518 480.195C399.518 481.317 399.915 482.206 400.708 482.863C400.133 483.383 399.463 483.643 398.698 483.643C397.932 483.643 397.276 483.356 396.729 482.781C396.182 482.179 395.909 481.413 395.909 480.483C395.909 478.567 396.77 476.967 398.493 475.681C400.243 474.395 402.417 473.752 405.014 473.752C407.612 473.752 409.731 474.559 411.372 476.173C413.013 477.788 413.833 479.949 413.833 482.658C413.833 485.367 412.698 488.116 410.429 490.907C408.186 493.698 404.686 496.981 399.928 500.757L410.593 500.347C412.479 500.319 413.86 499.923 414.735 499.157ZM430.779 503.876C427.579 503.876 424.94 502.454 422.862 499.608C420.811 496.735 419.786 493.082 419.786 488.65C419.786 484.217 420.811 480.633 422.862 477.897C424.913 475.134 427.566 473.752 430.82 473.752C434.074 473.752 436.712 475.134 438.736 477.897C440.759 480.633 441.771 484.217 441.771 488.65C441.771 493.082 440.746 496.735 438.695 499.608C436.644 502.454 434.005 503.876 430.779 503.876ZM438.121 488.157C438.011 484.409 437.191 481.495 435.66 479.416C434.156 477.309 432.406 476.255 430.409 476.255C428.413 476.255 426.745 477.432 425.405 479.785C424.093 482.138 423.436 484.97 423.436 488.281C423.436 492.576 424.216 495.819 425.774 498.007C427.36 500.196 429.151 501.291 431.148 501.291C433.144 501.291 434.812 500.128 436.152 497.802C437.492 495.449 438.162 492.631 438.162 489.348C438.162 488.965 438.148 488.568 438.121 488.157ZM465.205 499.157C465.78 499.622 466.067 500.224 466.067 500.962C466.067 501.674 465.684 502.276 464.918 502.768C464.18 503.261 463.1 503.507 461.678 503.507H449.004C448.129 503.507 447.472 503.288 447.035 502.85C446.625 502.413 446.42 501.879 446.42 501.25C446.42 501.168 446.42 501.086 446.42 501.003C451.232 497.036 454.801 493.575 457.125 490.62C459.477 487.665 460.653 484.888 460.653 482.289C460.653 480.319 460.133 478.8 459.094 477.733C458.055 476.639 456.797 476.091 455.32 476.091C453.844 476.091 452.586 476.488 451.547 477.281C450.508 478.075 449.988 479.046 449.988 480.195C449.988 481.317 450.385 482.206 451.178 482.863C450.603 483.383 449.933 483.643 449.168 483.643C448.402 483.643 447.746 483.356 447.199 482.781C446.652 482.179 446.379 481.413 446.379 480.483C446.379 478.567 447.24 476.967 448.963 475.681C450.713 474.395 452.887 473.752 455.484 473.752C458.082 473.752 460.201 474.559 461.842 476.173C463.483 477.788 464.303 479.949 464.303 482.658C464.303 485.367 463.168 488.116 460.899 490.907C458.656 493.698 455.156 496.981 450.398 500.757L461.063 500.347C462.949 500.319 464.33 499.923 465.205 499.157ZM473.948 494.067H482.685V478.759C482.685 478.321 482.521 478.102 482.193 478.102C481.673 478.102 480.648 479.06 479.116 480.975C477.585 482.891 476.136 485.079 474.769 487.542C473.429 490.004 472.759 491.865 472.759 493.124C472.759 493.753 473.155 494.067 473.948 494.067ZM486.089 494.067H487.853C489.22 494.067 490.177 493.821 490.724 493.329C491.025 493.684 491.175 494.15 491.175 494.724C491.175 495.299 490.833 495.764 490.15 496.119C489.466 496.475 488.55 496.653 487.402 496.653H486.089V500.962C486.089 501.728 486.431 502.262 487.115 502.563C486.622 503.439 485.911 503.876 484.982 503.876C483.45 503.876 482.685 502.919 482.685 501.003V496.653H473.415C471.2 496.653 470.093 495.736 470.093 493.903C470.093 492.535 470.612 490.702 471.651 488.404C472.718 486.078 473.976 483.848 475.425 481.714C476.874 479.552 478.419 477.692 480.06 476.132C481.728 474.545 483.095 473.752 484.161 473.752C485.447 473.752 486.089 474.614 486.089 476.338V494.067Z" fill="white"/>
<path d="M312.828 593.874C313.282 593.846 313.73 593.805 314.19 593.805C314.701 593.805 315.2 593.85 315.702 593.883C315.663 593.261 315.607 592.645 315.607 592.014C315.607 590.621 315.738 589.258 315.929 587.916C315.349 587.88 314.776 587.826 314.187 587.826C313.649 587.826 313.124 587.877 312.592 587.907C312.783 589.252 312.918 590.615 312.918 592.011C312.921 592.639 312.867 593.255 312.828 593.874Z" fill="white"/>
<path d="M306.717 595.077C306.852 594.072 306.944 593.053 306.944 592.013C306.944 590.933 306.842 589.881 306.699 588.844C294.923 592.004 286.107 602.394 285.303 614.961C287.43 614.835 289.476 614.426 291.412 613.759C292.581 605.043 298.627 597.869 306.717 595.077Z" fill="white"/>
<path d="M314.189 639.84C302.58 639.84 292.982 631.186 291.431 619.992C289.534 620.5 287.565 620.817 285.537 620.927C287.541 634.974 299.608 645.819 314.189 645.819C328.774 645.819 340.844 634.971 342.845 620.921C340.82 620.799 338.851 620.476 336.957 619.956C335.421 631.169 325.811 639.84 314.189 639.84Z" fill="white"/>
<path d="M321.823 588.878C321.682 589.907 321.584 590.946 321.584 592.011C321.584 593.072 321.682 594.109 321.82 595.131C329.811 597.956 335.78 605.065 336.957 613.7C338.893 614.385 340.943 614.813 343.076 614.953C342.272 602.44 333.525 592.083 321.823 588.878Z" fill="white"/>
<path d="M367.384 594.944C367.506 593.981 367.593 593.007 367.593 592.011C367.593 590.905 367.488 589.823 367.336 588.759C355.395 591.814 346.42 602.288 345.617 614.977C347.732 614.885 349.776 614.52 351.705 613.89C352.846 604.985 359.076 597.658 367.384 594.944Z" fill="white"/>
<path d="M382.486 595.264C390.26 598.158 396.046 605.126 397.247 613.571C399.186 614.291 401.241 614.763 403.383 614.937C402.58 602.546 393.991 592.266 382.454 588.963C382.319 589.964 382.227 590.975 382.227 592.012C382.229 593.118 382.334 594.197 382.486 595.264Z" fill="white"/>
<path d="M374.499 639.839C362.919 639.839 353.339 631.227 351.753 620.074C349.849 620.561 347.878 620.857 345.85 620.944C347.86 634.981 359.923 645.817 374.502 645.817C389.092 645.817 401.168 634.961 403.161 620.902C401.135 620.759 399.17 620.412 397.281 619.871C395.779 631.123 386.147 639.839 374.499 639.839Z" fill="white"/>
<path d="M373.472 593.856C373.816 593.841 374.153 593.805 374.5 593.805C375.124 593.805 375.737 593.85 376.349 593.898C376.308 593.27 376.254 592.648 376.254 592.011C376.254 590.621 376.385 589.267 376.576 587.931C375.889 587.883 375.202 587.826 374.503 587.826C374.076 587.826 373.663 587.871 373.242 587.889C373.436 589.24 373.571 590.609 373.571 592.011C373.565 592.633 373.511 593.243 373.472 593.856Z" fill="white"/>
<path d="M312.828 593.875C310.701 594 308.655 594.41 306.719 595.077C305.554 603.793 299.504 610.967 291.414 613.76C291.28 614.764 291.188 615.783 291.188 616.823C291.188 617.903 291.289 618.955 291.432 619.992C303.205 616.832 312.025 606.442 312.828 593.875Z" fill="white"/>
<path d="M285.307 614.96C284.853 614.987 284.401 615.029 283.941 615.029C271.257 615.029 260.938 604.704 260.938 592.012C260.938 579.32 271.257 568.995 283.941 568.995C295.551 568.995 305.149 577.649 306.7 588.843C308.597 588.335 310.565 588.018 312.594 587.908C310.589 573.861 298.523 563.017 283.941 563.017C267.962 563.017 254.963 576.025 254.963 592.012C254.963 607.998 267.965 621.007 283.941 621.007C284.479 621.007 285.005 620.957 285.537 620.927C285.346 619.581 285.211 618.219 285.211 616.823C285.211 616.195 285.265 615.579 285.307 614.96Z" fill="white"/>
<path d="M291.188 616.822C291.188 615.782 291.281 614.763 291.415 613.758C289.483 614.425 287.433 614.834 285.306 614.96C285.268 615.579 285.211 616.194 285.211 616.822C285.211 618.218 285.345 619.581 285.536 620.926C287.565 620.816 289.533 620.499 291.43 619.991C291.29 618.95 291.188 617.898 291.188 616.822Z" fill="white"/>
<path d="M306.947 592.011C306.947 593.052 306.854 594.071 306.72 595.076C308.653 594.409 310.702 593.999 312.83 593.874C312.868 593.255 312.925 592.639 312.925 592.011C312.925 590.616 312.791 589.253 312.599 587.907C310.571 588.018 308.602 588.335 306.705 588.843C306.849 589.883 306.947 590.935 306.947 592.011Z" fill="white"/>
<path d="M344.587 568.995C356.167 568.995 365.747 577.607 367.333 588.76C369.237 588.272 371.208 587.977 373.237 587.89C371.227 573.852 359.163 563.017 344.587 563.017C330.003 563.017 317.933 573.864 315.932 587.914C317.957 588.036 319.926 588.359 321.82 588.879C323.358 577.666 332.966 568.995 344.587 568.995Z" fill="white"/>
<path d="M373.474 593.856C371.359 593.949 369.315 594.313 367.385 594.944C366.247 603.849 360.019 611.176 351.707 613.89C351.585 614.853 351.498 615.827 351.498 616.823C351.498 617.929 351.603 619.011 351.755 620.074C363.696 617.017 372.67 606.545 373.474 593.856Z" fill="white"/>
<path d="M345.614 614.979C345.27 614.994 344.933 615.029 344.586 615.029C344.075 615.029 343.576 614.984 343.075 614.951C343.114 615.573 343.17 616.189 343.17 616.82C343.17 618.213 343.039 619.576 342.848 620.918C343.427 620.954 344.001 621.008 344.589 621.008C345.017 621.008 345.429 620.963 345.85 620.945C345.656 619.594 345.521 618.225 345.521 616.823C345.519 616.201 345.575 615.591 345.614 614.979Z" fill="white"/>
<path d="M321.82 595.132C319.884 594.448 317.834 594.02 315.701 593.88C316.505 606.393 325.252 616.747 336.954 619.951C337.094 618.923 337.193 617.883 337.193 616.819C337.193 615.758 337.094 614.721 336.957 613.698C328.965 610.876 322.997 603.768 321.82 595.132Z" fill="white"/>
<path d="M343.074 614.955C340.941 614.814 338.892 614.387 336.956 613.702C337.097 614.725 337.192 615.762 337.192 616.823C337.192 617.887 337.093 618.927 336.953 619.956C338.847 620.476 340.816 620.799 342.841 620.921C343.033 619.579 343.164 618.219 343.164 616.823C343.167 616.193 343.113 615.574 343.074 614.955Z" fill="white"/>
<path d="M315.701 593.88C317.835 594.02 319.884 594.448 321.819 595.132C321.679 594.11 321.583 593.073 321.583 592.011C321.583 590.947 321.682 589.907 321.823 588.879C319.928 588.358 317.96 588.036 315.934 587.913C315.743 589.255 315.611 590.616 315.611 592.011C315.609 592.642 315.663 593.261 315.701 593.88Z" fill="white"/>
<path d="M351.494 616.823C351.494 615.827 351.577 614.853 351.703 613.891C349.773 614.521 347.73 614.886 345.614 614.978C345.576 615.591 345.521 616.201 345.521 616.823C345.521 618.225 345.656 619.594 345.85 620.945C347.881 620.858 349.854 620.563 351.753 620.075C351.601 619.008 351.494 617.929 351.494 616.823Z" fill="white"/>
<path d="M367.591 592.012C367.591 593.007 367.506 593.982 367.381 594.944C369.311 594.313 371.355 593.949 373.47 593.856C373.509 593.243 373.562 592.633 373.562 592.012C373.562 590.61 373.428 589.241 373.234 587.89C371.202 587.977 369.231 588.272 367.33 588.76C367.486 589.827 367.591 590.906 367.591 592.012Z" fill="white"/>
<path d="M405.233 563.017C390.642 563.017 378.567 573.873 376.574 587.931C378.6 588.075 380.565 588.422 382.453 588.963C383.953 577.711 393.582 568.995 405.233 568.995C417.917 568.995 428.236 579.32 428.236 592.012C428.236 604.704 417.917 615.029 405.233 615.029C404.609 615.029 403.996 614.984 403.384 614.936C403.425 615.564 403.479 616.186 403.479 616.823C403.479 618.212 403.348 619.567 403.157 620.903C403.844 620.951 404.531 621.007 405.23 621.007C421.21 621.007 434.208 607.998 434.208 592.012C434.208 576.025 421.21 563.017 405.233 563.017Z" fill="white"/>
<path d="M382.488 595.264C380.549 594.544 378.493 594.072 376.352 593.898C377.155 606.289 385.744 616.569 397.281 619.872C397.416 618.871 397.509 617.86 397.509 616.823C397.509 615.717 397.404 614.638 397.252 613.57C389.475 610.677 383.689 603.709 382.488 595.264Z" fill="white"/>
<path d="M403.382 614.935C401.24 614.765 399.185 614.292 397.246 613.569C397.399 614.634 397.503 615.716 397.503 616.822C397.503 617.859 397.411 618.869 397.276 619.871C399.164 620.412 401.13 620.758 403.155 620.902C403.344 619.566 403.478 618.208 403.478 616.822C403.478 616.185 403.425 615.563 403.382 614.935Z" fill="white"/>
<path d="M376.35 593.898C378.491 594.069 380.547 594.541 382.486 595.264C382.333 594.197 382.229 593.118 382.229 592.013C382.229 590.975 382.322 589.965 382.456 588.963C380.568 588.422 378.602 588.075 376.577 587.932C376.389 589.268 376.254 590.625 376.254 592.013C376.254 592.649 376.308 593.27 376.35 593.898Z" fill="white"/>
</g>
<defs>
<clipPath id="clip0_548_5748">
<rect width="363" height="578" fill="white" transform="translate(626 68)"/>
</clipPath>
<clipPath id="clip1_548_5748">
<rect width="363" height="578" fill="white" transform="translate(163 68)"/>
</clipPath>
</defs>
</svg>
