<svg width="1099" height="315" viewBox="0 0 1099 315" fill="none" xmlns="http://www.w3.org/2000/svg">
<rect width="1099" height="315" fill="#852D35"/>
<path d="M52.664 241.192V251.884C52.664 252.232 52.814 252.466 53.114 252.586C52.874 252.97 52.562 253.162 52.178 253.162C51.506 253.162 51.17 252.742 51.17 251.902V247.096H44.24V251.884C44.24 252.22 44.384 252.454 44.672 252.586C44.432 252.97 44.114 253.162 43.718 253.162C43.058 253.162 42.728 252.742 42.728 251.902V241.21C42.728 240.874 42.578 240.64 42.278 240.508C42.494 240.136 42.806 239.95 43.214 239.95C43.898 239.95 44.24 240.364 44.24 241.192V245.998H51.17V241.21C51.17 240.874 51.02 240.64 50.72 240.508C50.936 240.136 51.248 239.95 51.656 239.95C52.328 239.95 52.664 240.364 52.664 241.192ZM61.5568 245.674C61.0168 245.038 60.3328 244.72 59.5048 244.72C58.6768 244.72 58.0348 245.008 57.5788 245.584C57.1228 246.148 56.8948 246.982 56.8948 248.086C56.8948 249.514 57.1708 250.552 57.7228 251.2C58.2868 251.836 58.9828 252.154 59.8108 252.154C60.6388 252.154 61.2748 251.866 61.7188 251.29C62.1628 250.714 62.3848 249.874 62.3848 248.77C62.3848 247.33 62.1088 246.298 61.5568 245.674ZM56.6068 244.936C57.4468 244.108 58.4608 243.694 59.6488 243.694C60.8368 243.694 61.8448 244.114 62.6728 244.954C63.5128 245.782 63.9328 246.946 63.9328 248.446C63.9328 249.934 63.5128 251.092 62.6728 251.92C61.8448 252.748 60.8368 253.162 59.6488 253.162C58.4608 253.162 57.4468 252.748 56.6068 251.92C55.7788 251.092 55.3648 249.928 55.3648 248.428C55.3648 246.928 55.7788 245.764 56.6068 244.936ZM72.7928 245.422C72.7928 245.71 72.7088 245.938 72.5408 246.106C72.3728 246.274 72.1688 246.358 71.9288 246.358C71.6888 246.358 71.4908 246.31 71.3348 246.214C71.3708 246.082 71.3888 245.95 71.3888 245.818C71.3888 245.086 70.9388 244.72 70.0388 244.72C69.3068 244.72 68.6528 245.056 68.0768 245.728C67.5008 246.4 67.2128 247.312 67.2128 248.464C67.2128 249.604 67.4768 250.462 68.0048 251.038C68.5448 251.614 69.2048 251.902 69.9848 251.902C70.9808 251.902 71.8088 251.584 72.4688 250.948C72.6248 251.08 72.7028 251.254 72.7028 251.47C72.7028 251.854 72.4028 252.232 71.8028 252.604C71.2028 252.976 70.5188 253.162 69.7508 253.162C68.6348 253.162 67.6808 252.778 66.8888 252.01C66.0968 251.242 65.7008 250.15 65.7008 248.734C65.7008 247.306 66.1448 246.112 67.0328 245.152C67.9328 244.18 69.0248 243.694 70.3088 243.694C71.0648 243.694 71.6648 243.862 72.1088 244.198C72.5648 244.534 72.7928 244.942 72.7928 245.422ZM76.7926 240.562V247.69C78.1246 247.114 79.1086 246.484 79.7446 245.8C80.3926 245.104 80.7166 244.402 80.7166 243.694C81.1246 243.694 81.4486 243.796 81.6886 244C81.9286 244.204 82.0486 244.48 82.0486 244.828C82.0486 245.44 81.6766 246.034 80.9326 246.61C80.2006 247.186 79.2346 247.666 78.0346 248.05C79.7386 250.15 80.9386 251.338 81.6346 251.614C81.9346 251.734 82.2946 251.794 82.7146 251.794C82.7146 252.178 82.6126 252.502 82.4086 252.766C82.2166 253.03 81.9466 253.162 81.5986 253.162C81.0466 253.162 80.4826 252.868 79.9066 252.28C79.3306 251.68 78.2926 250.372 76.7926 248.356V251.884C76.7926 252.232 76.9426 252.466 77.2426 252.586C76.9906 252.97 76.6786 253.162 76.3066 253.162C75.6346 253.162 75.2986 252.742 75.2986 251.902V240.598C75.2986 240.25 75.1486 240.01 74.8486 239.878C75.0526 239.506 75.3646 239.32 75.7846 239.32C76.4566 239.32 76.7926 239.734 76.7926 240.562ZM89.1785 247.456C89.6705 247.42 89.9165 247.138 89.9165 246.61C89.9165 246.07 89.7605 245.626 89.4485 245.278C89.1485 244.918 88.7225 244.738 88.1705 244.738C87.6185 244.738 87.1145 245.002 86.6585 245.53C86.2025 246.058 85.9205 246.79 85.8125 247.726L89.1785 247.456ZM85.7765 248.5C85.7765 249.676 86.0285 250.546 86.5325 251.11C87.0485 251.674 87.7805 251.956 88.7285 251.956C89.6765 251.956 90.4625 251.644 91.0865 251.02C91.2665 251.116 91.3565 251.278 91.3565 251.506C91.3565 251.902 91.0685 252.28 90.4925 252.64C89.9165 252.988 89.2325 253.162 88.4405 253.162C87.2045 253.162 86.1905 252.772 85.3985 251.992C84.6065 251.212 84.2105 250.12 84.2105 248.716C84.2105 247.3 84.6365 246.112 85.4885 245.152C86.3525 244.18 87.3425 243.694 88.4585 243.694C89.3465 243.694 90.0665 244 90.6185 244.612C91.1825 245.224 91.4645 245.92 91.4645 246.7C91.4645 247.264 91.3085 247.684 90.9965 247.96C90.6965 248.224 90.2045 248.368 89.5205 248.392L85.7765 248.5ZM99.8212 245.26C99.9052 245.032 99.9472 244.804 99.9472 244.576C99.9472 244.348 99.8632 244.144 99.6952 243.964C99.9592 243.784 100.253 243.694 100.577 243.694C100.901 243.694 101.165 243.856 101.369 244.18C101.465 244.348 101.513 244.54 101.513 244.756C101.513 244.96 101.459 245.194 101.351 245.458L97.6072 255.214C97.0192 256.714 96.2152 257.464 95.1952 257.464C94.8112 257.464 94.5112 257.368 94.2952 257.176C94.0792 256.984 93.9712 256.738 93.9712 256.438C93.9712 256.15 94.0672 255.916 94.2592 255.736C94.4752 255.964 94.7392 256.078 95.0512 256.078C95.3632 256.078 95.6092 255.994 95.7892 255.826C95.9812 255.658 96.1552 255.358 96.3112 254.926L96.9592 253.162C96.9472 253.162 96.9292 253.162 96.9052 253.162C96.6652 253.162 96.4432 253.084 96.2392 252.928C96.0352 252.76 95.8852 252.526 95.7892 252.226L93.3052 245.026C93.1852 244.582 92.9992 244.3 92.7472 244.18C92.9512 243.856 93.2692 243.694 93.7012 243.694C94.2172 243.694 94.5892 244.084 94.8172 244.864L97.2832 252.262L99.8212 245.26Z" fill="white"/>
<path d="M252.6 254.86H256.938L254.922 248.542L252.6 254.86ZM260.178 258.694C259.986 259.006 259.704 259.162 259.332 259.162C258.972 259.162 258.702 259.084 258.522 258.928C258.342 258.772 258.186 258.49 258.054 258.082L257.316 255.958H252.186L251.43 257.92C251.118 258.748 250.722 259.162 250.242 259.162C249.834 259.162 249.552 258.958 249.396 258.55C249.672 258.442 249.888 258.16 250.044 257.704L254.274 247.03C254.142 246.706 253.992 246.466 253.824 246.31C254.1 246.07 254.382 245.95 254.67 245.95C254.97 245.95 255.198 246.04 255.354 246.22C255.522 246.4 255.678 246.688 255.822 247.084L259.494 257.776C259.662 258.268 259.89 258.574 260.178 258.694ZM263.664 251.008V256.714C263.664 257.158 263.748 257.476 263.916 257.668C264.096 257.86 264.384 257.956 264.78 257.956C265.524 257.956 266.226 257.638 266.886 257.002C267.09 257.11 267.192 257.284 267.192 257.524C267.192 257.932 266.928 258.31 266.4 258.658C265.872 258.994 265.224 259.162 264.456 259.162C262.92 259.162 262.152 258.364 262.152 256.768V251.008C261.18 250.972 260.694 250.738 260.694 250.306C260.694 250.078 260.766 249.904 260.91 249.784C261.33 249.844 261.654 249.874 261.882 249.874H262.152V248.416C262.152 248.08 262.002 247.84 261.702 247.696C261.942 247.324 262.254 247.138 262.638 247.138C263.322 247.138 263.664 247.558 263.664 248.398V249.874H266.688C266.736 249.958 266.76 250.06 266.76 250.18C266.76 250.732 265.812 251.008 263.916 251.008H263.664ZM276.776 252.79V257.884C276.776 258.22 276.932 258.454 277.244 258.586C276.992 258.97 276.674 259.162 276.29 259.162C275.63 259.162 275.3 258.742 275.3 257.902V252.898C275.3 251.638 274.748 251.008 273.644 251.008C273.044 251.008 272.474 251.248 271.934 251.728C271.394 252.208 271.022 252.85 270.818 253.654V257.884C270.818 258.232 270.968 258.466 271.268 258.586C271.016 258.97 270.704 259.162 270.332 259.162C269.66 259.162 269.324 258.742 269.324 257.902V246.598C269.324 246.25 269.174 246.01 268.874 245.878C269.078 245.506 269.39 245.32 269.81 245.32C270.482 245.32 270.818 245.734 270.818 246.562V251.89C271.13 251.242 271.574 250.714 272.15 250.306C272.726 249.898 273.398 249.694 274.166 249.694C274.946 249.694 275.576 249.958 276.056 250.486C276.536 251.002 276.776 251.77 276.776 252.79ZM281.505 246.562V257.884C281.505 258.232 281.655 258.466 281.955 258.586C281.703 258.97 281.391 259.162 281.019 259.162C280.347 259.162 280.011 258.742 280.011 257.902V246.598C280.011 246.25 279.861 246.01 279.561 245.878C279.765 245.506 280.077 245.32 280.497 245.32C281.169 245.32 281.505 245.734 281.505 246.562ZM289.005 253.456C289.497 253.42 289.743 253.138 289.743 252.61C289.743 252.07 289.587 251.626 289.275 251.278C288.975 250.918 288.549 250.738 287.997 250.738C287.445 250.738 286.941 251.002 286.485 251.53C286.029 252.058 285.747 252.79 285.639 253.726L289.005 253.456ZM285.603 254.5C285.603 255.676 285.855 256.546 286.359 257.11C286.875 257.674 287.607 257.956 288.555 257.956C289.503 257.956 290.289 257.644 290.913 257.02C291.093 257.116 291.183 257.278 291.183 257.506C291.183 257.902 290.895 258.28 290.319 258.64C289.743 258.988 289.059 259.162 288.267 259.162C287.031 259.162 286.017 258.772 285.225 257.992C284.433 257.212 284.037 256.12 284.037 254.716C284.037 253.3 284.463 252.112 285.315 251.152C286.179 250.18 287.169 249.694 288.285 249.694C289.173 249.694 289.893 250 290.445 250.612C291.009 251.224 291.291 251.92 291.291 252.7C291.291 253.264 291.135 253.684 290.823 253.96C290.523 254.224 290.031 254.368 289.347 254.392L285.603 254.5ZM295.111 251.008V256.714C295.111 257.158 295.195 257.476 295.363 257.668C295.543 257.86 295.831 257.956 296.227 257.956C296.971 257.956 297.673 257.638 298.333 257.002C298.537 257.11 298.639 257.284 298.639 257.524C298.639 257.932 298.375 258.31 297.847 258.658C297.319 258.994 296.671 259.162 295.903 259.162C294.367 259.162 293.599 258.364 293.599 256.768V251.008C292.627 250.972 292.141 250.738 292.141 250.306C292.141 250.078 292.213 249.904 292.357 249.784C292.777 249.844 293.101 249.874 293.329 249.874H293.599V248.416C293.599 248.08 293.449 247.84 293.149 247.696C293.389 247.324 293.701 247.138 294.085 247.138C294.769 247.138 295.111 247.558 295.111 248.398V249.874H298.135C298.183 249.958 298.207 250.06 298.207 250.18C298.207 250.732 297.259 251.008 295.363 251.008H295.111ZM301.563 245.86C301.875 245.86 302.127 245.95 302.319 246.13C302.523 246.298 302.625 246.538 302.625 246.85C302.625 247.15 302.493 247.426 302.229 247.678C301.977 247.918 301.689 248.038 301.365 248.038C301.041 248.038 300.777 247.942 300.573 247.75C300.369 247.558 300.267 247.306 300.267 246.994C300.267 246.682 300.405 246.418 300.681 246.202C300.969 245.974 301.263 245.86 301.563 245.86ZM302.265 250.954V257.884C302.265 258.232 302.415 258.466 302.715 258.586C302.463 258.97 302.151 259.162 301.779 259.162C301.107 259.162 300.771 258.742 300.771 257.902V250.99C300.771 250.642 300.621 250.402 300.321 250.27C300.549 249.886 300.861 249.694 301.257 249.694C301.929 249.694 302.265 250.114 302.265 250.954ZM311.871 251.422C311.871 251.71 311.787 251.938 311.619 252.106C311.451 252.274 311.247 252.358 311.007 252.358C310.767 252.358 310.569 252.31 310.413 252.214C310.449 252.082 310.467 251.95 310.467 251.818C310.467 251.086 310.017 250.72 309.117 250.72C308.385 250.72 307.731 251.056 307.155 251.728C306.579 252.4 306.291 253.312 306.291 254.464C306.291 255.604 306.555 256.462 307.083 257.038C307.623 257.614 308.283 257.902 309.063 257.902C310.059 257.902 310.887 257.584 311.547 256.948C311.703 257.08 311.781 257.254 311.781 257.47C311.781 257.854 311.481 258.232 310.881 258.604C310.281 258.976 309.597 259.162 308.829 259.162C307.713 259.162 306.759 258.778 305.967 258.01C305.175 257.242 304.779 256.15 304.779 254.734C304.779 253.306 305.223 252.112 306.111 251.152C307.011 250.18 308.103 249.694 309.387 249.694C310.143 249.694 310.743 249.862 311.187 250.198C311.643 250.534 311.871 250.942 311.871 251.422ZM320.317 252.178C320.125 252.334 319.891 252.412 319.615 252.412C319.339 252.412 319.105 252.34 318.913 252.196C318.985 252.076 319.021 251.902 319.021 251.674C319.021 251.446 318.883 251.224 318.607 251.008C318.331 250.792 317.917 250.684 317.365 250.684C316.813 250.684 316.375 250.81 316.051 251.062C315.727 251.302 315.565 251.59 315.565 251.926C315.565 252.262 315.745 252.568 316.105 252.844C316.465 253.108 316.897 253.354 317.401 253.582C317.905 253.798 318.409 254.032 318.913 254.284C319.429 254.536 319.867 254.86 320.227 255.256C320.587 255.64 320.767 256.072 320.767 256.552C320.767 257.26 320.431 257.872 319.759 258.388C319.087 258.904 318.235 259.162 317.203 259.162C316.171 259.162 315.331 258.964 314.683 258.568C314.035 258.172 313.711 257.662 313.711 257.038C313.711 256.666 313.813 256.378 314.017 256.174C314.233 255.958 314.485 255.85 314.773 255.85C315.073 255.85 315.307 255.952 315.475 256.156C315.307 256.384 315.223 256.66 315.223 256.984C315.223 257.308 315.385 257.59 315.709 257.83C316.045 258.058 316.525 258.172 317.149 258.172C317.785 258.172 318.289 258.04 318.661 257.776C319.045 257.5 319.237 257.17 319.237 256.786C319.237 256.39 319.057 256.048 318.697 255.76C318.349 255.472 317.923 255.226 317.419 255.022C316.915 254.806 316.405 254.584 315.889 254.356C315.385 254.116 314.953 253.816 314.593 253.456C314.245 253.096 314.071 252.688 314.071 252.232C314.071 251.512 314.383 250.912 315.007 250.432C315.631 249.94 316.393 249.694 317.293 249.694C318.205 249.694 318.985 249.862 319.633 250.198C320.281 250.522 320.605 250.954 320.605 251.494C320.617 251.782 320.521 252.01 320.317 252.178Z" fill="white"/>
<path d="M460.6 254.86H464.938L462.922 248.542L460.6 254.86ZM468.178 258.694C467.986 259.006 467.704 259.162 467.332 259.162C466.972 259.162 466.702 259.084 466.522 258.928C466.342 258.772 466.186 258.49 466.054 258.082L465.316 255.958H460.186L459.43 257.92C459.118 258.748 458.722 259.162 458.242 259.162C457.834 259.162 457.552 258.958 457.396 258.55C457.672 258.442 457.888 258.16 458.044 257.704L462.274 247.03C462.142 246.706 461.992 246.466 461.824 246.31C462.1 246.07 462.382 245.95 462.67 245.95C462.97 245.95 463.198 246.04 463.354 246.22C463.522 246.4 463.678 246.688 463.822 247.084L467.494 257.776C467.662 258.268 467.89 258.574 468.178 258.694ZM471.664 251.008V256.714C471.664 257.158 471.748 257.476 471.916 257.668C472.096 257.86 472.384 257.956 472.78 257.956C473.524 257.956 474.226 257.638 474.886 257.002C475.09 257.11 475.192 257.284 475.192 257.524C475.192 257.932 474.928 258.31 474.4 258.658C473.872 258.994 473.224 259.162 472.456 259.162C470.92 259.162 470.152 258.364 470.152 256.768V251.008C469.18 250.972 468.694 250.738 468.694 250.306C468.694 250.078 468.766 249.904 468.91 249.784C469.33 249.844 469.654 249.874 469.882 249.874H470.152V248.416C470.152 248.08 470.002 247.84 469.702 247.696C469.942 247.324 470.254 247.138 470.638 247.138C471.322 247.138 471.664 247.558 471.664 248.398V249.874H474.688C474.736 249.958 474.76 250.06 474.76 250.18C474.76 250.732 473.812 251.008 471.916 251.008H471.664ZM484.776 252.79V257.884C484.776 258.22 484.932 258.454 485.244 258.586C484.992 258.97 484.674 259.162 484.29 259.162C483.63 259.162 483.3 258.742 483.3 257.902V252.898C483.3 251.638 482.748 251.008 481.644 251.008C481.044 251.008 480.474 251.248 479.934 251.728C479.394 252.208 479.022 252.85 478.818 253.654V257.884C478.818 258.232 478.968 258.466 479.268 258.586C479.016 258.97 478.704 259.162 478.332 259.162C477.66 259.162 477.324 258.742 477.324 257.902V246.598C477.324 246.25 477.174 246.01 476.874 245.878C477.078 245.506 477.39 245.32 477.81 245.32C478.482 245.32 478.818 245.734 478.818 246.562V251.89C479.13 251.242 479.574 250.714 480.15 250.306C480.726 249.898 481.398 249.694 482.166 249.694C482.946 249.694 483.576 249.958 484.056 250.486C484.536 251.002 484.776 251.77 484.776 252.79ZM489.505 246.562V257.884C489.505 258.232 489.655 258.466 489.955 258.586C489.703 258.97 489.391 259.162 489.019 259.162C488.347 259.162 488.011 258.742 488.011 257.902V246.598C488.011 246.25 487.861 246.01 487.561 245.878C487.765 245.506 488.077 245.32 488.497 245.32C489.169 245.32 489.505 245.734 489.505 246.562ZM497.005 253.456C497.497 253.42 497.743 253.138 497.743 252.61C497.743 252.07 497.587 251.626 497.275 251.278C496.975 250.918 496.549 250.738 495.997 250.738C495.445 250.738 494.941 251.002 494.485 251.53C494.029 252.058 493.747 252.79 493.639 253.726L497.005 253.456ZM493.603 254.5C493.603 255.676 493.855 256.546 494.359 257.11C494.875 257.674 495.607 257.956 496.555 257.956C497.503 257.956 498.289 257.644 498.913 257.02C499.093 257.116 499.183 257.278 499.183 257.506C499.183 257.902 498.895 258.28 498.319 258.64C497.743 258.988 497.059 259.162 496.267 259.162C495.031 259.162 494.017 258.772 493.225 257.992C492.433 257.212 492.037 256.12 492.037 254.716C492.037 253.3 492.463 252.112 493.315 251.152C494.179 250.18 495.169 249.694 496.285 249.694C497.173 249.694 497.893 250 498.445 250.612C499.009 251.224 499.291 251.92 499.291 252.7C499.291 253.264 499.135 253.684 498.823 253.96C498.523 254.224 498.031 254.368 497.347 254.392L493.603 254.5ZM503.111 251.008V256.714C503.111 257.158 503.195 257.476 503.363 257.668C503.543 257.86 503.831 257.956 504.227 257.956C504.971 257.956 505.673 257.638 506.333 257.002C506.537 257.11 506.639 257.284 506.639 257.524C506.639 257.932 506.375 258.31 505.847 258.658C505.319 258.994 504.671 259.162 503.903 259.162C502.367 259.162 501.599 258.364 501.599 256.768V251.008C500.627 250.972 500.141 250.738 500.141 250.306C500.141 250.078 500.213 249.904 500.357 249.784C500.777 249.844 501.101 249.874 501.329 249.874H501.599V248.416C501.599 248.08 501.449 247.84 501.149 247.696C501.389 247.324 501.701 247.138 502.085 247.138C502.769 247.138 503.111 247.558 503.111 248.398V249.874H506.135C506.183 249.958 506.207 250.06 506.207 250.18C506.207 250.732 505.259 251.008 503.363 251.008H503.111ZM509.563 245.86C509.875 245.86 510.127 245.95 510.319 246.13C510.523 246.298 510.625 246.538 510.625 246.85C510.625 247.15 510.493 247.426 510.229 247.678C509.977 247.918 509.689 248.038 509.365 248.038C509.041 248.038 508.777 247.942 508.573 247.75C508.369 247.558 508.267 247.306 508.267 246.994C508.267 246.682 508.405 246.418 508.681 246.202C508.969 245.974 509.263 245.86 509.563 245.86ZM510.265 250.954V257.884C510.265 258.232 510.415 258.466 510.715 258.586C510.463 258.97 510.151 259.162 509.779 259.162C509.107 259.162 508.771 258.742 508.771 257.902V250.99C508.771 250.642 508.621 250.402 508.321 250.27C508.549 249.886 508.861 249.694 509.257 249.694C509.929 249.694 510.265 250.114 510.265 250.954ZM519.871 251.422C519.871 251.71 519.787 251.938 519.619 252.106C519.451 252.274 519.247 252.358 519.007 252.358C518.767 252.358 518.569 252.31 518.413 252.214C518.449 252.082 518.467 251.95 518.467 251.818C518.467 251.086 518.017 250.72 517.117 250.72C516.385 250.72 515.731 251.056 515.155 251.728C514.579 252.4 514.291 253.312 514.291 254.464C514.291 255.604 514.555 256.462 515.083 257.038C515.623 257.614 516.283 257.902 517.063 257.902C518.059 257.902 518.887 257.584 519.547 256.948C519.703 257.08 519.781 257.254 519.781 257.47C519.781 257.854 519.481 258.232 518.881 258.604C518.281 258.976 517.597 259.162 516.829 259.162C515.713 259.162 514.759 258.778 513.967 258.01C513.175 257.242 512.779 256.15 512.779 254.734C512.779 253.306 513.223 252.112 514.111 251.152C515.011 250.18 516.103 249.694 517.387 249.694C518.143 249.694 518.743 249.862 519.187 250.198C519.643 250.534 519.871 250.942 519.871 251.422ZM528.317 252.178C528.125 252.334 527.891 252.412 527.615 252.412C527.339 252.412 527.105 252.34 526.913 252.196C526.985 252.076 527.021 251.902 527.021 251.674C527.021 251.446 526.883 251.224 526.607 251.008C526.331 250.792 525.917 250.684 525.365 250.684C524.813 250.684 524.375 250.81 524.051 251.062C523.727 251.302 523.565 251.59 523.565 251.926C523.565 252.262 523.745 252.568 524.105 252.844C524.465 253.108 524.897 253.354 525.401 253.582C525.905 253.798 526.409 254.032 526.913 254.284C527.429 254.536 527.867 254.86 528.227 255.256C528.587 255.64 528.767 256.072 528.767 256.552C528.767 257.26 528.431 257.872 527.759 258.388C527.087 258.904 526.235 259.162 525.203 259.162C524.171 259.162 523.331 258.964 522.683 258.568C522.035 258.172 521.711 257.662 521.711 257.038C521.711 256.666 521.813 256.378 522.017 256.174C522.233 255.958 522.485 255.85 522.773 255.85C523.073 255.85 523.307 255.952 523.475 256.156C523.307 256.384 523.223 256.66 523.223 256.984C523.223 257.308 523.385 257.59 523.709 257.83C524.045 258.058 524.525 258.172 525.149 258.172C525.785 258.172 526.289 258.04 526.661 257.776C527.045 257.5 527.237 257.17 527.237 256.786C527.237 256.39 527.057 256.048 526.697 255.76C526.349 255.472 525.923 255.226 525.419 255.022C524.915 254.806 524.405 254.584 523.889 254.356C523.385 254.116 522.953 253.816 522.593 253.456C522.245 253.096 522.071 252.688 522.071 252.232C522.071 251.512 522.383 250.912 523.007 250.432C523.631 249.94 524.393 249.694 525.293 249.694C526.205 249.694 526.985 249.862 527.633 250.198C528.281 250.522 528.605 250.954 528.605 251.494C528.617 251.782 528.521 252.01 528.317 252.178Z" fill="white"/>
<path d="M675.026 248.398C675.026 248.734 674.93 249.004 674.738 249.208C674.558 249.4 674.348 249.496 674.108 249.496C673.88 249.496 673.622 249.448 673.334 249.352C673.382 249.16 673.406 248.974 673.406 248.794C673.406 248.35 673.172 247.942 672.704 247.57C672.248 247.186 671.606 246.994 670.778 246.994C669.962 246.994 669.308 247.168 668.816 247.516C668.324 247.864 668.078 248.332 668.078 248.92C668.078 249.496 668.33 250 668.834 250.432C669.338 250.852 669.95 251.218 670.67 251.53C671.402 251.842 672.128 252.16 672.848 252.484C673.58 252.808 674.198 253.222 674.702 253.726C675.206 254.218 675.458 254.782 675.458 255.418C675.458 256.486 674.99 257.38 674.054 258.1C673.13 258.808 672.02 259.162 670.724 259.162C669.428 259.162 668.354 258.874 667.502 258.298C666.65 257.71 666.224 256.972 666.224 256.084C666.224 255.7 666.332 255.388 666.548 255.148C666.764 254.896 667.052 254.77 667.412 254.77C667.772 254.77 668.054 254.914 668.258 255.202C667.982 255.454 667.844 255.808 667.844 256.264C667.844 256.72 668.096 257.128 668.6 257.488C669.104 257.848 669.794 258.028 670.67 258.028C671.558 258.028 672.326 257.8 672.974 257.344C673.622 256.888 673.946 256.33 673.946 255.67C673.946 255.25 673.76 254.866 673.388 254.518C673.028 254.17 672.572 253.882 672.02 253.654C671.48 253.426 670.892 253.168 670.256 252.88C669.62 252.592 669.026 252.304 668.474 252.016C667.934 251.728 667.478 251.344 667.106 250.864C666.746 250.372 666.566 249.826 666.566 249.226C666.566 248.254 666.992 247.456 667.844 246.832C668.708 246.196 669.734 245.878 670.922 245.878C672.11 245.878 673.088 246.124 673.856 246.616C674.636 247.108 675.026 247.702 675.026 248.398ZM688.41 251.278C688.47 251.026 688.5 250.78 688.5 250.54C688.5 250.288 688.422 250.084 688.266 249.928C688.518 249.772 688.8 249.694 689.112 249.694C689.424 249.694 689.646 249.85 689.778 250.162C689.838 250.306 689.868 250.486 689.868 250.702C689.868 250.918 689.832 251.164 689.76 251.44L688.014 257.884C687.882 258.34 687.714 258.67 687.51 258.874C687.306 259.066 687.03 259.162 686.682 259.162C685.998 259.162 685.542 258.736 685.314 257.884L683.658 251.656L682.074 257.884C681.87 258.736 681.414 259.162 680.706 259.162C679.998 259.162 679.542 258.736 679.338 257.884L677.592 251.242C677.472 250.786 677.226 250.552 676.854 250.54C676.866 250.288 676.968 250.084 677.16 249.928C677.364 249.772 677.598 249.694 677.862 249.694C678.474 249.694 678.888 250.114 679.104 250.954L680.742 258.01L682.596 250.828C682.704 250.42 682.854 250.132 683.046 249.964C683.238 249.784 683.49 249.694 683.802 249.694C684.126 249.694 684.378 249.784 684.558 249.964C684.75 250.132 684.894 250.42 684.99 250.828L686.772 258.136L688.41 251.278ZM692.655 245.86C692.967 245.86 693.219 245.95 693.411 246.13C693.615 246.298 693.717 246.538 693.717 246.85C693.717 247.15 693.585 247.426 693.321 247.678C693.069 247.918 692.781 248.038 692.457 248.038C692.133 248.038 691.869 247.942 691.665 247.75C691.461 247.558 691.359 247.306 691.359 246.994C691.359 246.682 691.497 246.418 691.773 246.202C692.061 245.974 692.355 245.86 692.655 245.86ZM693.357 250.954V257.884C693.357 258.232 693.507 258.466 693.807 258.586C693.555 258.97 693.243 259.162 692.871 259.162C692.199 259.162 691.863 258.742 691.863 257.902V250.99C691.863 250.642 691.713 250.402 691.413 250.27C691.641 249.886 691.953 249.694 692.349 249.694C693.021 249.694 693.357 250.114 693.357 250.954ZM710.055 252.79V257.884C710.055 258.22 710.205 258.454 710.505 258.586C710.289 258.97 709.977 259.162 709.569 259.162C708.897 259.162 708.561 258.742 708.561 257.902V252.898C708.561 251.638 708.009 251.008 706.905 251.008C706.305 251.008 705.735 251.254 705.195 251.746C704.655 252.238 704.283 252.898 704.079 253.726V257.884C704.079 258.22 704.235 258.454 704.547 258.586C704.295 258.97 703.977 259.162 703.593 259.162C702.933 259.162 702.603 258.742 702.603 257.902V252.898C702.603 251.638 702.051 251.008 700.947 251.008C700.347 251.008 699.777 251.248 699.237 251.728C698.697 252.208 698.325 252.85 698.121 253.654V257.884C698.121 258.232 698.271 258.466 698.571 258.586C698.319 258.97 698.007 259.162 697.635 259.162C696.963 259.162 696.627 258.742 696.627 257.902V250.99C696.627 250.642 696.477 250.402 696.177 250.27C696.405 249.886 696.717 249.694 697.113 249.694C697.785 249.694 698.121 250.114 698.121 250.954V251.89C698.433 251.242 698.877 250.714 699.453 250.306C700.029 249.898 700.677 249.694 701.397 249.694C702.117 249.694 702.705 249.892 703.161 250.288C703.629 250.684 703.917 251.278 704.025 252.07C704.301 251.386 704.739 250.822 705.339 250.378C705.939 249.922 706.629 249.694 707.409 249.694C708.201 249.694 708.837 249.958 709.317 250.486C709.809 251.002 710.055 251.77 710.055 252.79ZM726.754 252.79V257.884C726.754 258.22 726.904 258.454 727.204 258.586C726.988 258.97 726.676 259.162 726.268 259.162C725.596 259.162 725.26 258.742 725.26 257.902V252.898C725.26 251.638 724.708 251.008 723.604 251.008C723.004 251.008 722.434 251.254 721.894 251.746C721.354 252.238 720.982 252.898 720.778 253.726V257.884C720.778 258.22 720.934 258.454 721.246 258.586C720.994 258.97 720.676 259.162 720.292 259.162C719.632 259.162 719.302 258.742 719.302 257.902V252.898C719.302 251.638 718.75 251.008 717.646 251.008C717.046 251.008 716.476 251.248 715.936 251.728C715.396 252.208 715.024 252.85 714.82 253.654V257.884C714.82 258.232 714.97 258.466 715.27 258.586C715.018 258.97 714.706 259.162 714.334 259.162C713.662 259.162 713.326 258.742 713.326 257.902V250.99C713.326 250.642 713.176 250.402 712.876 250.27C713.104 249.886 713.416 249.694 713.812 249.694C714.484 249.694 714.82 250.114 714.82 250.954V251.89C715.132 251.242 715.576 250.714 716.152 250.306C716.728 249.898 717.376 249.694 718.096 249.694C718.816 249.694 719.404 249.892 719.86 250.288C720.328 250.684 720.616 251.278 720.724 252.07C721 251.386 721.438 250.822 722.038 250.378C722.638 249.922 723.328 249.694 724.108 249.694C724.9 249.694 725.536 249.958 726.016 250.486C726.508 251.002 726.754 251.77 726.754 252.79ZM730.817 245.86C731.129 245.86 731.381 245.95 731.573 246.13C731.777 246.298 731.879 246.538 731.879 246.85C731.879 247.15 731.747 247.426 731.483 247.678C731.231 247.918 730.943 248.038 730.619 248.038C730.295 248.038 730.031 247.942 729.827 247.75C729.623 247.558 729.521 247.306 729.521 246.994C729.521 246.682 729.659 246.418 729.935 246.202C730.223 245.974 730.517 245.86 730.817 245.86ZM731.519 250.954V257.884C731.519 258.232 731.669 258.466 731.969 258.586C731.717 258.97 731.405 259.162 731.033 259.162C730.361 259.162 730.025 258.742 730.025 257.902V250.99C730.025 250.642 729.875 250.402 729.575 250.27C729.803 249.886 730.115 249.694 730.511 249.694C731.183 249.694 731.519 250.114 731.519 250.954ZM742.241 252.79V257.884C742.241 258.22 742.397 258.454 742.709 258.586C742.457 258.97 742.139 259.162 741.755 259.162C741.095 259.162 740.765 258.742 740.765 257.902V252.898C740.765 251.638 740.213 251.008 739.109 251.008C738.509 251.008 737.939 251.248 737.399 251.728C736.859 252.208 736.487 252.85 736.283 253.654V257.884C736.283 258.232 736.433 258.466 736.733 258.586C736.481 258.97 736.169 259.162 735.797 259.162C735.125 259.162 734.789 258.742 734.789 257.902V250.99C734.789 250.642 734.639 250.402 734.339 250.27C734.567 249.886 734.879 249.694 735.275 249.694C735.947 249.694 736.283 250.114 736.283 250.954V251.89C736.595 251.242 737.039 250.714 737.615 250.306C738.191 249.898 738.863 249.694 739.631 249.694C740.411 249.694 741.041 249.958 741.521 250.486C742.001 251.002 742.241 251.77 742.241 252.79ZM747.24 255.292C747.648 255.772 748.134 256.012 748.698 256.012C749.262 256.012 749.718 255.784 750.066 255.328C750.414 254.86 750.588 254.272 750.588 253.564C750.588 252.604 750.366 251.866 749.922 251.35C749.478 250.822 748.974 250.558 748.41 250.558C747.858 250.558 747.408 250.786 747.06 251.242C746.712 251.698 746.538 252.25 746.538 252.898C746.538 253.018 746.544 253.144 746.556 253.276C746.616 254.128 746.844 254.8 747.24 255.292ZM750.354 259.576H748.05C747.198 259.576 746.508 259.426 745.98 259.126C745.452 258.838 745.188 258.358 745.188 257.686C745.188 257.002 745.596 256.492 746.412 256.156C745.5 255.484 745.044 254.566 745.044 253.402C745.044 252.238 745.398 251.332 746.106 250.684C746.814 250.024 747.636 249.694 748.572 249.694C749.22 249.694 749.814 249.856 750.354 250.18C750.426 249.604 750.642 249.136 751.002 248.776C751.374 248.416 751.758 248.236 752.154 248.236C752.562 248.236 752.874 248.332 753.09 248.524C753.318 248.716 753.432 248.974 753.432 249.298C753.432 249.61 753.306 249.838 753.054 249.982C752.79 249.778 752.508 249.676 752.208 249.676C751.908 249.676 751.65 249.772 751.434 249.964C751.23 250.144 751.098 250.384 751.038 250.684C751.746 251.368 752.1 252.244 752.1 253.312C752.1 254.38 751.746 255.238 751.038 255.886C750.33 256.534 749.508 256.858 748.572 256.858C748.104 256.858 747.678 256.78 747.294 256.624C746.766 256.756 746.502 257.014 746.502 257.398C746.502 257.686 746.634 257.89 746.898 258.01C747.174 258.13 747.612 258.19 748.212 258.19H750.282C751.158 258.19 751.824 258.382 752.28 258.766C752.748 259.15 752.982 259.678 752.982 260.35C752.982 261.238 752.544 261.976 751.668 262.564C750.792 263.152 749.73 263.446 748.482 263.446C747.234 263.446 746.25 263.212 745.53 262.744C744.81 262.276 744.444 261.712 744.432 261.052C744.432 260.704 744.528 260.422 744.72 260.206C744.924 259.99 745.176 259.852 745.476 259.792C745.548 261.388 746.64 262.186 748.752 262.186C749.712 262.186 750.456 262.03 750.984 261.718C751.524 261.418 751.794 261.016 751.794 260.512C751.794 259.888 751.314 259.576 750.354 259.576Z" fill="white"/>
<rect x="38.5" y="47.5" width="184" height="184" fill="#5A0A17" stroke="#852D35" stroke-width="5"/>
<path d="M114.813 118.574C125.794 138.862 141.365 145.569 147.333 149.958C156.437 128.528 155.03 108.097 152.564 97.8826C151.825 94.8211 149.241 92.5377 146.097 92.7251C134.248 93.4314 120.07 104.636 114.904 111.758C113.444 113.771 113.63 116.387 114.813 118.574Z" stroke="white" stroke-width="3"/>
<path d="M146.551 149L192.051 193" stroke="white" stroke-width="3"/>
<path d="M190.701 174.152C194.781 178.417 195.619 182.112 195.194 184.975C194.777 187.787 193.096 190.112 191.351 191.663L183.837 184.597C187.86 180.019 189.785 176.514 190.701 174.152Z" stroke="white" stroke-width="3"/>
<circle cx="165" cy="84" r="9.5" stroke="white" stroke-width="3"/>
<path d="M140.024 207.5L140.024 161C128.024 153.8 114.524 136 106.524 125V168.5H69.5491C67.8824 167.5 64.555 163 65.0496 159" stroke="white" stroke-width="3" stroke-linecap="round" stroke-linejoin="round"/>
<rect x="246.5" y="47.5" width="184" height="184" fill="#5A0A17" stroke="#852D35" stroke-width="5"/>
<path d="M309.117 163.231C313.028 157.319 316.84 148.551 328.712 136.254C331.09 133.791 334.65 132.954 337.432 134.948C343.716 139.452 352.455 148.857 357.759 157.407C360.4 161.663 358.147 166.736 353.171 167.314C343.562 168.43 328.252 167.564 309.117 163.231ZM309.117 163.231L285.117 189.231" stroke="white" stroke-width="3" stroke-linecap="round"/>
<path d="M330.547 113L349.547 95.5L369.797 115.25M405.047 119.5L390.047 135L369.797 115.25M369.797 115.25C369.714 123.333 364.447 139.6 344.047 140C344.214 131.75 349.597 115.25 369.797 115.25Z" stroke="white" stroke-width="3" stroke-linecap="round" stroke-linejoin="round"/>
<circle cx="383.047" cy="101" r="9.5" stroke="white" stroke-width="3"/>
<rect x="454.5" y="45.5" width="184" height="184" fill="#5A0A17" stroke="#852D35" stroke-width="5"/>
<path d="M530.227 103.5C519.356 112.394 511.648 125.933 530.227 140.559M530.227 103.5C550.979 120.794 538.132 135.288 530.227 140.559M530.227 103.5C527.5 103.5 519.5 103.5 503 103.5M530.227 103.5C532 103.5 545.5 103.5 590 103.5M530.227 140.559C538.151 149.373 554.2 175.3 555 208.5M530.227 140.559C522.818 150.039 507.7 176.9 506.5 208.5" stroke="white" stroke-width="3" stroke-linecap="round"/>
<path d="M584 67C590.5 80.5 597.8 119.3 575 166.5" stroke="white" stroke-width="3" stroke-linecap="round" stroke-linejoin="round"/>
<circle cx="531" cy="82.5" r="9.5" stroke="white" stroke-width="3"/>
<rect x="662.5" y="45.5" width="184" height="184" fill="#5A0A17" stroke="#852D35" stroke-width="5"/>
<circle cx="763" cy="128" r="9.5" stroke="white" stroke-width="3"/>
<path d="M683.029 158.542C689.525 153.993 696.501 151.44 706.803 158.361" stroke="white" stroke-width="3" stroke-linecap="round" stroke-linejoin="round"/>
<path d="M707.275 158.719C713.771 154.17 720.747 151.617 731.049 158.539" stroke="white" stroke-width="3" stroke-linecap="round" stroke-linejoin="round"/>
<path d="M731.513 158.898C738.01 154.349 744.986 151.796 755.287 158.718" stroke="white" stroke-width="3" stroke-linecap="round" stroke-linejoin="round"/>
<path d="M755.759 159.077C762.256 154.528 769.232 151.975 779.533 158.897" stroke="white" stroke-width="3" stroke-linecap="round" stroke-linejoin="round"/>
<path d="M779.994 159.077C786.49 154.528 793.466 151.975 803.768 158.897" stroke="white" stroke-width="3" stroke-linecap="round" stroke-linejoin="round"/>
<path d="M804.224 159.078C810.721 154.529 817.697 151.976 827.998 158.898" stroke="white" stroke-width="3" stroke-linecap="round" stroke-linejoin="round"/>
<path d="M710.5 136.5L728 122.5L751.5 146" stroke="white" stroke-width="3" stroke-linecap="round" stroke-linejoin="round"/>
<path d="M751.5 146H798.5" stroke="white" stroke-width="3" stroke-linecap="round" stroke-linejoin="round"/>
<path d="M723.233 144.965L742.618 137.293L751.715 145.805C743.088 154.257 725.509 148.292 723.233 144.965Z" stroke="white" stroke-width="3" stroke-linejoin="round"/>
<rect x="870.5" y="47.5" width="184" height="184" fill="#5A0A17" stroke="#852D35" stroke-width="5"/>
<path d="M969.309 120.976C965.856 127.531 961.54 143.926 943.111 157.803C941.124 159.298 938.565 159.871 936.358 158.726C928.546 154.677 915.357 142.324 912.896 130.712C912.243 127.631 914.117 124.735 917.034 123.549C926.768 119.592 946.763 115.162 969.309 120.976ZM969.309 120.976L974.5 116M974.5 116L970.5 111.5L1000 83L1008.5 91L979 120.5L974.5 116Z" stroke="white" stroke-width="3" stroke-linejoin="round"/>
<circle cx="916.5" cy="105" r="9.5" stroke="white" stroke-width="3"/>
<circle cx="1023.5" cy="77" r="3.5" stroke="white" stroke-width="3"/>
<path d="M942.5 159.5L962 179.5L937 205.5" stroke="white" stroke-width="3" stroke-linecap="round" stroke-linejoin="round"/>
<path d="M954 150.5L1008 204.5" stroke="white" stroke-width="3" stroke-linecap="round" stroke-linejoin="round"/>
<path d="M897 207V161.5H905.5M905.5 161.5V207M905.5 161.5H914.5V207" stroke="white" stroke-width="3" stroke-linecap="round" stroke-linejoin="round"/>
<path d="M883.89 248.11C883.89 248.41 883.794 248.644 883.602 248.812C883.41 248.98 883.17 249.064 882.882 249.064C882.606 249.064 882.39 249.022 882.234 248.938C882.246 248.854 882.252 248.776 882.252 248.704C882.252 248.296 882.066 247.93 881.694 247.606C881.322 247.282 880.74 247.12 879.948 247.12C878.844 247.12 877.878 247.594 877.05 248.542C876.234 249.478 875.826 250.798 875.826 252.502C875.826 254.206 876.198 255.514 876.942 256.426C877.686 257.326 878.724 257.776 880.056 257.776C880.764 257.776 881.424 257.632 882.036 257.344C882.648 257.056 883.152 256.714 883.548 256.318C883.632 256.33 883.71 256.39 883.782 256.498C883.866 256.594 883.908 256.726 883.908 256.894C883.908 257.338 883.482 257.83 882.63 258.37C881.79 258.898 880.794 259.162 879.642 259.162C878.046 259.162 876.732 258.586 875.7 257.434C874.68 256.282 874.17 254.71 874.17 252.718C874.17 250.726 874.752 249.1 875.916 247.84C877.08 246.58 878.526 245.95 880.254 245.95C881.286 245.95 882.15 246.16 882.846 246.58C883.542 247 883.89 247.51 883.89 248.11ZM888.332 250.954V251.62C888.836 250.336 889.67 249.694 890.834 249.694C891.398 249.694 891.836 249.838 892.148 250.126C892.46 250.414 892.616 250.75 892.616 251.134C892.616 251.506 892.52 251.794 892.328 251.998C892.136 252.19 891.938 252.286 891.734 252.286C891.53 252.286 891.344 252.262 891.176 252.214C891.2 252.094 891.212 251.938 891.212 251.746C891.212 251.146 890.912 250.846 890.312 250.846C889.916 250.846 889.526 251.044 889.142 251.44C888.758 251.836 888.488 252.442 888.332 253.258V257.884C888.332 258.232 888.482 258.466 888.782 258.586C888.53 258.97 888.218 259.162 887.846 259.162C887.174 259.162 886.838 258.742 886.838 257.902V250.99C886.838 250.642 886.688 250.402 886.388 250.27C886.616 249.886 886.928 249.694 887.324 249.694C887.996 249.694 888.332 250.114 888.332 250.954ZM895.206 245.86C895.518 245.86 895.77 245.95 895.962 246.13C896.166 246.298 896.268 246.538 896.268 246.85C896.268 247.15 896.136 247.426 895.872 247.678C895.62 247.918 895.332 248.038 895.008 248.038C894.684 248.038 894.42 247.942 894.216 247.75C894.012 247.558 893.91 247.306 893.91 246.994C893.91 246.682 894.048 246.418 894.324 246.202C894.612 245.974 894.906 245.86 895.206 245.86ZM895.908 250.954V257.884C895.908 258.232 896.058 258.466 896.358 258.586C896.106 258.97 895.794 259.162 895.422 259.162C894.75 259.162 894.414 258.742 894.414 257.902V250.99C894.414 250.642 894.264 250.402 893.964 250.27C894.192 249.886 894.504 249.694 894.9 249.694C895.572 249.694 895.908 250.114 895.908 250.954ZM905.513 251.422C905.513 251.71 905.429 251.938 905.261 252.106C905.093 252.274 904.889 252.358 904.649 252.358C904.409 252.358 904.211 252.31 904.055 252.214C904.091 252.082 904.109 251.95 904.109 251.818C904.109 251.086 903.659 250.72 902.759 250.72C902.027 250.72 901.373 251.056 900.797 251.728C900.221 252.4 899.933 253.312 899.933 254.464C899.933 255.604 900.197 256.462 900.725 257.038C901.265 257.614 901.925 257.902 902.705 257.902C903.701 257.902 904.529 257.584 905.189 256.948C905.345 257.08 905.423 257.254 905.423 257.47C905.423 257.854 905.123 258.232 904.523 258.604C903.923 258.976 903.239 259.162 902.471 259.162C901.355 259.162 900.401 258.778 899.609 258.01C898.817 257.242 898.421 256.15 898.421 254.734C898.421 253.306 898.865 252.112 899.753 251.152C900.653 250.18 901.745 249.694 903.029 249.694C903.785 249.694 904.385 249.862 904.829 250.198C905.285 250.534 905.513 250.942 905.513 251.422ZM909.513 246.562V253.69C910.845 253.114 911.829 252.484 912.465 251.8C913.113 251.104 913.437 250.402 913.437 249.694C913.845 249.694 914.169 249.796 914.409 250C914.649 250.204 914.769 250.48 914.769 250.828C914.769 251.44 914.397 252.034 913.653 252.61C912.921 253.186 911.955 253.666 910.755 254.05C912.459 256.15 913.659 257.338 914.355 257.614C914.655 257.734 915.015 257.794 915.435 257.794C915.435 258.178 915.333 258.502 915.129 258.766C914.937 259.03 914.667 259.162 914.319 259.162C913.767 259.162 913.203 258.868 912.627 258.28C912.051 257.68 911.013 256.372 909.513 254.356V257.884C909.513 258.232 909.663 258.466 909.963 258.586C909.711 258.97 909.399 259.162 909.027 259.162C908.355 259.162 908.019 258.742 908.019 257.902V246.598C908.019 246.25 907.869 246.01 907.569 245.878C907.773 245.506 908.085 245.32 908.505 245.32C909.177 245.32 909.513 245.734 909.513 246.562ZM921.899 253.456C922.391 253.42 922.637 253.138 922.637 252.61C922.637 252.07 922.481 251.626 922.169 251.278C921.869 250.918 921.443 250.738 920.891 250.738C920.339 250.738 919.835 251.002 919.379 251.53C918.923 252.058 918.641 252.79 918.533 253.726L921.899 253.456ZM918.497 254.5C918.497 255.676 918.749 256.546 919.253 257.11C919.769 257.674 920.501 257.956 921.449 257.956C922.397 257.956 923.183 257.644 923.807 257.02C923.987 257.116 924.077 257.278 924.077 257.506C924.077 257.902 923.789 258.28 923.213 258.64C922.637 258.988 921.953 259.162 921.161 259.162C919.925 259.162 918.911 258.772 918.119 257.992C917.327 257.212 916.931 256.12 916.931 254.716C916.931 253.3 917.357 252.112 918.209 251.152C919.073 250.18 920.063 249.694 921.179 249.694C922.067 249.694 922.787 250 923.339 250.612C923.903 251.224 924.185 251.92 924.185 252.7C924.185 253.264 924.029 253.684 923.717 253.96C923.417 254.224 922.925 254.368 922.241 254.392L918.497 254.5ZM928.006 251.008V256.714C928.006 257.158 928.09 257.476 928.258 257.668C928.438 257.86 928.726 257.956 929.122 257.956C929.866 257.956 930.568 257.638 931.228 257.002C931.432 257.11 931.534 257.284 931.534 257.524C931.534 257.932 931.27 258.31 930.742 258.658C930.214 258.994 929.566 259.162 928.798 259.162C927.262 259.162 926.494 258.364 926.494 256.768V251.008C925.522 250.972 925.036 250.738 925.036 250.306C925.036 250.078 925.108 249.904 925.252 249.784C925.672 249.844 925.996 249.874 926.224 249.874H926.494V248.416C926.494 248.08 926.344 247.84 926.044 247.696C926.284 247.324 926.596 247.138 926.98 247.138C927.664 247.138 928.006 247.558 928.006 248.398V249.874H931.03C931.078 249.958 931.102 250.06 931.102 250.18C931.102 250.732 930.154 251.008 928.258 251.008H928.006Z" fill="white"/>
</svg>
