<svg width="1104" height="408" viewBox="0 0 1104 408" fill="none" xmlns="http://www.w3.org/2000/svg">
<g clip-path="url(#clip0_548_11207)">
<rect width="1104" height="408" rx="10" fill="#5A0A17"/>
<path d="M12.3632 404C20.6965 398.5 32.3632 383.4 12.3632 367C3.86324 373 -8.03674 388.8 12.3632 404Z" stroke="#4B040F" stroke-width="5"/>
<path d="M31.4062 422.5L12.2063 442C-8.9937 426.8 3.37297 409.667 12.2063 404L31.4062 422.5Z" stroke="#4B040F" stroke-width="5"/>
<path d="M49.5523 440.6L31.5523 422.6C44.5086 410.036 49.2117 400.94 50.0113 397.772C50.0306 397.696 50.1287 397.676 50.1844 397.732C70.7994 418.47 58.3669 434.945 49.5523 440.6Z" stroke="#4B040F" stroke-width="5"/>
<path d="M30.9062 307.5L11.7063 327C-9.4937 311.8 2.87297 294.667 11.7063 289L30.9062 307.5Z" stroke="#4B040F" stroke-width="5"/>
<path d="M11.3632 364C19.6965 358.5 31.3632 343.4 11.3632 327C2.86324 333 -9.03674 348.8 11.3632 364Z" stroke="#4B040F" stroke-width="5"/>
<path d="M12.3632 214C20.6965 208.5 32.3632 193.4 12.3632 177C3.86324 183 -8.03674 198.8 12.3632 214Z" stroke="#4B040F" stroke-width="5"/>
<path d="M68.4062 270.5L48.9062 289.5C27.7062 274.3 40.373 256.667 49.2063 251L68.4062 270.5Z" stroke="#4B040F" stroke-width="5"/>
<path d="M31.4062 232.5L12.2063 252C-8.9937 236.8 3.37297 219.667 12.2063 214L31.4062 232.5Z" stroke="#4B040F" stroke-width="5"/>
<path d="M48.9058 289.5L30.9058 307.5C43.8621 320.064 48.5652 329.159 49.3648 332.328C49.3841 332.404 49.4822 332.424 49.5379 332.368C70.1529 311.63 57.7204 295.155 48.9058 289.5Z" stroke="#4B040F" stroke-width="5"/>
<path d="M49.5523 250.6L31.5523 232.6C44.5086 220.036 49.2117 210.94 50.0113 207.772C50.0306 207.696 50.1287 207.676 50.1844 207.732C70.7994 228.47 58.3669 244.945 49.5523 250.6Z" stroke="#4B040F" stroke-width="5"/>
<path d="M11.9062 289C20.2395 283.5 31.9062 268.4 11.9062 252C3.4062 258 -8.49377 273.8 11.9062 289Z" stroke="#4B040F" stroke-width="5"/>
<path d="M30.9062 117.5L11.7063 137C-9.4937 121.8 2.87297 104.667 11.7063 99L30.9062 117.5Z" stroke="#4B040F" stroke-width="5"/>
<path d="M11.3632 174C19.6965 168.5 31.3632 153.4 11.3632 137C2.86324 143 -9.03674 158.8 11.3632 174Z" stroke="#4B040F" stroke-width="5"/>
<path d="M12.3632 24C20.6965 18.5 32.3632 3.4 12.3632 -13C3.86324 -7 -8.03674 8.8 12.3632 24Z" stroke="#4B040F" stroke-width="5"/>
<path d="M68.4062 80.5L48.9062 99.5C27.7062 84.3 40.373 66.6667 49.2063 61L68.4062 80.5Z" stroke="#4B040F" stroke-width="5"/>
<path d="M31.4062 42.5L12.2063 62C-8.9937 46.8 3.37297 29.6667 12.2063 24L31.4062 42.5Z" stroke="#4B040F" stroke-width="5"/>
<path d="M48.9058 99.5L30.9058 117.5C43.8621 130.064 48.5652 139.159 49.3648 142.328C49.3841 142.404 49.4822 142.424 49.5379 142.368C70.1529 121.63 57.7204 105.155 48.9058 99.5Z" stroke="#4B040F" stroke-width="5"/>
<path d="M49.5523 60.5996L31.5523 42.5996C44.5086 30.0359 49.2117 20.9405 50.0113 17.7721C50.0306 17.6955 50.1287 17.6761 50.1844 17.732C70.7994 38.4698 58.3669 54.945 49.5523 60.5996Z" stroke="#4B040F" stroke-width="5"/>
<path d="M11.9062 99C20.2395 93.5 31.9062 78.4 11.9062 62C3.4062 68 -8.49377 83.8 11.9062 99Z" stroke="#4B040F" stroke-width="5"/>
<g clip-path="url(#clip1_548_11207)">
<path d="M874.389 71.311L909.394 36.7949L943.281 71.311L909.394 105.827L874.389 71.311Z" fill="#5A0A17" stroke="white" stroke-width="4"/>
<path d="M874.465 71.366L842.739 103.157L820.394 79.9668C818.428 77.9266 817.148 75.263 817.105 72.4268C816.757 49.2775 833.465 45.2032 844.734 46.3149C847.003 46.5389 849.06 47.6645 850.729 49.2218L874.465 71.366Z" fill="#5A0A17" stroke="white" stroke-width="4"/>
<path d="M902.352 -10.688C876.144 0.904938 895.353 25.2823 909.363 36.7951C936.726 11.8142 927.762 -3.41747 916.137 -10.1849C911.954 -12.6202 906.778 -12.6458 902.352 -10.688Z" fill="#5A0A17" stroke="white" stroke-width="4"/>
<path d="M835.727 150.676C809.519 139.084 828.728 114.706 842.739 103.193C870.101 128.174 861.137 143.406 849.512 150.174C845.329 152.608 840.153 152.634 835.727 150.676Z" fill="#5A0A17" stroke="white" stroke-width="4"/>
<path d="M990.666 64.2372C979.097 37.9752 954.769 57.2235 943.279 71.2634C968.209 98.6818 983.41 89.699 990.164 78.051C992.594 73.8583 992.619 68.6724 990.666 64.2372Z" fill="#5A0A17" stroke="white" stroke-width="4"/>
<path d="M944.731 346.168L909.727 380.684L875.84 346.168L909.727 311.652L944.731 346.168Z" fill="#5A0A17" stroke="white" stroke-width="4"/>
<path d="M944.656 346.115L976.383 314.323L998.727 337.514C1000.69 339.554 1001.97 342.218 1002.02 345.054C1002.36 368.203 985.656 372.278 974.388 371.166C972.117 370.941 970.061 369.816 968.392 368.259L944.656 346.115Z" fill="#5A0A17" stroke="white" stroke-width="4"/>
<path d="M916.768 428.169C942.977 416.577 923.768 392.199 909.757 380.686C882.394 405.667 891.358 420.898 902.983 427.666C907.166 430.101 912.342 430.127 916.768 428.169Z" fill="#5A0A17" stroke="white" stroke-width="4"/>
<path d="M983.393 266.804C1009.6 278.397 990.393 302.775 976.381 314.287C949.02 289.306 957.983 274.075 969.608 267.307C973.792 264.872 978.967 264.846 983.393 266.804Z" fill="#5A0A17" stroke="white" stroke-width="4"/>
<path d="M828.454 353.244C840.023 379.506 864.351 360.258 875.84 346.218C850.91 318.8 835.71 327.782 828.956 339.431C826.526 343.623 826.5 348.809 828.454 353.244Z" fill="#5A0A17" stroke="white" stroke-width="4"/>
<path d="M1046.07 173.951L1080.52 209.027L1046.07 242.983L1011.63 209.027L1046.07 173.951Z" fill="#5A0A17" stroke="white" stroke-width="4"/>
<path d="M1046.02 174.03L1014.29 142.238L1037.43 119.848C1039.47 117.878 1042.13 116.595 1044.96 116.552C1068.06 116.203 1072.12 132.945 1071.02 144.237C1070.79 146.512 1069.67 148.572 1068.11 150.245L1046.02 174.03Z" fill="#5A0A17" stroke="white" stroke-width="4"/>
<path d="M1127.9 201.972C1116.33 175.711 1092.01 194.958 1080.52 208.999C1105.45 236.417 1120.65 227.434 1127.4 215.786C1129.83 211.594 1129.86 206.408 1127.9 201.972Z" fill="#5A0A17" stroke="white" stroke-width="4"/>
<path d="M966.867 135.212C978.437 108.95 1002.76 128.198 1014.25 142.238C989.324 169.657 974.124 160.674 967.37 149.025C964.939 144.833 964.914 139.648 966.867 135.212Z" fill="#5A0A17" stroke="white" stroke-width="4"/>
<path d="M1053.14 290.467C1079.34 278.875 1060.13 254.497 1046.12 242.984C1018.76 267.965 1027.73 283.197 1039.35 289.965C1043.53 292.399 1048.71 292.425 1053.14 290.467Z" fill="#5A0A17" stroke="white" stroke-width="4"/>
<path d="M772.135 243.894L737.689 208.819L772.135 174.861L806.581 208.819L772.135 243.894Z" fill="#5A0A17" stroke="white" stroke-width="4"/>
<path d="M772.193 243.815L803.92 275.607L780.777 297.998C778.741 299.968 776.082 301.251 773.252 301.293C750.15 301.643 746.084 284.9 747.193 273.608C747.417 271.334 748.54 269.273 750.094 267.6L772.193 243.815Z" fill="#5A0A17" stroke="white" stroke-width="4"/>
<path d="M690.305 215.871C701.874 242.133 726.202 222.885 737.691 208.846C712.761 181.427 697.561 190.409 690.807 202.058C688.377 206.25 688.351 211.436 690.305 215.871Z" fill="#5A0A17" stroke="white" stroke-width="4"/>
<path d="M851.342 282.633C839.773 308.895 815.445 289.647 803.955 275.607C828.885 248.189 844.086 257.171 850.839 268.82C853.27 273.012 853.295 278.198 851.342 282.633Z" fill="#5A0A17" stroke="white" stroke-width="4"/>
<path d="M765.073 127.378C738.864 138.97 758.073 163.347 772.085 174.86C799.447 149.879 790.483 134.648 778.858 127.88C774.675 125.445 769.499 125.419 765.073 127.378Z" fill="#5A0A17" stroke="white" stroke-width="4"/>
<path d="M874.564 208.832L909.569 174.316L943.456 208.832L909.569 243.349L874.564 208.832Z" fill="#5A0A17" stroke="white" stroke-width="4"/>
<path d="M909.556 106.011C889.614 122.36 875.473 147.248 909.556 174.135C924.06 164.446 947.628 137.802 909.556 106.011Z" fill="#5A0A17" stroke="white" stroke-width="4"/>
<path d="M909.666 243.349C889.723 259.699 875.583 284.586 909.666 311.472C924.169 301.784 947.738 275.14 909.666 243.349Z" fill="#5A0A17" stroke="white" stroke-width="4"/>
<path d="M943.639 208.904C959.955 228.887 984.792 243.058 1011.62 208.904C1001.95 194.371 975.365 170.755 943.639 208.904Z" fill="#5A0A17" stroke="white" stroke-width="4"/>
<path d="M874.565 208.724C858.249 228.707 833.412 242.877 806.58 208.724C816.249 194.191 842.838 170.574 874.565 208.724Z" fill="#5A0A17" stroke="white" stroke-width="4"/>
</g>
<path d="M219.366 194.376C219.366 195.262 219.086 195.952 218.526 196.448C217.966 196.944 217.265 197.192 216.425 197.192C215.619 197.192 214.989 197.068 214.534 196.82C214.569 196.572 214.586 196.342 214.586 196.129C214.586 194.925 214.043 193.845 212.958 192.888C211.872 191.932 210.174 191.454 207.862 191.454C204.64 191.454 201.821 192.853 199.405 195.651C197.023 198.414 195.833 202.311 195.833 207.341C195.833 212.371 196.918 216.232 199.09 218.924C201.261 221.58 204.29 222.909 208.177 222.909C210.244 222.909 212.17 222.484 213.956 221.634C215.742 220.783 217.213 219.774 218.368 218.605C218.613 218.64 218.841 218.817 219.051 219.136C219.296 219.42 219.419 219.809 219.419 220.305C219.419 221.616 218.176 223.068 215.689 224.662C213.238 226.221 210.331 227 206.969 227C202.312 227 198.477 225.3 195.465 221.899C192.488 218.499 191 213.858 191 207.978C191 202.098 192.698 197.298 196.095 193.579C199.492 189.86 203.712 188 208.755 188C211.767 188 214.288 188.62 216.32 189.86C218.351 191.099 219.366 192.605 219.366 194.376ZM257.176 191.666V223.228C257.176 224.255 257.614 224.946 258.489 225.3C257.789 226.433 256.878 227 255.757 227C253.796 227 252.816 225.76 252.816 223.281V209.094H232.592V223.228C232.592 224.219 233.012 224.91 233.852 225.3C233.152 226.433 232.224 227 231.068 227C229.142 227 228.179 225.76 228.179 223.281V191.719C228.179 190.727 227.741 190.037 226.866 189.647C227.496 188.549 228.406 188 229.597 188C231.593 188 232.592 189.222 232.592 191.666V205.853H252.816V191.719C252.816 190.727 252.378 190.037 251.502 189.647C252.133 188.549 253.043 188 254.234 188C256.195 188 257.176 189.222 257.176 191.666ZM276.299 222.962H286.91C288.906 222.962 290.394 222.218 291.375 220.73C291.83 220.907 292.198 221.226 292.478 221.687C292.758 222.112 292.898 222.554 292.898 223.015C292.898 225.353 290.972 226.522 287.12 226.522H276.088C273.392 226.522 271.396 225.973 270.1 224.875C268.804 223.777 268.156 221.988 268.156 219.508V192.463C268.156 191.401 267.719 190.692 266.843 190.338C267.684 189.063 269.084 188.425 271.046 188.425H287.645C291.147 188.425 292.898 189.346 292.898 191.188C292.898 192.286 292.39 193.012 291.375 193.366C290.394 192.481 288.906 192.038 286.91 192.038H272.569V205.003H283.653C285.579 205.003 286.945 205.162 287.75 205.481C288.556 205.8 288.958 206.42 288.958 207.341C288.958 208.262 288.538 208.935 287.698 209.36C286.752 208.864 285.264 208.616 283.233 208.616H272.569V219.349C272.569 220.624 272.849 221.545 273.409 222.112C274.005 222.678 274.968 222.962 276.299 222.962ZM301.705 223.281V191.719C301.705 190.692 301.267 190.001 300.392 189.647C301.162 188.549 302.108 188 303.228 188C304.384 188 305.329 188.283 306.065 188.85C306.835 189.417 307.606 190.32 308.376 191.56L326.394 220.358V191.719C326.394 190.727 325.956 190.037 325.081 189.647C325.781 188.549 326.709 188 327.865 188C329.826 188 330.807 189.222 330.807 191.666V223.228C330.807 224.219 331.209 224.946 332.015 225.406C331.349 226.469 330.456 227 329.336 227C328.215 227 327.217 226.646 326.342 225.937C325.501 225.229 324.573 224.095 323.557 222.537L306.065 195.12V223.228C306.065 224.219 306.503 224.91 307.378 225.3C306.678 226.433 305.767 227 304.647 227C302.685 227 301.705 225.76 301.705 223.281ZM342.026 223.281V191.719C342.026 190.692 341.588 190.001 340.713 189.647C341.483 188.549 342.429 188 343.55 188C344.705 188 345.651 188.283 346.386 188.85C347.157 189.417 347.927 190.32 348.698 191.56L366.715 220.358V191.719C366.715 190.727 366.278 190.037 365.402 189.647C366.103 188.549 367.031 188 368.186 188C370.147 188 371.128 189.222 371.128 191.666V223.228C371.128 224.219 371.531 224.946 372.336 225.406C371.671 226.469 370.778 227 369.657 227C368.537 227 367.538 226.646 366.663 225.937C365.822 225.229 364.894 224.095 363.879 222.537L346.386 195.12V223.228C346.386 224.219 346.824 224.91 347.699 225.3C346.999 226.433 346.089 227 344.968 227C343.007 227 342.026 225.76 342.026 223.281ZM387.18 214.301H399.84L393.957 195.651L387.18 214.301ZM409.296 225.619C408.735 226.54 407.912 227 406.827 227C405.776 227 404.988 226.77 404.463 226.309C403.938 225.849 403.482 225.016 403.097 223.812L400.943 217.542H385.972L383.766 223.334C382.855 225.778 381.7 227 380.299 227C379.108 227 378.285 226.398 377.83 225.193C378.635 224.875 379.266 224.042 379.721 222.696L392.066 191.188C391.68 190.232 391.243 189.523 390.752 189.063C391.558 188.354 392.381 188 393.221 188C394.097 188 394.762 188.266 395.218 188.797C395.708 189.328 396.163 190.178 396.583 191.347L407.299 222.909C407.79 224.361 408.455 225.264 409.296 225.619ZM419.679 191.666V223.228C419.679 224.219 420.099 224.91 420.94 225.3C420.239 226.433 419.311 227 418.156 227C416.23 227 415.267 225.76 415.267 223.281V191.719C415.267 190.727 414.829 190.037 413.953 189.647C414.584 188.549 415.494 188 416.685 188C418.681 188 419.679 189.222 419.679 191.666ZM466.104 220.89C466.839 221.492 467.207 222.271 467.207 223.228C467.207 224.148 466.717 224.928 465.736 225.565C464.79 226.203 463.407 226.522 461.586 226.522H445.354C444.234 226.522 443.393 226.238 442.833 225.672C442.307 225.105 442.045 224.414 442.045 223.599C442.045 223.493 442.045 223.387 442.045 223.281C448.208 218.144 452.778 213.663 455.755 209.838C458.767 206.012 460.273 202.417 460.273 199.052C460.273 196.501 459.607 194.535 458.277 193.154C456.946 191.737 455.335 191.029 453.444 191.029C451.553 191.029 449.942 191.542 448.611 192.569C447.28 193.597 446.615 194.854 446.615 196.342C446.615 197.794 447.123 198.946 448.138 199.796C447.403 200.469 446.545 200.805 445.564 200.805C444.584 200.805 443.743 200.433 443.043 199.689C442.342 198.91 441.992 197.918 441.992 196.714C441.992 194.234 443.095 192.162 445.302 190.497C447.543 188.832 450.327 188 453.654 188C456.981 188 459.695 189.045 461.796 191.135C463.897 193.225 464.948 196.023 464.948 199.53C464.948 203.037 463.495 206.597 460.588 210.21C457.716 213.823 453.234 218.074 447.14 222.962L460.798 222.431C463.214 222.395 464.983 221.881 466.104 220.89ZM486.65 227C482.553 227 479.173 225.158 476.512 221.474C473.885 217.755 472.572 213.026 472.572 207.287C472.572 201.549 473.885 196.909 476.512 193.366C479.138 189.789 482.535 188 486.703 188C490.87 188 494.249 189.789 496.841 193.366C499.432 196.909 500.728 201.549 500.728 207.287C500.728 213.026 499.415 217.755 496.788 221.474C494.162 225.158 490.782 227 486.65 227ZM496.053 206.65C495.913 201.797 494.862 198.024 492.901 195.332C490.975 192.605 488.734 191.241 486.177 191.241C483.621 191.241 481.485 192.764 479.769 195.811C478.088 198.857 477.247 202.523 477.247 206.809C477.247 212.371 478.245 216.568 480.241 219.402C482.272 222.236 484.566 223.653 487.123 223.653C489.679 223.653 491.815 222.147 493.531 219.136C495.247 216.09 496.105 212.441 496.105 208.191C496.105 207.695 496.088 207.181 496.053 206.65ZM530.74 220.89C531.476 221.492 531.844 222.271 531.844 223.228C531.844 224.148 531.353 224.928 530.373 225.565C529.427 226.203 528.044 226.522 526.223 226.522H509.991C508.87 226.522 508.03 226.238 507.47 225.672C506.944 225.105 506.682 224.414 506.682 223.599C506.682 223.493 506.682 223.387 506.682 223.281C512.845 218.144 517.415 213.663 520.392 209.838C523.404 206.012 524.91 202.417 524.91 199.052C524.91 196.501 524.244 194.535 522.913 193.154C521.583 191.737 519.972 191.029 518.081 191.029C516.19 191.029 514.579 191.542 513.248 192.569C511.917 193.597 511.252 194.854 511.252 196.342C511.252 197.794 511.759 198.946 512.775 199.796C512.04 200.469 511.182 200.805 510.201 200.805C509.221 200.805 508.38 200.433 507.68 199.689C506.979 198.91 506.629 197.918 506.629 196.714C506.629 194.234 507.732 192.162 509.938 190.497C512.18 188.832 514.964 188 518.291 188C521.618 188 524.332 189.045 526.433 191.135C528.534 193.225 529.585 196.023 529.585 199.53C529.585 203.037 528.131 206.597 525.225 210.21C522.353 213.823 517.871 218.074 511.777 222.962L525.435 222.431C527.851 222.395 529.62 221.881 530.74 220.89ZM541.937 214.301H553.126V194.482C553.126 193.916 552.916 193.632 552.496 193.632C551.83 193.632 550.517 194.872 548.556 197.352C546.595 199.831 544.739 202.665 542.988 205.853C541.272 209.041 540.414 211.45 540.414 213.079C540.414 213.894 540.922 214.301 541.937 214.301ZM557.486 214.301H559.745C561.496 214.301 562.722 213.982 563.422 213.345C563.807 213.805 564 214.407 564 215.151C564 215.895 563.562 216.497 562.687 216.958C561.811 217.418 560.638 217.648 559.167 217.648H557.486V223.228C557.486 224.219 557.924 224.91 558.8 225.3C558.169 226.433 557.259 227 556.068 227C554.107 227 553.126 225.76 553.126 223.281V217.648H541.254C538.418 217.648 536.999 216.462 536.999 214.089C536.999 212.317 537.665 209.944 538.996 206.969C540.361 203.958 541.972 201.071 543.828 198.308C545.684 195.509 547.663 193.101 549.764 191.082C551.901 189.027 553.652 188 555.017 188C556.663 188 557.486 189.116 557.486 191.347V214.301Z" fill="white"/>
</g>
<defs>
<clipPath id="clip0_548_11207">
<rect width="1104" height="408" rx="10" fill="white"/>
</clipPath>
<clipPath id="clip1_548_11207">
<rect width="444" height="708" fill="white" transform="translate(687 -14)"/>
</clipPath>
</defs>
</svg>
